<?xml version="1.0" encoding="UTF-8"?>
<svg width="225px" height="200px" viewBox="0 0 225 200" version="1.1" xmlns="http://www.w3.org/2000/svg" xmlns:xlink="http://www.w3.org/1999/xlink">
    <!-- Generator: Sketch 63.1 (92452) - https://sketch.com -->
    <title>Group 5</title>
    <desc>Created with Sketch.</desc>
    <g id="Page-1" stroke="none" stroke-width="1" fill="none" fill-rule="evenodd">
        <g id="Group-5" transform="translate(-0.000000, -0.000000)">
            <path d="M193.559313,91.079044 C194.656313,90.188044 195.187313,89.042044 195.727313,87.900044 C197.391313,84.383044 198.443313,80.712044 198.958313,76.837044 C199.503313,72.725044 200.382313,68.657044 201.039313,64.558044 C201.921313,59.058044 203.010313,53.567044 203.032313,47.978044 C203.053313,42.409044 202.970313,36.830044 202.619313,31.274044 C202.423313,28.180044 201.849313,25.059044 200.329313,22.239044 C199.143313,20.041044 198.939313,19.898044 196.523313,20.642044 C193.723313,21.505044 190.904313,22.349044 188.194313,23.447044 C185.614313,24.493044 183.043313,24.432044 180.415313,24.019044 C179.064313,23.807044 177.735313,23.463044 176.394313,23.191044 C174.422313,22.790044 172.780313,21.791044 171.254313,20.511044 C168.910313,18.546044 168.639313,16.517044 169.889313,13.665044 C171.331313,10.376044 173.629313,7.57404398 176.688313,5.56004398 C181.470313,2.41304398 186.705313,0.533043983 192.450313,0.125043983 C196.084313,-0.132956017 199.672313,-0.052956017 203.210313,0.954043983 C207.364313,2.13504398 211.094313,4.15304398 214.444313,6.81804398 C217.344313,9.12404398 218.894313,12.384044 219.814313,15.885044 C221.304313,21.555044 222.834313,27.236044 223.314313,33.103044 C223.684313,37.583044 223.864313,42.080044 224.044313,46.573044 C224.314313,53.568044 224.084313,60.556044 223.534313,67.531044 C223.134313,72.647044 222.654313,77.757044 222.234313,82.871044 C221.954313,86.232044 221.634313,89.593044 221.474313,92.960044 C221.074313,101.576044 220.024313,110.090044 218.004313,118.487044 C216.764313,123.636044 216.274313,128.900044 216.144313,134.188044 C215.854313,145.430044 215.664313,156.675044 215.334313,167.915044 C215.254313,170.588044 214.804313,173.258044 214.404313,175.911044 C213.784313,180.065044 213.104313,184.212044 212.354313,188.345044 C212.124313,189.579044 211.614313,190.767044 211.174313,191.952044 C210.784313,192.985044 209.994313,193.614044 208.904313,193.843044 C205.946313,194.466044 202.995313,195.154044 200.014313,195.676044 C197.220313,196.165044 196.375313,195.488044 196.036313,192.651044 C195.910313,191.591044 195.896313,190.493044 196.020313,189.434044 C196.361313,186.517044 197.037313,183.674044 197.962313,180.874044 C199.344313,176.688044 200.118313,172.357044 200.748313,168.000044 C201.435313,163.245044 201.621313,158.460044 201.512313,153.665044 C201.443313,150.658044 200.372313,147.218044 198.859313,144.906044 C198.331313,145.105044 197.710313,145.240044 197.201313,145.555044 C196.289313,146.118044 195.357313,146.700044 194.585313,147.433044 C190.921313,150.914044 186.466313,152.996044 181.822313,154.743044 C177.337313,156.431044 172.930313,158.282044 168.588313,160.318044 C162.888313,162.991044 157.604313,166.291044 152.596313,170.076044 C150.022313,172.021044 147.374313,173.870044 144.830313,175.853044 C140.079313,179.560044 135.445313,183.412044 132.187313,188.593044 C131.098313,190.323044 130.184313,192.167044 129.263313,193.996044 C127.642313,197.217044 127.536313,197.278044 123.950313,197.669044 C122.846313,197.789044 121.762313,198.143044 120.684313,198.446044 C119.227313,198.854044 117.797313,199.366044 116.333313,199.745044 C114.411313,200.242044 113.307313,199.419044 113.217313,197.408044 C113.130313,195.476044 113.648313,193.633044 114.274313,191.825044 C114.449313,191.319044 114.665313,190.822044 114.911313,190.345044 C117.358313,185.600044 119.218313,180.607044 121.186313,175.658044 C122.928313,171.278044 125.339313,167.252044 128.015313,163.382044 C128.960313,162.016044 129.961313,160.682044 130.816313,159.261044 C131.169313,158.673044 131.370313,157.888044 131.346313,157.203044 C131.304313,155.989044 130.610313,155.334044 129.387313,155.270044 C126.750313,155.135044 124.111313,155.021044 121.471313,155.011044 C119.817313,155.005044 118.154313,155.146044 116.507313,155.330044 C115.396313,155.455044 114.306313,155.773044 113.205313,155.997044 C110.384313,156.573044 107.557313,157.124044 104.740313,157.722044 C101.681313,158.371044 98.6543133,159.199044 95.5733133,159.702044 C91.0903133,160.434044 86.5713133,160.954044 82.0663133,161.550044 C74.2443133,162.585044 66.3863133,162.944044 58.5063133,162.627044 C51.3363133,162.338044 44.3573133,161.064044 37.5493133,158.694044 C31.4343133,156.565044 25.5483133,153.982044 19.8643133,150.903044 C14.2503133,147.862044 9.94831332,143.589044 6.91131332,137.922044 C3.69731332,131.922044 1.79031332,125.580044 1.09231332,118.843044 C0.74431332,115.489044 0.34031332,112.139044 0.0893133199,108.778044 C-0.50068668,100.865044 1.82831332,93.902044 7.19931332,88.036044 C9.07831332,85.983044 11.0973133,84.052044 13.1413133,82.160044 C13.8973133,81.460044 14.8663133,80.946044 15.8123133,80.508044 C16.9793133,79.970044 18.3763133,80.955044 18.3303133,82.312044 C18.2823133,83.717044 18.2133133,85.154044 17.4663133,86.430044 C16.8973133,87.399044 16.3723133,88.396044 15.7623133,89.339044 C14.1653133,91.805044 13.5133133,94.438044 13.7373133,97.409044 C14.2733133,104.547044 15.3773133,111.586044 17.2263133,118.491044 C17.9313133,121.124044 18.8833133,123.715044 19.9893133,126.206044 C20.6893133,127.784044 21.8533133,129.163044 22.8723133,130.586044 C23.1413133,130.962044 23.6143133,131.222044 24.0393133,131.451044 C26.7553133,132.910044 29.4983133,134.302044 32.5893133,134.822044 C33.0083133,134.892044 33.4073133,135.133044 33.7943133,135.334044 C36.6313133,136.811044 39.6393133,137.472044 42.8403133,137.398044 C51.5963133,137.199044 60.1703133,135.902044 68.4543133,133.014044 C73.5063133,131.253044 78.1003133,128.536044 82.7393133,125.903044 C92.2343133,120.512044 101.183313,114.292044 110.198313,108.163044 C113.349313,106.019044 116.619313,104.050044 119.806313,101.956044 C122.666313,100.079044 125.553313,98.232044 128.308313,96.208044 C134.338313,91.780044 140.883313,88.592044 148.237313,86.975044 C154.982313,85.491044 161.766313,84.333044 168.647313,83.847044 C173.212313,83.524044 177.721313,84.151044 182.137313,85.371044 C182.985313,85.605044 183.818313,85.891044 184.669313,86.115044 C187.363313,86.824044 189.744313,88.127044 191.907313,89.861044 C192.433313,90.283044 192.993313,90.663044 193.559313,91.079044" id="Fill-741" fill="#96B5DA"></path>
            <path d="M174.893313,196.184044 C174.306313,196.184044 173.720313,196.167044 173.134313,196.186044 C169.347313,196.313044 166.322313,193.380044 165.362313,190.347044 C164.667313,188.151044 164.141313,185.929044 163.878313,183.633044 C163.537313,180.673044 162.927313,177.738044 162.705313,174.772044 C162.151313,167.376044 163.320313,160.309044 166.607313,153.551044 C169.340313,147.931044 171.664313,142.112044 174.157313,136.377044 C175.501313,133.286044 176.749313,130.150044 178.178313,127.099044 C179.190313,124.936044 180.184313,122.687044 181.636313,120.828044 C183.469313,118.479044 185.941313,116.694044 189.183313,117.231044 C191.779313,117.660044 193.874313,119.105044 195.290313,121.405044 C197.084313,124.317044 197.505313,127.497044 197.270313,130.851044 C196.898313,136.158044 195.442313,141.088044 192.816313,145.743044 C190.295313,150.210044 187.970313,154.806044 186.429313,159.723044 C185.629313,162.278044 185.065313,164.916044 184.539313,167.545044 C183.973313,170.371044 183.550313,173.225044 183.115313,176.075044 C182.700313,178.802044 182.878313,181.533044 183.116313,184.268044 C183.343313,186.860044 183.248313,189.454044 182.543313,191.979044 C181.657313,195.151044 180.053313,196.324044 176.800313,196.280044 C176.165313,196.272044 175.529313,196.279044 174.893313,196.279044 C174.893313,196.247044 174.893313,196.216044 174.893313,196.184044" id="Fill-742" fill="#E9ABBA"></path>
            <path d="M113.862313,155.067044 C112.343313,155.676044 110.954313,156.267044 109.537313,156.782044 C109.004313,156.975044 108.407313,156.998044 107.837313,157.082044 C107.310313,157.160044 106.774313,157.184044 106.252313,157.286044 C104.252313,157.675044 102.257313,158.087044 100.309313,158.480044 C100.182313,158.321044 100.093313,158.254044 100.065313,158.168044 C98.2683133,152.507044 95.3683133,147.330044 92.9023133,141.966044 C90.5503133,136.851044 88.3133133,131.708044 87.2413133,126.142044 C87.1033133,125.427044 86.9843133,124.707044 86.8733133,124.085044 C91.3853133,121.122044 95.8123133,118.215044 100.302313,115.267044 C104.654313,128.576044 110.073313,141.510044 113.862313,155.067044" id="Fill-743" fill="#E9ABBA"></path>
            <path d="M67.1313133,162.271044 C65.0223133,153.690044 63.8413133,144.953044 62.6263133,136.114044 C68.1533133,134.448044 73.1603133,131.838044 78.1183133,129.093044 C79.1273133,134.360044 79.9523133,139.558044 81.1513133,144.667044 C82.3513133,149.787044 83.9253133,154.820044 85.3623133,159.986044 C84.3253133,160.504044 83.2283133,160.712044 82.1443133,160.898044 C79.3553133,161.376044 76.5553133,161.792044 73.7593133,162.227044 C73.5203133,162.265044 73.2653133,162.308044 73.0333133,162.263044 C71.2293133,161.920044 69.4343133,162.059044 67.6373133,162.323044 C67.5013133,162.343044 67.3543133,162.296044 67.1313133,162.271044" id="Fill-744" fill="#E9ABBA"></path>
            <path d="M31.2973133,154.777044 C32.4123133,148.480044 33.5233133,142.204044 34.6453133,135.871044 C36.2953133,135.821044 37.8443133,136.067044 39.2923133,136.605044 C42.6543133,137.856044 46.0433133,138.034044 49.5123133,137.222044 C49.5943133,137.204044 49.6933133,137.264044 49.7773133,137.286044 C50.2163133,144.622044 50.6553133,151.956044 51.0953133,159.292044 C46.7613133,159.774044 36.8953133,157.933044 31.2973133,154.777044" id="Fill-745" fill="#E9ABBA"></path>
            <path d="M197.483313,85.760044 C198.452313,81.730044 199.392313,77.815044 200.362313,73.781044 C203.188313,74.009044 205.920313,74.135044 208.624313,74.470044 C212.354313,74.932044 216.064313,75.546044 219.784313,76.109044 C220.364313,76.196044 220.944313,76.313044 221.494313,76.496044 C222.884313,76.955044 223.074313,77.289044 222.874313,78.760044 C222.554313,81.082044 222.234313,83.403044 221.914313,85.725044 C221.894313,85.870044 221.874313,86.015044 221.854313,86.161044 C221.664313,87.954044 221.204313,88.495044 219.464313,88.943044 C218.154313,89.280044 216.804313,89.314044 215.554313,88.886044 C213.144313,88.062044 210.644313,88.149044 208.194313,87.816044 C205.098313,87.396044 202.029313,86.805044 198.956313,86.258044 C198.444313,86.167044 197.960313,85.925044 197.483313,85.760044" id="Fill-746" fill="#E9ABBA"></path>
            <path d="M224.024313,67.254044 C216.604313,68.674044 209.164313,69.470044 201.641313,69.961044 C202.320313,64.895044 202.970313,60.049044 203.636313,55.075044 C204.177313,55.048044 204.751313,55.002044 205.326313,54.995044 C209.184313,54.950044 213.044313,54.871044 216.904313,54.892044 C218.924313,54.904044 220.894313,54.717044 222.834313,54.168044 C223.434313,53.999044 224.064313,53.932044 224.914313,53.772044 C224.684313,58.339044 224.644313,62.755044 224.024313,67.254044" id="Fill-747" fill="#E9ABBA"></path>
            <path d="M221.884313,24.259044 C221.154313,24.615044 220.524313,24.995044 219.854313,25.237044 C214.214313,27.258044 208.564313,29.255044 202.810313,31.297044 C202.134313,27.831044 201.483313,24.496044 200.814313,21.065044 C201.173313,20.876044 201.547313,20.666044 201.930313,20.478044 C206.272313,18.352044 210.604313,16.217044 214.964313,14.119044 C215.704313,13.765044 216.504313,13.515044 217.304313,13.338044 C217.614313,13.269044 218.184313,13.426044 218.324313,13.664044 C219.054313,14.890044 220.054313,15.903044 220.184313,17.534044 C220.334313,19.351044 221.024313,21.126044 221.484313,22.917044 C221.584313,23.332044 221.724313,23.738044 221.884313,24.259044" id="Fill-748" fill="#E9ABBA"></path>
            <path d="M18.7173133,125.806044 C19.9093133,126.922044 21.0143133,127.952044 22.1123133,128.990044 C22.2873133,129.156044 22.4343133,129.355044 22.5823133,129.548044 C23.2853133,130.462044 23.9843133,131.379044 24.8503133,132.513044 C24.7993133,132.681044 24.6873133,133.148044 24.5133133,133.590044 C22.6043133,138.457044 20.6983133,143.327044 18.7543133,148.180044 C18.4923133,148.834044 18.0233133,149.405044 17.5803133,150.131044 C13.6433133,147.152044 10.3623133,143.774044 7.13831332,140.132044 C11.6643133,135.878044 14.4913133,130.278044 18.7173133,125.806044" id="Fill-749" fill="#E9ABBA"></path>
            <path d="M224.334313,44.969044 C222.404313,45.277044 220.624313,45.531044 218.854313,45.850044 C214.974313,46.552044 211.094313,47.301044 207.214313,47.996044 C206.170313,48.182044 205.105313,48.239044 203.825313,48.381044 C203.730313,45.045044 203.641313,41.903044 203.547313,38.581044 C209.874313,37.077044 216.304313,36.174044 222.514313,33.637044 C223.284313,37.462044 223.884313,41.087044 224.334313,44.969044" id="Fill-750" fill="#E9ABBA"></path>
            <path d="M155.686313,107.922044 C156.461313,106.680044 157.195313,105.541044 157.890313,104.379044 C159.131313,102.309044 159.591313,100.026044 159.577313,97.647044 C159.572313,96.982044 159.440313,96.273044 159.180313,95.664044 C158.738313,94.628044 157.956313,94.568044 157.304313,95.476044 C157.026313,95.864044 156.844313,96.336044 156.691313,96.794044 C156.460313,97.487044 156.300313,98.204044 156.096313,98.907044 C155.609313,100.597044 155.425313,100.745044 153.690313,100.881044 C152.730313,100.957044 152.191313,100.726044 152.088313,99.817044 C151.897313,98.146044 150.709313,97.832044 149.432313,97.601044 C148.408313,97.416044 147.165313,98.145044 146.634313,99.113044 C146.107313,100.071044 146.591313,100.823044 147.165313,101.504044 C147.665313,102.097044 148.211313,102.683044 148.837313,103.134044 C151.047313,104.727044 153.299313,106.261044 155.686313,107.922044 Z M153.768313,96.460044 C153.883313,96.155044 154.002313,95.789044 154.154313,95.439044 C154.348313,94.993044 154.521313,94.527044 154.788313,94.126044 C155.668313,92.800044 156.813313,91.816044 158.512313,91.974044 C160.180313,92.128044 161.277313,93.180044 161.834313,94.695044 C162.165313,95.594044 162.406313,96.586044 162.403341,97.536044 C162.394313,100.297044 161.903313,102.983044 160.479313,105.403044 C159.664313,106.788044 158.832313,108.178044 157.856313,109.449044 C156.647313,111.025044 155.423313,111.104044 153.804313,109.964044 C152.649313,109.150044 151.459313,108.385044 150.307313,107.564044 C149.116313,106.716044 147.930313,105.858044 146.789313,104.945044 C146.183313,104.460044 145.636313,103.887044 145.136313,103.292044 C143.514313,101.361044 143.270313,99.415044 144.378313,97.645044 C145.663313,95.590044 148.013313,94.506044 150.269313,95.089044 C151.425313,95.388044 152.510313,95.956044 153.768313,96.460044 L153.768313,96.460044 Z" id="Fill-752" fill="#E6C446"></path>
            <path d="M134.211313,111.744044 C134.141313,110.129044 133.749313,108.590044 132.486313,107.421044 C131.572313,106.576044 130.650313,106.770044 130.154313,107.898044 C129.981313,108.290044 129.900313,108.736044 129.852313,109.166044 C129.783313,109.793044 129.809313,110.431044 129.747313,111.059044 C129.622313,112.309044 128.973313,112.748044 127.741313,112.452044 C126.939313,112.260044 126.227313,111.963044 125.565313,111.395044 C124.740313,110.688044 123.193313,111.063044 122.576313,111.954044 C122.168313,112.541044 122.405313,113.209044 123.531313,113.939044 C125.776313,115.396044 128.078313,116.764044 130.354313,118.172044 C131.005313,118.576044 131.505313,118.462044 131.989313,117.851044 C133.404313,116.068044 134.103313,114.038044 134.211313,111.744044 Z M126.902313,108.959044 C127.049313,108.386044 127.137313,107.910044 127.293313,107.458044 C127.847313,105.863044 128.728313,104.543044 130.515313,104.192044 C132.256313,103.850044 133.660313,104.513044 134.811313,105.814044 C136.051313,107.217044 136.752313,108.854044 136.897313,110.706044 C137.181313,114.309044 136.014313,117.434044 133.626313,120.102044 C132.498313,121.363044 131.275313,121.719044 129.812313,120.886044 C126.937313,119.249044 124.138313,117.469044 121.391313,115.624044 C120.720313,115.173044 120.276313,114.288044 119.898313,113.518044 C119.381313,112.464044 119.665313,111.414044 120.319313,110.480044 C121.531313,108.751044 124.004313,107.975044 126.043313,108.662044 C126.273313,108.739044 126.502313,108.821044 126.902313,108.959044 L126.902313,108.959044 Z" id="Fill-753" fill="#E6C446"></path>
            <path d="M131.734313,132.095044 C130.759313,132.793044 129.910313,133.403044 129.574313,134.516044 C128.889313,136.786044 128.804313,136.795044 126.524313,136.152044 C125.780313,135.942044 125.342313,135.620044 125.196313,134.822044 C125.032313,133.925044 124.727313,133.772044 123.894313,134.079044 C122.880313,134.453044 122.017313,135.048044 121.357313,135.884044 C122.269313,137.159044 126.926313,140.398044 129.382313,141.517044 C131.836313,139.253044 133.085313,134.485044 131.734313,132.095044 Z M127.141313,132.375044 C127.893313,131.674044 128.553313,131.027044 129.246313,130.419044 C131.454313,128.481044 133.983313,129.174044 134.836313,131.982044 C135.059313,132.718044 135.212313,133.528044 135.160313,134.288044 C134.924313,137.799044 133.796313,140.976044 131.329313,143.574044 C130.114313,144.852044 129.315313,144.910044 127.854313,143.952044 C125.892313,142.666044 123.893313,141.434044 121.976313,140.085044 C120.989313,139.391044 120.037313,138.582044 119.261313,137.664044 C118.170313,136.372044 118.216313,135.159044 119.442313,134.018044 C120.427313,133.101044 121.585313,132.326044 122.771313,131.679044 C124.065313,130.974044 125.418313,131.126044 126.641313,132.017044 C126.830313,132.154044 127.020313,132.288044 127.141313,132.375044 L127.141313,132.375044 Z" id="Fill-754" fill="#E6C446"></path>
            <path d="M150.373313,128.614044 C151.870313,127.208044 152.881313,125.450044 153.667313,123.561044 C154.020313,122.714044 154.249313,121.803044 154.418313,120.899044 C154.472313,120.604044 154.162313,120.241044 154.018313,119.908044 C153.694313,120.071044 153.262313,120.152044 153.068313,120.412044 C152.633313,120.992044 152.330313,121.670044 151.945313,122.291044 C151.535313,122.954044 151.164313,123.545044 151.376313,124.445044 C151.583313,125.321044 150.737313,126.175044 149.866313,126.253044 C148.814313,126.347044 147.456313,125.266044 147.269313,124.187044 C147.066313,123.002044 146.331313,122.389044 145.164313,122.507044 C144.765313,122.547044 144.382313,122.741044 143.988313,122.866044 C144.692313,124.716044 147.792313,127.126044 150.373313,128.614044 Z M149.141313,121.532044 C149.692313,120.590044 150.156313,119.793044 150.624313,118.998044 C151.196313,118.027044 151.982313,117.353044 153.134313,117.163044 C155.458313,116.779044 157.260313,118.218044 157.181313,120.571044 C157.144313,121.671044 156.852313,122.792044 156.507313,123.848044 C155.801313,126.006044 154.580313,127.900044 153.162313,129.658044 C152.770313,130.143044 152.280313,130.581044 151.758313,130.923044 C150.879313,131.499044 149.885313,131.591044 148.985313,131.011044 C146.395313,129.339044 143.855313,127.597044 142.035313,125.026044 C141.923313,124.867044 141.808313,124.707044 141.705313,124.542044 C140.526313,122.657044 140.910313,121.341044 142.905313,120.407044 C145.147313,119.356044 147.173313,119.713044 149.141313,121.532044 L149.141313,121.532044 Z" id="Fill-755" fill="#E6C446"></path>
            <path d="M171.363313,96.786044 C171.465313,99.316044 173.270313,101.452044 177.169313,103.838044 C178.012313,102.979044 178.927313,102.116044 179.759313,101.178044 C180.520313,100.319044 180.941313,99.280044 181.016313,98.117044 C181.059313,97.453044 180.994313,96.818044 180.380313,96.431044 C179.728313,96.020044 179.101313,96.323044 178.639313,96.752044 C178.080313,97.272044 177.599313,97.897044 177.168313,98.534044 C176.347313,99.746044 175.660313,99.826044 174.586313,98.865044 C173.889313,98.242044 172.973313,97.896044 172.421313,97.060044 C172.277313,96.843044 171.754313,96.877044 171.363313,96.786044 Z M175.239313,95.968044 C176.009313,95.350044 176.679313,94.697044 177.456313,94.212044 C178.859313,93.334044 180.346313,93.005044 181.841313,94.047044 C183.335313,95.089044 183.992313,96.539044 183.793313,98.342044 C183.618313,99.922044 183.071313,101.374044 182.091313,102.642044 C181.039313,104.002044 179.844313,105.205044 178.381313,106.136044 C177.352313,106.790044 176.323313,106.815044 175.388313,106.067044 C173.869313,104.849044 172.335313,103.630044 170.949313,102.267044 C169.517313,100.859044 168.892313,98.973044 168.490313,97.042044 C168.262313,95.947044 168.694313,95.136044 169.685313,94.617044 C171.217313,93.816044 172.701313,93.967044 174.095313,94.959044 C174.488313,95.239044 174.825313,95.599044 175.239313,95.968044 L175.239313,95.968044 Z" id="Fill-756" fill="#E6C446"></path>
            <path d="M204.834313,191.611044 C205.479313,190.892044 205.988313,190.234044 206.590313,189.676044 C207.694313,188.649044 209.074313,188.514044 210.374313,189.220044 C211.294313,189.718044 211.684313,190.514044 211.364313,191.242044 C211.034313,192.003044 210.374313,192.150044 209.254313,191.713044 C209.074313,191.644044 208.894313,191.589044 208.574313,191.481044 C208.184313,191.935044 207.774313,192.404044 207.364313,192.868044 C206.881313,193.413044 206.454313,194.032044 205.892313,194.481044 C204.848313,195.314044 203.750313,195.078044 203.017313,193.962044 C202.884313,193.759044 202.796313,193.526044 202.672313,193.317044 C201.725313,191.732044 200.338313,191.563044 199.086313,192.916044 C198.727313,193.305044 198.493313,193.807044 198.177313,194.238044 C197.671313,194.926044 197.015313,195.120044 196.411313,194.787044 C195.814313,194.458044 195.596313,193.780044 195.916313,193.003044 C197.108313,190.105044 201.099313,187.409044 204.469313,191.169044 C204.566313,191.278044 204.655313,191.394044 204.834313,191.611044" id="Fill-758" fill="#000000"></path>
            <path d="M119.328313,195.514044 C120.460313,194.187044 121.768313,193.474044 123.491313,193.736044 C124.660313,193.914044 125.433313,194.606044 125.964313,195.592044 C126.310313,196.236044 126.157313,196.933044 125.681313,197.326044 C125.150313,197.765044 124.487313,197.690044 123.845313,197.121044 C122.713313,196.116044 122.205313,196.170044 121.310313,197.402044 C121.138313,197.638044 121.014313,197.911044 120.831313,198.136044 C120.227313,198.878044 119.303313,199.034044 118.480313,198.535044 C118.274313,198.410044 118.094313,198.238044 117.915313,198.075044 C116.488313,196.773044 116.373313,196.796044 115.495313,198.577044 C115.058313,199.464044 114.471313,199.793044 113.788313,199.534044 C113.115313,199.279044 112.812313,198.559044 113.017313,197.700044 C113.735313,194.693044 116.380313,193.635044 118.958313,195.323044 C119.036313,195.374044 119.125313,195.410044 119.328313,195.514044" id="Fill-759" fill="#000000"></path>
            <path d="M186.293313,15.340044 C183.489313,15.389044 181.796313,14.355044 180.244313,13.034044 C179.680313,12.553044 179.602313,11.835044 179.934313,11.320044 C180.308313,10.739044 181.012313,10.586044 181.744313,10.981044 C182.171313,11.211044 182.553313,11.526044 182.962313,11.791044 C185.023313,13.132044 187.777313,12.905044 189.600313,11.246044 C189.780313,11.082044 189.928313,10.879044 190.118313,10.729044 C190.713313,10.263044 191.360313,10.257044 191.848313,10.691044 C192.344313,11.130044 192.484313,11.798044 192.046313,12.413044 C191.657313,12.958044 191.176313,13.496044 190.616313,13.849044 C189.106313,14.800044 187.421313,15.273044 186.293313,15.340044" id="Fill-760" fill="#E9ABBA"></path>
            <path d="M167.855313,190.979044 C169.851313,189.708044 171.606313,189.957044 173.152313,191.781044 C174.888313,190.103044 176.677313,189.948044 178.462313,191.525044 C179.113313,191.163044 179.697313,190.816044 180.302313,190.510044 C181.363313,189.970044 182.291313,190.313044 183.146313,191.001044 C183.674313,191.424044 183.821313,191.974044 183.511313,192.567044 C183.226313,193.110044 182.715313,193.231044 182.127313,193.126044 C180.620313,192.858044 180.620313,192.864044 180.023313,194.272044 C179.909313,194.541044 179.814313,194.829044 179.650313,195.065044 C179.005313,195.992044 177.970313,195.942044 177.420313,194.942044 C177.162313,194.475044 177.051313,193.925044 176.780313,193.468044 C176.336313,192.719044 175.644313,192.704044 175.151313,193.413044 C174.931313,193.730044 174.772313,194.098044 174.635313,194.462044 C174.373313,195.154044 173.948313,195.703044 173.184313,195.734044 C172.372313,195.768044 172.029313,195.148044 171.768313,194.468044 C171.595313,194.015044 171.406313,193.546044 171.118313,193.164044 C170.482313,192.321044 169.642313,192.388044 169.172313,193.351044 C168.871313,193.969044 168.599313,194.493044 167.810313,194.425044 C166.950313,194.352044 166.141313,194.149044 165.752313,193.270044 C165.496313,192.692044 165.299313,192.085044 165.113313,191.479044 C163.767313,187.098044 163.307313,182.574044 163.144313,178.028044 C162.969313,173.147044 162.892313,168.258044 162.934313,163.373044 C162.964313,159.947044 163.508313,156.558044 164.468313,153.257044 C165.493313,149.733044 166.824313,146.327044 168.459313,143.034044 C170.632313,138.658044 172.651313,134.205044 174.883313,129.860044 C177.013313,125.712044 179.571313,121.832044 183.230313,118.830044 C184.243313,117.999044 185.394313,117.337044 186.495313,116.619044 C186.735313,116.462044 187.024313,116.360044 187.304313,116.290044 C187.937313,116.131044 188.495313,116.259044 188.774313,116.908044 C189.021313,117.484044 188.786313,117.955044 188.311313,118.315044 C188.156313,118.433044 187.987313,118.536044 187.811313,118.620044 C185.144313,119.905044 183.112313,121.940044 181.334313,124.232044 C179.504313,126.591044 177.895313,129.101044 176.607313,131.806044 C174.340313,136.570044 172.038313,141.318044 169.793313,146.093044 C167.379313,151.227044 165.853313,156.627044 165.528313,162.294044 C165.335313,165.656044 165.388313,169.041044 165.518313,172.409044 C165.669313,176.263044 165.939313,180.118044 166.329313,183.955044 C166.546313,186.082044 167.109313,188.174044 167.531313,190.278044 C167.577313,190.505044 167.728313,190.710044 167.855313,190.979044" id="Fill-761" fill="#000000"></path>
            <path d="M80.2773133,127.872044 C80.9303133,127.446044 81.5403133,127.047044 82.2533133,126.582044 C83.5553133,127.688044 84.6813133,128.942044 85.3883133,130.526044 C85.9273133,131.731044 85.7313133,132.921044 85.1023133,134.040044 C84.5763133,134.977044 83.9593133,135.864044 83.4703133,136.818044 C82.7873133,138.148044 82.9223133,138.457044 84.2893133,139.014044 C85.2383133,139.400044 86.2183133,139.712044 87.1583133,140.117044 C90.1583133,141.411044 90.9203133,143.332044 89.6593133,146.374044 C89.4163133,146.960044 89.1043133,147.517044 88.8583133,148.102044 C88.6313133,148.641044 88.3873133,149.185044 88.2623133,149.751044 C87.9233133,151.281044 88.1533133,151.657044 89.6643133,151.996044 C90.8013133,152.250044 91.7953133,152.713044 92.5203133,153.643044 C93.4163133,154.794044 93.7883133,156.076044 93.2433133,157.486044 C92.8043133,158.620044 92.2863133,159.723044 91.7843133,160.886044 C90.9213133,160.886044 90.1113133,160.886044 89.1203133,160.886044 C89.3353133,160.261044 89.4953133,159.716044 89.7113133,159.193044 C89.9713133,158.561044 90.2963133,157.956044 90.5643133,157.328044 C91.2123133,155.803044 90.7653133,154.910044 89.1603133,154.487044 C89.0663133,154.462044 88.9663133,154.461044 88.8713133,154.438044 C86.1603133,153.803044 85.1163133,152.227044 85.7373133,149.496044 C85.9713133,148.460044 86.4023133,147.454044 86.8513133,146.485044 C88.2513133,143.474044 88.1143133,143.104044 84.9723133,141.913044 C84.1523133,141.602044 83.3103133,141.325044 82.5303133,140.931044 C80.7513133,140.032044 80.1503133,138.669044 80.8463133,136.800044 C81.2663133,135.671044 81.9363133,134.627044 82.5533133,133.580044 C83.4683133,132.030044 83.5083133,131.695044 82.4233133,130.298044 C81.7723133,129.460044 81.0183133,128.703044 80.2773133,127.872044" id="Fill-762" fill="#000000"></path>
            <path d="M58.0973133,160.331044 C59.0053133,160.825044 59.7413133,161.197044 60.4483133,161.617044 C61.1443133,162.031044 61.8103133,162.493044 62.4903133,162.934044 C62.4623133,163.031044 62.4343133,163.127044 62.4063133,163.225044 C60.9293133,163.160044 59.4363133,163.211044 57.9813133,163.001044 C56.2493133,162.751044 55.2603133,161.203044 55.7793133,159.521044 C56.1483133,158.329044 56.8083133,157.219044 57.4073133,156.108044 C57.7753133,155.424044 58.2863133,154.819044 58.7033133,154.160044 C59.1063133,153.523044 58.9983133,152.951044 58.3833133,152.498044 C57.8713133,152.122044 57.3523133,151.758044 56.8403133,151.383044 C56.3283133,151.007044 55.7923133,150.658044 55.3193133,150.239044 C53.9133133,148.994044 53.5613133,147.601044 54.3353133,145.892044 C54.7123133,145.061044 55.2943133,144.314044 55.8343133,143.566044 C56.2903133,142.934044 56.8643133,142.386044 57.3083133,141.746044 C58.1713133,140.504044 58.1083133,139.703044 57.0743133,138.608044 C56.5453133,138.049044 55.9403133,137.563044 55.2653133,136.950044 C55.8353133,136.845044 56.2923133,136.786044 56.7353133,136.670044 C57.1553133,136.560044 57.5583133,136.390044 57.9473133,136.253044 C60.6363133,138.151044 61.0943133,140.734044 59.1923133,143.337044 C58.5313133,144.242044 57.7363133,145.051044 57.0893133,145.966044 C56.1263133,147.327044 56.2483133,147.895044 57.5903133,148.879044 C58.2203133,149.341044 58.8873133,149.752044 59.5133133,150.219044 C61.8233133,151.940044 62.1083133,153.562044 60.5313133,156.001044 C60.0803133,156.698044 59.5383133,157.339044 59.1303133,158.059044 C58.7353133,158.756044 58.4593133,159.521044 58.0973133,160.331044" id="Fill-763" fill="#000000"></path>
            <path d="M179.763313,13.233044 C179.483313,12.834044 179.232313,12.533044 179.046313,12.196044 C178.730313,11.625044 178.733313,11.050044 179.283313,10.621044 C179.837313,10.189044 180.382313,10.348044 180.867313,10.786044 C181.696313,11.535044 182.503313,12.311044 183.352313,13.037044 C185.928313,15.240044 189.702313,14.465044 191.588313,12.131044 C191.711313,11.980044 191.804313,11.752044 191.963313,11.693044 C192.344313,11.550044 192.863313,11.290044 193.129313,11.437044 C193.479313,11.631044 193.771313,12.144044 193.846313,12.564044 C193.915313,12.950044 193.662313,13.392044 193.523313,13.913044 C193.775313,14.280044 194.112313,14.696044 194.365313,15.158044 C194.671313,15.714044 194.704313,16.304044 194.152313,16.743044 C193.601313,17.181044 193.049313,17.040044 192.575313,16.583044 C192.228313,16.248044 191.917313,15.876044 191.540313,15.467044 C190.906313,15.767044 190.303313,16.052044 189.639313,16.365044 C189.741313,16.964044 189.873313,17.527044 189.925313,18.099044 C190.005313,18.968044 189.604313,19.586044 188.964313,19.679044 C188.409313,19.759044 187.885313,19.319044 187.639313,18.562044 C187.595313,18.423044 187.574313,18.277044 187.535313,18.136044 C187.158313,16.787044 187.157313,16.787044 185.472313,16.783044 C185.286313,17.271044 185.102313,17.813044 184.876313,18.336044 C184.549313,19.087044 184.020313,19.387044 183.400313,19.185044 C182.714313,18.962044 182.546313,18.410044 182.646313,17.784044 C182.746313,17.163044 182.936313,16.557044 183.112313,15.840044 C182.658313,15.511044 182.196313,15.176044 181.678313,14.800044 C181.144313,15.359044 180.666313,15.908044 180.135313,16.401044 C179.543313,16.951044 178.907313,16.994044 178.428313,16.589044 C177.895313,16.139044 177.888313,15.489044 178.451313,14.774044 C178.868313,14.245044 179.324313,13.746044 179.763313,13.233044" id="Fill-764" fill="#000000"></path>
            <path d="M222.174313,87.878044 C222.174313,88.782044 222.174313,89.493044 222.174313,90.375044 C213.604313,88.756044 205.059313,87.933044 196.364313,87.262044 C196.445313,86.810044 196.491313,86.445044 196.580313,86.091044 C196.673313,85.722044 196.808313,85.364044 196.952313,84.919044 C205.433313,85.523044 213.824313,86.272044 222.174313,87.878044" id="Fill-765" fill="#000000"></path>
            <path d="M222.284313,73.886044 C222.334313,74.370044 222.384313,74.705044 222.384313,75.039044 C222.384313,75.420044 222.344313,75.802044 222.304313,76.350044 C214.484313,75.888044 206.760313,76.720044 198.833313,76.975044 C199.047313,76.119044 199.220313,75.425044 199.428313,74.592044 C207.053313,74.247044 214.624313,73.432044 222.284313,73.886044" id="Fill-766" fill="#000000"></path>
            <path d="M222.564313,68.267044 C215.144313,69.358044 207.784313,70.440044 200.196313,71.556044 C200.417313,70.595044 200.575313,69.903044 200.767313,69.065044 C208.004313,67.970044 215.224313,66.876044 222.564313,65.765044 C222.564313,66.640044 222.564313,67.389044 222.564313,68.267044" id="Fill-767" fill="#000000"></path>
            <path d="M25.9153133,153.659044 C24.9353133,153.113044 23.8583133,152.720044 23.0533133,152.016044 C21.8543133,150.967044 22.0763133,148.312044 23.3433133,147.232044 C23.8563133,146.795044 24.4703133,146.461044 25.0733133,146.149044 C25.7163133,145.817044 26.0123133,145.342044 25.9763133,144.626044 C25.9473133,144.041044 25.9833133,143.452044 25.9333133,142.869044 C25.8083133,141.394044 26.3663133,140.310044 27.6793133,139.610044 C28.0223133,139.427044 28.3483133,139.206044 28.6653133,138.979044 C29.6903133,138.244044 30.0543133,137.252044 29.7543133,136.028044 C29.5943133,135.376044 29.4093133,134.729044 29.1733133,133.846044 C30.1313133,134.121044 30.8963133,134.340044 31.6593133,134.559044 C32.8343133,136.816044 32.4133133,139.381044 30.2393133,140.753044 C28.6753133,141.739044 28.1853133,142.835044 28.3933133,144.560044 C28.6133133,146.375044 27.7193133,147.601044 26.0823133,148.406044 C24.6033133,149.134044 24.6083133,149.256044 25.1363133,150.793044 C25.4213133,151.623044 25.7183133,152.450044 25.9973133,153.281044 C26.0233133,153.356044 25.9623133,153.460044 25.9153133,153.659044" id="Fill-768" fill="#000000"></path>
            <path d="M203.114313,50.352044 C203.171313,49.556044 203.221313,48.848044 203.279313,48.036044 C210.374313,46.680044 217.424313,45.499044 224.734313,44.716044 C224.824313,45.521044 224.914313,46.258044 224.994313,46.999044 C217.654313,48.124044 210.464313,49.227044 203.114313,50.352044" id="Fill-769" fill="#000000"></path>
            <path d="M224.064313,52.451044 C223.794313,53.364044 223.594313,54.056044 223.344313,54.915044 C216.514313,55.304044 209.634313,55.695044 202.599313,56.095044 C202.649313,55.310044 202.693313,54.609044 202.743313,53.826044 C209.864313,53.037044 216.914313,52.932044 224.064313,52.451044" id="Fill-770" fill="#000000"></path>
            <path d="M203.878313,39.575044 C203.856313,39.166044 203.837313,38.927044 203.834313,38.687044 C203.828313,38.249044 203.832313,37.812044 203.832313,37.208044 C210.144313,35.494044 216.474313,33.966044 223.014313,32.531044 C223.244313,33.342044 223.444313,34.054044 223.654313,34.827044 C217.004313,36.423044 210.514313,37.981044 203.878313,39.575044" id="Fill-771" fill="#000000"></path>
            <path d="M203.361313,32.063044 C203.276313,31.141044 203.210313,30.429044 203.134313,29.599044 C209.124313,27.419044 215.024313,25.274044 221.094313,23.068044 C221.344313,23.932044 221.564313,24.649044 221.794313,25.431044 C215.644313,27.642044 209.614313,29.814044 203.361313,32.063044" id="Fill-772" fill="#000000"></path>
            <path d="M217.564313,11.592044 C217.914313,12.411044 218.194313,13.067044 218.544313,13.869044 C212.724313,16.558044 206.982313,19.209044 201.093313,21.930044 C200.868313,21.365044 200.608313,20.710044 200.277313,19.874044 C205.768313,16.686044 211.754313,14.566044 217.564313,11.592044" id="Fill-774" fill="#000000"></path>
            <path d="M121.443313,125.317044 C121.416313,125.998044 120.872313,126.542044 120.246313,126.514044 C119.579313,126.484044 118.980313,125.808044 119.029313,125.140044 C119.076313,124.497044 119.662313,124.004044 120.331313,124.045044 C121.000313,124.086044 121.471313,124.624044 121.443313,125.317044" id="Fill-777" fill="#000000"></path>
            <path d="M144.713313,110.642044 C145.418313,110.671044 146.014313,111.313044 145.945313,111.968044 C145.887313,112.528044 145.303313,113.026044 144.743313,112.994044 C144.057313,112.955044 143.454313,112.290044 143.515313,111.642044 C143.572313,111.045044 144.087313,110.615044 144.713313,110.642044" id="Fill-778" fill="#000000"></path>
            <path d="M112.629313,116.853044 C112.012313,116.881044 111.422313,116.345044 111.364313,115.702044 C111.304313,115.051044 111.700313,114.555044 112.327313,114.495044 C113.021313,114.427044 113.659313,114.990044 113.685313,115.692044 C113.707313,116.286044 113.215313,116.826044 112.629313,116.853044" id="Fill-779" fill="#000000"></path>
            <path d="M144.247313,131.886044 C144.881313,131.880044 145.439313,132.440044 145.452313,133.093044 C145.464313,133.725044 144.989313,134.208044 144.367313,134.199044 C143.727313,134.188044 143.143313,133.617044 143.139313,132.999044 C143.135313,132.403044 143.643313,131.892044 144.247313,131.886044" id="Fill-780" fill="#000000"></path>
            <path d="M166.487313,90.222044 C166.473313,90.836044 165.952313,91.346044 165.361313,91.323044 C164.737313,91.298044 164.189313,90.699044 164.203313,90.056044 C164.218313,89.417044 164.693313,88.956044 165.323313,88.971044 C165.962313,88.985044 166.502313,89.566044 166.487313,90.222044" id="Fill-781" fill="#000000"></path>
            <path d="M138.726313,97.707044 C138.706313,98.361044 138.110313,98.913044 137.469313,98.872044 C136.874313,98.835044 136.368313,98.263044 136.415313,97.683044 C136.463313,97.096044 136.984313,96.639044 137.617313,96.629044 C138.282313,96.619044 138.746313,97.070044 138.726313,97.707044" id="Fill-782" fill="#000000"></path>
            <path d="M168.861313,107.773044 C168.832313,108.361044 168.290313,108.850044 167.699313,108.822044 C167.111313,108.794044 166.609313,108.247044 166.640313,107.669044 C166.672313,107.081044 167.211313,106.598044 167.803313,106.627044 C168.399313,106.658044 168.890313,107.189044 168.861313,107.773044" id="Fill-783" fill="#000000"></path>
            <path d="M114.749313,132.525044 C114.182313,132.489044 113.753313,132.032044 113.774313,131.486044 C113.797313,130.899044 114.376313,130.403044 114.947313,130.482044 C115.488313,130.558044 115.877313,131.055044 115.831313,131.613044 C115.783313,132.181044 115.332313,132.562044 114.749313,132.525044" id="Fill-784" fill="#000000"></path>
        </g>
    </g>
</svg>