<?xml version="1.0" encoding="UTF-8"?>
<svg width="314px" height="208px" viewBox="0 0 314 208" version="1.1" xmlns="http://www.w3.org/2000/svg" xmlns:xlink="http://www.w3.org/1999/xlink">
    <!-- Generator: Sketch 63.1 (92452) - https://sketch.com -->
    <title>Group 4</title>
    <desc>Created with Sketch.</desc>
    <g id="Page-1" stroke="none" stroke-width="1" fill="none" fill-rule="evenodd">
        <g id="Group-4">
            <g id="Group-3">
                <path d="M21.8807917,59.7471602 C23.6107917,59.9851602 24.8707917,58.9501602 24.5007917,57.5781602 C24.4107917,57.2061602 24.0007917,56.8531602 23.6407917,56.6361602 C23.4507917,56.5211602 22.9307917,56.6111602 22.8007917,56.7851602 C22.1907917,57.6641602 21.4807917,58.5511602 21.8807917,59.7471602 Z M23.5307917,50.4451602 C26.2107917,50.6581602 28.5907917,51.9481602 29.9207917,54.7851602 C31.1807917,57.4811602 30.6107917,60.9531602 28.5607917,63.0731602 C26.1307917,65.5801602 23.2007917,66.4091602 19.8107917,65.4181602 C17.9507917,64.8751602 16.6507917,63.6521602 15.7007917,62.0231602 C15.1207917,61.0241602 15.1107917,59.9261602 15.3407917,58.8331602 C15.8007917,56.7101602 16.6907917,54.7711602 17.9707917,53.0231602 C19.2607917,51.2821602 21.0207917,50.4771602 23.5307917,50.4451602 L23.5307917,50.4451602 Z" id="Fill-261" fill="#E9ABBA"></path>
                <path d="M95.1107917,5.99216019 C93.9007917,6.56816019 93.4807917,7.21116019 93.6707917,8.08316019 C93.8207917,8.74716019 94.3307917,9.19416019 95.0107917,9.25416019 C95.7907917,9.32416019 96.2607917,8.90216019 96.6407917,7.78416019 C96.1507917,7.20916019 95.6507917,6.62816019 95.1107917,5.99216019 Z M95.0007917,15.2552294 C92.1407917,15.0601602 89.7207917,13.8261602 88.4207917,10.9331602 C87.1607917,8.09916019 87.4307917,5.37816019 89.4907917,3.01216019 C90.3207917,2.06716019 91.3407917,1.22916019 92.4107917,0.575160187 C94.0507917,-0.424839813 95.7107917,-0.0928398125 96.9607917,1.35316019 C97.3407917,1.78416019 97.6907917,1.93616019 98.2307917,1.95416019 C98.6707917,1.96916019 99.1407917,2.09116019 99.5307917,2.30216019 C101.740792,3.50416019 103.900792,6.96216019 102.310792,10.3171602 C100.820792,13.4481602 98.2507917,15.2681602 95.0007917,15.2552294 L95.0007917,15.2552294 Z" id="Fill-262" fill="#E9ABBA"></path>
                <path d="M85.8007917,99.2531602 C87.1207917,98.0791602 88.4207917,96.9341602 89.7107917,95.7711602 C92.4307917,93.3111602 95.3407917,91.1001602 98.5407917,89.3031602 C105.800792,85.2241602 113.270792,81.5991602 121.370792,79.4751602 C129.870792,77.2471602 138.490792,76.7481602 147.200792,77.8421602 C151.690792,78.4051602 156.170792,79.0051602 160.660792,79.5361602 C166.950792,80.2811602 172.810792,82.4061602 178.470792,85.1471602 C181.620792,86.6701602 184.290792,88.9091602 187.040792,91.0331602 C189.070792,92.5951602 191.150792,94.0821602 193.210792,95.5911602 C194.360792,96.4261602 195.550792,97.1931602 196.660792,98.0651602 C201.770792,102.05416 207.380792,105.19716 213.120792,108.14516 C216.340792,109.80416 219.800792,110.61716 223.450792,110.25316 C226.450792,109.95416 229.210792,108.89316 231.860792,107.49916 C235.920792,105.36016 239.520792,102.54516 243.140792,99.7531602 C250.320792,94.2181602 256.960792,88.0551602 263.540792,81.8591602 C269.870792,75.9111602 276.980792,71.1971602 284.590792,67.1341602 C289.310792,64.6121602 294.130792,62.3191602 299.300792,60.8461602 C302.290792,59.9931602 305.340792,59.4351602 308.430792,59.0951602 C308.930792,59.0411602 309.440792,59.0331602 309.940792,59.0761602 C311.680792,59.2241602 312.850792,60.0881602 313.260792,61.4871602 C313.660792,62.8691602 313.010792,64.6741602 311.710792,65.5951602 C311.150792,65.9881602 310.530792,66.3011602 309.910792,66.5901602 C308.590792,67.2081602 307.240792,67.7631602 305.910792,68.3871602 C298.670792,71.8101602 292.120792,76.2991602 286.150792,81.5861602 C281.610792,85.6021602 277.720792,90.2671602 274.740792,95.5471602 C270.650792,102.78316 265.800792,109.43916 260.510792,115.82716 C257.140792,119.91016 253.970792,124.16916 250.670792,128.31416 C245.230792,135.14116 238.950792,141.15616 232.040792,146.43616 C225.800792,151.20116 219.280792,155.61516 212.860792,160.13916 C210.510792,161.79516 208.040792,163.28316 205.670792,164.91616 C198.810792,169.64316 191.250792,172.75216 183.180792,174.67016 C181.930792,174.96516 180.710792,175.35316 179.480792,175.67416 C174.890792,176.86716 170.350792,178.36816 165.690792,179.16316 C158.650792,180.36316 151.520792,180.69416 144.370792,180.37916 C140.120792,180.19216 135.900792,179.74816 131.740792,178.85016 C127.050792,177.83816 122.430792,176.55716 117.880792,175.05316 C117.100792,174.79616 116.290792,174.62116 115.490792,174.45516 C112.380792,173.81716 109.480792,172.66716 106.650792,171.22416 C103.110792,169.42316 99.6707917,167.43616 95.9307917,166.04816 C94.7707917,165.61816 93.8007917,164.67416 92.7307917,163.99516 C89.8307917,162.16616 86.9307917,160.35916 84.0307917,158.52916 C83.3807917,158.11416 82.7207917,157.69116 82.1307917,157.19016 C80.5307917,155.82616 78.9007917,154.49216 77.4207917,153.00316 C76.2707917,151.84416 75.2207917,150.54616 74.3207917,149.17916 C71.1707917,144.36716 68.0707917,139.51616 65.0007917,134.64616 C63.0207917,131.50216 61.5707917,128.09316 60.3507917,124.59016 C57.4307917,116.16616 54.9707917,107.60816 53.2507917,98.8601602 C52.1607917,93.3071602 51.0507917,87.7381602 50.7507917,82.0651602 C50.5507917,78.1881602 50.4107917,74.3041602 50.3307917,70.4221602 C50.2007917,63.7511602 50.1607917,57.0781602 50.0607917,50.4061602 C49.9807917,45.2011602 48.8507917,40.1631602 47.4407917,35.1891602 C47.0407917,33.7581602 46.2707917,32.4221602 45.5907917,31.0801602 C45.0007917,29.9021602 43.9707917,29.2661602 42.6607917,29.0521602 C41.1307917,28.8021602 39.6007917,28.5471602 38.0807917,28.2501602 C35.7207917,27.7911602 33.4907917,26.9721602 31.5107917,25.6021602 C28.4407917,23.4711602 26.4607917,20.6391602 26.7807917,16.7511602 C26.9007917,15.2441602 27.4307917,13.6991602 28.0807917,12.3201602 C29.5307917,9.27916019 31.5707917,6.74016019 34.8907917,5.53716019 C35.2207917,5.41716019 35.6107917,5.24016019 35.7907917,4.96816019 C37.1607917,2.94416019 39.2607917,2.11016019 41.4807917,1.72316019 C49.2407917,0.367160187 56.2307917,1.82716019 61.7307917,7.90216019 C63.1007917,9.41916019 64.4307917,11.0281602 65.4907917,12.7721602 C69.1007917,18.7351602 72.1007917,25.0311602 73.8607917,31.7721602 C76.2007917,40.7391602 78.1907917,49.7981602 79.1607917,59.0491602 C79.9907917,66.9991602 80.9007917,74.9421602 81.8607917,82.8791602 C82.0907917,84.7721602 82.6107917,86.6341602 83.0707917,88.4951602 C83.9307917,92.0431602 84.8507917,95.5801602 85.7407917,99.1201602 C85.7707917,99.2401602 85.8507917,99.3491602 85.8007917,99.2531602" id="Fill-263" fill="#96B5DA"></path>
                <path d="M37.9707917,183.71716 C38.9007917,181.82216 39.7307917,179.83916 41.3607917,178.47816 C42.9307917,177.17116 44.6607917,176.05216 46.3907917,174.79116 C46.1307917,174.17516 45.8907917,173.54416 45.6007917,172.93016 C44.9307917,171.48016 44.2507917,170.03416 43.5607917,168.59316 C42.2807917,165.92216 41.6607917,163.07516 41.3207917,160.15616 C41.0907917,158.19716 41.3907917,156.33016 42.3607917,154.59116 C42.5107917,154.31216 42.6407917,154.01616 42.8107917,153.74716 C44.0307917,151.83716 44.4107917,149.83216 43.8007917,147.59516 C43.4207917,146.23816 43.2907917,144.81216 43.0907917,143.41216 C43.0207917,142.96616 43.0107917,142.49616 43.0807917,142.05016 C43.3107917,140.36916 44.6107917,139.19216 46.2207917,139.16316 C47.8107917,139.13416 49.2007917,140.29316 49.4807917,141.94116 C49.8507917,144.10016 50.2207917,146.26116 50.5407917,148.42916 C50.8407917,150.52116 50.4207917,152.52416 49.6307917,154.45816 C49.4107917,155.00616 49.2007917,155.59516 48.8407917,156.05016 C47.4507917,157.80816 47.5807917,159.74316 47.9507917,161.78216 C48.4607917,164.56916 49.7907917,167.02716 50.8907917,169.57916 C51.4007917,170.75216 51.9807917,171.90716 52.3407917,173.12416 C53.1907917,175.94716 52.4907917,177.99816 50.1507917,179.76316 C49.2107917,180.47616 48.1907917,181.09716 47.1607917,181.69216 C45.7207917,182.52416 44.7007917,183.69016 44.0007917,185.19116 C42.6407917,188.12716 41.6707917,191.12916 41.9307917,194.44216 C42.0307917,195.75516 41.9207917,197.09316 41.8207917,198.41116 C41.5507917,201.60916 39.8107917,203.39916 36.6407917,203.82016 C36.1507917,203.88616 35.6507917,203.98216 35.1507917,203.98916 C34.2007917,204.00216 33.4607917,204.21716 32.8307917,205.07816 C32.0607917,206.12716 30.6007917,206.27916 29.4707917,205.69016 C28.2907917,205.07916 27.6807917,203.77516 28.0007917,202.45516 C28.1107917,201.97016 28.3407917,201.51116 28.4907917,201.03216 C29.5707917,197.54816 30.7407917,194.08516 31.6907917,190.56316 C32.0707917,189.18116 31.9707917,187.66716 32.0307917,186.21116 C32.0807917,185.26516 31.6407917,184.45416 31.2107917,183.63716 C30.2207917,181.78116 29.2307917,179.92616 28.3407917,178.02616 C26.7807917,174.69616 26.2407917,171.23516 27.2607917,167.62416 C27.2907917,167.49316 27.3107917,167.35416 27.3207917,167.21816 C27.3207917,167.13116 27.2907917,167.04216 27.2707917,166.86816 C26.4207917,166.66616 25.5307917,166.49716 24.6607917,166.23616 C23.6607917,165.93316 22.6407917,165.63916 21.7007917,165.18616 C18.2207917,163.49816 16.6707917,160.23116 17.5107917,156.42116 C17.6707917,155.67616 17.9007917,154.94616 18.1507917,154.01916 C17.3907917,154.22016 16.7907917,154.40316 16.1807917,154.53416 C14.3107917,154.93916 12.4507917,155.46316 10.5607917,155.68916 C6.65079174,156.15816 3.75079174,154.14416 2.79079174,150.51816 C2.45079174,149.22716 2.51079174,147.93816 3.06079174,146.76216 C3.90079174,144.98916 3.91079174,143.27116 3.24079174,141.46316 C2.97079174,140.74416 2.90079174,139.95016 2.74079174,139.19016 C2.40079174,137.55416 2.56079174,135.99816 3.53079174,134.59616 C3.98079174,133.94216 4.05079174,133.32516 3.83079174,132.54016 C3.29079174,130.67916 4.11079174,129.12616 5.79079174,128.59316 C7.40079174,128.08016 8.94079174,128.84016 9.66079174,130.54316 C10.5907917,132.75116 10.4907917,134.92916 9.25079174,136.98516 C8.83079174,137.67716 8.75079174,138.32216 8.95079174,139.06116 C9.12079174,139.72316 9.24079174,140.40216 9.45079174,141.05316 C10.1707917,143.33216 10.0607917,145.57216 9.09079174,147.74216 C8.15079174,149.84716 9.07079174,149.92216 10.6207917,149.72016 C13.5307917,149.34216 16.2907917,148.41716 19.2307917,147.45516 C18.8907917,146.84416 18.6507917,146.31516 18.3307917,145.84416 C17.8907917,145.20516 17.4007917,144.59916 16.9107917,144.00016 C14.8507917,141.51116 13.9607917,138.56916 13.5707917,135.43616 C13.3107917,133.30816 13.8407917,131.37016 14.9107917,129.53316 C15.7707917,128.04416 15.7807917,127.99116 14.6507917,126.67116 C13.1707917,124.93916 12.0607917,123.02616 11.5307917,120.80116 C11.1907917,119.35616 11.1307917,117.90516 11.6207917,116.47516 C11.7407917,116.13116 11.8907917,115.79216 12.0707917,115.47816 C12.9507917,113.95216 14.4607917,113.24516 15.8407917,113.69616 C17.3307917,114.18216 18.2207917,115.62516 17.8507917,117.44016 C17.4807917,119.29116 18.1107917,120.74116 19.1607917,122.14516 C19.8107917,123.02316 20.4807917,123.90016 21.0407917,124.83816 C22.2807917,126.92516 22.3507917,129.07016 21.1707917,131.22216 C21.0807917,131.38316 21.0107917,131.55816 20.9007917,131.70316 C18.9307917,134.34616 19.9107917,136.89316 21.2007917,139.39516 C21.5707917,140.11716 22.1107917,140.76716 22.6507917,141.38816 C25.6107917,144.83116 25.9607917,148.78716 24.9207917,152.99316 C24.6207917,154.18516 24.1307917,155.32816 23.7207917,156.49016 C22.8407917,158.98216 23.2207917,159.74116 25.7907917,160.45616 C27.0207917,160.79716 28.2507917,161.19816 29.6707917,160.97216 C30.7407917,158.60616 32.0607917,156.31216 32.7807917,153.74816 C33.3907917,151.58116 33.0607917,149.47716 32.1807917,147.46316 C31.5807917,146.08416 30.7907917,144.78516 30.1707917,143.41316 C29.5307917,142.00316 28.9007917,140.57616 28.4307917,139.10516 C27.4107917,135.97016 27.9607917,132.86016 28.8307917,129.79716 C29.2807917,128.21716 29.8007917,126.65316 30.3907917,125.11716 C31.1307917,123.15416 31.0207917,121.28516 30.0807917,119.42216 C29.4407917,118.15816 28.7907917,116.89116 28.2907917,115.57216 C27.9007917,114.56016 27.6107917,113.47516 27.5107917,112.40216 C27.3507917,110.66116 28.5407917,109.25116 30.1907917,108.96616 C31.7907917,108.69016 33.3107917,109.72816 33.8607917,111.37316 C34.3007917,112.66516 34.8307917,113.92616 35.3407917,115.18916 C35.6807917,116.03416 36.0907917,116.85716 36.4507917,117.69516 C37.7007917,120.59216 37.7807917,123.53616 36.8107917,126.52716 C36.1607917,128.52416 35.5307917,130.52716 34.9007917,132.53116 C34.0707917,135.17116 34.4907917,137.66916 35.7507917,140.08116 C36.4507917,141.41616 37.1307917,142.76516 37.7607917,144.13116 C39.8807917,148.68116 40.1207917,153.28116 38.0307917,157.91416 C36.8807917,160.45416 35.6707917,162.96616 34.5607917,165.52016 C34.0507917,166.68716 33.6707917,167.91616 33.2907917,169.13416 C32.7207917,170.99216 32.8207917,172.84716 33.5607917,174.63716 C34.1607917,176.07016 34.8107917,177.47816 35.4907917,178.87316 C36.2707917,180.46316 37.1007917,182.02516 37.9707917,183.71716" id="Fill-264" fill="#96B5DA"></path>
                <path d="M273.470792,180.63316 C273.240792,180.19716 272.910792,179.84816 272.880792,179.47216 C272.770792,178.21716 271.910792,177.63216 270.990792,176.98116 C267.880792,174.76616 266.530792,172.47016 265.510792,167.85216 C265.050792,167.85216 264.560792,167.87416 264.070792,167.84816 C262.520792,167.76416 260.960792,167.75516 259.430792,167.54816 C255.920792,167.07516 254.030792,164.74616 254.140792,161.22016 C254.190792,159.85016 254.270792,158.47916 254.230792,157.11216 C254.210792,156.45116 254.020792,155.76416 253.760792,155.15016 C253.070792,153.48916 253.460792,151.90016 254.850792,151.08016 C256.300792,150.23016 257.990792,150.67716 259.020792,152.20716 C259.670792,153.16816 260.130792,154.21816 260.170792,155.39216 C260.220792,156.85216 260.200792,158.31416 260.210792,159.77516 C260.220792,160.36316 260.220792,160.95116 260.220792,161.67916 C262.070792,161.99616 263.920792,161.97816 265.860792,161.90516 C266.160792,160.84916 266.070792,159.89316 265.720792,158.92816 C265.170792,157.42816 264.640792,155.92116 264.120792,154.41016 C263.220792,151.78216 263.270792,149.20716 264.590792,146.71116 C264.720792,146.46916 264.800792,146.20416 264.920792,145.96116 C265.780792,144.28516 266.170792,142.57716 265.610792,140.68816 C265.360792,139.87516 265.350792,138.96916 265.360792,138.10916 C265.400792,136.45216 266.550792,135.24416 268.140792,135.05516 C269.670792,134.87516 271.120792,135.87916 271.450792,137.50416 C271.790792,139.15516 272.120792,140.83216 272.170792,142.50716 C272.200792,143.70216 271.870792,144.94316 271.520792,146.10716 C271.160792,147.28016 270.620792,148.40516 270.090792,149.51316 C269.640792,150.43816 269.600792,151.35716 269.880792,152.30616 C270.180792,153.31316 270.410792,154.35816 270.860792,155.29716 C272.200792,158.10116 272.240792,161.02816 271.870792,164.01616 C271.790792,164.69616 271.740792,165.38016 271.650792,166.05816 C271.280792,168.57316 272.260792,170.52316 274.190792,172.04916 C274.970792,172.66016 275.800792,173.19316 276.810792,173.90516 C276.910792,172.38816 276.960792,171.13416 276.740792,169.88116 C276.120792,166.37416 275.520792,162.86516 274.860792,159.36616 C274.200792,155.86716 274.730792,152.54516 276.260792,149.36516 C276.810792,148.21416 277.450792,147.10316 278.060792,145.98116 C279.130792,144.03516 279.530792,142.01816 279.180792,139.77816 C278.820792,137.48216 278.620792,135.14916 278.550792,132.82616 C278.460792,129.53116 279.700792,126.56016 281.230792,123.73016 C282.070792,122.19116 283.870792,121.72016 285.390792,122.44116 C286.900792,123.15216 287.600792,124.83516 287.040792,126.48616 C286.800792,127.17516 286.510792,127.85016 286.190792,128.50416 C285.100792,130.71816 284.900792,133.04716 285.210792,135.45516 C285.390792,136.85916 285.530792,138.27116 285.720792,139.67216 C286.160792,142.72716 285.510792,145.57616 284.130792,148.28816 C283.710792,149.10116 283.280792,149.91116 282.800792,150.68216 C281.020792,153.50216 280.640792,156.48916 281.320792,159.75216 C282.020792,163.14516 282.580792,166.58016 282.970792,170.02316 C283.480792,174.53016 282.660792,178.76016 279.700792,182.39816 C279.220792,183.00016 278.780792,183.64816 278.350792,184.29416 C277.190792,186.03816 276.890792,187.91016 277.580792,189.91016 C277.850792,190.67416 278.140792,191.43016 278.670792,192.17016 C278.700792,191.88916 278.760792,191.60916 278.770792,191.32616 C278.840792,190.27816 278.880792,189.22816 278.960792,188.18016 C279.130792,185.67416 280.270792,183.64016 282.130792,182.00916 C283.090792,181.16716 284.110792,180.38616 285.130792,179.61616 C286.160792,178.83416 286.700792,177.86516 286.480792,176.54316 C286.240792,175.10316 286.030792,173.65816 285.780792,172.22016 C285.520792,170.73716 285.200792,169.26416 284.950792,167.77916 C284.620792,165.81816 284.900792,163.91716 285.930792,162.22216 C287.370792,159.84216 287.740792,157.29916 287.490792,154.58316 C287.360792,153.22216 287.300792,151.83916 287.390792,150.47916 C287.590792,147.70816 288.690792,145.25916 290.470792,143.14216 C291.230792,142.23516 291.750792,141.27216 291.880792,140.09316 C291.910792,139.82216 291.970792,139.55016 292.060792,139.29216 C292.590792,137.71216 294.070792,136.82416 295.710792,137.09816 C297.250792,137.35716 298.400792,138.66716 298.340792,140.29516 C298.250792,142.38616 297.700792,144.35016 296.410792,146.05316 C296.190792,146.34516 295.970792,146.63716 295.720792,146.90516 C294.170792,148.58716 293.600792,150.57116 293.750792,152.83516 C293.910792,155.06716 294.070792,157.30816 293.620792,159.53016 C293.470792,160.27816 293.290792,161.02016 293.070792,162.01516 C293.960792,161.58816 294.660792,161.24816 295.370792,160.90516 C295.350792,160.61816 295.370792,160.43516 295.320792,160.26516 C294.730792,157.86916 295.600792,155.93416 297.310792,154.34616 C298.140792,153.57816 299.100792,152.91416 300.090792,152.36516 C301.450792,151.60816 302.250792,150.48916 302.360792,148.99716 C302.530792,146.72516 302.750792,144.42616 302.580792,142.16716 C302.370792,139.52616 302.830792,137.09516 303.860792,134.71116 C304.450792,133.37316 305.710792,132.59516 307.150792,132.76016 C308.490792,132.91416 309.550792,133.93816 309.800792,135.33816 C309.980792,136.31116 309.950792,137.28016 309.380792,138.11516 C308.720792,139.09216 308.640792,140.14916 308.740792,141.26116 C309.010792,144.14416 308.890792,147.01316 308.420792,149.86616 C307.850792,153.32216 306.150792,155.99216 302.980792,157.63416 C302.650792,157.80116 302.350792,158.00216 302.030792,158.18316 C301.340792,158.57816 301.130792,159.13316 301.340792,159.91416 C302.020792,162.44116 301.030792,164.36716 298.890792,165.60616 C297.040792,166.67616 295.040792,167.46916 293.090792,168.36816 C292.600792,168.59616 292.070792,168.75916 291.440792,168.99816 C291.560792,169.60716 291.680792,170.17516 291.770792,170.74716 C292.050792,172.59516 292.370792,174.43816 292.580792,176.29416 C292.950792,179.47016 291.710792,182.00616 289.310792,184.01216 C288.530792,184.65516 287.730792,185.25916 286.900792,185.83416 C285.490792,186.82416 284.890792,188.11916 284.780792,189.88116 C284.550792,193.43116 284.140792,196.97416 283.680792,200.50316 C283.470792,202.12816 283.010792,203.73016 281.670792,204.89816 C281.460792,205.08216 281.380792,205.45016 281.300792,205.74816 C280.950792,207.02116 280.160792,207.81116 278.820792,207.96616 C277.460792,208.12416 276.020792,207.44516 275.480792,206.28716 C275.200792,205.68616 274.930792,204.95116 275.010792,204.32716 C275.320792,202.12016 274.710792,200.05616 274.150792,198.00316 C273.690792,196.33616 273.010792,194.72916 272.380792,193.11216 C271.460792,190.73316 270.910792,188.32116 271.370792,185.74616 C271.690792,183.91016 272.450792,182.27016 273.470792,180.63316" id="Fill-265" fill="#EBD06B"></path>
                <path d="M237.220792,177.51716 C235.800792,177.53316 234.390792,176.40516 234.050792,174.97316 C233.710792,173.54716 234.300792,172.23816 235.730792,171.61716 C236.420792,171.31616 237.210792,171.13416 237.960792,171.12216 C239.310792,171.10216 240.370792,172.11616 240.610792,173.44116 C240.910792,175.20816 239.020792,177.49616 237.220792,177.51716" id="Fill-266" fill="#000000"></path>
                <path d="M299.240792,114.59216 C299.330792,113.03616 300.130792,111.98716 301.630792,111.57116 C303.120792,111.15416 304.490792,111.63916 305.200792,112.84116 C306.060792,114.28916 305.390792,116.84816 303.930792,117.69116 C302.500792,118.52116 300.420792,117.79516 299.680792,116.15616 C299.450792,115.67016 299.380792,115.11516 299.240792,114.59216" id="Fill-267" fill="#000000"></path>
                <path d="M305.400792,190.662179 C303.630792,190.65616 302.180792,189.21316 302.170792,187.45316 C302.170792,185.69116 303.610792,184.23416 305.380792,184.21016 C307.200792,184.18516 308.700792,185.68016 308.670792,187.49416 C308.640792,189.25716 307.180792,190.66816 305.400792,190.662179" id="Fill-268" fill="#000000"></path>
                <path d="M42.9407917,97.8751602 C42.9807917,99.8581602 41.1107917,101.30816 39.2107917,100.61916 C38.3507917,100.31116 37.5407917,99.6741602 36.9107917,99.0001602 C36.0707917,98.1041602 36.1307917,96.6991602 36.8207917,95.6991602 C37.5407917,94.6431602 38.8407917,94.1691602 40.0607917,94.6071602 C41.4407917,95.1041602 42.9807917,96.2591602 42.9407917,97.8751602" id="Fill-269" fill="#E9ABBA"></path>
                <path d="M234.88074,200.82816 C234.870792,199.05616 236.320792,197.49216 237.980792,197.47816 C239.620792,197.46416 241.130792,198.97716 241.130792,200.62116 C241.130792,202.27716 239.580792,203.689161 237.750792,203.689161 C236.170792,203.69016 234.900792,202.41416 234.88074,200.82816" id="Fill-270" fill="#000000"></path>
                <path d="M3.21079174,192.58616 C1.38079174,192.62916 0.0307917436,191.45216 0.000791743554,189.77516 C-0.0392082564,188.04716 1.44079174,186.69416 3.45079174,186.61016 C5.03079174,186.54516 6.32079174,187.90116 6.32079174,189.63016 C6.32079174,191.30816 5.02079174,192.54416 3.21079174,192.58616" id="Fill-271" fill="#EBD06B"></path>
                <path d="M67.6207917,175.00916 C67.6407917,176.79416 66.3907917,178.15016 64.7307917,178.154169 C63.1507917,178.15816 61.8607403,176.86916 61.8607403,175.29216 C61.8507917,173.69616 63.3007917,172.24416 64.9107917,172.22116 C66.4807917,172.19916 67.6007917,173.35216 67.6207917,175.00916" id="Fill-272" fill="#EBD06B"></path>
                <path d="M82.8007917,181.66916 C82.8107917,183.24516 81.5307917,184.55016 79.9607917,184.56316 C78.4007917,184.57616 77.1007917,183.28916 77.0807917,181.71216 C77.0707917,180.13116 78.3407917,178.83916 79.9207917,178.82816 C81.5007917,178.81716 82.7807917,180.08016 82.8007917,181.66916" id="Fill-273" fill="#EBD06B"></path>
                <path d="M67.8707917,196.12716 C67.8707917,197.70916 66.6007917,198.99416 65.0207917,198.997165 C63.4407917,199.00016 62.1407917,197.70716 62.1407917,196.13916 C62.1407917,194.56616 63.4307917,193.28116 65.0107917,193.278155 C66.6007917,193.27516 67.8707917,194.54416 67.8707917,196.12716" id="Fill-274" fill="#EBD06B"></path>
                <path d="M136.700792,154.99716 C137.000792,160.52316 136.000792,165.89716 134.840792,171.26816 C133.280792,178.42516 131.300792,185.44416 128.480792,192.20416 C126.970792,195.82816 125.360792,199.44016 122.830792,202.49816 C121.760792,203.78416 120.520792,204.99216 119.160792,205.95116 C115.980792,208.18616 112.410792,207.93716 109.430792,205.43816 C108.700792,204.82316 108.060792,204.10016 107.400792,203.40516 C106.580792,202.54416 105.820792,201.62916 104.980792,200.79616 C103.720792,199.55716 102.790792,198.12116 102.050792,196.52816 C98.4907917,188.86616 96.0507917,180.84016 94.3707917,172.58816 C93.2607917,167.16916 92.6607917,161.66216 92.4407917,156.13716 C92.2507917,151.04316 93.3907917,146.16816 95.4307917,141.49216 C98.0207917,135.54616 101.560792,130.18416 105.380792,124.98516 C105.760792,124.47116 106.210792,124.00716 106.620792,123.51416 C107.520792,122.42216 108.600792,121.80616 110.090792,122.05516 C110.460792,122.11616 110.910792,121.97916 111.250792,121.79816 C114.990792,119.80916 118.740792,119.96616 122.630792,121.41416 C125.800792,122.59616 127.990792,124.82316 129.830792,127.49116 C131.870792,130.45516 133.050792,133.83016 134.250792,137.18516 C135.790792,141.48116 136.470792,145.94016 136.690792,150.47716 C136.760792,151.98116 136.700792,153.49016 136.700792,154.99716" id="Fill-275" fill="#E6C446"></path>
                <path d="M175.870792,155.68916 C175.720792,150.79616 178.730792,147.15716 183.340792,146.46616 C187.370792,145.86216 190.960792,146.96816 194.110792,149.44916 C197.540792,152.14616 200.460792,155.25616 202.820792,159.01116 C205.370792,163.05216 207.550792,167.22516 209.470792,171.57916 C210.670792,174.30116 211.990792,176.96416 212.530792,179.91416 C212.760792,181.21216 212.960792,182.54016 212.951151,183.85116 C212.900792,188.25016 208.910792,191.70416 204.570792,191.00816 C200.040792,190.28216 195.980792,188.40116 192.750792,185.10116 C188.690792,180.95416 184.900792,176.58416 181.750792,171.65016 C179.820792,168.60816 178.360792,165.39716 177.170792,162.03516 C176.420792,159.91616 175.980792,157.72516 175.870792,155.68916" id="Fill-276" fill="#E6C446"></path>
                <path d="M48.0207917,11.4611602 C51.3007917,11.5691602 53.9207917,14.1871602 53.7807917,17.2201602 C53.6407917,20.0111602 51.0907917,22.3101602 48.2507917,22.2011602 C45.2607917,22.0871602 42.7607917,19.4641602 42.8707917,16.5451602 C42.9807917,13.5501602 45.1907917,11.3681602 48.0207917,11.4611602" id="Fill-277" fill="#E9ABBA"></path>
                <path d="M218.760792,135.199181 C217.140792,135.20416 215.880792,134.30616 215.450792,132.84416 C214.990792,131.28916 215.520792,129.76216 216.840792,128.88316 C217.800792,128.24916 218.830792,128.12216 219.810792,128.72216 C220.950792,129.42216 222.290792,129.99816 222.350792,131.67016 C222.410792,133.54816 220.750792,135.19416 218.760792,135.199181" id="Fill-278" fill="#000000"></path>
                <path d="M229.680792,118.71416 C229.740792,117.50216 230.380792,116.30316 231.700792,115.51316 C232.630792,114.95316 233.610792,114.90116 234.550792,115.48016 C235.500792,116.05916 235.980792,116.96216 235.800792,118.03116 C235.640792,118.95916 235.350792,119.90516 234.920792,120.73616 C234.320792,121.87116 232.910792,122.31816 231.710792,121.94716 C230.450792,121.55516 229.670792,120.44316 229.680792,118.71416" id="Fill-279" fill="#000000"></path>
                <path d="M139.560792,82.5751602 C141.340792,82.5511602 142.780792,83.9481602 142.820792,85.7311602 C142.860792,87.5611602 141.380792,89.0861602 139.580792,89.0681602 C137.830792,89.0501602 136.390739,87.5921602 136.390739,85.8241602 C136.380792,84.0351602 137.780792,82.6001602 139.560792,82.5751602" id="Fill-280" fill="#000000"></path>
                <path d="M187.580792,102.47516 C187.550792,103.76616 186.300792,105.54116 185.090792,105.98216 C184.060792,106.35516 183.100792,106.18816 182.270792,105.49616 C181.440792,104.80516 181.060792,103.88716 181.260792,102.81716 C181.490792,101.60116 182.150792,100.62116 183.220792,99.9761602 C184.190792,99.3871602 185.220792,99.3801602 186.200792,99.9641602 C187.140792,100.52216 187.560792,101.39316 187.580792,102.47516" id="Fill-281" fill="#000000"></path>
                <path d="M172.910792,118.16416 C172.840792,118.52216 172.780792,119.11716 172.610792,119.68116 C172.190792,121.08016 170.830792,121.94116 169.440792,121.73816 C167.990792,121.52516 166.890792,120.27716 166.960792,118.76716 C166.990792,118.09616 167.140792,117.40416 167.380792,116.77316 C167.880792,115.44616 169.230792,114.72216 170.560792,114.97516 C171.940792,115.23616 172.930792,116.48316 172.910792,118.16416" id="Fill-282" fill="#000000"></path>
                <path d="M170.200792,103.86016 C170.190792,103.89716 170.190792,104.03416 170.170792,104.16916 C170.000792,105.40516 169.010792,106.37316 167.720792,106.57616 C166.250792,106.80816 164.600792,105.91616 163.890792,104.51016 C163.310792,103.37416 163.540792,101.99316 164.460792,101.12216 C165.390792,100.23416 166.740792,100.09616 167.990792,100.76616 C169.200792,101.41316 170.230792,102.19716 170.200792,103.86016" id="Fill-283" fill="#000000"></path>
                <path d="M169.820792,84.9551596 C171.440792,84.9541602 172.690792,86.1781602 172.700847,87.7861602 C172.710792,89.5801602 171.360792,91.0641602 169.720792,91.0532209 C168.000792,91.0431602 166.470792,89.6131602 166.450741,88.0041602 C166.440792,86.2971602 167.920792,84.9561602 169.820792,84.9551596" id="Fill-284" fill="#000000"></path>
                <path d="M153.500792,112.44216 C151.790792,112.42816 150.470792,111.18516 150.450745,109.57416 C150.440792,107.92116 152.030792,106.44516 153.810792,106.45716 C155.400792,106.46716 156.740792,107.83916 156.750845,109.46716 C156.760792,111.18716 155.370792,112.45716 153.500792,112.44216" id="Fill-285" fill="#000000"></path>
                <path d="M122.730792,91.5801602 C121.160792,91.5631602 119.890792,90.2601602 119.890792,88.6851602 C119.900792,86.9251602 121.390792,85.3681602 123.040792,85.3821602 C124.660792,85.3951602 126.030792,86.7621602 126.000792,88.3401602 C125.970792,89.9711602 124.330792,91.5971602 122.730792,91.5801602" id="Fill-286" fill="#000000"></path>
                <path d="M198.600792,135.43816 C198.640792,137.29216 197.380792,138.73616 195.710792,138.77716 C194.080792,138.81716 192.770792,137.51416 192.740792,135.83916 C192.720792,134.00816 193.990792,132.53616 195.650792,132.49516 C197.270792,132.45516 198.560792,133.74516 198.600792,135.43816" id="Fill-287" fill="#000000"></path>
                <path d="M242.270792,110.98216 C240.720792,111.00716 239.380792,109.71516 239.350792,108.16316 C239.310792,106.56516 240.930792,104.93416 242.590792,104.89216 C244.140792,104.85216 245.490792,106.15816 245.510792,107.71416 C245.530792,109.32916 243.920792,110.95516 242.270792,110.98216" id="Fill-288" fill="#000000"></path>
                <path d="M209.180792,121.15916 C211.000792,121.18116 212.460792,122.55316 212.410792,124.19716 C212.360792,125.75316 211.060792,126.93016 209.390792,126.931161 C207.610792,126.93216 206.260792,125.65516 206.270737,123.97916 C206.290792,122.37716 207.560792,121.14016 209.180792,121.15916" id="Fill-289" fill="#000000"></path>
                <path d="M198.440792,113.893201 C196.700792,113.88316 195.320792,112.56916 195.310792,110.92716 C195.300792,109.32816 196.570792,108.05616 198.170792,108.063131 C199.820792,108.06916 201.120792,109.45916 201.130792,111.20716 C201.130792,112.72816 199.960792,113.90116 198.440792,113.893201" id="Fill-290" fill="#000000"></path>
                <path d="M252.880792,95.3781602 C254.450792,95.3981602 255.740792,96.7141602 255.710792,98.2701602 C255.680792,99.8271602 254.350792,101.12116 252.790792,101.09516 C251.210792,101.06816 249.960792,99.7771602 249.980792,98.1851602 C250.000792,96.5871602 251.270792,95.3571602 252.880792,95.3781602" id="Fill-291" fill="#000000"></path>
                <path d="M198.720792,123.28316 C198.730792,124.86816 197.460792,126.16216 195.880792,126.170197 C194.320792,126.17816 192.990792,124.88016 192.980735,123.32416 C192.970792,121.77516 194.290792,120.44516 195.840792,120.43216 C197.410792,120.41916 198.710792,121.70516 198.720792,123.28316" id="Fill-292" fill="#000000"></path>
                <path d="M182.730792,121.28816 C181.150792,121.31016 179.840792,120.04716 179.810792,118.48716 C179.790792,116.93416 181.080792,115.60616 182.640792,115.57116 C184.200792,115.53516 185.520792,116.81616 185.550792,118.39416 C185.570792,119.98616 184.330792,121.26716 182.730792,121.28816" id="Fill-293" fill="#000000"></path>
                <path d="M155.030792,94.4071602 C153.440792,94.3781602 152.200792,93.0841602 152.240792,91.4881602 C152.280792,89.9061602 153.600792,88.6371602 155.160792,88.6791602 C156.740792,88.7211602 157.990792,90.0401602 157.950792,91.6191602 C157.910792,93.2201602 156.640792,94.4381602 155.030792,94.4071602" id="Fill-294" fill="#000000"></path>
                <path d="M174.810792,131.90716 C174.830792,130.30416 176.120792,129.07116 177.730792,129.11216 C179.260792,129.15116 180.510792,130.40216 180.520792,131.92016 C180.530792,133.49516 179.240792,134.78916 177.650792,134.785169 C176.030792,134.78116 174.790792,133.52016 174.810792,131.90716" id="Fill-295" fill="#000000"></path>
                <path d="M223.750792,118.62516 C223.730792,120.00716 222.590792,121.15316 221.220792,121.155161 C219.810792,121.15616 218.640792,119.93516 218.700792,118.49516 C218.750792,117.11116 219.910792,116.01016 221.280792,116.04816 C222.660792,116.08416 223.760792,117.23716 223.750792,118.62516" id="Fill-296" fill="#000000"></path>
                <path d="M78.0807917,141.55716 C77.2907917,142.48316 76.6207917,143.27716 75.8207917,144.22116 C75.4907917,143.79316 75.2007917,143.42716 74.8607917,142.99216 C75.7207917,141.94016 76.5207917,140.95716 77.3207917,139.97416 C76.2707917,137.12816 75.2307917,134.31216 74.0907917,131.22416 C72.6407917,132.96016 71.3507917,134.51716 69.9807917,136.15716 C69.6707917,135.70916 69.4307917,135.34816 69.1407917,134.93216 C70.4107917,132.97516 71.8807917,131.25016 73.5707917,129.67816 C72.8507917,126.88216 72.1307917,124.10816 71.3507917,121.09216 C68.9807917,123.34316 67.4507917,126.02816 65.6507917,128.75816 C65.3207917,128.12816 65.0807917,127.67316 64.8307917,127.19016 C66.6207917,124.37216 68.3107917,121.55216 71.0007917,119.31616 C69.9707917,115.13916 68.9307917,110.90016 67.8307917,106.46716 C64.7407917,108.97616 62.4507917,112.02916 60.0407917,115.00016 C59.1607917,113.63716 59.1507917,113.61816 59.9207917,112.65616 C62.0607917,109.98016 64.1907917,107.28516 66.9207917,105.15816 C67.5607917,104.65516 67.3607917,104.13816 67.2407917,103.57616 C66.5807917,100.68016 65.9207917,97.7871602 65.2607917,94.8931602 C65.1407917,94.3681602 65.0207917,93.8441602 64.8507917,93.1101602 C61.5707917,95.6161602 58.6707917,98.2941602 55.7407917,100.97016 C55.1007917,99.8321602 55.3307917,99.1021602 56.2307917,98.3631602 C58.7307917,96.2981602 61.1607917,94.1451602 63.6107917,92.0261602 C63.8907917,91.7911602 64.1607917,91.5531602 64.5207917,91.2361602 C63.6807917,87.4781602 62.8307917,83.7091602 61.9307917,79.7071602 C58.5807917,82.3301602 55.6607917,85.0431602 52.6107917,87.8801602 C52.2807917,86.6591602 52.3807917,85.8481602 53.2907917,85.0731602 C55.9607917,82.7871602 58.5607917,80.4181602 61.3807917,77.9181602 C60.4507917,74.6251602 59.4707917,71.1741602 58.4207917,67.4821602 C56.1107917,69.6381602 53.9207917,71.6791602 51.7107917,73.7351602 C51.1707917,72.4351602 51.2207917,72.0711602 52.1207917,71.2191602 C53.7807917,69.6471602 55.4507917,68.0911602 57.1207917,66.5311602 C57.3907917,66.2841602 57.6707917,66.0541602 57.9707917,65.7881602 C55.5007917,56.1231602 52.5307917,46.6891602 49.5407917,37.2421602 C50.5407917,37.7221602 51.2307917,38.4661602 51.5907917,39.4521602 C52.5407917,42.0691602 53.5307917,44.6731602 54.3407917,47.3331602 C55.9807917,52.7051602 57.5007917,58.1111602 59.0807917,63.5001602 C59.1807917,63.8451602 59.3507917,64.1691602 59.4907917,64.5041602 C59.6407917,64.8841602 59.8907917,65.2541602 59.9307917,65.6461602 C60.3107917,69.3051602 61.6207917,72.7301602 62.7007917,76.1981602 C63.4707917,78.6771602 63.8507917,81.2311602 64.5707917,83.7141602 C65.0307917,85.3351602 65.3007917,87.0101602 65.6907917,88.6561602 C65.8207917,89.2271602 65.7507917,89.8681602 66.5107917,90.2141602 C66.7407917,90.3181602 66.6807917,91.1221602 66.7007917,91.6071602 C66.7207917,92.1321602 66.5607917,92.6851602 66.6707917,93.1811602 C68.6607917,101.76616 70.7307917,110.33316 72.6707917,118.92816 C73.9407917,124.55016 75.4507917,130.08916 77.4707917,135.49016 C78.7407917,138.87816 80.2507917,142.15116 81.9707917,145.32216 C83.7007917,148.49116 85.4107917,151.67116 87.3007917,154.74216 C88.7007917,157.02916 90.3607917,159.16016 91.9407917,161.34116 C92.2707917,161.80816 92.4307917,162.22116 92.0107917,162.68016 C91.6407917,163.08816 90.9807917,163.06016 90.5707917,162.56716 C90.3107917,162.26416 90.2007917,161.84816 89.9907917,161.49816 C89.6107917,160.83816 89.3207917,160.07116 88.7907917,159.55816 C87.5207917,158.33416 86.5307917,156.92516 85.6707917,155.41116 C84.0807917,152.59016 82.4807917,149.77016 80.9107917,146.93016 C79.9607917,145.21316 79.0807917,143.46216 78.0807917,141.55716" id="Fill-297" fill="#000000"></path>
                <path d="M248.510792,199.93316 C248.240792,196.20416 247.930792,196.36316 250.500792,191.48716 C251.140792,190.27616 251.860792,189.10616 252.520792,187.90516 C253.600792,185.92516 253.580792,184.05116 252.220792,182.13016 C251.150792,180.60916 250.280792,178.93616 249.380792,177.29916 C248.040792,174.88016 247.650792,172.32216 248.390792,169.62416 C248.510792,169.18416 248.570792,168.72716 248.700792,168.29016 C249.210792,166.57216 248.950792,164.94716 248.130792,163.38616 C247.880792,162.90116 247.590792,162.43116 247.350792,161.94216 C246.160792,159.59916 245.640792,157.11516 245.960792,154.50816 C246.250792,152.12916 246.980792,149.88116 248.260792,147.82216 C249.360792,146.03616 250.430792,144.22616 251.510792,142.42316 C251.700792,142.09416 251.860792,141.74416 252.040792,141.40416 C249.010792,143.83916 246.550792,146.67116 245.020792,150.22316 C243.980792,152.63116 243.940792,155.08616 244.720792,157.58316 C246.170792,162.19716 246.290792,161.15716 244.960792,166.06716 C244.140792,169.11416 244.260792,172.13016 245.570792,175.04216 C246.150792,176.33116 246.790792,177.59516 247.400792,178.87016 C247.810792,179.73416 248.220792,180.60016 248.650792,181.46116 C249.630792,183.47916 249.460792,185.39216 248.310792,187.32316 C245.790792,191.54816 246.360792,195.76916 248.510792,199.93316 Z M251.140792,203.73616 C252.010792,200.29016 253.780792,197.43716 256.210792,194.94416 C259.290792,191.77916 259.930792,188.06816 258.610792,183.92616 C258.280792,182.88416 258.000792,181.82016 257.760792,180.75116 C257.460792,179.38416 257.530792,178.01116 258.060792,176.71016 C258.470792,175.69716 258.970792,174.71916 259.480792,173.74916 C259.580792,173.55216 259.900792,173.33416 260.090792,173.35916 C260.270792,173.38116 260.510792,173.71516 260.530792,173.92516 C260.710792,176.54316 261.900792,178.83216 262.870792,181.19216 C263.720792,183.26216 264.550792,185.33416 264.910792,187.56616 C265.400792,190.54216 264.640792,193.11616 262.380792,195.12516 C261.010792,196.33316 259.530792,197.40716 258.070792,198.49916 C255.770792,200.21416 254.200792,202.35616 253.900792,205.29016 C253.890792,205.47116 253.920792,205.69916 253.820792,205.82016 C253.670792,206.00516 253.440792,206.19016 253.220792,206.22616 C253.110792,206.24516 252.830792,205.95216 252.820792,205.78516 C252.780792,205.33716 252.810792,204.87316 252.880792,204.42716 C253.340792,201.55116 254.970792,199.42416 257.240792,197.70716 C258.660792,196.63116 260.110792,195.59816 261.460792,194.44316 C263.590792,192.62516 264.370792,190.26916 263.750792,187.54316 C263.400792,185.99216 262.930792,184.45816 262.370792,182.96616 C261.530792,180.70116 260.570792,178.48116 259.640792,176.19416 C259.070792,176.65616 258.860792,177.38416 258.810792,178.07116 C258.740792,179.01316 258.780792,179.98716 258.950792,180.91616 C259.150792,182.03416 259.570792,183.11216 259.820792,184.22216 C260.700792,188.00016 260.480792,191.57816 257.810792,194.67816 C257.220792,195.37116 256.590792,196.04116 256.000792,196.73616 C254.100792,198.96116 252.660792,201.41516 252.260792,204.37416 C252.140792,205.28816 252.040792,206.22016 253.230792,206.85416 C252.680792,207.30516 252.290792,207.63116 251.790792,208.04816 C251.360792,207.56516 250.960792,207.20216 250.670792,206.76016 C248.620792,203.55016 246.960792,200.15316 245.930792,196.47116 C245.100792,193.47916 245.510792,190.59316 246.750792,187.79216 C246.840792,187.58316 246.940792,187.36816 247.070792,187.18616 C248.520792,185.21616 248.380792,183.21216 247.270792,181.14216 C246.460792,179.61216 245.710792,178.04416 244.940792,176.49016 C243.070792,172.74316 242.880792,168.87316 244.080792,164.90016 C244.180792,164.59416 244.240792,164.27816 244.350792,163.97916 C244.860792,162.58716 244.790792,161.23716 244.270792,159.83916 C243.630792,158.08616 243.030792,156.31616 243.050792,154.39016 C243.070792,152.57216 243.430792,150.85916 244.200792,149.22116 C246.050792,145.34016 248.910792,142.29016 252.120792,139.52816 C252.290792,139.38116 252.490792,139.24516 252.690792,139.16416 C253.450792,138.86916 254.030792,139.31316 253.810792,140.10216 C253.590792,140.88416 253.260792,141.65516 252.850792,142.35916 C251.690792,144.37616 250.470792,146.36316 249.260792,148.35216 C248.200792,150.09016 247.550792,151.96816 247.170792,153.96616 C246.680792,156.54616 247.170792,158.95816 248.270792,161.28616 C248.500792,161.78116 248.790792,162.25216 249.040792,162.73616 C250.030792,164.58416 250.380792,166.51016 249.760792,168.55616 C249.750792,168.60016 249.750792,168.64816 249.730792,168.69116 C248.580792,172.04516 249.210792,175.16716 250.980792,178.13016 C251.710792,179.34416 252.420792,180.57416 253.230792,181.72916 C254.640792,183.72916 254.720792,185.79116 253.690792,187.94016 C253.310792,188.72016 252.850792,189.46216 252.450792,190.22716 C251.650792,191.71616 250.840792,193.19716 250.070792,194.70416 C249.600792,195.65316 249.350792,196.67216 249.420792,197.75216 C249.560792,199.87116 250.330792,201.79916 251.140792,203.73616 L251.140792,203.73616 Z" id="Fill-298" fill="#000000"></path>
                <path d="M119.910792,143.90716 C119.210792,143.55616 118.560792,143.24816 117.930792,142.91816 C117.360792,142.62416 116.770792,142.36416 116.270792,141.98016 C115.770792,141.59616 115.850792,140.98016 116.440792,140.79216 C117.610792,140.42116 118.820792,140.15516 120.020792,139.91616 C120.220792,139.87516 120.500792,140.19116 120.740792,140.34216 C120.570792,140.53316 120.440792,140.82616 120.230792,140.89816 C119.510792,141.14916 118.760792,141.32516 117.780792,141.59416 C118.580792,141.99416 119.190792,142.26316 119.760792,142.58316 C120.870792,143.19916 121.100792,143.74216 120.780792,144.95516 C120.630792,145.52216 120.440792,146.07516 120.220792,146.76116 C120.450792,146.69816 120.600792,146.70416 120.650792,146.63716 C121.690792,145.23516 123.070792,145.40916 124.500792,145.77716 C125.150792,145.94416 125.790792,146.13616 126.440792,146.31716 C126.510792,146.23816 126.580792,146.16016 126.650792,146.08116 C126.420792,145.73116 126.220792,145.36816 125.970792,145.03416 C124.950792,143.63916 124.940792,143.44616 125.990792,142.04116 C126.440792,141.43116 126.910792,140.82916 127.560792,139.97716 C126.710792,139.95316 126.140792,139.88716 125.570792,139.93116 C124.370792,140.02516 123.530792,139.63216 123.200792,138.38716 C123.140792,138.18316 122.980792,138.00816 122.730792,137.57216 C122.500792,138.34116 122.370792,138.90516 122.150792,139.42816 C122.040792,139.67616 121.730792,140.03316 121.540792,140.01416 C121.080792,139.96716 121.050792,139.52316 121.170792,139.15816 C121.410792,138.37816 121.630792,137.57116 122.000792,136.85416 C122.430792,136.05016 123.080792,136.07116 123.580792,136.85716 C123.940792,137.43216 124.210792,138.07016 124.570792,138.78316 C125.050792,138.82116 125.590792,138.86516 126.130792,138.90516 C126.670792,138.94616 127.230792,138.93216 127.760792,139.03116 C128.700792,139.20516 128.920792,139.65616 128.450792,140.48216 C128.140792,141.03416 127.710792,141.52216 127.330792,142.03716 C126.980792,142.51216 126.630792,142.98516 126.240792,143.51316 C126.490792,143.88516 126.730792,144.20816 126.950792,144.54716 C127.240792,145.00916 127.570792,145.45616 127.770792,145.95816 C128.170792,146.96816 127.670792,147.60916 126.600792,147.42916 C125.790792,147.29416 125.010792,147.02016 124.220792,146.79816 C123.040792,146.46716 121.980792,146.46016 121.190792,147.63616 C120.920792,148.03916 120.490792,148.36316 120.070792,148.62916 C119.480792,149.00116 118.930792,148.71416 118.950792,148.01116 C118.980792,147.33816 119.170792,146.66516 119.320792,146.00216 C119.480792,145.34516 119.690792,144.70016 119.910792,143.90716" id="Fill-299" fill="#000000"></path>
                <path d="M122.920792,165.20416 C123.320792,165.01116 123.680792,164.91316 123.940792,164.69916 C124.880792,163.92316 125.800792,163.91716 126.790792,164.62616 C127.210792,164.91916 127.740792,165.04616 128.150792,165.22416 C128.420792,164.38116 128.520792,163.62916 128.880792,163.04816 C129.240792,162.48516 129.870792,162.09716 130.540792,161.48716 C129.930792,161.37216 129.540792,161.29116 129.150792,161.22916 C127.920792,161.03216 127.830792,160.93516 127.670792,159.70016 C127.640792,159.46216 127.570792,159.22916 127.450792,158.69716 C126.880792,159.73516 126.450792,160.50616 126.040792,161.26016 C125.060792,161.08216 124.180792,160.92516 123.220792,160.75016 C123.770792,162.29116 122.820792,163.63616 122.920792,165.20416 Z M125.340792,165.14116 C124.770792,165.47316 124.200792,165.84616 123.590792,166.14716 C123.080792,166.40016 122.450792,166.91916 121.970792,166.38016 C121.690792,166.05916 121.720792,165.36916 121.770792,164.86016 C121.840792,164.13716 121.990792,163.41016 122.210792,162.71816 C122.470792,161.88216 122.240792,161.32016 121.520792,160.86216 C121.130792,160.61016 120.490792,160.39516 120.770792,159.74916 C121.030792,159.13516 121.630792,159.36416 122.100792,159.44616 C123.170792,159.63116 124.240792,159.85616 125.450792,160.09216 C125.680792,159.66916 125.960792,159.16216 126.240792,158.65516 C126.420792,158.33516 126.580792,158.00416 126.770792,157.69616 C127.050792,157.25616 127.180792,156.54516 127.880792,156.66116 C128.600792,156.78116 128.450792,157.48516 128.530792,158.00116 C128.610792,158.54216 128.660792,159.08816 128.740792,159.63016 C128.760792,159.76016 128.820792,159.88516 128.840792,159.97716 C129.700792,160.24016 130.550792,160.41416 131.320792,160.76716 C132.190792,161.16216 132.200792,161.70416 131.470792,162.32916 C131.330792,162.44716 131.180792,162.55516 131.020792,162.64116 C129.810792,163.28616 129.170792,164.15916 129.450792,165.63916 C129.630792,166.59016 129.130792,166.88416 128.220792,166.49116 C127.260792,166.07616 126.330792,165.60616 125.340792,165.14116 L125.340792,165.14116 Z" id="Fill-300" fill="#000000"></path>
                <path d="M111.670792,157.67616 C110.950792,157.67616 110.310792,157.82316 109.780792,157.63616 C109.240792,157.44216 108.820792,156.92516 108.340792,156.55216 C107.720792,157.73516 108.100792,159.36616 106.470792,160.04616 C107.870792,160.44016 107.010792,161.78716 107.620792,162.64916 C108.070792,162.09216 108.450792,161.64416 108.810792,161.18016 C109.230792,160.64316 109.730792,160.48916 110.380792,160.72916 C110.780792,160.87816 111.210792,160.96416 111.760792,161.11516 C110.820792,159.21716 110.820792,159.21716 111.670792,157.67616 Z M111.970792,159.24516 C112.410792,159.88616 112.840792,160.37616 113.120792,160.93816 C113.280792,161.26116 113.360792,161.81116 113.190792,162.05616 C113.030792,162.28716 112.470792,162.36316 112.110792,162.30916 C111.360792,162.19416 110.620792,161.95016 109.830792,161.75016 C109.210792,162.43016 108.630792,163.13116 107.970792,163.74616 C107.710792,163.99116 107.190792,164.23916 106.930792,164.13416 C106.650792,164.02016 106.450792,163.51316 106.370792,163.14516 C106.250792,162.57216 106.270792,161.97216 106.230792,161.31816 C105.770792,161.19416 105.320792,161.10316 104.900792,160.95316 C104.430792,160.78416 103.890792,160.57916 103.890792,159.98016 C103.900792,159.35516 104.450792,159.21716 104.950792,159.10116 C105.520792,158.96716 106.100792,158.84816 106.700792,158.71816 C106.940792,157.69516 107.120792,156.71716 107.410792,155.76916 C107.510792,155.41716 107.820792,154.94116 108.100792,154.88116 C108.370792,154.82316 108.900792,155.16216 109.050792,155.45916 C109.650792,156.72416 110.620792,156.79616 111.790792,156.48816 C112.140792,156.39616 112.510792,156.34616 112.870792,156.36516 C113.570792,156.40216 113.830792,156.91216 113.420792,157.49016 C113.000792,158.08016 112.500792,158.61016 111.970792,159.24516 L111.970792,159.24516 Z" id="Fill-301" fill="#000000"></path>
                <path d="M123.150792,177.49016 C122.560792,178.47116 122.100792,179.22016 121.610792,180.01316 C120.980792,179.86716 120.360792,179.72516 119.730792,179.58016 C120.040792,180.70916 120.310792,181.67116 120.600792,182.73316 C121.470792,181.85116 122.450792,181.66716 123.590792,182.08916 C123.940792,182.21716 124.370792,182.10916 124.960792,182.10916 C123.940792,180.97516 124.700792,180.33816 125.640792,179.64416 C124.400792,179.37516 123.420792,179.01416 123.150792,177.49016 Z M121.170792,178.62716 C121.680792,177.80916 122.110792,177.05616 122.610792,176.36016 C122.800792,176.10616 123.160792,175.87216 123.460792,175.85016 C123.620792,175.83816 123.840792,176.27816 123.990792,176.53816 C124.070792,176.68916 124.080792,176.88816 124.110792,177.06816 C124.240792,177.94916 124.730792,178.41016 125.620792,178.54516 C126.280792,178.64416 127.150792,178.67216 127.320792,179.44716 C127.510792,180.33116 126.470792,180.35816 126.010792,180.80316 C125.920792,180.89616 125.830792,180.99916 125.700792,181.14916 C125.890792,181.44716 126.100792,181.73416 126.260792,182.04216 C126.690792,182.82816 126.460792,183.27216 125.550792,183.27616 C124.730792,183.28016 123.900792,183.24316 123.110792,183.06716 C122.460792,182.92416 121.980792,182.97216 121.480792,183.40716 C121.140792,183.70116 120.730792,183.93616 120.320792,184.11716 C119.650792,184.40816 119.280792,184.16216 119.210792,183.43416 C119.180792,183.20916 119.160792,182.96516 119.220792,182.75416 C119.560792,181.57816 119.020792,180.73016 118.230792,179.96316 C118.170792,179.89916 118.060792,179.85516 118.030792,179.78016 C117.890792,179.43116 117.770792,179.07516 117.630792,178.72216 C118.000792,178.61116 118.370792,178.40216 118.740792,178.40716 C119.510792,178.41716 120.280792,178.53916 121.170792,178.62716 L121.170792,178.62716 Z" id="Fill-302" fill="#000000"></path>
                <path d="M119.300792,195.26416 C118.160792,195.25816 117.730792,194.27416 117.100792,193.32216 C117.020792,193.68716 116.990792,193.81616 116.970792,193.94716 C116.840792,195.09316 116.470792,195.31916 115.380792,194.94216 C115.070792,194.83216 114.720792,194.80516 114.410792,194.74416 C114.540792,195.71016 114.660792,196.54616 114.780792,197.46916 C115.770792,196.50916 116.910792,196.81916 117.840792,197.13916 C118.360792,196.46816 118.790792,195.92016 119.300792,195.26416 Z M115.660792,193.78716 C116.060792,193.14216 116.330792,192.61516 116.690792,192.14416 C117.200792,191.46416 117.640792,191.50916 118.010792,192.24616 C118.160792,192.53016 118.270792,192.83216 118.360792,193.13616 C118.520792,193.65116 118.810792,194.02016 119.340792,194.17916 C119.420792,194.20616 119.510792,194.25016 119.580792,194.29316 C121.140792,195.14116 121.150792,195.64416 119.610792,196.61216 C119.540792,196.66016 119.460792,196.71416 119.360792,196.78516 C119.340792,196.89016 119.310792,197.01916 119.310792,197.14816 C119.300792,197.53116 119.410792,198.17916 119.260792,198.24616 C118.850792,198.43016 118.330792,198.42616 117.860792,198.38716 C117.560792,198.36316 117.280792,198.12916 116.990792,198.01316 C116.540792,197.83616 116.110792,197.82816 115.700792,198.15516 C115.460792,198.35416 115.180792,198.53216 114.900792,198.67116 C114.160792,199.02816 113.790792,198.85516 113.580792,198.08916 C113.560792,198.00116 113.510792,197.90416 113.530792,197.82316 C113.800792,196.53616 113.470792,195.44616 112.660792,194.40016 C112.280792,193.91016 112.760792,193.33816 113.470792,193.40716 C114.190792,193.47816 114.890792,193.65016 115.660792,193.78716 L115.660792,193.78716 Z" id="Fill-303" fill="#000000"></path>
                <path d="M38.9107917,14.1761602 C39.3207917,13.7251602 39.7507917,13.2561602 40.2407917,12.7111602 C39.8707917,12.0501602 39.4607917,11.4001602 39.1407917,10.7081602 C39.0407917,10.4881602 39.1807917,10.1561602 39.2107917,9.87516019 C39.4807917,9.98516019 39.8407917,10.0221602 39.9907917,10.2191602 C40.4407917,10.8441602 40.8107917,11.5281602 41.2307917,12.2191602 C41.7807917,12.1281602 42.3107917,12.0411602 42.9507917,11.9361602 C42.9307917,11.2321602 42.9007917,10.5231602 42.8907917,9.81316019 C42.8807917,9.54016019 42.8407917,9.24416019 42.9307917,9.00016019 C43.0107917,8.78116019 43.2407917,8.61916019 43.4107917,8.43216019 C43.5907917,8.64916019 43.9007917,8.85016019 43.9307917,9.08516019 C44.0207917,9.84916019 44.0407917,10.6261602 44.0207917,11.3961602 C44.0007917,12.1211602 44.3607917,12.3661602 45.1707917,12.3651602 C45.5307917,11.6901602 45.9107917,10.9201602 46.3607917,10.1931602 C46.4907917,9.98716019 46.8207917,9.90616019 47.0607917,9.76816019 C47.1507917,10.0411602 47.3407917,10.3311602 47.3007917,10.5801602 C47.2407917,10.9231602 47.0007917,11.2401602 46.8307917,11.5591602 C46.4507917,12.2501602 45.8307917,12.8831602 46.3907917,13.7761602 C46.4307917,13.8481602 46.2407917,14.0691602 46.1207917,14.2941602 C45.8407917,14.1441602 45.5907917,14.0551602 45.3907917,13.8961602 C43.5907917,12.4221602 40.0307917,12.7891602 39.3107917,16.1231602 C39.2807917,16.2561602 39.2907917,16.4251602 39.2107917,16.5121602 C39.0707917,16.6651602 38.8707917,16.8691602 38.7107917,16.8601602 C38.5507917,16.8501602 38.3207917,16.6031602 38.2907917,16.4321602 C38.2407917,16.0851602 38.2907917,15.7191602 38.3007917,15.3751602 C37.5807917,14.6371602 36.2307917,14.7671602 35.8407917,13.4561602 C37.0707917,12.9771602 37.7607917,14.2531602 38.9107917,14.1761602" id="Fill-304" fill="#000000"></path>
                <path d="M102.160792,40.6831602 C102.280792,39.3501602 101.220792,37.9121602 99.9207917,37.6221602 C98.7607917,37.3651602 98.0707917,37.8231602 97.7807917,39.0201602 C97.6907917,39.4131602 97.5307917,39.7941602 97.4707917,40.1901602 C97.4307917,40.4761602 97.4107917,40.8221602 97.5307917,41.0671602 C98.0207917,42.0391602 99.3507917,42.6741602 100.420792,42.5061602 C101.400792,42.3501602 102.080792,41.6451602 102.160792,40.6831602 Z M99.8707917,43.5891602 C97.9507917,43.5121602 96.1107917,41.7381602 96.1907917,40.0341602 C96.2807917,37.9671602 97.6607917,36.4561602 99.4207917,36.4931602 C101.480792,36.5361602 103.270792,38.4511602 103.230792,40.5691602 C103.190792,42.3501602 101.730792,43.6641602 99.8707917,43.5891602 L99.8707917,43.5891602 Z" id="Fill-305" fill="#000000"></path>
                <path d="M109.250792,23.5451191 C108.240792,23.5511602 107.070792,24.6491602 107.060792,25.6031602 C107.040792,26.8921602 108.400792,28.1511602 109.790792,28.1181602 C110.820792,28.0931602 111.540792,27.2561602 111.550792,26.0911602 C111.550792,24.6971602 110.500792,23.5371602 109.250792,23.5451191 Z M112.610792,26.0741602 C112.610792,27.8491602 111.440792,29.1261602 109.800792,29.1362204 C107.900792,29.1481602 105.810792,27.3641602 105.780792,25.6631602 C105.750792,24.3471602 107.910792,22.3731602 109.230792,22.4591602 C111.090792,22.5821602 112.610792,24.0871602 112.610792,26.0741602 L112.610792,26.0741602 Z" id="Fill-306" fill="#000000"></path>
                <path d="M104.150792,55.2761602 C104.120792,56.6031602 104.610792,57.2381602 105.710792,57.3311602 C106.490792,57.3981602 106.960792,57.0861602 107.120792,56.3961602 C107.350792,55.3561602 106.960792,54.8111602 105.880792,54.4691602 C105.240792,54.7651602 104.740792,54.9971602 104.150792,55.2761602 Z M103.020792,55.2901602 C103.030792,53.9711602 103.870792,53.3171602 105.540792,53.3351602 C107.170792,53.3521602 108.210792,54.3761602 108.220792,55.9651602 C108.230792,57.4591602 107.320792,58.4051602 105.880792,58.4001799 C104.140792,58.3921602 103.000792,57.1541602 103.020792,55.2901602 L103.020792,55.2901602 Z" id="Fill-307" fill="#000000"></path>
                <path d="M109.820792,45.6281602 C108.460792,45.6161602 107.160792,44.1301602 107.450792,42.8481602 C107.500792,42.6091602 107.840792,42.4321602 108.040792,42.2271602 C108.180792,42.4301602 108.330792,42.6281602 108.450792,42.8411602 C108.490792,42.9111602 108.450792,43.0231602 108.470792,43.1121602 C108.640792,44.0251602 109.140792,44.5811602 109.810792,44.6021602 C110.510792,44.6241602 111.200792,43.8301602 111.310792,42.8981602 C111.400792,42.1591602 110.930792,41.3521602 110.230792,41.2061602 C109.860792,41.1301602 109.450792,41.3301602 109.050792,41.3301602 C108.780792,41.3311602 108.510792,41.2041602 108.240792,41.1341602 C108.390792,40.8771602 108.470792,40.5301602 108.680792,40.3801602 C110.000792,39.4701602 112.010792,40.4951602 112.330792,42.2151602 C112.650792,43.8661602 111.340792,45.6401602 109.820792,45.6281602" id="Fill-308" fill="#000000"></path>
                <path d="M104.740792,65.1341602 C104.800792,63.8841602 105.130792,63.6451602 106.180792,64.1561602 C106.540792,64.3301602 106.900792,64.5751602 107.150792,64.8721602 C107.970792,65.8111602 107.890792,67.0841602 107.030792,67.7771602 C106.140792,68.4921602 104.490792,68.3781602 103.790792,67.5521602 C103.270792,66.9311602 103.310792,65.7011602 103.930792,65.2031602 C104.110792,65.0631602 104.470792,65.1521602 104.740792,65.1361602 C105.360792,65.3701602 105.020792,65.6291602 104.760792,65.8811602 C104.470792,66.1581602 104.310792,66.4561602 104.600792,66.8291602 C104.900792,67.2231602 105.760792,67.3431602 106.230792,67.0501602 C106.620792,66.8031602 106.750792,66.4571602 106.600792,66.0001602 C106.350792,65.2651602 105.820792,65.0131602 104.740792,65.1341602" id="Fill-309" fill="#000000"></path>
                <path d="M30.7107917,18.0411602 C29.7707917,17.8561602 28.9907917,17.7111602 28.5607917,16.9691602 C28.4607917,16.7951602 28.5507917,16.4571602 28.6607917,16.2551602 C28.7007917,16.1771602 29.1307917,16.1791602 29.2407917,16.2901602 C29.9607917,16.9861602 30.7007917,17.1301602 31.5707917,16.5741602 C31.6707917,16.5111602 32.0307917,16.6651602 32.1007917,16.8031602 C32.1707917,16.9561602 32.1207917,17.3201602 32.0007917,17.3951602 C31.5607917,17.6741602 31.0607917,17.8721602 30.7107917,18.0411602" id="Fill-310" fill="#000000"></path>
            </g>
        </g>
    </g>
</svg>