<?xml version="1.0" encoding="UTF-8"?>
<svg width="319px" height="239px" viewBox="0 0 319 239" version="1.1" xmlns="http://www.w3.org/2000/svg" xmlns:xlink="http://www.w3.org/1999/xlink">
    <!-- Generator: Sketch 63.1 (92452) - https://sketch.com -->
    <title>Group 8</title>
    <desc>Created with Sketch.</desc>
    <g id="Page-1" stroke="none" stroke-width="1" fill="none" fill-rule="evenodd">
        <g id="Group-8" transform="translate(-0.000000, 0.000000)">
            <path d="M230.947695,67.1144405 C230.994695,65.8994405 231.116695,64.4854405 231.092695,63.0734405 C230.977695,56.2564405 232.540695,49.9054405 236.164695,44.0824405 C238.798695,39.8494405 241.309695,35.5404405 243.978695,31.3304405 C245.726695,28.5714405 246.149695,25.6004405 245.840695,22.4544405 C245.772695,21.7564405 245.575695,21.0564405 245.344695,20.3904405 C244.601695,18.2514405 243.076695,17.0864405 240.808695,17.0314405 C235.586695,16.9044405 230.634695,17.8034405 226.373695,21.0944405 C224.212695,22.7634405 222.095695,24.4894405 219.940695,26.1664405 C219.005695,26.8944405 218.079695,27.6614405 217.054695,28.2434405 C214.257695,29.8314405 211.241695,28.5724405 210.297695,25.4674405 C209.832695,23.9424405 209.922695,22.3964405 210.467695,20.9144405 C211.786695,17.3204405 213.501695,13.9624405 216.265695,11.2134405 C220.728695,6.77144055 225.832695,3.42944055 232.028695,1.97744055 C234.681695,1.35444055 237.349695,0.733440546 240.045695,0.370440546 C249.639695,-0.918559454 258.438695,1.13044055 266.282695,6.92444055 C267.524695,7.84144055 268.752695,8.77544055 269.999695,9.68544055 C275.330695,13.5754405 279.013695,18.7354405 281.563695,24.7524405 C282.351695,26.6094405 283.043695,28.5064405 283.756695,30.3934405 C284.203695,31.5734405 284.988695,32.3994405 286.159695,32.8654405 C286.709695,33.0844405 287.247695,33.3394405 287.806695,33.5334405 C293.067695,35.3624405 298.306695,37.2564405 303.810695,38.2884405 C305.666695,38.6374405 307.506695,39.1574405 309.294695,39.7714405 C314.184695,41.4494405 316.971695,45.1274405 318.588695,49.8494405 C319.432695,52.3124405 318.873695,54.5134405 317.339695,56.5454405 C315.232695,59.3344405 312.322695,60.8664405 309.047695,61.7374405 C307.218695,62.2234405 305.316695,62.4284405 303.453695,62.7924405 C299.843695,63.4974405 296.228695,64.1834405 292.634695,64.9594405 C289.717695,65.5894405 286.787695,65.9194405 283.802695,65.8724405 C282.267695,65.8484405 280.729695,65.9554405 279.038695,66.0084405 C278.886695,66.7924405 278.648695,67.4564405 278.644695,68.1224405 C278.626695,71.3284405 278.663695,74.5344405 278.697695,77.7404405 C278.772695,84.7564405 278.383695,91.7444405 277.485695,98.7034405 C276.727695,104.576441 274.534695,109.922441 271.496695,114.953441 C268.415695,120.055441 264.828695,124.772441 260.736695,129.105441 C260.015695,129.868441 259.337695,130.673441 258.642695,131.458441 C259.084695,133.010441 260.035695,134.083441 260.871695,135.221441 C262.771695,137.802441 264.660695,140.392441 266.580695,142.957441 C267.788695,144.572441 269.021695,146.171441 270.288695,147.741441 C273.493695,151.713441 276.755695,155.639441 279.935695,159.631441 C283.747695,164.415441 285.115695,169.998441 284.798695,175.984441 C284.642695,178.936441 284.152695,181.890441 283.559695,184.790441 C283.207695,186.505441 282.564695,188.237441 281.688695,189.750441 C279.969695,192.722441 276.704695,192.836441 274.704695,190.081441 C274.017695,189.136441 273.556695,188.009441 273.103695,186.919441 C272.648695,185.825441 272.276695,184.691441 271.966695,183.547441 C270.404695,177.782441 267.334695,172.650441 265.137695,167.153441 C264.120695,164.608441 262.353695,162.865441 259.844695,161.677441 C256.709695,160.193441 254.043695,158.019441 251.720695,155.412441 C250.007695,153.489441 248.301695,151.530441 245.955695,150.101441 C245.404695,151.225441 245.863695,152.100441 246.148695,152.930441 C247.811695,157.779441 250.102695,162.335441 252.787695,166.693441 C255.098695,170.445441 257.677695,173.988441 260.920695,177.014441 C261.873695,177.904441 262.738695,178.891441 263.615695,179.858441 C267.577695,184.223441 269.106695,189.439441 269.082695,195.242441 C269.055695,202.123441 266.603695,208.234441 263.274695,214.079441 C262.251695,215.874441 260.816695,217.263441 258.904695,218.125441 C256.534695,219.195441 254.642695,218.453441 253.889695,215.951441 C253.484695,214.603441 253.397695,213.154441 253.215695,211.744441 C252.910695,209.391441 252.818695,206.996441 252.329695,204.685441 C250.935695,198.100441 247.430695,192.919441 241.588695,189.450441 C239.244695,188.058441 236.851695,186.742441 234.437695,185.471441 C231.252695,183.794441 228.932695,181.391441 227.763695,177.943441 C227.611695,177.493441 227.424695,177.055441 227.235695,176.620441 C225.567695,172.793441 224.107695,168.914441 224.364695,164.336441 C223.716695,164.570441 223.246695,164.616441 222.940695,164.866441 C214.978695,171.389441 206.134695,176.412441 196.676695,180.403441 C194.708695,181.234441 192.762695,182.113441 190.776695,182.899441 C189.819695,183.278441 189.132695,183.788441 188.957695,184.861441 C187.927695,191.181441 184.561695,196.293441 180.631695,201.149441 C176.747695,205.948441 172.982695,210.846441 168.617695,215.235441 C168.383695,215.470441 168.239695,215.794441 168.083695,216.031441 C168.229695,216.771441 168.775695,216.667441 169.212695,216.685441 C174.189695,216.894441 179.194695,216.829441 184.137695,217.353441 C190.095695,217.984441 195.719695,219.946441 200.735695,223.307441 C203.125695,224.907441 204.872695,227.254441 206.389695,229.639441 C207.608695,231.556441 207.898695,233.879441 207.452695,236.185441 C207.059695,238.214441 205.650695,238.939441 203.787695,238.113441 C203.570695,238.017441 203.356695,237.911441 203.153695,237.790441 C196.677695,233.936441 189.624695,233.709441 182.437695,234.605441 C176.067695,235.400441 169.709695,236.085441 163.270695,235.595441 C160.669695,235.398441 158.048695,235.483441 155.436695,235.428441 C152.580695,235.368441 149.745695,235.150441 146.990695,234.314441 C144.457695,233.544441 142.157695,232.392441 140.232695,230.516441 C137.146695,227.509441 135.627695,223.964441 136.200695,219.608441 C136.527695,217.125441 137.014695,214.687441 137.991695,212.374441 C139.145695,209.641441 140.262695,206.888441 141.542695,204.214441 C143.428695,200.278441 144.275695,196.168441 144.248695,191.810441 C144.216695,186.453441 144.120695,181.116441 142.499695,175.946441 C142.075695,174.590441 141.547695,173.265441 141.020695,171.945441 C140.464695,170.551441 139.386695,169.961441 137.910695,170.130441 C136.500695,170.290441 135.072695,170.386441 133.690695,170.689441 C126.926695,172.168441 120.523695,174.557441 114.531695,178.095441 C110.859695,180.264441 106.891695,181.939441 103.263695,184.174441 C97.4076951,187.781441 91.6716951,191.591441 85.9806951,195.457441 C79.0986951,200.132441 72.0686951,204.529441 64.4756951,207.971441 C59.6126951,210.175441 54.7986951,212.496441 49.8786951,214.564441 C45.6186951,216.354441 41.2816951,217.984441 36.9046951,219.466441 C30.6646951,221.579441 24.5256951,221.318441 18.6536951,218.077441 C15.4346951,216.300441 12.1246951,214.663441 9.01969514,212.705441 C5.57969514,210.535441 2.56869514,207.848441 0.789695143,204.039441 C-0.227304857,201.859441 -0.387304857,199.735441 1.05769514,197.518441 C3.35769514,197.027441 5.50569514,197.807441 7.60969514,198.509441 C11.0966951,199.672441 14.6236951,200.787441 17.9586951,202.309441 C22.6386951,204.446441 27.2976951,204.603441 32.1826951,203.301441 C41.0346951,200.941441 48.9756951,196.825441 56.0896951,191.105441 C63.0826951,185.481441 68.8186951,178.655441 74.2226951,171.565441 C79.1146951,165.147441 83.7506951,158.545441 88.1026951,151.729441 C95.5966951,139.990441 104.296695,129.156441 113.871695,119.046441 C119.505695,113.097441 125.285695,107.290441 131.607695,102.045441 C137.292695,97.3284405 143.339695,93.1544405 149.835695,89.6454405 C161.122695,83.5484405 172.679695,78.0274405 184.795695,73.7554405 C192.999695,70.8624405 201.424695,68.9384405 210.112695,68.2274405 C212.004695,68.0714405 213.892695,67.8324405 215.768695,67.5494405 C219.928695,66.9224405 224.059695,67.1494405 228.149695,68.0084405 C229.227695,68.2354405 229.985695,67.9554405 230.947695,67.1144405" id="Fill-785" fill="#83A8D4"></path>
            <path d="M223.797695,145.976441 C224.067695,140.022441 224.320695,133.617441 224.661695,127.218441 C224.885695,123.017441 226.121695,119.065441 227.892695,115.267441 C229.504695,111.812441 231.407695,108.536441 233.827695,105.579441 C235.262695,103.825441 236.825695,102.179441 238.824695,101.079441 C239.947695,100.461441 241.183695,99.9024405 242.431695,99.6854405 C245.164695,99.2114405 247.136695,100.294441 248.019695,102.927441 C248.729695,105.043441 249.129695,107.290441 249.434695,109.512441 C250.396695,116.505441 249.804695,123.487441 249.077695,130.459441 C248.560695,135.413441 247.725695,140.349441 247.998695,145.353441 C248.121695,147.597441 248.365695,149.844441 248.713695,152.065441 C249.140695,154.779441 250.046695,157.341441 251.548695,159.681441 C252.380695,160.978441 253.148695,162.320441 253.871695,163.681441 C256.510695,168.650441 260.086695,172.915441 263.774695,177.112441 C269.687695,183.840441 271.688695,191.600441 269.392695,200.275441 C268.271695,204.506441 266.716695,208.624441 265.330695,212.785441 C264.612695,214.944441 263.166695,216.421441 261.012695,217.200441 C260.233695,217.483441 259.483695,217.848441 258.703695,218.126441 C256.403695,218.946441 254.394695,218.364441 253.242695,216.201441 C252.477695,214.769441 252.056695,213.118441 251.686695,211.518441 C250.888695,208.056441 250.199695,204.568441 249.506695,201.081441 C248.970695,198.382441 247.554695,196.341441 245.327695,194.714441 C243.801695,193.600441 242.363695,192.419441 240.673695,191.502441 C235.689695,188.798441 231.833695,184.744441 228.283695,180.425441 C227.254695,179.173441 226.459695,177.609441 225.968695,176.058441 C224.717695,172.106441 223.774695,168.071441 223.791469,163.872441 C223.814695,158.057441 223.797695,152.241441 223.797695,145.976441" id="Fill-786" fill="#96B5DA"></path>
            <path d="M279.101695,28.1744405 C282.273695,27.9364405 285.150695,29.0934405 288.059695,30.0924405 C288.271695,30.1654405 288.498695,30.3264405 288.621695,30.5114405 C290.035695,32.6374405 292.371695,33.3064405 294.525695,34.2434405 C297.026695,35.3304405 299.513695,36.4784405 302.087695,37.3614405 C305.388695,38.4924405 308.263695,40.3774405 311.195695,42.1574405 C312.396695,42.8874405 313.524695,43.8394405 314.451695,44.8964405 C316.646695,47.3964405 315.572695,50.4104405 312.320695,51.0374405 C311.516695,51.1934405 310.656695,51.2024405 309.839695,51.1124405 C306.776695,50.7774405 303.686695,50.5384405 300.762695,49.4604405 C297.163695,48.1334405 293.440695,47.4444405 289.621695,47.3444405 C284.486695,47.2114405 279.545695,45.8054405 274.492695,45.1394405 C272.378695,44.8604405 270.258695,44.5574405 268.185695,44.0724405 C266.818695,43.7524405 265.460695,43.2184405 264.224695,42.5484405 C262.447695,41.5864405 261.480695,39.9664405 261.277695,37.9384405 C261.114695,36.3034405 261.568695,34.8484405 262.838695,33.7814405 C263.648695,33.1014405 264.549695,32.4864405 265.496695,32.0204405 C269.789695,29.9084405 274.275695,28.4404405 279.101695,28.1744405" id="Fill-787" fill="#E9ABBA"></path>
            <path d="M277.413695,19.1264405 C277.921695,19.2074405 278.648695,19.2274405 279.303695,19.4564405 C280.021695,19.7074405 280.515695,20.3474405 280.297695,21.1124405 C280.156695,21.6124405 279.692695,22.1084405 279.241695,22.4054405 C278.889695,22.6384405 278.336695,22.5904405 277.870695,22.6214405 C271.146695,23.0704405 264.825695,24.8604405 258.946695,28.1944405 C256.446695,29.6114405 254.174695,31.3094405 252.266695,33.4474405 C251.327695,34.5014405 250.439695,35.6494405 249.767695,36.8844405 C247.129695,41.7344405 249.032695,47.0574405 254.117695,49.2704405 C256.435695,50.2794405 258.875695,50.7064405 261.393695,50.6794405 C269.476695,50.5924405 277.494695,51.4374405 285.511695,52.2994405 C291.051695,52.8944405 296.604695,53.4414405 302.031695,54.7554405 C304.093695,55.2544405 306.100695,56.0064405 308.098695,56.7364405 C309.340695,57.1894405 310.388695,57.9834405 311.112695,59.1294405 C311.581695,59.8714405 311.450695,60.8024405 310.806695,61.3984405 C310.219695,61.9414405 309.460695,62.1224405 308.849695,61.6824405 C303.790695,58.0304405 297.782695,57.7304405 291.950695,56.9114405 C286.553695,56.1544405 281.127695,55.5624405 275.698695,55.0824405 C271.333695,54.6964405 266.946695,54.5064405 262.564695,54.3864405 C259.821695,54.3114405 257.134695,54.0984405 254.490695,53.3144405 C250.481695,52.1244405 247.696695,49.5934405 245.947695,45.8334405 C244.623695,42.9874405 244.546695,40.1364405 245.689695,37.2144405 C246.656695,34.7414405 248.121695,32.6184405 249.955695,30.7204405 C254.005695,26.5294405 258.937695,23.7164405 264.402695,21.9414405 C267.992695,20.7754405 271.752695,20.1284405 275.443695,19.2794405 C276.014695,19.1494405 276.622695,19.1824405 277.413695,19.1264405" id="Fill-788" fill="#EBD06B"></path>
            <path d="M179.786695,94.9154405 C182.229695,94.2374405 187.499695,91.7704405 190.023695,90.1464405 C190.125695,89.3094405 190.226695,88.3754405 190.355695,87.4464405 C190.496695,86.4324405 190.663695,85.4224405 190.824695,84.3754405 C187.984695,84.4444405 180.049695,86.5934405 177.591695,87.9574405 C178.314695,90.2484405 179.051695,92.5864405 179.786695,94.9154405 Z M190.759695,80.4114177 C193.910695,80.4054405 194.994695,81.5804405 194.647695,84.1624405 C194.349695,86.3824405 193.949695,88.5894405 193.609695,90.8034405 C193.416695,92.0564405 192.831695,93.0044405 191.655695,93.5664405 C187.925695,95.3454405 184.225695,97.1904405 180.465695,98.9044405 C178.669695,99.7244405 177.540695,99.1654405 176.890695,97.2864405 C176.196695,95.2784405 175.579695,93.2414405 174.979695,91.2024405 C174.579695,89.8424405 174.237695,88.6044405 172.783695,87.7934405 C171.585695,87.1254405 171.870695,85.5354405 173.108695,84.9394405 C173.634695,84.6854405 174.214695,84.5294405 174.783695,84.3794405 C179.236695,83.2054405 183.687695,82.0294405 188.149695,80.8904405 C189.172695,80.6284405 190.232695,80.5054405 190.759695,80.4114177 L190.759695,80.4114177 Z" id="Fill-789" fill="#000000"></path>
            <path d="M158.124695,115.813441 C160.703695,113.890441 163.052695,112.400441 165.146695,110.739441 C164.919695,108.517441 164.720695,106.578441 164.497695,104.402441 C160.663695,105.579441 156.981695,106.281441 153.357695,107.732441 C154.566695,110.578441 156.496695,112.805441 158.124695,115.813441 Z M168.288695,106.076441 C168.349695,106.649441 168.344695,108.093441 168.683695,109.452441 C169.194695,111.500441 168.483695,112.838441 166.826695,113.979441 C164.193695,115.790441 161.647695,117.726441 159.047695,119.585441 C157.806695,120.473441 156.867695,120.350441 156.007695,119.141441 C155.462695,118.373441 155.099695,117.479441 154.580695,116.690441 C153.089695,114.424441 151.562695,112.184441 150.046695,109.935441 C149.849695,109.642441 149.584695,109.384441 149.434695,109.071441 C148.382695,106.871441 148.329695,105.647441 150.990695,104.663441 C152.321695,104.172441 153.664695,103.704441 155.024695,103.298441 C157.858695,102.451441 160.706695,101.653441 163.548695,100.833441 C164.002695,100.702441 164.446695,100.521441 164.908695,100.435441 C167.364695,99.9794405 168.436695,100.897441 168.441695,103.453441 C168.443695,104.045441 168.375695,104.636441 168.288695,106.076441 L168.288695,106.076441 Z" id="Fill-790" fill="#000000"></path>
            <path d="M136.885695,135.243441 C140.609695,134.716441 143.366695,133.108441 146.277695,131.475441 C145.199695,129.275441 145.503695,126.883441 144.160695,124.933441 C142.444695,124.977441 140.830695,125.054441 139.249695,125.711441 C138.186695,128.641441 137.067695,131.474441 136.885695,135.243441 Z M140.458695,121.613441 C141.400695,121.509441 142.571695,121.309441 143.749695,121.262441 C146.087695,121.170441 147.312695,121.948441 147.995695,124.203441 C148.780695,126.799441 149.212695,129.490441 150.304695,132.010441 C150.772695,133.090441 150.180695,134.039441 148.997695,134.555441 C146.397695,135.691441 143.788695,136.805441 141.163695,137.880441 C139.246695,138.665441 137.261695,138.775441 135.244695,138.286441 C133.660695,137.903441 133.085695,137.182441 133.164695,135.505441 C133.203695,134.681441 133.258695,133.831441 133.488695,133.046441 C134.384695,129.985441 135.255695,126.910441 136.326695,123.909441 C137.186695,121.497441 137.309695,121.541441 140.458695,121.613441 L140.458695,121.613441 Z" id="Fill-791" fill="#000000"></path>
            <path d="M119.355695,130.574441 C117.755695,133.012441 114.907695,134.241441 113.840695,137.257441 C115.609695,137.119441 117.079695,136.502441 118.597695,135.796441 C118.987695,134.073441 119.789695,132.478441 119.355695,130.574441 Z M122.541695,123.140441 C122.915695,123.140441 123.275695,123.106441 123.625695,123.148441 C124.342695,123.234441 124.901695,123.906441 124.885695,124.628441 C124.880695,124.863441 124.872695,125.105441 124.815695,125.330441 C123.864695,129.122441 122.899695,132.911441 121.948695,136.703441 C121.531695,138.365441 120.533695,139.247441 118.813695,139.661441 C116.286695,140.270441 113.826695,141.157441 111.201695,141.302441 C110.736695,141.327441 110.254695,141.354441 109.803695,141.263441 C108.856695,141.072441 108.139695,140.035441 108.401695,139.110441 C108.622695,138.327441 108.927695,137.502441 109.421695,136.874441 C112.718695,132.685441 116.075695,128.542441 119.413695,124.386441 C120.225695,123.375441 121.283695,122.975441 122.541695,123.140441 L122.541695,123.140441 Z" id="Fill-792" fill="#000000"></path>
            <path d="M186.884695,105.953441 C184.454695,105.982441 182.111695,105.877441 179.922695,106.765441 C179.267695,109.921441 179.271695,111.251441 179.949695,113.890441 C182.351695,113.512441 184.830695,113.467441 187.199695,112.276441 C187.241695,110.467441 187.291695,108.700441 187.310712,106.934441 C187.312695,106.726441 187.136695,106.516441 186.884695,105.953441 Z M190.769695,109.318441 C190.769695,110.265441 190.794695,111.213441 190.764695,112.159441 C190.689695,114.496441 189.855695,115.571441 187.491695,116.129441 C184.378695,116.862441 181.248695,117.529441 178.113695,118.158441 C176.512695,118.480441 175.521695,117.598441 175.605695,116.063441 C175.742695,113.580441 175.875695,111.097441 176.035695,108.616441 C176.080695,107.910441 176.062695,107.146441 176.333695,106.520441 C177.195695,104.532441 178.160695,102.731441 180.901695,102.885441 C182.655695,102.984441 184.434695,102.478441 186.208695,102.410441 C189.392695,102.288441 190.743695,103.618441 190.866695,106.831441 C190.897695,107.658441 190.870695,108.488441 190.870695,109.318441 C190.836695,109.318441 190.803695,109.318441 190.769695,109.318441 L190.769695,109.318441 Z" id="Fill-793" fill="#000000"></path>
            <path d="M166.291695,133.669441 C167.402695,133.250441 168.281695,132.935441 169.148695,132.586441 C170.113695,132.198441 171.179695,131.964441 171.907695,130.808441 C171.800695,129.790441 171.723695,128.617441 171.541695,127.460441 C171.362695,126.317441 171.076695,125.190441 170.769695,123.733441 C168.226695,124.573441 166.063695,125.597441 164.091695,127.188441 C164.838695,129.389441 165.548695,131.480441 166.291695,133.669441 Z M175.642695,130.882441 C175.592695,132.692441 174.751695,133.889441 173.215695,134.596441 C170.642695,135.780441 168.060695,136.953441 165.438695,138.026441 C164.053695,138.592441 162.759695,137.925441 162.799695,136.651441 C162.893695,133.593441 161.736695,130.886441 160.704695,128.130441 C160.621695,127.909441 160.508695,127.700441 160.426695,127.479441 C159.566695,125.158441 159.770695,124.840441 162.144695,123.882441 C163.561695,123.311441 164.879695,122.501441 166.268695,121.856441 C167.443695,121.309441 168.620695,120.714441 169.859695,120.373441 C171.967695,119.792441 173.418695,120.464441 173.990695,122.570441 C174.729695,125.289441 175.108695,128.107441 175.642695,130.882441 L175.642695,130.882441 Z" id="Fill-794" fill="#000000"></path>
            <path d="M204.434695,102.991441 C204.698695,100.791441 205.070695,98.7904405 204.325695,96.8024405 C202.987695,96.5914405 201.855695,96.4874405 200.754695,97.3424405 C200.900695,99.0784405 201.034695,100.819441 201.206695,102.555441 C201.226695,102.750441 201.463695,102.925441 201.710695,103.258441 C202.503695,103.181441 203.389695,103.094441 204.434695,102.991441 Z M208.229695,99.9864405 C208.167695,101.168441 208.149695,102.355441 208.033695,103.531441 C207.892695,104.961441 207.163695,106.101441 205.708695,106.307441 C203.376695,106.638441 201.015695,106.795441 198.660695,106.908441 C197.804695,106.949441 197.085695,106.044441 197.263695,105.204441 C197.891695,102.237441 197.592695,99.3434405 196.862695,96.4374405 C196.549695,95.1904405 197.091695,94.4044405 198.320695,93.9834405 C200.481695,93.2424405 202.722695,93.0474405 204.983695,93.2204405 C206.777695,93.3584405 207.849695,94.3174405 208.058695,96.0834405 C208.209695,97.3674405 208.087695,98.6834405 208.087695,99.9844405 C208.135695,99.9854405 208.182695,99.9864405 208.229695,99.9864405 L208.229695,99.9864405 Z" id="Fill-795" fill="#000000"></path>
            <path d="M210.997695,82.0694405 C210.939695,81.8304405 210.882695,81.5914405 210.825695,81.3534405 C209.696695,81.3454405 208.880695,80.0454405 207.439695,80.7024405 C207.481695,81.7514405 207.232695,82.8124405 208.501695,83.6384405 C209.315695,83.1264405 210.156695,82.5984405 210.997695,82.0694405 Z M207.065695,76.1294405 C207.309695,76.1904405 208.013695,76.2894405 208.662695,76.5334405 C210.637695,77.2774405 212.587695,78.0854405 214.555695,78.8494405 C215.763695,79.3184405 217.157695,79.6524405 217.373695,81.1864405 C217.632695,83.0174405 216.057695,83.4814405 214.848695,84.1534405 C212.686695,85.3554405 210.528695,86.5634405 208.338695,87.7104405 C206.924695,88.4504405 205.804695,88.0854405 205.157695,86.6664405 C204.821695,85.9294405 204.690695,85.0994405 204.468695,84.3104405 C204.088695,82.9574405 203.750695,81.5914405 203.322695,80.2544405 C202.445695,77.5234405 203.661695,75.9694405 207.065695,76.1294405 L207.065695,76.1294405 Z" id="Fill-796" fill="#000000"></path>
            <path d="M167.747695,88.5094405 C167.686695,89.0254405 167.590695,89.6104405 167.551695,90.1974405 C167.421695,92.1454405 166.504695,93.4514405 164.693695,94.2994405 C161.817695,95.6454405 158.808695,96.7494405 156.252695,98.7374405 C155.914695,98.9994405 155.094695,98.8714405 154.613695,98.6594405 C154.104695,98.4354405 153.720695,97.9084405 153.306695,97.4894405 C152.635695,96.8134405 152.549695,96.0464405 153.066695,95.2434405 C153.320695,94.8494405 153.580695,94.4414405 153.913695,94.1154405 C156.698695,91.3884405 159.448695,88.6154405 162.899695,86.6944405 C163.311695,86.4644405 163.701695,86.1914405 164.125695,85.9874405 C166.337695,84.9264405 167.822695,85.9364405 167.747695,88.5094405" id="Fill-797" fill="#000000"></path>
            <path d="M140.652695,113.923441 C140.759695,115.214441 140.277695,116.300441 139.020695,116.720441 C137.124695,117.355441 135.193695,117.928441 133.235695,118.321441 C131.229695,118.725441 130.130695,117.312441 130.802695,115.293441 C131.135695,114.292441 131.583695,113.312441 132.110695,112.397441 C133.227695,110.454441 134.443695,108.570441 135.593695,106.647441 C136.192695,105.645441 137.068695,105.158441 138.205695,105.088441 C138.955695,105.042441 139.731695,105.522441 139.811695,106.193441 C140.117695,108.767441 140.375695,111.346441 140.652695,113.923441" id="Fill-798" fill="#000000"></path>
            <path d="M226.729695,78.3394405 C227.172695,77.7434405 227.357695,77.4944405 227.542695,77.2454405 C227.246695,77.1724405 226.950695,77.0534405 226.651695,77.0474405 C226.517695,77.0444405 226.244695,77.3064405 226.265695,77.3844405 C226.344695,77.6724405 226.520695,77.9334405 226.729695,78.3394405 Z M228.409695,73.4504405 C229.820695,73.4504405 231.235695,73.3914405 232.642695,73.4734405 C233.510695,73.5244405 234.203695,74.0254405 234.449695,74.9164405 C234.688695,75.7854405 234.443695,76.5594405 233.738695,77.1314405 C231.728695,78.7604405 229.726695,80.4024405 227.673695,81.9774405 C226.766695,82.6744405 225.904695,82.6424405 225.139695,81.7674405 C223.748695,80.1774405 222.434695,78.5104405 221.209695,76.7884405 C220.537695,75.8434405 221.007695,74.6804405 222.163695,74.2024405 C222.911695,73.8944405 223.726695,73.6774405 224.530695,73.5864405 C225.814695,73.4414405 227.115695,73.4354405 228.408695,73.3704405 C228.408695,73.3974405 228.408695,73.4244405 228.409695,73.4504405 L228.409695,73.4504405 Z" id="Fill-799" fill="#000000"></path>
            <path d="M178.312695,147.869441 C179.539695,147.396441 179.814695,148.026441 180.152695,148.453441 C184.412695,153.846441 187.326695,159.795441 188.548695,166.659441 C189.534695,172.196441 189.882695,177.715441 189.712695,183.301441 C189.695695,183.844441 189.677695,183.844441 188.676695,185.182441 C188.559695,184.591441 188.380695,184.177441 188.414695,183.779441 C188.990695,176.963441 188.125695,170.271441 186.569695,163.661441 C185.695695,159.951441 184.317695,156.424441 182.008695,153.311441 C180.743695,151.605441 179.615695,149.797441 178.312695,147.869441" id="Fill-800" fill="#000000"></path>
            <path d="M276.837695,33.4234405 C277.716695,33.3054405 277.870695,33.7884405 277.955695,34.2354405 C278.132695,35.1594405 278.159695,36.1214405 278.422695,37.0174405 C278.523695,37.3634405 279.072695,37.7324405 279.465695,37.7964405 C279.854695,37.8594405 280.466695,37.6774405 280.696695,37.3824405 C281.271695,36.6424405 281.649695,35.7544405 282.179695,34.9754405 C282.413695,34.6284405 282.822695,34.3994405 283.188695,34.0854405 C283.359695,34.4394405 283.579695,34.6884405 283.522695,34.8094405 C282.981695,35.9764405 282.393695,37.1214405 281.726695,38.4594405 C282.356695,38.9814405 282.951695,39.4734405 283.583695,39.9964405 C284.563695,39.3434405 285.423695,38.7714405 286.240695,38.2264405 C286.925695,38.7084405 286.665695,39.1364405 286.345695,39.4644405 C285.769695,40.0534405 285.042695,40.5154405 284.545695,41.1584405 C284.142695,41.6774405 283.985695,42.3854405 283.720695,43.0074405 C283.441695,42.9014405 283.106695,42.8714405 283.063695,42.7434405 C282.683695,41.6214405 282.341695,40.5324405 281.128695,39.9424405 C279.616695,39.2074405 278.099695,38.6344405 276.376695,38.8414405 C275.233695,38.9794405 274.383695,39.5634405 273.818695,40.5314405 C273.409695,41.2334405 273.089695,41.9874405 272.717695,42.7434405 C269.542695,40.1234405 269.542695,40.1234405 269.635695,38.1424405 C270.468695,38.9304405 271.193695,39.6174405 271.872695,40.2594405 C272.888695,39.9304405 273.017695,39.2494405 272.783695,38.5574405 C272.365695,37.3194405 272.200695,36.0784405 272.154695,34.0944405 C272.811695,34.9114405 273.123695,35.1634405 273.254695,35.4884405 C273.554695,36.2374405 273.765695,37.0204405 273.969695,37.6544405 C275.040695,38.1204405 275.703695,37.3364405 276.723695,37.4674405 C276.764695,35.9984405 276.801695,34.6884405 276.837695,33.4234405" id="Fill-801" fill="#000000"></path>
            <path d="M190.942695,227.405441 C191.576695,227.364441 192.284695,227.117441 192.832695,227.314441 C196.938695,228.784441 201.027695,230.304441 205.088695,231.896441 C206.430695,232.422441 207.487695,233.414441 208.109695,234.755441 C208.213695,234.979441 207.994695,235.354441 207.831695,236.060441 C205.815695,233.090441 202.858695,232.154441 200.006695,231.093441 C197.041695,229.988441 194.026695,229.020441 191.033695,227.991441 C191.003695,227.796441 190.972695,227.601441 190.942695,227.405441" id="Fill-802" fill="#000000"></path>
            <path d="M263.791695,197.200441 C264.870695,199.047441 264.956695,199.189441 264.767695,201.406441 C264.494695,204.599441 264.182695,207.791441 263.770695,210.968441 C263.573695,212.486441 263.145695,213.979441 262.736695,215.458441 C262.642695,215.800441 262.196695,216.044441 261.369695,216.885441 C262.909695,209.933441 263.660695,203.633441 263.791695,197.200441" id="Fill-803" fill="#000000"></path>
            <path d="M264.830695,5.54744055 C264.035695,6.35544055 263.800695,6.77044055 263.452695,6.92244055 C259.631695,8.58344055 256.306695,10.9894405 253.115695,13.6194405 C252.397695,14.2104405 251.566695,14.6714405 250.760695,15.1444405 C250.610695,15.2324405 250.289695,15.1494405 250.116695,15.0394405 C249.946695,14.9314405 249.863695,14.6874405 249.732695,14.4884405 C251.863695,12.8894405 253.928695,11.1914405 256.143695,9.71844055 C258.192695,8.35644055 260.387695,7.20944055 262.551695,6.02844055 C263.006695,5.77944055 263.604695,5.79344055 264.830695,5.54744055" id="Fill-804" fill="#000000"></path>
            <path d="M255.353695,218.782441 C256.763695,213.019441 257.509695,207.384441 256.930695,201.255441 C257.547695,201.708441 257.953695,201.849441 257.996695,202.063441 C258.369695,203.923441 258.592695,205.789441 258.327695,207.704441 C257.953695,210.401441 257.735695,213.118441 257.341695,215.812441 C257.209695,216.713441 256.781695,217.582441 256.396695,218.425441 C256.309695,218.614441 255.838695,218.627441 255.353695,218.782441" id="Fill-805" fill="#000000"></path>
            <path d="M271.058695,11.2974405 C270.688695,11.4904405 270.329695,11.8254405 269.947695,11.8534405 C266.667695,12.0964405 263.835695,13.4754405 261.121695,15.1984405 C260.227695,15.7664405 259.320695,16.3304405 258.360695,16.7704405 C257.892695,16.9854405 257.291695,16.9124405 256.480695,16.9984405 C257.892695,15.5494405 262.303695,12.8204405 264.688695,11.8844405 C266.651695,11.1134405 268.643695,10.4234405 271.058695,11.2974405" id="Fill-806" fill="#000000"></path>
            <path d="M278.351695,177.042441 C279.108695,176.460441 279.688695,176.737441 279.876695,177.321441 C280.233695,178.434441 280.652695,179.624441 280.586695,180.755441 C280.377695,184.298441 279.875695,187.816441 278.553695,191.149441 C278.402695,191.529441 277.985695,191.804441 277.443695,192.401441 C277.443695,191.570441 277.362695,191.105441 277.457695,190.679441 C277.942695,188.491441 278.490695,186.318441 278.982695,184.131441 C279.531695,181.696441 279.632695,179.283441 278.351695,177.042441" id="Fill-807" fill="#000000"></path>
            <path d="M243.177695,11.0044405 C243.219695,10.6944405 243.149695,10.2964405 243.317695,10.0944405 C246.233695,6.57844055 251.023695,2.57744055 253.429695,1.59944055 C253.485695,1.80044055 253.649695,2.12044055 253.579695,2.18544055 C250.378695,5.13844055 247.159695,8.07344055 243.925695,10.9914405 C243.809695,11.0954405 243.517695,11.0044405 243.177695,11.0044405" id="Fill-808" fill="#000000"></path>
            <path d="M243.780695,1.13244055 C241.456695,4.45644055 239.246695,7.62144055 237.023695,10.7774405 C236.984695,10.8324405 236.799695,10.7834405 236.672695,10.7834405 C236.585695,10.7354405 236.398695,10.6654405 236.404695,10.6284405 C236.665695,9.09744055 240.019695,3.68044055 242.070695,1.52744055 C242.434695,1.14544055 242.830695,0.582440546 243.780695,1.13244055" id="Fill-809" fill="#000000"></path>
            <path d="M229.342695,11.5834405 C230.636695,8.20544055 232.212695,4.97544055 234.672695,2.23744055 C234.834695,2.05744055 235.288695,2.13744055 235.648695,2.09144055 C235.648695,2.40044055 235.725695,2.64444055 235.637695,2.78844055 C233.762695,5.85744055 231.869695,8.91444055 229.979695,11.9734405 C229.767695,11.8434405 229.555695,11.7134405 229.342695,11.5834405" id="Fill-810" fill="#000000"></path>
            <path d="M217.113695,20.4274405 C216.732695,17.8374405 217.356695,13.1944405 218.332695,11.0364405 C218.556695,10.5414405 218.578695,10.5214405 220.348695,9.30044055 C219.796695,10.7914405 219.286695,11.9264405 218.963695,13.1134405 C218.625695,14.3574405 218.487695,15.6544405 218.223695,16.9194405 C217.979695,18.0784405 218.474695,19.4954405 217.113695,20.4274405" id="Fill-811" fill="#000000"></path>
            <path d="M213.898695,24.1614405 C212.440695,23.8004405 212.459695,22.9004405 212.481695,22.1284405 C212.550695,19.6414405 211.985695,17.0234405 213.867695,14.3614405 C214.437695,15.7794405 213.775695,16.7164405 213.824695,17.6534405 C213.878695,18.7014405 213.717695,19.7594405 213.723695,20.8124405 C213.729695,21.8484405 213.827695,22.8844405 213.898695,24.1614405" id="Fill-812" fill="#000000"></path>
            <path d="M222.653695,17.0984405 C222.313695,13.7644405 223.353695,10.6554405 224.170695,7.51244055 C224.229695,7.28744055 224.679695,7.16544055 225.173695,6.85144055 C225.173695,7.50644055 225.279695,7.97544055 225.157695,8.37544055 C224.279695,11.2564405 224.135695,14.3364405 222.653695,17.0984405" id="Fill-813" fill="#000000"></path>
            <path d="M311.669695,47.5504405 C310.942695,46.7244405 310.388695,46.0954405 309.665695,45.2764405 C309.083695,46.1024405 308.638695,46.7344405 308.161695,47.4104405 C307.434695,47.4494405 307.270695,46.9694405 307.383695,46.3084405 C307.421695,46.0854405 307.526695,45.8594405 307.650695,45.6664405 C308.423695,44.4534405 309.290695,43.9524405 310.193695,44.1774405 C311.289695,44.4494405 311.717695,45.3194405 311.669695,47.5504405" id="Fill-814" fill="#000000"></path>
        </g>
    </g>
</svg>