<?xml version="1.0" encoding="UTF-8"?>
<svg width="313px" height="194px" viewBox="0 0 313 194" version="1.1" xmlns="http://www.w3.org/2000/svg" xmlns:xlink="http://www.w3.org/1999/xlink">
    <!-- Generator: Sketch 63.1 (92452) - https://sketch.com -->
    <title>Group 7</title>
    <desc>Created with Sketch.</desc>
    <g id="Page-1" stroke="none" stroke-width="1" fill="none" fill-rule="evenodd">
        <g id="Group-7" transform="translate(0.000000, 0.000000)">
            <path d="M269.405743,122.058898 C264.105743,121.799898 258.655743,121.459898 253.265743,120.514898 C252.085743,120.308898 250.875743,120.228898 249.715743,119.978898 C247.325743,119.469898 244.945743,118.919898 242.585743,118.325898 C238.405743,117.274898 234.245743,116.153898 230.065743,115.107898 C227.585743,114.485898 225.298743,115.063898 223.288743,116.598898 C222.110743,117.498898 221.014743,118.507898 219.926743,119.517898 C217.819743,121.474898 215.720743,123.440898 213.664743,125.451898 C210.886743,128.167898 207.644743,130.158898 204.154743,131.815898 C202.212743,132.737898 200.365743,133.857898 198.451743,134.839898 C195.171743,136.523898 191.874743,138.172898 188.581743,139.831898 C186.060743,141.100898 183.456743,142.230898 181.025743,143.655898 C175.145743,147.100898 168.858743,149.242898 162.089743,149.968898 C159.517743,150.244898 156.942743,150.505898 154.365743,150.707898 C151.715743,150.914898 149.085743,150.667898 146.533743,149.937898 C140.684743,148.264898 134.870743,146.474898 129.263743,144.081898 C123.467743,141.605898 118.366743,138.078898 113.782743,133.788898 C111.928743,132.052898 110.070743,130.308898 108.363743,128.433898 C106.723743,126.632898 105.183743,124.723898 103.768743,122.741898 C102.183743,120.521898 100.741743,118.206898 98.9727431,116.112898 C96.5617431,113.257898 94.3097431,110.266898 91.8717431,107.437898 C88.8477431,103.927898 85.0327431,101.946898 80.3047431,101.971898 C79.9217431,101.973898 79.5257431,101.943898 79.1587431,102.026898 C75.5957431,102.829898 72.0577431,103.710898 69.0947431,106.017898 C67.0537431,107.607898 65.0227431,109.210898 63.0167431,110.844898 C57.4337431,115.393898 51.6707431,119.679898 45.2537431,123.001898 C40.7957431,125.309898 36.0537431,126.787898 31.1157431,127.657898 C29.0987431,128.011898 27.1177431,127.910898 25.1397431,127.367898 C22.4637431,126.631898 19.7737431,125.948898 17.0887431,125.245898 C16.9507431,125.209898 16.8057431,125.184898 16.6627431,125.181898 C14.1477431,125.129898 11.9697431,123.931898 9.67974312,123.119898 C8.12274312,122.566898 7.10174312,121.334898 6.04474312,120.158898 C5.43774312,119.483898 4.88474312,118.752898 4.23474312,118.122898 C1.62374312,115.590898 0.799743122,112.427898 1.03674312,108.938898 C1.23574312,105.998898 3.10574312,104.820898 5.91674312,105.720898 C6.96474312,106.056898 7.82374312,106.659898 8.35074312,107.620898 C8.88374312,108.591898 9.66674312,109.209898 10.6367431,109.700898 C11.7467431,110.262898 12.7627431,111.010898 13.8787431,111.554898 C19.2507431,114.171898 24.5157431,114.057898 29.5627431,110.721898 C30.7957431,109.906898 31.9737431,108.966898 33.0347431,107.938898 C36.0267431,105.038898 39.0277431,102.139898 41.8717431,99.0968978 C46.0277431,94.6518978 49.9647431,90.0008978 54.1467431,85.5808978 C63.9327431,75.2358978 74.8457431,66.2068978 86.5317431,58.0838978 C91.0237431,54.9618978 95.5517431,51.9178978 100.489743,49.5368978 C107.036743,46.3778978 113.930743,44.5778978 121.190743,44.0348978 C126.444743,43.6418978 131.619743,44.0088978 136.773743,45.0128978 C142.033743,46.0388978 146.805743,48.2318978 151.196743,51.2188978 C155.558743,54.1858978 159.687743,57.4508978 163.331743,61.3118978 C165.829743,63.9588978 168.537743,66.4058978 171.111743,68.9808978 C175.059743,72.9298978 178.315743,77.4248978 181.450743,82.0268978 C183.066743,84.3968978 184.891743,86.6278978 186.664743,88.8878978 C190.409743,93.6598978 197.855743,93.5628978 201.806743,90.7188978 C204.370743,88.8738978 206.858743,86.9148978 209.305743,84.9148978 C213.051743,81.8528978 216.585743,78.5038978 220.873743,76.1788978 C223.437743,74.7898978 226.055743,73.4768978 228.735743,72.3338978 C232.585743,70.6948978 236.675743,70.6678978 240.765743,70.9498978 C243.195743,71.1178978 245.625743,71.4668978 248.055743,71.6408978 C251.995743,71.9208978 255.855743,72.6088978 259.615743,73.7788978 C263.535743,74.9958978 267.535743,75.6838978 271.625743,75.8138978 C277.415743,75.9968978 283.215743,76.2718978 289.005743,76.2668978 C293.895743,76.2628978 298.775743,75.8698978 303.665743,75.7468978 C305.275743,75.7058978 306.905743,75.8848978 308.515743,76.1178978 C309.855743,76.3128978 311.055743,76.9478978 312.015743,77.9608978 C312.995743,78.9968978 313.195743,80.1588978 312.455743,81.3748978 C311.985743,82.1378978 311.365743,82.8348978 310.705743,83.4438978 C308.365743,85.6018978 305.475743,86.7998978 302.515743,87.8048978 C295.925743,90.0468978 289.175743,91.6678978 282.275743,92.6188978 C278.435743,93.1478978 274.565743,93.4428978 270.695743,93.7558978 C264.635743,94.2478978 258.565743,94.6508978 252.495743,95.1228978 C251.025743,95.2378978 249.535743,95.3988978 248.085743,95.6748978 C247.105743,95.8608978 246.145743,96.2208978 245.225743,96.6228978 C244.055743,97.1348978 243.785743,98.0008978 244.505743,99.0628978 C244.925743,99.6738978 245.505743,100.261898 246.145743,100.610898 C247.275743,101.221898 248.475743,101.787898 249.715743,102.115898 C253.555743,103.134898 257.415743,104.002898 261.415743,104.313898 C265.275743,104.613898 269.155743,105.038898 272.945743,105.829898 C275.775743,106.419898 278.465743,107.678898 281.225743,108.644898 C282.305743,109.023898 283.385743,109.391898 284.455743,109.803898 C285.565743,110.234898 286.715743,110.612898 287.745743,111.191898 C289.405743,112.116898 289.865743,113.751898 288.825743,115.348898 C288.165743,116.361898 287.215743,117.254898 286.235743,117.977898 C284.165743,119.503898 281.715743,120.256898 279.245743,120.872898 C276.065743,121.663898 272.835743,122.025898 269.405743,122.058898" id="Fill-562" fill="#96B5DA"></path>
            <path d="M84.5107431,61.2198978 C83.8817431,60.7448978 84.1407431,60.1948978 84.4207431,59.6858978 C84.9757431,58.6798978 85.5327431,57.6708978 86.1517431,56.7038978 C92.0637431,47.4548978 98.7277431,38.8158978 107.215743,31.7668978 C112.003743,27.7918978 116.972743,24.0518978 122.381743,20.8938978 C130.700743,16.0368978 139.293743,11.6998978 147.810743,7.22289781 C151.358743,5.35789781 155.117743,3.85689781 158.869743,2.42189781 C162.549743,1.01489781 166.435743,0.267897814 170.362743,0.0258978138 C172.351743,-0.0971021862 174.373743,0.247897814 176.375743,0.433897814 C179.290743,0.704897814 182.153743,1.24589781 184.957743,2.11689781 C191.566743,4.17189781 195.426743,8.78989781 197.095743,15.3148978 C198.148743,19.4298978 198.068743,23.6748978 198.014743,27.8968978 C197.982743,30.3548978 197.600743,32.7468978 196.901743,35.1118978 C194.892743,41.9148978 193.163743,48.7858978 192.092743,55.8068978 C191.405743,60.3048978 190.620743,64.7928978 190.087743,69.3088978 C189.421743,74.9578978 189.499743,80.5978978 191.113743,86.1268978 C191.600743,87.7928978 192.235743,89.3828978 193.309743,90.7738978 C193.868743,91.5008978 194.425743,92.1948978 195.356743,92.5018978 C195.934743,92.6938978 196.379743,93.0858978 196.185743,93.7998978 C196.032743,94.3588978 195.419743,94.6398978 194.618743,94.4178978 C193.887743,94.2158978 193.183743,93.9008978 192.484743,93.5928978 C190.823743,92.8618978 189.104743,92.2258978 187.531743,91.3338978 C184.705743,89.7278978 181.818743,88.2008978 179.365743,86.0018978 C177.648743,84.4618978 176.039743,82.8448978 174.702743,80.9478978 C172.357743,77.6198978 170.077743,74.2308978 167.517743,71.0728978 C165.411743,68.4788978 162.992743,66.1278978 160.609743,63.7738978 C158.874743,62.0578978 156.953743,60.5308978 155.149743,58.8818978 C153.951743,57.7868978 152.927743,56.4668978 151.624743,55.5268978 C149.066743,53.6798978 146.343743,52.0658978 143.739743,50.2818978 C141.972743,49.0708978 140.069743,48.2378978 138.001743,47.7308978 C136.376743,47.3328978 134.747743,46.9388978 133.142743,46.4698978 C130.352743,45.6548978 127.551743,45.8238978 124.738743,46.2658978 C124.407743,46.3178978 124.073743,46.4178978 123.745743,46.4038978 C120.737743,46.2628978 117.844743,46.9368978 114.950743,47.6118978 C111.502743,48.4148978 108.023743,49.0678978 104.697743,50.3628978 C102.279743,51.3028978 99.9347431,52.3528978 97.6937431,53.6638978 C95.6777431,54.8418978 93.6527431,55.9638978 91.4337431,56.8098978 C89.1487431,57.6808978 86.8357431,58.7628978 85.2317431,60.8118978 C85.1177431,60.9568978 84.9467431,61.0638978 84.7887431,61.1668978 C84.7157431,61.2128978 84.6067431,61.2038978 84.5107431,61.2198978" id="Fill-563" fill="#E9ABBA"></path>
            <path d="M113.876743,83.4778978 C113.941743,83.5538978 114.004743,83.6298978 114.069743,83.7068978 C114.542743,83.4738978 115.015743,83.2408978 115.488743,83.0078978 C115.423743,82.8888978 115.358743,82.7698978 115.294743,82.6518978 C114.821743,82.9268978 114.348743,83.2028978 113.876743,83.4778978 Z M110.493743,151.463898 C110.358743,155.530898 111.161743,159.029898 114.389743,161.633898 C117.331743,164.008898 120.045743,166.648898 123.142743,168.852898 C126.669743,171.362898 130.324743,173.606898 134.303743,175.316898 C136.414743,176.223898 138.514743,177.156898 140.623743,178.067898 C142.688743,178.959898 144.371743,180.362898 145.884743,181.987898 C146.093743,182.211898 146.206743,182.552898 146.288743,182.860898 C146.373743,183.180898 146.349743,183.527898 146.401743,183.858898 C146.945743,187.305898 145.211743,188.626898 141.929743,189.240898 C139.380743,189.716898 136.726743,189.873898 134.064743,189.495898 C131.942743,189.194898 129.761743,189.311898 127.608743,189.225898 C125.458743,189.139898 123.308743,189.037898 121.159743,188.932898 C120.394743,188.895898 119.625743,188.749898 118.866743,188.792898 C116.503743,188.926898 114.203743,188.434898 111.882743,188.170898 C109.544743,187.905898 107.808743,186.726898 106.575743,184.687898 C105.058743,182.179898 103.778743,179.563898 102.631743,176.873898 C100.153743,171.060898 97.6247431,165.269898 95.1847431,159.441898 C94.0247431,156.670898 93.4357431,153.766898 93.8317431,150.740898 C94.0907431,148.765898 94.8507431,146.949898 95.7947431,145.218898 C97.0547431,142.907898 98.3847431,140.633898 99.6727431,138.337898 C100.164743,137.460898 100.618743,136.564898 101.093743,135.679898 C102.268743,133.491898 102.353743,131.067898 102.445743,128.689898 C102.533743,126.412898 102.680743,124.093898 101.904743,121.869898 C102.265743,120.709898 101.703743,119.628898 101.608743,118.508898 C101.443743,116.553898 101.314743,114.592898 101.039743,112.652898 C100.653743,109.926898 100.610743,107.210898 100.976743,104.489898 C101.371743,101.547898 101.733743,98.5998978 102.220743,95.6738978 C102.619743,93.2778978 103.519743,91.0318978 105.148743,89.2038978 C107.313743,86.7748978 109.514743,84.3658978 111.855743,82.1088978 C114.147743,79.8968978 116.960743,78.6068978 120.156743,78.1728978 C123.489743,77.7208978 126.406743,78.5378978 128.946743,80.7668978 C132.611743,83.9848978 134.517743,88.0908978 135.293743,92.8398978 C136.104743,97.8068978 135.945743,102.780898 135.511743,107.747898 C134.988743,113.718898 133.988743,119.619898 132.427743,125.416898 C131.460743,129.007898 129.939743,132.348898 127.892743,135.453898 C127.312743,136.333898 126.743743,137.220898 126.190743,138.117898 C124.675743,140.573898 122.936743,142.845898 120.916743,144.916898 C119.824743,146.033898 118.884743,147.247898 117.553743,148.174898 C115.399743,149.677898 113.107743,150.775898 110.493743,151.463898 L110.493743,151.463898 Z" id="Fill-564" fill="#E6C446"></path>
            <path d="M195.228743,158.079898 C197.130743,158.821898 198.623743,159.666898 199.795743,160.976898 C200.174743,161.400898 200.553743,161.858898 200.792743,162.367898 C201.478743,163.829898 200.698743,165.197898 199.077743,165.146898 C197.467743,165.096898 195.864743,164.743898 194.261743,164.501898 C193.941743,164.454898 193.636743,164.311898 193.130743,164.150898 C193.311743,164.671898 193.417743,165.060898 193.577743,165.426898 C194.192743,166.833898 194.254743,168.313898 194.114743,169.800898 C193.996743,171.054898 193.060743,171.666898 191.990743,171.018898 C190.441743,170.081898 188.638743,169.852898 187.091743,169.053898 C185.233743,168.094898 183.534743,166.813898 181.823743,165.590898 C179.331743,163.808898 176.906743,161.931898 174.423743,160.137898 C171.778743,158.227898 169.991743,155.792898 168.910743,152.658898 C167.351743,148.137898 167.321743,143.524898 167.581743,138.883898 C167.781743,135.302898 168.189743,131.727898 168.652743,128.168898 C168.880743,126.423898 169.425743,124.717898 169.864743,123.003898 C170.032743,122.348898 170.313743,121.755898 171.076743,121.524898 C171.346743,121.442898 171.576743,121.145898 171.764743,120.900898 C171.964743,120.637898 172.066743,120.301898 172.258743,120.031898 C173.919743,117.694898 176.899743,117.380898 179.290743,119.312898 C180.778743,120.515898 181.837743,122.048898 182.435743,123.862898 C183.181743,126.125898 183.408743,128.426898 182.888743,130.794898 C182.170743,134.066898 181.552743,137.360898 180.844743,140.633898 C180.111743,144.018898 180.906743,146.971898 183.164743,149.575898 C184.232743,150.807898 185.498743,151.538898 187.171743,151.408898 C189.412743,151.233898 191.651743,151.034898 193.895743,150.881898 C195.085743,150.800898 196.288743,150.691898 197.471743,150.788898 C198.882743,150.903898 199.371743,151.636898 199.156743,153.059898 C198.923743,154.604898 198.065743,155.793898 196.887743,156.770898 C196.415743,157.161898 195.926743,157.530898 195.228743,158.079898" id="Fill-565" fill="#E6C446"></path>
            <path d="M240.595743,70.4158978 C241.325743,68.8088978 242.055743,67.2058978 242.785743,65.5958978 C242.935743,65.2478978 243.045743,64.8778978 243.205743,64.5288978 C243.425743,64.0158978 243.765743,63.6038978 244.395743,63.6988978 C245.065743,63.7978978 245.355743,64.2658978 245.415743,64.9028978 C245.515743,66.0948978 245.605743,67.2888978 245.715743,68.4788978 C245.805743,69.3808978 245.945743,70.2798978 246.065743,71.2518978 C246.735743,71.0058978 246.665743,70.4048978 246.835743,69.9648978 C247.355743,68.6318978 247.855743,67.2898978 248.375743,65.9548978 C248.455743,65.7328978 248.545743,65.4648978 248.715743,65.3308978 C249.065743,65.0538978 249.505743,64.6318978 249.855743,64.6838978 C250.215743,64.7378978 250.645743,65.2248978 250.785743,65.6158978 C251.015743,66.2818978 251.045743,67.0218978 251.165743,67.7278978 C251.395743,69.0458978 251.595743,70.3718978 251.885743,71.6778978 C252.295743,73.5408978 251.825743,74.2518978 249.925743,74.5018978 C249.635743,74.5398978 249.345743,74.5458978 249.065743,74.5668978 C248.195743,74.6298978 247.555743,74.3558978 247.375743,73.3058978 C245.945743,74.0638978 244.585743,74.8408978 242.945743,74.0468978 C242.295743,73.7308978 241.805743,73.3628978 241.675743,72.6698978 C239.675743,72.1258978 237.865743,73.0208978 235.985743,73.3328978 C234.675743,73.5478978 234.415743,73.3808978 234.095743,71.9948978 C233.455743,72.5448978 232.965743,73.4548978 231.935743,72.8998978 C231.875743,72.8698978 231.745743,72.9148978 231.685743,72.9638978 C230.205743,74.1978978 228.305743,74.4278978 226.575743,75.0668978 C226.445743,75.1158978 226.235743,75.1138978 226.185743,75.2048978 C225.587743,76.2728978 224.260743,76.1448978 223.462743,76.8808978 C223.220743,77.1048978 222.788743,77.2038978 222.670743,77.4628978 C222.275743,78.3328978 221.762743,78.4998978 220.835743,78.2488978 C220.494743,78.1558978 219.920743,78.7578978 219.513734,79.1128978 C218.621743,79.8898978 217.845743,80.8238978 216.879743,81.4858978 C215.731743,82.2738978 214.874743,81.8988978 214.531743,80.5228978 C214.129743,78.8998978 213.850743,77.2458978 213.550743,75.5978978 C213.441743,75.0028978 213.552743,74.4248978 214.164743,74.1228978 C214.773743,73.8228978 215.260743,74.1138978 215.726743,74.5068978 C216.419743,75.0918978 217.113743,75.6788978 217.847743,76.2098978 C218.213743,76.4748978 218.668743,76.6188978 219.285743,76.9138978 C219.396743,76.1008978 219.523743,75.5058978 219.549743,74.9068978 C219.618743,73.2798978 219.645743,71.6518978 219.687743,70.0248978 C219.694743,69.7378978 219.689743,69.4498978 219.699743,69.1628978 C219.722743,68.5558978 219.866743,68.0058978 220.520743,67.7888978 C221.178743,67.5688978 221.657743,67.9288978 222.000743,68.4058978 C222.556743,69.1788978 223.051743,69.9978978 223.550743,70.8098978 C223.841743,71.2838978 224.089743,71.7838978 224.510743,72.5498978 C225.111743,70.5138978 225.618743,68.8018978 226.125743,67.0878978 C226.255743,66.6288978 226.365743,66.1618978 226.505743,65.7058978 C226.685743,65.1548978 226.865743,64.5828978 227.575743,64.5088978 C228.265743,64.4388978 228.635743,64.8578978 228.905743,65.3988978 C229.565743,66.6748978 230.225743,67.9468978 230.845743,69.2398978 C231.175743,69.9268978 231.415743,70.6568978 231.745743,71.4758978 C232.445743,71.0428978 232.595743,70.3658978 232.795743,69.7098978 C233.345743,67.8768978 233.905743,66.0478978 234.465743,64.2198978 C234.565743,63.9018978 234.675743,63.5738978 234.845743,63.2918978 C235.315743,62.5068978 236.145743,62.3588978 236.755743,63.0258978 C237.165743,63.4678978 237.445743,64.0528978 237.705743,64.6118978 C238.575743,66.5218978 239.415743,68.4488978 240.265743,70.3698978 C240.375743,70.3848978 240.485743,70.3998978 240.595743,70.4158978" id="Fill-566" fill="#E6C446"></path>
            <path d="M47.5857431,100.801898 C45.7107431,98.3788978 45.7257431,96.3628978 47.5787431,95.0418978 C49.1287431,93.9378978 51.3357431,94.3468978 52.3827431,95.9318978 C53.5947431,97.7668978 52.9077431,99.6668978 50.4677431,101.225898 C51.9147431,103.277898 51.9297431,104.503898 50.5337431,106.414898 C49.5567431,107.749898 47.7967431,108.246898 46.4747431,107.559898 C45.1707431,106.881898 44.6647431,105.325898 45.1987431,103.701898 C45.6187431,102.423898 46.4187431,101.459898 47.5857431,100.801898" id="Fill-567" fill="#000000"></path>
            <path d="M236.085743,86.2448978 C233.835743,86.2268978 232.605743,84.8668978 232.915743,82.5678978 C232.985743,81.9688978 233.055743,81.1238978 233.445743,80.8568978 C234.445743,80.1708978 235.575743,79.5428978 236.745743,79.2688978 C238.405743,78.8768978 239.945743,79.9488978 240.565743,81.5928978 C241.195743,83.2298978 240.705743,84.7248978 239.105743,85.4418978 C238.175743,85.8638978 237.095743,85.9868978 236.085743,86.2448978" id="Fill-568" fill="#83A8D4"></path>
            <path d="M160.034743,80.2478978 C160.152743,78.8358978 160.557743,77.4488978 161.914743,76.5218978 C163.091743,75.7178978 164.590743,75.7678978 165.638743,76.6538978 C166.660743,77.5188978 166.988743,78.8828978 166.423743,80.1668978 C166.115743,80.8628978 165.780743,81.5648978 165.343743,82.1818978 C164.575743,83.2688978 163.247743,83.6458978 162.027743,83.2338978 C160.839743,82.8318978 160.038743,81.6788978 160.034743,80.2478978" id="Fill-569" fill="#000000"></path>
            <path d="M122.868743,59.6818978 C121.023743,59.6568978 119.505743,58.1108978 119.523743,56.2768978 C119.542743,54.4328978 121.074743,52.9118978 122.918743,52.9068904 C124.817743,52.9028978 126.388743,54.5088978 126.331743,56.3978978 C126.274743,58.2448978 124.731743,59.7088978 122.868743,59.6818978" id="Fill-570" fill="#000000"></path>
            <path d="M130.733768,66.5818978 C130.726743,68.4458978 129.235743,69.9538978 127.382743,69.9708978 C125.487743,69.9878978 123.938743,68.4008978 123.982743,66.4858978 C124.024743,64.6328978 125.571743,63.1338978 127.407743,63.1678978 C129.264743,63.2008978 130.740743,64.7148978 130.733768,66.5818978" id="Fill-571" fill="#000000"></path>
            <path d="M72.3577431,70.8098978 C74.2987431,70.8808978 75.6437431,72.4878978 75.3577431,74.2388978 C75.2737431,74.7548978 75.0817431,75.2528978 74.9457431,75.7618978 C74.6047431,77.0478978 73.8107431,77.8558978 72.4667431,78.0178978 C71.3187431,78.1578978 69.9787431,77.3888978 69.4207431,76.2368978 C68.7917431,74.9338978 68.8987431,73.6338978 69.6707431,72.4098978 C70.3287431,71.3678978 71.2427431,70.7518978 72.3577431,70.8098978" id="Fill-572" fill="#000000"></path>
            <path d="M106.950743,62.8718978 C106.325743,62.8418978 105.360743,62.4838978 104.589743,61.7018978 C103.625743,60.7238978 103.450743,59.3298978 104.110743,58.1478978 C104.763743,56.9788978 106.065743,56.3768978 107.380743,56.6828978 C107.886743,56.8008978 108.388743,56.9758978 108.858743,57.1978978 C110.342743,57.8958978 111.031743,59.2628978 110.655743,60.6818978 C110.269743,62.1408978 109.081743,62.9508978 106.950743,62.8718978" id="Fill-573" fill="#000000"></path>
            <path d="M62.8687431,90.6648978 C62.9007431,92.3638978 61.2447431,94.1078978 59.5537431,94.1578978 C57.8847431,94.2068978 56.3367431,92.6158978 56.3037431,90.8208978 C56.2717431,89.0518978 57.7247431,87.7098978 59.6777431,87.703883 C61.4787431,87.6988978 62.8377431,88.9598978 62.8687431,90.6648978" id="Fill-574" fill="#000000"></path>
            <path d="M84.4847431,63.9548978 C86.3717431,63.9378978 88.0357431,65.4408978 88.0487431,67.1728978 C88.0627431,68.8308978 86.6367431,70.2878978 84.9587431,70.3318978 C83.2007431,70.3768978 81.5297431,68.7548978 81.5097431,66.9828978 C81.4907431,65.3058978 82.8037431,63.9688978 84.4847431,63.9548978" id="Fill-575" fill="#000000"></path>
            <path d="M35.4377431,118.8409 C33.5737431,118.838898 32.1687431,117.482898 32.2027431,115.719898 C32.2357431,114.039898 33.7747431,112.505898 35.4427431,112.489898 C37.1837431,112.473898 38.7657431,114.049898 38.7527431,115.790898 C38.7407431,117.541898 37.3257431,118.842898 35.4377431,118.8409" id="Fill-576" fill="#000000"></path>
            <path d="M71.1947431,86.6768978 C69.4157431,86.6948978 68.0247431,85.4028978 67.9957431,83.7078978 C67.9657431,81.9288978 69.3947431,80.6088978 71.3707431,80.5898978 C73.1807431,80.5728978 74.5467431,81.8268978 74.5757431,83.5298978 C74.6057431,85.2808978 73.1257431,86.6578978 71.1947431,86.6768978" id="Fill-577" fill="#000000"></path>
            <path d="M144.777743,66.9138978 C144.725743,68.7598978 143.129743,70.3588978 141.393743,70.3038978 C139.745743,70.2518978 138.417743,68.8448978 138.473743,67.2088978 C138.534743,65.4028978 140.194743,63.7398978 141.880743,63.7948978 C143.524743,63.8498978 144.825743,65.2498978 144.777743,66.9138978" id="Fill-578" fill="#000000"></path>
            <path d="M96.7857431,61.1598978 C98.4307431,61.1348978 99.8307431,62.4778978 99.8647431,64.1128978 C99.9007431,65.8508978 98.2897431,67.3688978 96.3807431,67.3928978 C94.7197431,67.4148978 93.3447431,66.0938978 93.3107431,64.4438978 C93.2747431,62.6928978 94.8667431,61.1888978 96.7857431,61.1598978" id="Fill-579" fill="#000000"></path>
            <path d="M86.5677431,79.8248978 C84.8407431,79.8498978 83.5007431,78.6018978 83.4577431,76.9288978 C83.4097431,75.0828978 84.8877431,73.7198978 86.9357431,73.7228929 C88.6597431,73.7258978 89.9707431,75.0018978 89.9827431,76.6868978 C89.9947431,78.4658978 88.5477431,79.7948978 86.5677431,79.8248978" id="Fill-580" fill="#000000"></path>
            <path d="M304.565743,86.3608978 C305.465743,86.3268978 305.925743,86.7668978 305.905743,87.5768978 C305.895743,87.8108978 305.845743,88.0518978 305.775743,88.2788978 C305.305743,89.8298978 304.835743,91.3828978 304.325743,92.9218978 C304.175743,93.3678978 303.955743,93.8178978 303.665743,94.1818978 C302.995743,95.0278978 302.065743,94.8718978 301.685743,93.8488978 C301.475743,93.2708978 301.385743,92.6488978 301.255743,92.0428978 C301.115743,91.3888978 301.015743,90.7278978 300.865743,90.0768978 C300.485743,88.3588978 301.245743,87.1908978 303.015743,86.7908978 C303.565743,86.6648978 304.115743,86.4878978 304.565743,86.3608978" id="Fill-581" fill="#83A8D4"></path>
            <path d="M149.159743,69.4858978 C147.471743,69.4708978 146.175743,68.1358978 146.212743,66.4488978 C146.246743,64.8438978 147.560743,63.5338978 149.153743,63.5128978 C150.771743,63.4928978 152.190743,64.8928978 152.195757,66.5158978 C152.200743,68.1618978 150.832743,69.5008978 149.159743,69.4858978" id="Fill-582" fill="#000000"></path>
            <path d="M96.715738,72.0498978 C96.7127431,70.3548978 98.0327431,69.0438978 99.7277431,69.0598978 C101.399743,69.0768978 102.752743,70.4548978 102.714743,72.1028978 C102.679743,73.6968978 101.351743,75.0038978 99.7477431,75.0258978 C98.0577431,75.0478978 96.7197431,73.7348978 96.715738,72.0498978" id="Fill-583" fill="#000000"></path>
            <path d="M135.941743,59.9748978 C134.367743,59.9468978 133.156743,58.6648978 133.204743,57.0798978 C133.251743,55.5628978 134.473743,54.3628978 135.982743,54.3528978 C137.544743,54.3418978 138.802743,55.6148978 138.790743,57.1918978 C138.778743,58.7748978 137.520743,60.0038978 135.941743,59.9748978" id="Fill-584" fill="#000000"></path>
            <path d="M115.028743,62.8908978 C116.517743,62.8488978 117.776743,64.0778978 117.794743,65.5878978 C117.811743,67.0568978 116.690743,68.2508978 115.232743,68.3168978 C113.715743,68.3858978 112.436743,67.2228978 112.375743,65.7208978 C112.315743,64.2438978 113.544743,62.9338978 115.028743,62.8908978" id="Fill-585" fill="#000000"></path>
            <path d="M284.825743,107.656898 C284.825743,108.326898 284.845743,108.997898 284.815743,109.664898 C284.785743,110.384898 284.355743,110.756898 283.655743,110.903898 C282.605743,111.120898 281.665743,110.764898 280.755743,110.392898 C280.165743,110.158898 280.115743,109.548898 280.335743,109.031898 C280.605743,108.421898 280.975743,107.857898 281.315743,107.282898 C281.775743,106.499898 282.245743,105.724898 282.715743,104.943898 C283.005743,104.460898 283.355743,104.083898 283.975743,104.218898 C284.655743,104.367898 284.875743,104.891898 284.905743,105.505898 C284.935743,106.221898 284.915743,106.939898 284.915743,107.656898 C284.885743,107.656898 284.855743,107.656898 284.825743,107.656898" id="Fill-586" fill="#83A8D4"></path>
            <path d="M285.655743,89.9128978 C286.085743,90.2638978 286.435743,90.5878978 286.825743,90.8468978 C287.265743,91.1358978 287.695743,91.2198978 288.285743,91.1168978 C289.025743,90.9878978 289.835743,91.2408978 290.585743,91.3248978 C291.205743,92.8678978 290.715743,94.9448978 289.555743,95.8908978 C288.755743,96.5428978 288.045743,96.4198978 287.575743,95.5128978 C287.355743,95.0918978 287.225743,94.6258978 287.025743,94.1908978 C286.645743,93.3628978 286.215743,92.5978978 285.445743,92.0228978 C284.525743,91.3408978 284.595743,90.8828978 285.655743,89.9128978" id="Fill-587" fill="#83A8D4"></path>
            <path d="M293.495743,90.5848978 C294.605743,90.0638978 295.665743,89.5418978 296.745743,89.0728978 C297.345743,88.8118978 297.815743,89.1338978 298.005743,89.6758978 C298.165743,90.1598978 298.225743,90.7148978 298.175743,91.2248978 C298.065743,92.3628978 297.885743,93.4958978 297.695743,94.6238978 C297.605743,95.1598978 297.375743,95.6698978 296.755743,95.7448978 C296.135743,95.8178978 295.805743,95.3988978 295.565743,94.8948978 C294.885743,93.4778978 294.205743,92.0618978 293.495743,90.5848978" id="Fill-588" fill="#83A8D4"></path>
            <path d="M279.915743,106.846898 C279.915743,107.466898 279.955743,108.088898 279.905743,108.706898 C279.835743,109.721898 279.385743,110.039898 278.405743,109.815898 C277.755743,109.668898 277.155743,109.537898 276.725743,108.880898 C276.005743,107.779898 275.955743,107.574898 276.645743,106.453898 C277.015743,105.847898 277.375743,105.223898 277.685743,104.583898 C277.975743,103.977898 278.325743,103.483898 279.085743,103.670898 C279.845743,103.856898 279.955743,104.467898 279.945743,105.129898 C279.935743,105.702898 279.935743,106.274898 279.935743,106.846898 C279.935743,106.846898 279.925743,106.846898 279.915743,106.846898" id="Fill-589" fill="#83A8D4"></path>
            <path d="M289.825743,107.862898 C289.465743,109.273898 289.225743,110.538898 288.805743,111.746898 C288.605743,112.341898 288.025743,112.700898 287.295743,112.531898 C287.115743,112.489898 286.945743,112.377898 286.765743,112.337898 C285.245743,112.008898 285.085743,111.658898 285.845743,110.378898 C286.215743,109.765898 286.515743,109.111898 286.915743,108.522898 C287.255743,108.020898 287.645743,107.514898 288.115743,107.147898 C288.385743,106.931898 288.955743,106.821898 289.245743,106.959898 C289.545743,107.103898 289.675743,107.607898 289.825743,107.862898" id="Fill-590" fill="#83A8D4"></path>
            <path d="M275.795743,103.274898 C275.675743,104.437898 275.605743,105.630898 275.425743,106.808898 C275.265743,107.878898 274.525743,108.099898 273.715743,107.383898 C273.645743,107.322898 273.615743,107.215898 273.545743,107.155898 C271.975743,105.789898 271.975743,105.790898 272.865743,103.910898 C273.095743,103.436898 273.335743,102.969898 273.545743,102.491898 C273.825743,101.868898 274.215743,101.429898 274.975743,101.619898 C275.675743,101.792898 275.755743,102.370898 275.795743,102.963898 C275.795743,103.058898 275.795743,103.154898 275.795743,103.274898" id="Fill-591" fill="#83A8D4"></path>
            <path d="M269.685743,105.661898 C269.685743,105.640898 269.645743,105.831898 269.655743,106.017898 C269.685743,106.470898 269.675743,107.002898 269.175743,107.067898 C268.645743,107.133898 268.025743,107.060898 267.555743,106.830898 C266.985743,106.549898 266.695743,105.417898 266.905743,104.794898 C267.165743,103.979898 267.465743,103.174898 267.745743,102.364898 C267.945743,101.808898 268.285743,101.433898 268.915743,101.566898 C269.465743,101.681898 269.675743,102.119898 269.685743,102.641898 C269.695743,103.578898 269.685743,104.514898 269.685743,105.661898" id="Fill-592" fill="#83A8D4"></path>
            <path d="M224.881743,114.429898 C223.769743,116.749898 222.276743,117.034898 221.376743,115.376898 C220.662743,115.704898 219.929743,116.021898 219.213743,116.375898 C218.484743,116.735898 217.773743,117.130898 217.255743,117.404898 C216.943743,118.773898 216.703743,119.974898 216.389743,121.156898 C216.175743,121.961898 215.688743,122.301898 215.084743,122.209898 C214.423743,122.107898 214.021743,121.504898 214.132743,120.681898 C214.208743,120.130898 214.372743,119.591898 214.543743,118.840898 C212.045743,119.831898 209.903743,121.037898 207.750743,122.346898 C207.829743,123.776898 207.544743,125.214898 208.444743,126.520898 C208.620743,126.774898 208.545743,127.460898 208.323743,127.665898 C208.035743,127.931898 207.451743,128.076898 207.057743,127.989898 C206.294743,127.820898 205.892743,127.174898 205.746743,126.427898 C205.583743,125.592898 205.480743,124.746898 205.329743,123.768898 C202.831743,124.993898 200.398743,126.185898 197.849743,127.434898 C197.993743,129.322898 197.675743,131.288898 198.315743,133.193898 C198.508743,133.766898 198.424743,134.251898 197.898743,134.569898 C197.369743,134.888898 196.778743,134.752898 196.469743,134.314898 C196.102743,133.793898 195.797743,133.146898 195.719743,132.521898 C195.553743,131.202898 195.551743,129.863898 195.478743,128.441898 C192.659743,129.123898 189.944743,129.779898 187.054743,130.478898 C187.277743,132.906898 186.851743,135.380898 187.393743,137.832898 C187.520743,138.407898 187.467743,138.902898 186.914743,139.190898 C186.302743,139.510898 185.698743,139.284898 185.414743,138.756898 C185.087743,138.151898 184.853743,137.432898 184.810743,136.749898 C184.718743,135.317898 184.777743,133.876898 184.774743,132.438898 C184.774743,131.967898 184.774743,131.497898 184.774743,130.995898 C184.070743,130.995898 183.515743,130.995898 183.147743,130.995898 C182.388743,132.328898 181.840743,133.623898 181.005743,134.694898 C178.421743,138.007898 174.711743,137.563898 172.884743,133.785898 C172.246743,132.469898 171.972743,131.057898 172.055743,129.599898 C172.142743,128.068898 172.946743,126.999898 174.351743,126.402898 C175.920743,125.734898 177.498743,126.472898 178.028743,128.092898 C178.230743,128.708898 178.118743,129.242898 177.570743,129.613898 C177.008743,129.993898 176.478743,129.863898 176.017743,129.402898 C175.817743,129.201898 175.640743,128.978898 175.458743,128.773898 C174.753743,128.848898 174.520743,129.351898 174.533743,129.881898 C174.567743,131.183898 174.773743,132.463898 175.621743,133.531898 C176.490743,134.625898 177.408743,134.751898 178.455743,133.842898 C179.614743,132.836898 180.410743,131.583898 180.472743,130.006898 C180.568743,127.511898 180.021743,125.149898 178.735743,122.994898 C177.855743,121.515898 176.809743,121.189898 175.208743,121.889898 C171.875743,123.347898 170.254743,125.971898 170.112743,129.556898 C170.084743,130.273898 170.112743,130.995898 170.166743,131.710898 C170.303743,133.521898 169.574743,134.425898 167.763743,134.448898 C166.039743,134.468898 164.314743,134.382898 162.591743,134.297898 C160.774743,134.208898 158.949743,134.157898 157.150743,133.916898 C155.403743,133.681898 153.688743,133.222898 151.957743,132.873898 C150.646743,132.607898 149.331743,132.359898 147.905743,132.081898 C147.869743,132.450898 147.823743,132.755898 147.811743,133.062898 C147.650743,137.036898 147.498743,141.008898 147.334743,144.982898 C147.295743,145.890898 147.225743,146.798898 147.154743,147.706898 C147.104743,148.342898 146.826743,148.812898 146.130743,148.889898 C145.499743,148.959898 145.027743,148.551898 144.872743,147.773898 C144.808743,147.449898 144.811743,147.105898 144.825743,146.772898 C145.003743,142.656898 145.177743,138.541898 145.378743,134.425898 C145.421743,133.525898 145.564743,132.628898 145.685743,131.512898 C142.764743,130.901898 139.890743,129.787898 137.343743,128.034898 C137.017743,129.102898 136.632743,130.039898 136.456743,131.012898 C136.115743,132.895898 135.879743,134.798898 135.623743,136.696898 C135.346743,138.737898 135.074743,140.778898 134.846743,142.825898 C134.774743,143.477898 134.778743,144.157898 134.875743,144.805898 C134.975743,145.473898 134.824743,145.948898 134.202743,146.206898 C133.597743,146.456898 132.763743,146.130898 132.537743,145.462898 C132.359743,144.937898 132.303743,144.330898 132.358743,143.775898 C132.524743,142.108898 132.759743,140.447898 132.987743,138.787898 C133.379743,135.941898 133.751743,133.091898 134.206743,130.254898 C134.376743,129.195898 134.436743,127.987898 135.887743,127.610898 C135.861743,127.515898 135.835743,127.419898 135.808743,127.325898 C135.070743,127.107898 134.339743,126.861898 133.593743,126.678898 C132.375743,126.381898 131.908743,125.952898 132.044743,125.176898 C132.177743,124.410898 132.779743,124.063898 134.024743,124.408898 C135.535743,124.826898 137.131743,125.236898 138.430743,126.059898 C142.133743,128.408898 146.295743,129.246898 150.463743,130.131898 C151.727743,130.400898 153.003743,130.611898 154.264743,130.895898 C158.504743,131.849898 162.819743,131.868898 167.129743,131.966898 C167.306743,131.970898 167.485743,131.894898 167.780743,131.831898 C167.780743,131.045898 167.760743,130.290898 167.783743,129.535898 C167.917743,125.187898 169.807743,121.907898 173.759743,119.966898 C174.595743,119.556898 175.563743,119.312898 176.492743,119.218898 C178.149743,119.053898 179.446743,119.786898 180.415743,121.149898 C181.697743,122.951898 182.312743,125.000898 182.725743,127.131898 C182.814743,127.589898 182.891743,128.048898 182.995743,128.627898 C183.868743,128.522898 184.619743,128.446898 185.366743,128.339898 C192.498743,127.321898 198.954743,124.527898 205.186743,121.019898 C209.938743,118.343898 214.842743,115.937898 219.674743,113.401898 C221.622743,112.377898 223.747743,112.023898 225.887743,111.751898 C227.115743,111.595898 227.805743,112.038898 227.895743,112.856898 C227.975743,113.672898 227.425743,114.099898 226.115743,114.260898 C225.689743,114.312898 225.266743,114.376898 224.881743,114.429898" id="Fill-593" fill="#000000"></path>
            <path d="M137.331743,102.611898 C137.296743,98.1048978 136.419743,93.4138978 134.856743,88.8508978 C133.743743,85.5998978 131.807743,82.7908978 129.224743,80.6408978 C125.831743,77.8198978 121.782743,77.0558978 117.463743,78.2498978 C114.514743,79.0648978 112.069743,80.6588978 110.157743,83.0738978 C108.388743,85.3068978 106.993743,87.7488978 105.917743,90.3808978 C105.647743,91.0438978 105.357743,91.7078978 104.990743,92.3208978 C104.685743,92.8308978 104.144743,92.9528978 103.599743,92.7208978 C103.031743,92.4808978 102.827743,91.9748978 103.008743,91.4168978 C103.257743,90.6448978 103.601743,89.9038978 103.907743,89.1508978 C105.127743,86.1548978 106.733743,83.3838978 108.865743,80.9468978 C113.453743,75.7018978 121.307743,73.2028978 129.101743,77.4838978 C129.848743,77.8938978 130.565743,78.4208978 131.163743,79.0258978 C134.132743,82.0218978 136.518743,85.3808978 137.724743,89.5058978 C139.186743,94.5078978 140.048743,99.5768978 139.862743,104.804898 C139.716743,108.907898 138.763743,112.743898 136.466743,116.216898 C133.618743,120.525898 128.291743,122.757898 123.235743,121.638898 C122.302743,121.432898 121.379743,121.165898 120.466743,120.881898 C118.151743,120.164898 116.308743,118.795898 114.810743,116.886898 C112.588743,114.054898 111.415743,110.833898 110.845743,107.310898 C110.244743,103.590898 110.798743,100.083898 112.264743,96.6448978 C113.597743,93.5178978 115.783743,91.1878978 118.656743,89.4798978 C122.045743,87.4648978 125.236743,87.9328978 127.769743,90.9718978 C129.200743,92.6898978 130.516743,94.5548978 131.575743,96.5208978 C132.947743,99.0658978 133.423743,101.869898 132.650743,104.736898 C131.861743,107.662898 130.163743,109.815898 127.082743,110.534898 C124.325743,111.176898 121.997743,110.260898 120.348743,108.048898 C118.587743,105.688898 117.952743,102.958898 118.599743,100.022898 C118.721743,99.4698978 118.936743,98.9168978 119.215743,98.4238978 C120.310743,96.4938978 122.465743,95.8268978 124.403743,96.7758978 C126.354743,97.7318978 127.283743,100.036898 126.513743,102.009898 C126.182743,102.859898 125.581743,103.249898 124.880743,103.069898 C124.233743,102.902898 123.939743,102.376898 124.005743,101.479898 C124.030743,101.145898 124.115743,100.812898 124.106743,100.480898 C124.085743,99.7178978 123.637743,99.1748978 122.955743,99.0358978 C122.241743,98.8878978 121.753743,99.1998978 121.423743,99.8148978 C121.378743,99.8988978 121.332743,99.9838978 121.294743,100.070898 C120.394743,102.134898 121.403743,105.940898 123.210743,107.296898 C124.993743,108.634898 127.545743,108.270898 128.980743,106.438898 C130.165743,104.924898 130.627743,103.155898 130.296743,101.295898 C130.047743,99.9008978 129.690743,98.4468978 129.010743,97.2248978 C128.064743,95.5228978 126.864743,93.9358978 125.603743,92.4418978 C124.119743,90.6848978 122.335743,90.4298978 120.309743,91.5438978 C117.993743,92.8178978 116.113743,94.5548978 114.974743,96.9998978 C112.035743,103.304898 112.717743,109.334898 116.655743,114.933898 C119.375743,118.800898 123.431743,119.701898 127.879743,119.043898 C131.016743,118.581898 133.210743,116.775898 134.813743,114.003898 C136.817743,110.539898 137.312743,106.813898 137.331743,102.611898" id="Fill-594" fill="#000000"></path>
            <path d="M4.65074312,104.399898 C2.94774312,106.722898 1.74574312,109.711898 3.48174312,117.006898 C3.03074312,116.358898 2.73374312,115.994898 2.50474312,115.589898 C1.91674312,114.547898 1.42774312,113.443898 0.771743122,112.447898 C-0.0962568783,111.132898 -0.122256878,109.733898 0.160743122,108.297898 C1.11374312,103.468898 3.97774312,100.146898 8.36374312,98.0628978 C9.17974312,97.6748978 9.89874312,97.8478978 10.2757431,98.4538978 C10.6237431,99.0128978 10.4957431,99.5918978 9.86474312,100.242898 C9.29874312,100.825898 8.68474312,101.366898 8.15974312,101.983898 C7.35374312,102.933898 7.12674312,104.040898 7.61474312,105.208898 C8.68074312,107.754898 10.2997431,109.692898 13.1677431,110.331898 C15.6557431,110.884898 18.1517431,111.340898 20.7077431,111.136898 C21.7947431,111.049898 22.9307431,110.924898 23.9327431,110.530898 C29.8037431,108.221898 35.3917431,105.371898 40.0607431,101.045898 C42.6927431,98.6078978 45.1947431,96.0168978 47.6217431,93.3728978 C54.3257431,86.0688978 60.9417431,78.6828978 67.6287431,71.3638978 C71.1347431,67.5278978 75.0127431,64.1098978 79.5417431,61.5088978 C80.6937431,60.8468978 81.9487431,60.3358978 83.2067431,59.9018978 C83.6777431,59.7398978 84.3697431,59.8568978 84.8157431,60.1068978 C85.1287431,60.2818978 85.3277431,60.8908978 85.3422995,61.3148978 C85.3597431,61.8308978 84.9387431,62.2488978 84.4027431,62.2098978 C82.8947431,62.0988978 81.7497431,62.9258978 80.5657431,63.6208978 C76.6497431,65.9178978 73.2257431,68.8448978 70.1667431,72.1698978 C66.2117431,76.4708978 62.4197431,80.9208978 58.4657431,85.2238978 C53.2497431,90.9018978 48.0207431,96.5718978 42.6497431,102.101898 C39.3237431,105.526898 35.3097431,108.088898 31.0347431,110.209898 C29.6627431,110.890898 28.2357431,111.461898 26.8747431,112.162898 C23.5797431,113.858898 20.0827431,114.035898 16.5087431,113.590898 C15.2287431,113.432898 13.9617431,113.152898 12.6987431,112.881898 C8.62974312,112.009898 6.31274312,109.286898 4.99174312,105.527898 C4.86774312,105.174898 4.77474312,104.811898 4.65074312,104.399898" id="Fill-595" fill="#000000"></path>
            <path d="M99.4757431,104.909898 C98.8857431,107.547898 98.2957431,110.185898 97.6957431,112.869898 C97.4757431,112.798898 97.3267431,112.791898 97.2327431,112.715898 C95.5917431,111.387898 95.5757431,111.381898 96.0667431,109.242898 C96.5277431,107.235898 97.0027431,105.231898 97.5267431,103.241898 C97.7827431,102.270898 97.6427431,101.499898 96.9067431,100.770898 C96.0577431,99.9308978 95.3307431,98.9688978 94.4907431,98.1198978 C93.9977431,97.6208978 93.3877431,97.2378978 92.6047431,96.6268978 C92.4627431,98.2448978 92.3407431,99.6048978 92.2237431,100.964898 C92.1177431,102.206898 92.0387431,103.449898 91.9027431,104.686898 C91.8477431,105.191898 91.6767431,105.683898 91.5507431,106.212898 C91.3007431,106.137898 91.1507431,106.124898 91.0377431,106.052898 C89.8897431,105.333898 89.4187431,104.446898 89.6767431,102.966898 C90.0457431,100.852898 90.0817431,98.6788978 90.2317431,96.5298978 C90.3097431,95.4078978 90.1317431,95.1338978 89.0817431,94.6678978 C87.1137431,93.7928978 85.0697431,93.1688978 82.7727431,92.7678978 C82.7727431,93.4298978 82.7947431,93.9898978 82.7687431,94.5478978 C82.6737431,96.6528978 82.5687431,98.7568978 82.4587431,100.861898 C82.4107431,101.757898 82.1067431,102.167898 81.4947431,102.213898 C80.8627431,102.261898 80.2857431,101.755898 80.1427431,100.973898 C80.0837431,100.648898 80.0957431,100.304898 80.1147431,99.9718978 C80.2577431,97.5368978 80.4107431,95.1008978 80.5597431,92.6708978 C79.0897431,92.3758978 74.7417431,94.1188978 72.2777431,96.0018978 C72.3587431,96.7968978 72.5137431,97.6498978 72.5147431,98.5018978 C72.5177431,99.9338978 72.3957431,101.365898 72.3767431,102.798898 C72.3657431,103.680898 71.9727431,104.208898 71.1587431,104.501898 C70.7657431,104.644898 70.4087431,104.886898 69.8037431,105.206898 C69.7917431,102.645898 70.6787431,100.263898 69.9717431,97.7378978 C69.6247431,97.9958978 69.3187431,98.1788978 69.0657431,98.4178978 C67.2817431,100.107898 65.6607431,101.956898 64.4897431,104.109898 C63.6497431,105.652898 63.1887431,107.395898 62.4187431,108.981898 C61.5427431,110.785898 60.5267431,112.521898 59.5397431,114.267898 C59.2187431,114.834898 58.6747431,115.008898 58.0507431,114.761898 C57.4117431,114.508898 57.0197431,113.774898 57.2367431,113.119898 C57.3687431,112.720898 57.6187431,112.350898 57.8697431,112.006898 C59.2667431,110.089898 60.1777431,107.938898 61.0157431,105.738898 C61.4727431,104.540898 61.9917431,103.337898 62.6717431,102.256898 C64.3157431,99.6488978 66.3607431,97.3688978 68.7327431,95.3858978 C69.1297431,95.0528978 69.4547431,94.6328978 69.8227431,94.2638978 C69.9887431,94.0978978 70.1567431,93.9068978 70.3627431,93.8108978 C72.3107431,92.9068978 74.2887431,92.0658978 76.2147431,91.1188978 C78.5107431,89.9898978 80.8437431,89.8168978 83.3367431,90.3538978 C87.2697431,91.2018978 90.9907431,92.5228978 94.2407431,94.9288978 C95.4617431,95.8338978 96.5177431,96.9608978 97.6357431,98.0008978 C98.2947431,98.6118978 98.9337431,99.2448978 99.5727431,99.8768978 C99.7397431,100.041898 99.8977431,100.224898 100.020743,100.422898 C101.100743,102.161898 102.153743,103.917898 103.257743,105.640898 C103.607743,106.187898 103.776743,106.683898 103.300743,107.196898 C102.837743,107.696898 102.239743,107.700898 101.740743,107.319898 C101.295743,106.979898 100.938743,106.510898 100.586743,106.064898 C100.296743,105.695898 100.072743,105.275898 99.8187431,104.877898 C99.7047431,104.888898 99.5907431,104.898898 99.4757431,104.909898" id="Fill-596" fill="#000000"></path>
            <path d="M151.408743,56.5972602 C150.686743,56.6168978 150.159743,55.8058978 150.545743,54.9738978 C150.783743,54.4598978 151.177743,54.0198978 151.478743,53.5318978 C158.156743,42.7138978 165.647743,32.4888978 173.945743,22.8608978 C177.945743,18.2198978 182.025743,13.6478978 186.059743,9.03489781 C186.845743,8.13589781 187.581743,7.19189781 188.340743,6.26789781 C188.491743,6.08389781 188.609743,5.78989781 188.798743,5.73589781 C189.225743,5.61289781 189.721743,5.47589781 190.122743,5.58589781 C190.689743,5.74389781 190.922743,6.31089781 190.766743,6.86489781 C190.628743,7.35589781 190.384743,7.85889781 190.058743,8.24889781 C188.921743,9.60589781 187.751743,10.9368978 186.554743,12.2408978 C175.525743,24.2448978 165.154743,36.7708978 156.203743,50.4258978 C155.101743,52.1068978 154.054743,53.8238978 152.957743,55.5078978 C152.620743,56.0248978 152.252743,56.5558978 151.408743,56.5972602" id="Fill-597" fill="#000000"></path>
            <path d="M196.54982,12.6708978 C196.434743,13.4778978 195.880743,14.0728978 195.082743,14.5218978 C194.512743,14.8418978 193.905743,15.1628978 193.453743,15.6208978 C185.569743,23.5978978 178.089743,31.9298978 171.266743,40.8418978 C166.897743,46.5478978 162.721743,52.3878978 158.970743,58.5228978 C158.622743,59.0908978 158.320743,59.6908978 158.024743,60.2898978 C157.642743,61.0638978 157.085743,61.3558978 156.453743,61.0758978 C155.862743,60.8128978 155.558743,60.0758978 155.829743,59.3648978 C156.015743,58.8768978 156.298743,58.4228978 156.568743,57.9728978 C159.755743,52.6748978 163.246743,47.5848978 166.913743,42.6098978 C174.628743,32.1398978 183.161743,22.3788978 192.325743,13.1648978 C193.026743,12.4598978 193.837743,11.8258978 194.694743,11.3258978 C195.589743,10.8048978 196.559743,11.5018978 196.54982,12.6708978" id="Fill-598" fill="#000000"></path>
            <path d="M144.555743,49.5468978 C144.651743,49.2878978 144.766743,48.8678978 144.954743,48.4848978 C148.578743,41.1308978 152.417743,33.8908978 157.274743,27.2628978 C160.876743,22.3488978 165.082743,17.9358978 169.281743,13.5308978 C172.257743,10.4108978 175.275743,7.32989781 178.295743,4.25189781 C179.166743,3.36389781 180.100743,2.53689781 181.023743,1.70089781 C181.520743,1.25089781 182.162743,1.04189781 182.746743,1.36589781 C183.108743,1.56689781 183.406743,2.04489781 183.534743,2.45989781 C183.704743,3.01289781 183.382743,3.45689781 182.885743,3.77189781 C182.326743,4.12589781 181.716743,4.44189781 181.260743,4.90489781 C174.702743,11.5588978 168.057743,18.1268978 161.972743,25.2308978 C157.800743,30.1018978 154.546743,35.5718978 151.428743,41.1318978 C150.024743,43.6368978 148.737743,46.2088978 147.415743,48.7588978 C147.174743,49.2228978 147.015743,49.7298978 146.832743,50.2218978 C146.541743,51.0018978 146.092743,51.3168978 145.473743,51.1558978 C144.886743,51.0018978 144.500743,50.3988978 144.555743,49.5468978" id="Fill-599" fill="#000000"></path>
            <path d="M137.580615,45.6258978 C137.730743,45.2208978 137.920743,44.6298978 138.163743,44.0618978 C140.220743,39.2478978 142.906743,34.7798978 145.718743,30.3778978 C151.744743,20.9448978 158.691743,12.2408978 166.444743,4.17489781 C167.505743,3.07189781 168.614743,2.01589781 169.715743,0.951897814 C170.368743,0.319897814 171.095743,0.254897814 171.631743,0.740897814 C172.179743,1.23889781 172.186743,1.90789781 171.605743,2.66789781 C171.345743,3.00789781 171.032743,3.31189781 170.722743,3.60889781 C163.148743,10.8468978 156.416743,18.8058978 150.583743,27.5008978 C147.787743,31.6698978 145.191743,35.9778978 142.616743,40.2908978 C141.666743,41.8808978 141.037743,43.6638978 140.263743,45.3598978 C140.085743,45.7508978 139.949743,46.1668978 139.725743,46.5288978 C139.419743,47.0258978 138.937743,47.2338978 138.364743,47.0538978 C137.778743,46.8708978 137.574743,46.4068978 137.580615,45.6258978" id="Fill-600" fill="#000000"></path>
            <path d="M196.281743,23.6268978 C196.084743,23.8858978 195.787743,24.3658978 195.407743,24.7658978 C192.802743,27.5118978 190.132743,30.1988978 187.572743,32.9858978 C181.108743,40.0288978 175.414743,47.6668978 170.242743,55.6998978 C168.608743,58.2378978 166.982743,60.7818978 165.296743,63.2848978 C164.468743,64.5128978 163.544743,65.6818978 162.602743,66.8278978 C162.024743,67.5278978 161.369743,67.6048978 160.853743,67.1908978 C160.320743,66.7628978 160.299743,66.1458978 160.806743,65.3968978 C165.347743,58.6978978 169.815743,51.9478978 174.449743,45.3138978 C180.091743,37.2368978 186.695743,29.9638978 193.638743,22.9938978 C193.938743,22.6928978 194.268743,22.3818978 194.644743,22.2028978 C195.468743,21.8078978 196.328743,22.4318978 196.281743,23.6268978" id="Fill-601" fill="#000000"></path>
            <path d="M127.836743,45.8348978 C128.084743,45.0668978 128.254743,44.4168978 128.500743,43.7958978 C130.003743,40.0048978 131.780743,36.3468978 133.759743,32.7808978 C138.025743,25.0918978 142.989743,17.8748978 148.418743,10.9688978 C149.662743,9.38689781 150.931743,7.82489781 152.190743,6.25389781 C152.309743,6.10489781 152.426743,5.95189781 152.554743,5.80889781 C153.322743,4.95389781 154.050743,4.77889781 154.642743,5.30289781 C155.244743,5.83589781 155.186743,6.50089781 154.438743,7.45389781 C151.806743,10.8088978 149.104743,14.1128978 146.549743,17.5258978 C140.649743,25.4118978 135.424743,33.7118978 131.469743,42.7648978 C131.113743,43.5808978 130.725743,44.3578978 130.759743,45.3458978 C130.777743,45.8748978 130.168743,46.5088978 129.696743,46.9348978 C129.470743,47.1398978 128.804743,47.1258978 128.523743,46.9348978 C128.182743,46.7048978 128.038743,46.1828978 127.836743,45.8348978" id="Fill-602" fill="#000000"></path>
            <path d="M168.373743,72.0748978 C167.721743,72.0378978 167.232743,71.4708978 167.346743,70.7868978 C167.407743,70.4198978 167.581743,70.0568978 167.772743,69.7308978 C173.083743,60.6298978 178.552743,51.6288978 185.358743,43.5358978 C187.729743,40.7158978 190.240743,38.0148978 192.674743,35.2468978 C193.271743,34.5678978 193.816743,33.8448978 194.374743,33.1318978 C194.900743,32.4588978 195.599743,32.2588978 196.259743,32.6158978 C196.932743,32.9798978 197.136743,33.7238978 196.652743,34.4608978 C196.263743,35.0568978 195.752743,35.5758978 195.281743,36.1168978 C191.607743,40.3398978 187.774743,44.4378978 184.286743,48.8098978 C178.784743,55.7088978 174.243743,63.2688978 169.810743,70.8838978 C169.240743,71.8638978 168.982743,72.1098978 168.373743,72.0748978" id="Fill-603" fill="#000000"></path>
            <path d="M277.695743,94.1018978 C270.825743,94.6658978 263.965743,94.7688978 257.165743,95.7448978 C252.745743,96.3788978 248.415743,97.3478978 244.105743,98.4598978 C243.915743,98.5078978 243.725743,98.5428978 243.545743,98.5888978 C242.425743,98.8658978 241.845743,98.6548978 241.685743,97.9058978 C241.525743,97.1668978 241.925743,96.5998978 242.985743,96.3248978 C247.715743,95.0948978 252.435743,93.8498978 257.315743,93.3358978 C259.985743,93.0548978 262.635743,92.6588978 265.305743,92.4368978 C268.415743,92.1808978 271.525743,92.0588978 274.635743,91.8778978 C276.205743,91.7868978 277.785743,91.7128978 279.365743,91.5888978 C279.925743,91.5438978 280.485743,91.3678978 281.045743,91.2638978 C281.895743,91.1078978 282.395743,91.3228978 282.585743,91.9108978 C282.785743,92.4858978 282.565743,93.1168978 281.835743,93.4278978 C281.055743,93.7588978 280.205743,93.9378978 279.365743,94.0838978 C278.805743,94.1798978 278.215743,94.1018978 277.695743,94.1018978" id="Fill-604" fill="#000000"></path>
            <path d="M172.961743,79.0538978 C172.178743,79.0858978 171.637743,78.3888978 171.884743,77.5928978 C172.009743,77.1878978 172.254743,76.8188978 172.455743,76.4388978 C177.468743,66.9858978 183.391743,58.1218978 189.830743,49.5918978 C190.378743,48.8668978 190.877743,48.1018978 191.455743,47.4018978 C192.100743,46.6218978 192.829743,46.5238978 193.439743,47.0498978 C194.127743,47.6438978 194.090743,48.5808978 193.403743,49.3338978 C192.637743,50.1738978 191.868743,51.0208978 191.176743,51.9218978 C184.929743,60.0608978 179.319743,68.6158978 174.442743,77.6468978 C173.841743,78.7608978 173.518743,79.0318978 172.961743,79.0538978" id="Fill-605" fill="#000000"></path>
            <path d="M121.219743,46.6898978 C121.320743,46.2478978 121.444743,45.5878978 121.624743,44.9438978 C123.338743,38.7878978 125.590743,32.8448978 128.750743,27.2708978 C130.262743,24.6038978 131.768743,21.9338978 133.293743,19.2748978 C134.163743,17.7578978 135.285743,16.4568978 136.783743,15.5268978 C137.178743,15.2828978 137.650743,15.0718978 138.103743,15.0338978 C138.997743,14.9598978 139.519743,15.8268978 139.049743,16.5958978 C138.809743,16.9898978 138.430743,17.3308978 138.047743,17.5998978 C136.843743,18.4458978 135.936743,19.5388978 135.221743,20.8058978 C133.362743,24.1018978 131.466743,27.3768978 129.654743,30.6978978 C127.304743,35.0048978 125.690743,39.6158978 124.246743,44.2888978 C124.136743,44.6428978 123.981743,45.1048978 124.115743,45.3918978 C124.539743,46.3008978 124.038743,46.9648978 123.672743,47.6748978 C123.362743,48.2778978 122.899743,48.6618978 122.167743,48.4928978 C121.547743,48.3498978 121.196743,47.7498978 121.219743,46.6898978" id="Fill-606" fill="#000000"></path>
            <path d="M234.975743,86.4988978 C234.895743,87.0858978 234.815743,87.6918978 234.725743,88.2968978 C234.675743,88.6278978 234.655743,88.9678978 234.565743,89.2868978 C234.355743,89.9938978 233.805743,90.3518978 233.165743,90.2148978 C232.485743,90.0698978 232.195743,89.5768978 232.255743,88.9468978 C232.375743,87.8098978 232.575743,86.6808978 232.755743,85.5178978 C232.395743,85.2028978 231.955743,84.9428978 231.695743,84.5638978 C231.325743,84.0268978 230.985743,83.4288978 230.825743,82.8058978 C230.665743,82.1808978 231.185743,81.5468978 231.795743,81.4088978 C232.385743,81.2698978 232.935743,81.4988978 233.045743,82.0658978 C233.235743,83.0948978 233.945743,83.4828978 234.785743,83.7598978 C235.925743,84.1378978 237.125743,84.5548978 238.255743,83.8628978 C239.125743,83.3218978 239.955743,82.6438978 240.675743,81.8998978 C241.405743,81.1388978 241.705743,80.1828978 241.145743,79.1318978 C241.055743,78.9668978 241.005743,78.7698978 240.985743,78.5838978 C240.925743,77.9958978 241.155743,77.5378978 241.705743,77.3158978 C242.205743,77.1168978 242.715743,77.2488978 242.975743,77.6918978 C243.365743,78.3348978 243.645743,79.0448978 244.055743,79.9228978 C244.695743,79.9228978 245.455743,79.8858978 246.205743,79.9318978 C247.105743,79.9868978 247.615743,80.4238978 247.625743,81.0578978 C247.625743,81.6928978 247.135743,82.1688978 246.255743,82.2598978 C245.645743,82.3248978 245.005743,82.3348978 244.395743,82.2768978 C243.495743,82.1938978 242.925743,82.5198978 242.645743,83.5128978 C242.985743,83.7518978 243.365743,84.0158978 243.745743,84.2868978 C244.095743,84.5368978 244.475743,84.7568978 244.775743,85.0568978 C245.275743,85.5518978 245.305743,86.2558978 244.925743,86.7498978 C244.505743,87.2858978 243.985743,87.3208978 243.285743,86.8538978 C242.465743,86.2998978 241.635743,85.7428978 240.815743,85.1898978 C240.255743,85.5148978 239.815743,85.7768978 239.235743,86.1158978 C239.495743,86.7118978 239.735743,87.2688978 239.975743,87.8248978 C240.135743,88.1738978 240.325743,88.5128978 240.445743,88.8748978 C240.695743,89.6428978 240.505743,90.2018978 239.935743,90.4738978 C239.365743,90.7438978 238.755743,90.5418978 238.375743,89.8598978 C238.015743,89.2368978 237.675743,88.5898978 237.465743,87.9118978 C237.085743,86.6788978 236.285743,86.2748978 234.975743,86.4988978" id="Fill-607" fill="#000000"></path>
            <path d="M129.199743,191.077898 C131.485743,188.146898 130.274743,182.594898 127.275743,181.543898 C126.979743,181.819898 126.646743,182.128898 126.263743,182.485898 C127.783743,185.125898 127.857743,188.199898 129.199743,191.077898 Z M132.791743,187.608898 C132.850743,188.975898 132.581743,190.464898 131.735743,191.804898 C131.122743,192.775898 130.347743,193.537898 129.074743,193.416898 C127.889743,193.302898 127.199743,192.530898 126.776743,191.506898 C126.485743,190.803898 126.246743,190.072898 126.059743,189.334898 C125.486743,187.063898 124.935743,184.790898 123.828743,182.699898 C123.457743,181.998898 123.525743,181.416898 124.109743,180.764898 C126.244743,178.381898 129.114743,178.534898 130.942743,181.197898 C132.205743,183.035898 132.795743,185.018898 132.791743,187.608898 L132.791743,187.608898 Z" id="Fill-608" fill="#000000"></path>
            <path d="M123.302743,20.0948978 C123.989743,20.7308978 123.630743,21.3438978 123.392743,21.9688978 C122.237743,25.0038978 120.854743,27.9788978 120.002743,31.0978978 C118.781743,35.5618978 117.922743,40.1258978 116.979743,44.6618978 C116.798743,45.5318978 116.937743,46.4678978 116.933743,47.3748978 C116.931743,47.7058978 116.990743,48.0448978 116.934743,48.3658978 C116.841743,48.8978978 116.452743,49.2718978 115.941743,49.2148978 C115.575743,49.1738978 115.037743,48.8898978 114.939743,48.5938978 C114.690743,47.8378978 114.472743,46.9988978 114.549743,46.2208978 C114.763743,44.0378978 115.055743,41.8548978 115.456743,39.6988978 C116.445743,34.3778978 117.812743,29.1578978 119.803743,24.1148978 C119.979743,23.6688978 120.199743,23.2398978 120.337743,22.7838978 C120.774743,21.3278978 121.714743,20.4288978 123.302743,20.0948978" id="Fill-609" fill="#000000"></path>
            <path d="M117.655743,188.764898 C117.836743,186.246898 117.896743,184.032898 117.070743,181.897898 C116.676743,180.880898 115.938743,180.599898 114.869743,180.914898 C113.724743,181.251898 113.159743,181.124898 112.899743,180.467898 C112.608743,179.736898 113.013743,179.084898 114.046743,178.619898 C115.808743,177.827898 118.204743,178.645898 119.049743,180.480898 C119.521743,181.504898 119.835743,182.646898 119.982743,183.766898 C120.288743,186.098898 120.220743,188.443898 119.735743,190.759898 C119.676743,191.040898 119.614743,191.321898 119.520743,191.590898 C119.041743,192.967898 117.760743,193.271898 116.926743,192.075898 C115.070743,189.412898 113.346743,186.657898 111.581743,183.931898 C111.428743,183.696898 111.340743,183.407898 111.274743,183.130898 C111.100743,182.411898 111.387743,181.791898 111.957743,181.591898 C112.549743,181.385898 113.030743,181.673898 113.447743,182.360898 C114.587743,184.234898 115.753743,186.091898 116.921743,187.949898 C117.060743,188.168898 117.271743,188.341898 117.655743,188.764898" id="Fill-610" fill="#000000"></path>
            <path d="M177.053743,86.7398978 C176.030743,86.7958978 175.460743,86.1798978 175.611743,85.4508978 C175.687743,85.0868978 175.908743,84.7518978 176.069743,84.4078978 C178.632743,78.9338978 181.891743,73.8648978 185.110743,68.7718978 C186.108743,67.1958978 187.089743,65.6098978 188.077743,64.0278978 C188.178743,63.8658978 188.264743,63.6928978 188.378743,63.5408978 C188.904743,62.8388978 189.516743,62.6608978 190.093743,63.0288978 C190.697743,63.4148978 190.895743,64.2188978 190.457743,64.9288978 C189.682743,66.1918978 188.821743,67.4008978 188.041743,68.6608978 C185.425743,72.8898978 182.803743,77.1148978 180.240743,81.3768978 C179.405743,82.7658978 178.776743,84.2788978 177.988743,85.6988978 C177.733743,86.1578978 177.272743,86.5018978 177.053743,86.7398978" id="Fill-611" fill="#000000"></path>
            <path d="M139.952743,188.823898 C141.645743,187.396898 141.989743,186.233898 141.197743,184.599898 C140.482743,183.124898 139.914743,182.360898 138.124743,182.865898 C138.721743,184.810898 139.316743,186.752898 139.952743,188.823898 Z M143.975743,185.817898 C143.965743,188.188898 142.187743,190.829898 140.298743,191.621898 C139.448743,191.977898 138.690743,191.740898 138.220743,190.915898 C138.010743,190.545898 137.878743,190.127898 137.745743,189.720898 C136.957743,187.317898 136.180743,184.910898 135.396743,182.505898 C135.209743,181.933898 135.148743,181.373898 135.595743,180.891898 C136.055743,180.397898 136.567743,180.381898 137.143743,180.733898 C137.289743,180.823898 137.589743,180.811898 137.741743,180.719898 C139.136743,179.877898 140.473743,180.197898 141.583743,181.138898 C143.096743,182.421898 143.903743,184.142898 143.975743,185.817898 L143.975743,185.817898 Z" id="Fill-612" fill="#000000"></path>
            <path d="M112.053743,27.4558978 C111.790743,29.0588978 111.638743,30.4798978 111.314743,31.8618978 C109.928743,37.7718978 108.619743,43.6948978 107.790743,49.7128978 C107.751743,49.9968978 107.720743,50.2848978 107.648743,50.5608978 C107.483743,51.1938978 107.062743,51.5858978 106.405743,51.5008978 C105.758743,51.4148978 105.426743,50.9408978 105.407743,50.2878978 C105.399743,50.0018978 105.428743,49.7148978 105.465743,49.4308978 C106.306743,42.9778978 107.772743,36.6458978 109.179743,30.3028978 C109.498743,28.8698978 110.588743,28.1338978 112.053743,27.4558978" id="Fill-613" fill="#000000"></path>
            <path d="M103.060743,35.5678978 C103.874743,36.2608978 103.652743,36.9148978 103.483743,37.6478978 C102.514743,41.8428978 101.585743,46.0488978 100.682743,50.2588978 C100.523743,51.0018978 100.557743,51.7848978 100.487743,52.5468978 C100.404743,53.4468978 99.9957431,53.9148978 99.3247431,53.9038978 C98.6567431,53.8928978 98.1477431,53.4008978 98.2127431,52.5128978 C98.3527431,50.6068978 98.5047431,48.6878978 98.8667431,46.8158978 C99.4297431,43.9028978 100.188743,41.0278978 100.830743,38.1288978 C101.109743,36.8668978 102.137743,36.3308978 103.060743,35.5678978" id="Fill-614" fill="#000000"></path>
            <path d="M158.114743,137.937898 C157.857743,140.695898 157.586743,143.453898 157.347743,146.212898 C157.285743,146.920898 157.282743,147.638898 157.319743,148.348898 C157.352743,148.984898 157.235743,149.500898 156.573743,149.718898 C155.989743,149.912898 155.304743,149.616898 155.106743,148.907898 C154.906743,148.193898 154.844743,147.403898 154.902743,146.661898 C155.074743,144.470898 155.381743,142.292898 155.548743,140.102898 C155.666743,138.542898 155.661743,136.971898 155.671743,135.405898 C155.675743,134.829898 155.769743,134.353898 156.363743,134.136898 C157.008743,133.901898 157.524743,134.147898 157.811743,134.711898 C158.020743,135.124898 158.125743,135.612898 158.169743,136.077898 C158.229743,136.691898 158.184743,137.316898 158.184743,137.935898 C158.161743,137.936898 158.138743,137.936898 158.114743,137.937898" id="Fill-615" fill="#000000"></path>
            <path d="M92.8747431,54.2088978 C93.2397431,52.4118978 93.5767431,50.7308978 93.9257431,49.0518978 C94.1677431,47.8858978 94.4247431,46.7228978 94.6797431,45.5598978 C94.7307431,45.3288978 94.7777431,45.0908978 94.8697431,44.8748978 C95.1707431,44.1588978 95.7167431,43.8068978 96.2867431,43.9348978 C96.9337431,44.0808978 97.3277431,44.6848978 97.1567431,45.5018978 C96.7587431,47.4148978 96.2657431,49.3068978 95.8707431,51.2198978 C95.6247431,52.4118978 95.1327431,53.5798978 95.5677431,54.8578978 C95.7327431,55.3408978 95.3837431,55.7658978 94.8857431,55.9758978 C94.2777431,56.2308978 93.7047431,56.1108978 93.3617431,55.5838978 C93.0927431,55.1708978 93.0167431,54.6338978 92.8747431,54.2088978" id="Fill-616" fill="#000000"></path>
            <path d="M190.780743,80.2318978 C190.677743,80.3988978 190.536743,80.7668978 190.281743,81.0148978 C188.186743,83.0528978 186.335743,85.2898978 184.710743,87.7168978 C184.355743,88.2478978 183.870743,88.5088978 183.240743,88.1908978 C182.622743,87.8788978 182.525743,87.3328978 182.691743,86.7268978 C182.766743,86.4568978 182.882743,86.1718978 183.057743,85.9588978 C184.780743,83.8578978 186.508743,81.7588978 188.271743,79.6908978 C188.533743,79.3818978 188.958743,79.1558978 189.353743,79.0278978 C190.045743,78.8008978 190.748743,79.3358978 190.780743,80.2318978" id="Fill-617" fill="#000000"></path>
            <path d="M87.9167431,56.7798978 C88.1957431,55.3538978 88.4207431,54.0348978 88.7277431,52.7338978 C88.8337431,52.2848978 89.0957431,51.8508978 89.3697431,51.4678978 C89.7107431,50.9898978 90.2257431,50.8388978 90.7667431,51.1158978 C91.2617431,51.3678978 91.3717431,51.8458978 91.2587431,52.3508978 C91.0827431,53.1428978 90.7797431,53.9178978 90.6867431,54.7168978 C90.5617431,55.7948978 90.5397431,56.8908978 90.5617431,57.9768978 C90.5727431,58.5678978 90.4707431,59.0418978 89.9157431,59.2798978 C89.2937431,59.5468978 88.7087431,59.3218978 88.4507431,58.7538978 C88.1637431,58.1238978 88.0757431,57.4028978 87.9167431,56.7798978" id="Fill-618" fill="#000000"></path>
            <path d="M187.771743,91.4838978 C187.815743,91.3148978 187.847743,91.0708978 187.939743,90.8528978 C188.688743,89.0738978 189.652743,87.4278978 190.975743,86.0068978 C191.104743,85.8688978 191.254743,85.7418978 191.413743,85.6388978 C191.857743,85.3558978 192.316743,85.3058978 192.743743,85.6588978 C193.178743,86.0158978 193.187743,86.4928978 193.001743,86.9678978 C192.899743,87.2318978 192.706743,87.4598978 192.559743,87.7058978 C191.700743,89.1368978 190.827743,90.5598978 189.992743,92.0058978 C189.591743,92.7028978 189.118743,92.9988978 188.523743,92.7998978 C188.024743,92.6338978 187.738743,92.1618978 187.771743,91.4838978" id="Fill-619" fill="#000000"></path>
            <path d="M200.317743,150.100898 C200.707743,150.247898 201.138743,150.295898 201.388743,150.534898 C201.665743,150.799898 201.958743,151.264898 201.910743,151.594898 C201.862743,151.922898 201.413743,152.428898 201.118743,152.444898 C199.678743,152.521898 198.672743,153.467898 197.504743,154.081898 C196.333743,154.696898 195.646743,154.665898 195.267743,153.919898 C194.926743,153.250898 195.222743,152.730898 196.351743,152.056898 C197.171743,151.566898 197.985743,151.063898 198.833743,150.625898 C199.289743,150.388898 199.810743,150.275898 200.317743,150.100898" id="Fill-620" fill="#000000"></path>
            <path d="M311.725743,83.6248978 C311.595743,83.8248978 311.455743,84.2978978 311.135743,84.4908978 C309.755743,85.3308978 308.345743,86.1198978 306.915743,86.8608978 C306.335743,87.1588978 305.785743,86.9378978 305.465743,86.3388978 C305.175743,85.7908978 305.385743,85.3268978 305.805743,84.9378978 C305.915743,84.8428978 306.035743,84.7628978 306.155743,84.6938978 C307.395743,83.9908978 308.635743,83.2718978 309.885743,82.5978978 C310.775743,82.1238978 311.665743,82.5428978 311.725743,83.6248978" id="Fill-621" fill="#000000"></path>
            <path d="M203.182743,164.552898 C203.204743,165.422898 202.588743,165.950898 201.852743,165.753898 C201.495743,165.658898 201.191743,165.382898 200.847743,165.226898 C199.941743,164.817898 199.043743,164.382898 198.110743,164.046898 C197.326743,163.763898 196.926743,163.402898 196.983743,162.793898 C197.043743,162.171898 197.541743,161.694898 198.301743,161.749898 C200.141743,161.882898 201.662743,162.748898 202.958743,164.022898 C203.110743,164.171898 203.140743,164.447898 203.182743,164.552898" id="Fill-622" fill="#000000"></path>
            <path d="M235.985743,69.3258978 C235.985743,68.8498978 235.945743,68.3708978 235.995743,67.9008978 C236.035743,67.5338978 236.135743,67.1478978 236.315743,66.8258978 C236.595743,66.3158978 237.085743,66.1168978 237.655743,66.2808978 C238.245743,66.4508978 238.455743,66.9158978 238.425743,67.4908978 C238.375743,68.6278978 238.295743,69.7638978 238.235743,70.9018978 C238.195743,71.5438978 237.915743,71.9968978 237.235743,72.0868978 C236.605743,72.1708978 236.095743,71.7568978 235.945743,71.0308978 C235.895743,70.7538978 235.905743,70.4628978 235.905743,70.1788978 C235.905743,69.8948978 235.935743,69.6098978 235.955743,69.3258978 C235.965743,69.3258978 235.975743,69.3258978 235.985743,69.3258978" id="Fill-623" fill="#000000"></path>
            <path d="M203.205743,87.7008978 C202.861743,88.8798978 202.578743,90.0828978 202.151743,91.2308978 C201.868743,91.9968978 201.125743,92.2738978 200.551743,92.0148978 C199.994743,91.7628978 199.808743,91.2608978 200.016743,90.4248978 C200.277743,89.3678978 200.546743,88.3108978 200.861743,87.2688978 C201.045743,86.6608978 201.495743,86.3108978 202.160743,86.4208978 C202.842743,86.5338978 203.058743,87.0428978 203.205743,87.7008978" id="Fill-624" fill="#000000"></path>
            <path d="M215.785743,76.5748978 C215.988743,76.7348978 216.399743,76.9678978 216.688743,77.3048978 C217.205743,77.9068978 217.531743,78.6328978 218.317743,79.0418978 C218.890743,79.3368978 218.823743,80.2318978 218.347743,80.8128978 C217.876743,81.3868978 216.904743,81.5808978 216.455743,81.0108978 C215.698743,80.0498978 215.034743,78.9938978 214.489743,77.8978978 C214.171743,77.2578978 214.816743,76.5638978 215.785743,76.5748978" id="Fill-625" fill="#000000"></path>
            <path d="M196.111743,90.3828978 C197.142743,90.4278978 197.716743,91.1318978 197.468743,91.9178978 C197.143743,92.9508978 196.696743,93.9568978 196.206743,94.9238978 C195.936743,95.4588978 195.405743,95.7458978 194.758743,95.4798978 C194.185743,95.2438978 193.972743,94.6828978 194.226743,93.9108978 C194.522743,93.0098978 194.824743,92.1018978 195.241743,91.2548978 C195.441743,90.8488978 195.911743,90.5758978 196.111743,90.3828978" id="Fill-626" fill="#000000"></path>
            <path d="M195.293743,169.966898 C195.266743,170.811898 194.563743,171.340898 193.884743,171.157898 C193.703743,171.108898 193.538743,170.998898 193.370743,170.908898 C192.580743,170.487898 191.799743,170.049898 190.999743,169.647898 C190.526743,169.410898 190.212743,169.071898 190.267743,168.536898 C190.326743,167.952898 190.693743,167.574898 191.280743,167.499898 C191.604743,167.458898 192.001743,167.416898 192.260743,167.560898 C193.167743,168.069898 194.050743,168.629898 194.896743,169.235898 C195.131743,169.403898 195.205743,169.794898 195.293743,169.966898" id="Fill-627" fill="#000000"></path>
            <path d="M245.415743,71.4038978 C245.415743,71.5468978 245.415743,72.0258978 245.405743,72.5038978 C245.395743,73.1728978 245.055743,73.6168978 244.395743,73.6818978 C243.805743,73.7418978 243.395743,73.3528978 243.205743,72.8268978 C243.085743,72.5228978 243.055743,72.1698978 243.065743,71.8408978 C243.075743,71.1248978 243.115743,70.4048978 243.195743,69.6928978 C243.305743,68.7108978 243.785743,68.2238978 244.485743,68.2948978 C245.145743,68.3618978 245.495743,68.8588978 245.505743,69.7798978 C245.515743,70.2098978 245.465743,70.6388978 245.415743,71.4038978" id="Fill-628" fill="#000000"></path>
            <path d="M262.965743,71.5398978 C262.655743,72.7708978 262.435743,73.8538978 262.085743,74.8918978 C261.815743,75.7068978 260.755743,75.8178978 260.255743,75.1068978 C260.045743,74.8208978 259.875743,74.3718978 259.945743,74.0528978 C260.165743,73.0318978 260.445743,72.0108978 260.835743,71.0398978 C261.085743,70.3938978 261.725743,70.1968978 262.255743,70.4318978 C262.795743,70.6768978 263.015743,71.1248978 262.965743,71.5398978" id="Fill-629" fill="#000000"></path>
            <path d="M220.776743,73.0778978 C221.037743,72.7508978 221.229743,72.3418978 221.550743,72.1448978 C221.991743,71.8748978 222.505743,72.0088978 222.820743,72.4328978 C223.068743,72.7668978 223.239743,73.1708978 223.386743,73.5658978 C223.634743,74.2298978 223.825743,74.9158978 224.061743,75.5848978 C224.274743,76.1908978 224.221743,76.7168978 223.640743,77.0788978 C223.088743,77.4208978 222.248743,77.2378978 221.942743,76.5378978 C221.473743,75.4608978 221.180743,74.3068978 220.776743,73.0778978" id="Fill-630" fill="#000000"></path>
            <path d="M227.085743,70.3338978 C227.385743,69.9448978 227.595743,69.4538978 227.955743,69.2978978 C228.255743,69.1668978 228.955743,69.2988978 229.085743,69.5308978 C229.715743,70.6918978 230.315743,71.8918978 230.725743,73.1438978 C230.955743,73.8588978 230.035743,74.4588978 229.295743,74.1728978 C229.085743,74.0898978 228.805743,73.9688978 228.715743,73.7868978 C228.165743,72.6868978 227.655743,71.5648978 227.085743,70.3338978" id="Fill-631" fill="#000000"></path>
            <path d="M213.531743,82.8748978 C213.556743,83.3988978 213.285743,83.9078978 212.716743,83.9588978 C212.327743,83.9928978 211.655743,83.7438978 211.540743,83.4518978 C211.127743,82.4098978 210.805743,81.3088978 210.633743,80.2028978 C210.528743,79.5318978 211.162743,78.9798978 211.764743,78.9858494 C212.438743,78.9918978 212.784743,79.3878978 212.915743,80.0278978 C213.105743,80.9548978 213.315743,81.8768978 213.531743,82.8748978" id="Fill-632" fill="#000000"></path>
            <path d="M257.385743,70.5518978 C256.955743,71.7268978 256.645743,72.7788978 256.175743,73.7568978 C256.045743,74.0218978 255.385743,74.2648978 255.105743,74.1598978 C254.735743,74.0218978 254.275743,73.5418978 254.245743,73.1818978 C254.165743,71.9088978 254.695743,70.7588978 255.455743,69.7698978 C255.635743,69.5298978 256.295743,69.4228978 256.585743,69.5618978 C256.945743,69.7278978 257.135743,70.2248978 257.385743,70.5518978" id="Fill-633" fill="#000000"></path>
            <path d="M208.381743,86.6608978 C208.397743,87.1908978 208.134743,87.6688978 207.461743,87.7918978 C206.852743,87.9028978 206.365743,87.5638978 206.239743,87.0258978 C206.012743,86.0578978 205.842743,85.0568978 205.822743,84.0668978 C205.810743,83.3738978 206.464743,82.9028978 207.081743,82.9548978 C207.776743,83.0128978 208.056743,83.4558978 208.112743,84.1108978 C208.183743,84.9198978 208.281743,85.7278978 208.381743,86.6608978" id="Fill-634" fill="#000000"></path>
            <path d="M248.505743,71.3538978 C248.545743,70.8318978 248.545743,70.3008978 248.645743,69.7878978 C248.795743,68.9738978 249.365743,68.5198978 250.005743,68.6198978 C250.615743,68.7118978 250.945743,69.1718978 250.925743,70.0098978 C250.905743,70.7238978 250.875743,71.4438978 250.755743,72.1468978 C250.605743,73.1348978 250.105743,73.5858978 249.405743,73.4738978 C248.785743,73.3738978 248.475743,72.8628978 248.475743,71.9248978 C248.465743,71.7348978 248.495743,71.5448978 248.505743,71.3548978 C248.505743,71.3548978 248.505743,71.3548978 248.505743,71.3538978" id="Fill-635" fill="#000000"></path>
            <path d="M274.185743,72.283894 C275.055743,72.2818978 275.555743,73.0608978 275.205743,73.8728978 C274.985743,74.3818978 274.745743,74.8848978 274.555743,75.4058978 C274.335743,75.9808978 273.895743,76.2278978 273.335743,76.2128978 C272.785743,76.2008978 272.335743,75.9358978 272.115743,75.3808978 C271.705743,74.3318978 273.065743,72.2878978 274.185743,72.283894" id="Fill-636" fill="#000000"></path>
            <path d="M268.045743,72.7438978 C267.725743,73.6138978 267.505743,74.4038978 267.135743,75.1118978 C266.855743,75.6368978 266.265743,75.6708978 265.725743,75.4808978 C265.165743,75.2828978 264.765743,74.7758978 264.955743,74.2648978 C265.255743,73.4378978 265.725743,72.6478978 266.265743,71.9458978 C266.425743,71.7398978 267.085743,71.7658978 267.435743,71.9078978 C267.715743,72.0228978 267.855743,72.4658978 268.045743,72.7438978" id="Fill-637" fill="#000000"></path>
            <path d="M281.675743,73.9568978 C281.695743,74.7388978 280.675743,75.9388978 279.935743,75.9988978 C279.355743,76.0458978 278.825743,75.5828978 278.785743,74.9848978 C278.725743,74.1658978 279.835743,72.8718978 280.585743,72.8738955 C281.185743,72.8758978 281.665743,73.3468978 281.675743,73.9568978" id="Fill-638" fill="#000000"></path>
            <path d="M300.255743,78.6098978 C300.825743,78.6058978 301.255743,79.0108978 301.295743,79.5838978 C301.335743,80.2108978 300.885743,80.7028978 300.255743,80.6999115 C299.685743,80.6968978 299.255743,80.2898978 299.215743,79.7268978 C299.175743,79.1138978 299.635743,78.6138978 300.255743,78.6098978" id="Fill-639" fill="#000000"></path>
        </g>
    </g>
</svg>