<?xml version="1.0" encoding="UTF-8"?>
<svg width="280px" height="192px" viewBox="0 0 280 192" version="1.1" xmlns="http://www.w3.org/2000/svg" xmlns:xlink="http://www.w3.org/1999/xlink">
    <!-- Generator: Sketch 63.1 (92452) - https://sketch.com -->
    <title>Group</title>
    <desc>Created with Sketch.</desc>
    <g id="Page-1" stroke="none" stroke-width="1" fill="none" fill-rule="evenodd">
        <g id="Group">
            <path d="M165.753678,46.9658676 C165.683678,47.4518676 165.643678,47.8568676 165.563678,48.2518676 C165.333678,49.3298676 164.713678,50.0908676 163.663678,50.4338676 C162.563678,50.7918676 161.563678,50.5548676 160.723678,49.7658676 C160.023678,49.1148676 159.583678,48.2948676 159.483678,47.3518676 C158.963678,42.1098676 157.213678,37.1148676 156.433678,31.9248676 C156.243678,30.7018676 155.903678,29.4948676 155.543678,28.3068676 C154.873678,26.0648676 155.413678,24.2098676 157.233678,22.7578676 C158.563678,21.6958676 159.903678,20.6448676 161.303678,19.6678676 C167.533678,15.3008676 173.343678,10.4058676 179.173678,5.53686762 C179.923678,4.91786762 180.663678,4.28986762 181.463678,3.74786762 C183.563678,2.31586762 185.783678,2.57586762 187.333678,4.58686762 C188.253678,5.77886762 188.973678,7.14386762 189.653678,8.49186762 C191.203678,11.5268676 192.693678,14.5908676 194.163678,17.6598676 C194.863678,19.1118676 195.483678,20.5998676 196.113678,22.0798676 C197.273678,24.7858676 198.393678,27.5128676 199.583678,30.2048676 C201.373678,34.2298676 201.043678,36.2948676 197.503678,38.8128676 C192.363678,42.4628676 187.873678,46.8028676 183.383678,51.1788676 C182.893678,51.6598676 182.373678,52.1148676 181.823678,52.5348676 C180.023678,53.9208676 178.113678,54.0818676 176.173678,52.8678676 C174.263678,51.6738676 172.353678,50.4658676 170.523678,49.1588676 C169.063678,48.1228676 167.443678,47.5558676 165.753678,46.9658676" id="Fill-1" fill="#EBD06B"></path>
            <path d="M102.603678,55.6878676 C101.503678,57.2628676 100.603678,58.5308676 99.7136777,59.8058676 C99.2236777,60.5218676 98.7836777,61.2818676 98.2336777,61.9538676 C97.8936777,62.3658676 97.7136777,62.7418676 97.6736777,63.2888676 C97.4836777,65.4598676 95.5936777,66.6728676 93.5136777,66.0308676 C93.0736777,65.8958676 92.6336777,65.7588676 92.1836777,65.6608676 C91.3836777,65.4838676 90.7936777,65.0168676 90.2936777,64.3748676 C89.8736777,63.8438676 89.4236777,63.2818676 88.8736777,62.9228676 C85.6636777,60.8538676 82.4436777,58.8048676 79.1836777,56.8198676 C75.5736777,54.6198676 71.8936777,52.5218676 68.2836777,50.3228676 C67.3436777,49.7558676 66.4736777,49.0488676 65.7036777,48.2768676 C64.3436777,46.9178676 63.6036777,45.2058676 63.7136777,43.2818676 C63.9636777,38.7238676 63.6936777,34.1808676 63.5536777,29.6298676 C63.5036777,27.9378676 63.7636777,26.2358676 63.9036777,24.5398676 C63.9336777,24.1308676 64.0336777,23.7178676 64.1636777,23.3278676 C65.0136777,20.7748676 67.2636777,19.7008676 69.7536777,20.7018676 C70.9936777,21.1978676 72.2036777,21.7618676 73.3836777,22.3758676 C79.6736777,25.6408676 86.4836777,26.8608676 93.4236777,27.6498676 C95.2936777,27.8638676 97.1636777,28.1238676 99.0336777,28.3788676 C101.693678,28.7418676 103.193678,30.3288676 103.783678,32.8878676 C104.403678,35.5448676 104.583678,38.2498676 104.783678,40.9578676 C104.933678,42.8818676 105.193678,44.7978676 105.443678,46.7108676 C105.553678,47.4838676 105.813678,48.1898676 106.353678,48.8318676 C106.703678,49.2588676 106.963678,49.9158676 106.953678,50.4658676 C106.923678,52.0568676 107.783678,53.1048676 108.813678,54.1418676 C109.303678,54.6428676 109.823678,55.2688676 109.993678,55.9258676 C110.493678,57.8638676 108.853678,59.6108676 106.833678,59.4088676 C105.723678,59.2978676 104.803678,58.7898676 104.123678,57.9148676 C103.653678,57.2998676 103.243678,56.6288676 102.603678,55.6878676" id="Fill-2" fill="#EBD06B"></path>
            <path d="M130.973678,0.090867624 C132.133678,0.225867624 133.333678,0.835867624 134.403678,1.63986762 C136.123678,2.93686762 137.853678,4.24486762 139.463678,5.68586762 C141.283678,7.32086762 143.163678,8.83886762 145.223678,10.1758676 C146.213678,10.8188676 147.133678,11.6298676 147.903678,12.5218676 C149.473678,14.3328676 149.923678,16.4818676 148.993678,18.7078676 C148.193678,20.6078676 147.303678,22.5078676 146.183678,24.2258676 C142.213678,30.2968676 138.993678,36.7398676 136.243678,43.4348676 C135.853678,44.3698676 135.433678,45.2938676 134.953678,46.1828676 C133.793678,48.3458676 132.203678,48.9068676 129.893678,48.1298676 C128.363678,47.6168676 126.793678,47.1718676 125.183678,47.8448676 C124.853678,47.9848676 124.523678,48.1408676 124.213678,48.3348676 C122.383678,49.5068676 120.363678,48.9558676 119.613678,46.8858676 C119.143678,45.6298676 118.433678,44.5998676 117.593678,43.6368676 C114.443678,40.0358676 111.263678,36.4558676 108.073678,32.8878676 C107.553678,32.3078676 106.923678,31.8318676 106.343678,31.3008676 C103.813678,28.9578676 103.573678,25.9288676 105.873678,23.3648676 C108.123678,20.8698676 110.563678,18.5528676 112.823678,16.0688676 C116.373678,12.1528676 119.853678,8.16186762 123.363678,4.20386762 C124.063678,3.41186762 124.743678,2.59586762 125.493678,1.84786762 C126.993678,0.334867624 128.773678,-0.241132376 130.973678,0.090867624" id="Fill-3" fill="#EBD06B"></path>
            <path d="M93.3636777,82.1428676 C93.9436777,82.4298676 94.4536777,82.6348676 94.9136777,82.9308676 C95.9336777,83.5878676 96.4236777,84.5368676 96.2236777,85.7558676 C96.0236777,86.9158676 95.2936777,87.6398676 94.1836777,87.9578676 C93.0036777,88.2968676 91.8136777,88.1728676 90.6336777,87.8918676 C89.7836777,87.6888676 88.9636777,87.4848676 88.0636777,87.8248676 C87.6736777,87.9758676 87.1436777,87.9048676 86.7136777,87.8058676 C82.0136777,86.7418676 77.2936777,86.8978676 72.5736777,87.5408676 C70.3436777,87.8448676 68.1236777,88.2688676 65.9036777,88.6388676 C65.4936777,88.7068676 65.0836777,88.7728676 64.6836777,88.8418676 C62.4436777,89.2238676 60.6136777,88.5008676 59.0836777,86.8608676 C57.4636777,85.1058676 55.8236777,83.3608676 54.1936777,81.6138676 C51.2836777,78.5038676 47.9936777,75.8628676 44.4236777,73.5498676 C42.8836777,72.5518676 41.4236777,71.4158676 39.9536777,70.3168676 C39.5536777,70.0168676 39.1836777,69.6518676 38.8636777,69.2638676 C37.6036777,67.7338676 37.6636777,65.6138676 39.1236777,64.2888676 C39.8836777,63.5968676 40.8436777,63.0828676 41.7836777,62.6228676 C43.1336777,61.9568676 44.5836777,61.4688676 45.9436777,60.8038676 C47.5736777,60.0058676 49.2536777,59.4088676 51.0736777,59.3018676 C54.6536777,59.0888676 58.2336777,58.8738676 61.8136777,58.7118676 C62.9536777,58.6598676 64.0436777,58.7058676 65.1236777,58.1048676 C66.1336777,57.5458676 67.1836777,57.9278676 68.0536777,58.6808676 C71.5736777,61.7138676 75.0436777,64.8018676 78.6236777,67.7548676 C82.1036777,70.6218676 85.7036777,73.3438676 89.2336777,76.1418676 C90.0236777,76.7698676 90.7936777,77.4278676 91.5436777,78.1088676 C93.0236777,79.4518676 93.3136777,80.1268676 93.3636777,82.1428676" id="Fill-4" fill="#EBD06B"></path>
            <path d="M200.843678,63.6368676 C200.483678,63.8418676 200.363678,63.9078676 200.243678,63.9758676 C198.833678,64.7868676 197.573678,64.7308676 196.553678,63.8128676 C195.533678,62.8888676 195.143678,61.1428676 195.753678,59.8868676 C197.613678,56.0608676 198.953678,52.0628676 199.773678,47.8918676 C200.143678,45.9878676 201.223678,44.7548676 203.033678,44.1458676 C203.683678,43.9268676 204.343678,43.6808676 205.023678,43.5788676 C209.863678,42.8458676 214.513678,41.3838676 219.183678,39.9868676 C220.853678,39.4868676 222.533678,39.0018676 224.243678,38.6478676 C227.593678,37.9538676 229.553678,39.2478676 230.273678,42.6008676 C230.883678,45.4488676 230.923678,48.3528676 230.933678,51.2508676 C230.933678,53.6418676 230.893678,56.0338676 230.873678,58.4248676 C230.873678,58.6088676 230.873678,58.7928676 230.873678,58.9768676 C230.903678,62.3928676 229.373678,64.6358676 226.163678,66.0078676 C221.833678,67.8528676 217.933678,70.5078676 214.023678,73.0968676 C213.413678,73.5038676 212.823678,73.9588676 212.193678,74.3258676 C209.773678,75.7218676 207.433678,75.0038676 206.183678,72.5188676 C205.573678,71.2848676 205.023678,70.0078676 204.303678,68.8358676 C203.223678,67.0798676 202.023678,65.4008676 200.843678,63.6368676" id="Fill-5" fill="#EBD06B"></path>
            <path d="M48.0136777,96.3428676 C47.4236777,97.7388676 46.3136777,98.4788676 45.0136777,99.0648676 C44.0536777,99.4958676 43.2036777,100.150868 42.2736777,100.654868 C40.2836777,101.736868 38.5736777,101.171868 37.6536777,99.0928676 C37.4036777,98.5418676 37.0536777,98.2898676 36.5436777,97.9988676 C34.7236777,96.9398676 32.9036777,95.8488676 31.1836777,94.6238676 C29.4636777,93.3948676 29.2236777,90.9868676 30.6336777,89.3838676 C31.9736777,87.8678676 33.3736777,86.3998676 34.8636777,85.0328676 C36.5836777,83.4478676 38.4236777,81.9758676 40.2336777,80.4938676 C41.6636777,79.3258676 43.2436777,78.7388676 45.0936777,79.4978676 C46.0336777,79.8848676 46.7136777,80.5688676 47.1936777,81.4188676 C47.6936777,82.2968676 48.0736777,83.2378676 48.5036777,84.1498676 C49.6736777,86.5958676 50.8336777,89.0418676 52.0036777,91.4858676 C52.2636777,92.0248676 52.6036777,92.5308676 52.8036777,93.0868676 C53.2436777,94.2678676 53.0436777,95.3718676 52.1336777,96.2598676 C51.2036777,97.1528676 50.1036777,97.2718676 48.9336777,96.8058676 C48.6336777,96.6898676 48.3636777,96.5238676 48.0136777,96.3428676" id="Fill-6" fill="#EBD06B"></path>
            <path d="M225.223678,86.9738676 C224.953678,87.2698676 224.763678,87.5148676 224.533678,87.7288676 C223.543678,88.6568676 222.233678,88.8398676 221.093678,88.2208676 C219.993678,87.6208676 219.413678,86.4148676 219.693678,85.0508676 C220.083678,83.1138676 220.583678,81.1978676 220.983678,79.2628676 C221.273678,77.8708676 221.563678,76.4718676 221.713678,75.0608676 C221.993678,72.3688676 222.753678,71.3248676 225.343678,70.4858676 C228.003678,69.6198676 230.673678,68.7478676 233.363678,67.9468676 C235.453678,67.3218676 236.973678,67.8268676 237.853678,69.5488676 C238.253678,70.3288676 238.413678,71.3028676 238.433678,72.1938676 C238.453678,73.9368676 238.273678,75.6818676 238.213678,77.4268676 C238.173678,78.8028676 238.133678,80.1828676 238.173678,81.5578676 C238.233678,83.5038676 237.473678,84.9348676 235.713678,85.8178676 C234.383678,86.4898676 233.023678,87.0048676 231.403678,86.4868676 C230.903678,87.9348676 230.163678,89.1488676 228.513678,89.2918676 C226.843678,89.4378676 225.883678,88.4508676 225.223678,86.9738676" id="Fill-7" fill="#EBD06B"></path>
            <path d="M252.873678,81.8498676 C252.083678,83.1898676 250.853678,83.7458676 249.313678,83.5758676 C249.203678,83.7398676 249.103678,83.8428676 249.053678,83.9658676 C248.553678,85.2138676 247.623678,85.9028676 246.293678,85.8588676 C244.823678,85.8098676 243.713678,85.0288676 243.223678,83.6668676 C242.893678,82.7388676 242.753678,81.6828676 242.793678,80.6948676 C242.903678,78.0698676 243.033678,75.4568676 242.613678,72.8428676 C242.493678,72.0788676 242.533678,71.2778676 242.583678,70.5008676 C242.753678,68.2578676 243.893678,66.8078676 246.093678,66.2638676 C247.233678,65.9808676 248.453678,65.9478676 249.643678,65.8928676 C250.463678,65.8538676 251.293678,65.9248676 252.123678,66.0258676 C254.503678,66.3178676 256.033678,67.6318676 256.423678,70.0138676 C256.693678,71.6818676 256.633678,73.4028676 256.743678,75.0988676 C256.803678,76.0618676 256.773678,77.0458676 256.973678,77.9808676 C257.513678,80.5208676 255.473678,82.3068676 253.353678,81.8548676 C253.213678,81.8268676 253.073678,81.8498676 252.873678,81.8498676" id="Fill-8" fill="#EBD06B"></path>
            <path d="M24.4536777,106.470868 C24.6336777,106.877868 24.7936777,107.197868 24.9136777,107.533868 C25.3236777,108.670868 25.1636777,109.725868 24.3236777,110.602868 C23.4736777,111.479868 22.4036777,111.735868 21.2836777,111.284868 C20.5336777,110.982868 19.7436777,110.591868 19.1736777,110.036868 C17.3836777,108.316868 15.6836777,106.510868 13.9736777,104.710868 C13.5936777,104.315868 13.3036777,103.828868 13.0436777,103.349868 C12.1036777,101.653868 12.0336777,99.9378676 13.0136777,98.2268676 C14.5436777,95.5758676 16.4336777,93.2338676 18.7236777,91.1918676 C21.3236777,88.8758676 24.2736777,90.4468676 24.9136777,92.7558676 C25.3936777,94.4818676 25.8636777,96.2118676 26.2736777,97.9538676 C26.6136777,99.4288676 26.9236777,100.859868 27.8136777,102.177868 C29.0336777,103.988868 27.6836777,106.350868 25.4936777,106.494868 C25.1836777,106.515868 24.8636777,106.482868 24.4536777,106.470868" id="Fill-9" fill="#EBD06B"></path>
            <path d="M271.123678,69.2508676 C270.873678,71.0658676 269.853678,72.0248676 267.993678,72.1008676 C267.533678,72.1198676 267.243678,72.2408676 266.943678,72.5918676 C266.103678,73.6118676 265.003678,74.0008676 263.733678,73.5598676 C262.403678,73.0988676 261.793678,72.0568676 261.753678,70.6918676 C261.713678,69.6348676 261.773678,68.5758676 261.793678,67.5178676 C261.813678,66.8288676 261.883678,66.1398676 261.873678,65.4518676 C261.853678,63.4358676 262.653678,62.0118676 264.183678,61.4378676 C265.873678,60.8018676 267.903678,61.3068676 269.113678,62.6638676 C270.383678,64.0938676 271.393678,67.3768676 271.123678,69.2508676" id="Fill-10" fill="#EBD06B"></path>
            <path d="M74.2436777,93.2098676 C75.0936777,91.5638676 75.9236777,89.9818676 76.7336777,88.3938676 C76.9036777,88.0688676 77.0436777,87.7278676 77.1636777,87.3808676 C79.5236777,80.5548676 82.5936777,74.0998676 86.9536777,68.2988676 C87.8936777,67.0498676 88.7536777,65.7388676 89.5836777,64.4158676 C90.9736777,62.2148676 92.7236777,60.3528676 94.6436777,58.6028676 C99.8836777,53.8268676 105.923678,50.3708676 112.353678,47.4958676 C116.363678,45.7058676 120.453678,44.2038676 124.703678,43.1328676 C128.763678,42.1118676 132.813678,41.0258676 136.873678,40.0348676 C142.893678,38.5698676 148.963678,38.6318676 154.953678,39.9898676 C160.123678,41.1648676 165.343678,41.9418676 170.603678,42.6168676 C180.293678,43.8648676 189.223678,47.2088676 197.493678,52.4278676 C200.423678,54.2818676 203.133678,56.3568676 205.653678,58.7528676 C208.423678,61.3948676 211.113678,64.0888676 213.483678,67.1078676 C214.853678,68.8528676 216.033678,70.7018676 217.173678,72.5988676 C218.673678,75.0748676 220.383678,77.4228676 222.033678,79.7998676 C223.493678,81.8958676 225.613678,82.5248676 228.063678,82.4708676 C232.553678,82.3728676 236.953678,81.6558676 241.283678,80.5188676 C249.033678,78.4778676 256.333678,75.3528676 263.113678,71.0338676 C266.043678,69.1668676 268.673678,66.9508676 271.113678,64.4898676 C271.823678,63.7718676 272.563678,63.0728676 273.333678,62.4198676 C274.703678,61.2698676 276.203678,61.2808676 277.723678,62.0678676 C279.073678,62.7698676 279.743678,64.0628676 279.373678,65.8148676 C279.043678,67.4218676 278.543678,69.0278676 277.883678,70.5308676 C272.843678,82.0508676 265.833678,92.2078676 256.763678,100.955868 C251.503678,106.030868 245.793678,110.517868 239.663678,114.477868 C233.103678,118.722868 225.873678,121.431868 218.323678,123.314868 C217.273678,123.575868 216.533678,124.046868 215.903678,124.929868 C214.173678,127.352868 211.883678,129.227868 209.603678,131.101868 C204.323678,135.449868 198.333678,138.537868 192.003678,141.053868 C185.223678,143.747868 178.203678,145.638868 171.203678,147.592868 C166.063678,149.028868 160.923678,150.489868 155.623678,151.264868 C150.523678,152.010868 145.393678,152.517868 140.223678,152.305868 C136.883678,152.168868 133.653678,151.407868 130.443678,150.578868 C125.363678,149.263868 120.403678,147.562868 115.503678,145.661868 C113.153678,144.746868 110.673678,144.141868 108.313678,143.258868 C105.813678,142.328868 103.393678,141.203868 100.913678,140.219868 C97.3736777,138.810868 93.8136777,137.432868 90.2436777,136.078868 C87.5336777,135.050868 84.8436777,133.927868 82.0736777,133.116868 C76.1936777,131.399868 70.2636777,131.187868 64.4136777,133.244868 C61.0236777,134.435868 57.6736777,135.721868 54.3436777,137.068868 C47.6236777,139.789868 40.6336777,141.292868 33.4036777,141.668868 C31.6236777,141.761868 29.8036777,141.707868 28.0336777,141.469868 C24.9336777,141.051868 21.8636777,140.440868 18.7736777,139.904868 C18.5036777,139.857868 18.2236777,139.804868 17.9736777,139.693868 C14.4936777,138.141868 11.0136777,136.590868 7.53367774,135.010868 C6.70367774,134.630868 5.92367774,134.124868 5.10367774,133.718868 C3.49367774,132.925868 2.22367774,131.745868 1.16367774,130.321868 C-0.086322262,128.630868 -0.376322262,126.798868 0.523677738,124.857868 C0.903677738,124.024868 1.32367774,123.195868 1.83367774,122.431868 C4.81367774,117.909868 8.35367774,113.867868 12.4236777,110.295868 C14.6936777,108.309868 17.2036777,106.697868 19.9136777,105.375868 C25.9036777,102.443868 31.8636777,99.4328676 37.9036777,96.5868676 C42.5836777,94.3788676 47.5336777,92.8898676 52.6736777,92.1998676 C55.7136777,91.7908676 58.8036777,91.4828676 61.8736777,91.4958676 C64.8136777,91.5088676 67.7436777,91.9428676 70.6736777,92.3058676 C71.8836777,92.4558676 73.0636777,92.9028676 74.2436777,93.2098676" id="Fill-11" fill="#96B5DA"></path>
            <path d="M161.723678,136.331868 C163.133678,126.765868 167.283678,119.338868 174.273678,113.533868 C177.223678,111.085868 180.693678,109.571868 184.343678,108.523868 C185.503678,108.191868 186.813678,108.240868 188.033678,108.311868 C190.103678,108.429868 192.153678,108.735868 194.223678,108.905868 C195.853678,109.038868 197.043678,109.778868 197.993678,111.113868 C201.543678,116.106868 204.403678,121.440868 206.163678,127.322868 C206.993678,130.101868 207.823678,132.886868 208.483678,135.705868 C209.283678,139.061868 211.033678,141.691868 213.903678,143.580868 C215.543678,144.670868 217.223678,145.715868 218.903678,146.758868 C221.793678,148.554868 224.723678,150.297868 227.593678,152.130868 C229.473678,153.335868 230.323678,155.145868 229.913678,157.349868 C229.593678,159.107868 228.983678,160.810868 228.563678,162.553868 C227.973678,165.015868 227.463678,167.494868 226.883678,169.961868 C226.493678,171.664868 226.133678,173.380868 225.623678,175.051868 C225.023678,177.052868 223.783678,178.659868 222.043678,179.816868 C218.173678,182.378868 213.983678,184.282868 209.483678,185.402868 C206.643678,186.107868 203.803678,185.938868 201.093678,184.748868 C200.423678,184.455868 199.773678,184.085868 199.183678,183.649868 C196.423678,181.591868 195.743678,178.276868 197.523678,175.315868 C198.133678,174.301868 198.943678,173.394868 199.743678,172.511868 C200.543678,171.625868 201.463678,170.850868 202.303678,169.992868 C203.353678,168.910868 204.033678,167.628868 204.263678,166.115868 C204.523678,164.436868 203.613678,163.171868 201.883678,162.963868 C201.153678,162.876868 200.403678,162.883868 199.673678,162.945868 C195.823678,163.271868 191.973678,163.631868 188.133678,163.971868 C182.783678,164.444868 177.673678,163.354868 172.733678,161.421868 C167.743678,159.467868 164.623678,155.665868 162.733678,150.774868 C161.573678,147.769868 161.203678,144.616868 161.333678,141.413868 C161.413678,139.530868 161.623678,137.651868 161.723678,136.331868" id="Fill-12" fill="#83A8D4"></path>
            <path d="M111.033678,154.759868 C109.933678,153.336868 108.923678,151.915868 107.793678,150.595868 C106.373678,148.937868 105.173678,147.154868 104.253678,145.182868 C102.203678,140.793868 100.363678,136.337868 99.7136777,131.479868 C99.3236777,128.599868 99.3536777,125.717868 100.533678,123.057868 C103.373678,116.621868 108.293678,112.917868 115.413678,112.457868 C118.543678,112.255868 121.553678,112.847868 124.443678,114.065868 C126.833678,115.068868 128.603678,116.683868 129.893678,118.927868 C132.233678,122.970868 133.663678,127.316868 134.403678,131.896868 C134.813678,134.390868 135.033678,136.913868 135.413678,139.413868 C135.733678,141.503868 136.053678,143.599868 136.533678,145.655868 C137.183678,148.416868 137.413678,151.192868 137.263678,154.012868 C137.183678,155.620868 137.113678,157.231868 137.063678,158.840868 C137.003678,160.624868 136.473678,162.290868 135.763678,163.891868 C133.553678,168.812868 130.953678,173.527868 128.123678,178.102868 C125.813678,181.827868 122.803678,184.985868 118.933678,187.094868 C114.963678,189.261868 110.723678,190.809868 106.133678,191.113868 C99.2736777,191.567868 94.2336777,188.463868 90.3036777,183.092868 C86.7636777,178.260868 89.0936777,171.786868 94.8936777,169.848868 C96.5436777,169.295868 98.2636777,168.854868 99.9836777,168.593868 C101.803678,168.315868 103.173678,167.515868 104.113678,165.947868 C104.493678,165.317868 104.883678,164.692868 105.213678,164.034868 C106.833678,160.786868 108.363678,157.484868 111.033678,154.759868" id="Fill-13" fill="#83A8D4"></path>
            <path d="M39.8536777,105.795868 C40.8736777,105.921868 42.1236777,106.346868 43.1936777,107.211868 C45.7136777,109.243868 46.3236777,112.083868 44.5836777,114.814868 C42.6336777,117.862868 39.9436777,119.753868 36.1136777,119.484868 C34.2136777,119.350868 32.5336777,118.629868 31.1336777,117.363868 C29.1536777,115.571868 28.7636777,112.270868 30.1436777,109.887868 C31.9236777,106.838868 35.8236777,105.113868 39.8536777,105.795868" id="Fill-14" fill="#E9ABBA"></path>
            <path d="M201.963678,76.7728676 C202.273678,74.6198676 203.933678,72.9998676 205.873678,72.9568676 C207.203678,72.9278676 208.393678,73.6578676 208.863678,74.7998676 C209.343678,75.9748676 209.013678,77.1948676 207.983678,78.1668676 C207.683678,78.4468676 207.393678,78.7468676 207.143678,79.0678676 C206.123678,80.3568676 204.873678,80.7868676 203.653678,80.2428676 C202.433678,79.6938676 201.753678,78.2948676 201.963678,76.7728676" id="Fill-15" fill="#242F4F"></path>
            <path d="M257.063678,82.2368676 C256.803678,83.9988676 255.163678,85.2318676 253.393678,84.9918676 C251.633678,84.7538676 250.383678,83.1168676 250.603678,81.3508676 C250.823678,79.5468676 252.563678,78.2338676 254.353678,78.5238676 C256.103678,78.8078676 257.323678,80.4768676 257.063678,82.2368676" id="Fill-16" fill="#242F4F"></path>
            <path d="M201.213678,87.6058676 C201.193678,88.5948676 200.983678,89.4918676 200.243678,90.2388676 C198.983678,91.5018676 195.643678,91.0428676 194.783678,89.6048676 C194.123678,88.4888676 194.123678,87.1738676 194.943678,86.1388676 C195.883678,84.9618676 197.363678,84.4948676 198.623678,85.0038676 C199.873678,85.5078676 200.843678,86.2938676 201.233678,87.6478676 L201.213678,87.6058676" id="Fill-17" fill="#242F4F"></path>
            <path d="M109.843678,62.1818676 C108.053678,61.9008676 106.873678,60.2918676 107.143678,58.4998676 C107.413678,56.6498676 109.073678,55.4558676 110.923678,55.7828676 C112.703678,56.0958676 113.863678,57.7418676 113.563678,59.5168676 C113.263678,61.2898676 111.623678,62.4618676 109.843678,62.1818676" id="Fill-18" fill="#242F4F"></path>
            <path d="M175.043678,55.1248676 C174.743678,56.8988676 172.223678,58.4978676 170.513678,58.0018676 C168.773678,57.4988676 167.893678,55.6168676 168.603678,53.9268676 C169.303678,52.2468676 171.693678,51.2798676 173.353678,51.9998676 C174.603678,52.5418676 175.273678,53.7798676 175.043678,55.1248676" id="Fill-19" fill="#242F4F"></path>
            <path d="M220.253678,88.2628676 C219.963678,89.7918676 219.003678,90.4808676 217.643678,90.8568676 C216.283678,91.2318676 215.113678,91.1338676 214.133678,90.0338676 C214.103678,89.9998676 214.073678,89.9618676 214.043678,89.9248676 C213.243678,88.8578676 213.263678,87.4048676 214.103678,86.3538676 C215.093678,85.1318676 217.063678,84.6308676 218.483678,85.2428676 C219.743678,85.7878676 220.443678,87.0268676 220.253678,88.2628676" id="Fill-20" fill="#242F4F"></path>
            <path d="M140.013678,47.4958676 C140.303678,45.7268676 141.933678,44.5398676 143.713678,44.8088676 C145.553678,45.0878676 146.753678,46.7618676 146.423678,48.6028676 C146.103678,50.3728676 144.463678,51.5188676 142.673678,51.2118676 C140.893678,50.9068676 139.723678,49.2698676 140.013678,47.4958676" id="Fill-21" fill="#242F4F"></path>
            <path d="M160.083678,82.5498676 C159.723678,82.4188676 159.043678,82.2508676 158.443678,81.9298676 C157.423678,81.3828676 156.923678,80.4498676 156.983678,79.3018676 C157.043678,78.1478676 157.673678,77.3178676 158.723678,76.8488676 C160.213678,76.1908676 161.943678,76.6058676 162.983678,77.8428676 C163.783678,78.7818676 163.933678,80.0168676 163.383678,81.0638676 C162.793678,82.1838676 161.663678,82.7648676 160.083678,82.5498676" id="Fill-22" fill="#242F4F"></path>
            <path d="M180.513678,62.6448676 C178.813678,62.3978676 177.713678,60.9618676 177.963678,59.3238676 C178.233678,57.6318676 179.783678,56.6128676 181.673678,56.8918676 C183.373678,57.1428676 184.483678,58.5728676 184.223678,60.1968676 C183.963678,61.8598676 182.363678,62.9158676 180.513678,62.6448676" id="Fill-23" fill="#242F4F"></path>
            <path d="M165.343678,51.1608676 C165.063678,52.7488676 163.603678,53.7698676 162.003678,53.4908676 C160.243678,53.1828676 158.963678,51.4668676 159.253678,49.8048676 C159.523678,48.2368676 161.043678,47.1688676 162.593678,47.4498676 C164.323678,47.7638676 165.623678,49.5228676 165.343678,51.1608676" id="Fill-24" fill="#242F4F"></path>
            <path d="M181.213678,68.1018676 C180.963678,69.9608676 179.393678,71.3018676 177.713678,71.0728676 C176.173678,70.8618676 175.063678,69.3788676 175.263678,67.7928676 C175.503678,65.9118676 177.043678,64.6158676 178.763678,64.8558676 C180.373678,65.0808676 181.423678,66.4808676 181.213678,68.1018676" id="Fill-25" fill="#242F4F"></path>
            <path d="M152.213678,57.4648676 C153.893678,57.7168676 154.953678,59.0648676 154.713678,60.6538676 C154.473678,62.2458676 152.693678,63.4508676 150.993678,63.1768676 C149.433678,62.9258676 148.363678,61.4158676 148.613678,59.8388676 C148.883678,58.1718676 150.373678,57.1898676 152.213678,57.4648676" id="Fill-26" fill="#242F4F"></path>
            <path d="M132.753678,56.8878676 C134.353678,57.1118676 135.453678,58.5268676 135.263678,60.1078676 C135.063678,61.6948676 133.633678,62.8178676 132.053678,62.6298676 C130.373678,62.4308676 129.013678,60.8658676 129.193678,59.3288676 C129.363678,57.7448676 130.983678,56.6408676 132.753678,56.8878676" id="Fill-27" fill="#242F4F"></path>
            <path d="M265.233678,78.1428676 C263.613678,77.9248676 262.553678,76.6398676 262.743678,75.1048676 C262.943678,73.5048676 264.713678,72.1818676 266.333678,72.4168676 C267.903678,72.6428676 268.993678,74.1148676 268.773678,75.6888676 C268.533678,77.3498676 267.043678,78.3848676 265.233678,78.1428676" id="Fill-28" fill="#242F4F"></path>
            <path d="M231.293678,92.1148676 C231.033678,93.6918676 229.543678,94.7568676 227.983678,94.4888676 C226.433678,94.2228676 225.333678,92.6828676 225.603678,91.1528676 C225.873678,89.5898676 227.363678,88.5448676 228.943678,88.8068676 C230.533678,89.0698676 231.563678,90.5188676 231.293678,92.1148676" id="Fill-29" fill="#242F4F"></path>
            <path d="M241.493678,89.9638676 C239.933678,89.6998676 238.843678,88.1918676 239.113678,86.6458676 C239.383678,85.1088676 240.933678,84.0108676 242.463678,84.2758676 C244.023678,84.5448676 245.073678,86.0388676 244.813678,87.6138676 C244.543678,89.1968676 243.083678,90.2318676 241.493678,89.9638676" id="Fill-30" fill="#242F4F"></path>
            <path d="M100.853678,71.2558676 C100.613678,72.8328676 99.1436777,73.9188676 97.5736777,73.6758676 C96.0136777,73.4348676 94.9136777,71.9228676 95.1536777,70.3748676 C95.4036777,68.8128676 96.8936777,67.7228676 98.4536777,67.9628676 C100.033678,68.2038676 101.093678,69.6708676 100.853678,71.2558676" id="Fill-31" fill="#242F4F"></path>
            <path d="M165.723678,68.0748676 C164.143678,67.8268676 163.043678,66.3198676 163.313678,64.7628676 C163.593678,63.1978676 165.103678,62.1448676 166.683678,62.4278676 C168.213678,62.7038676 169.223678,64.1098676 169.003678,65.6598676 C168.773678,67.2678676 167.333678,68.3268676 165.723678,68.0748676" id="Fill-32" fill="#242F4F"></path>
            <path d="M190.183678,73.1058676 C188.593678,72.8498676 187.543678,71.4058676 187.803678,69.8198676 C188.063678,68.2488676 189.553678,67.1668676 191.103678,67.4218676 C192.663678,67.6778676 193.733678,69.1708676 193.483678,70.7388676 C193.233678,72.3258676 191.783678,73.3628676 190.183678,73.1058676" id="Fill-33" fill="#242F4F"></path>
            <path d="M192.173678,59.8498676 C190.573678,59.5928676 189.523678,58.1498676 189.783678,56.5638676 C190.043678,54.9928676 191.533678,53.9108676 193.093678,54.1658676 C194.653678,54.4218676 195.723678,55.9138676 195.463678,57.4818676 C195.213678,59.0698676 193.773678,60.1068676 192.173678,59.8498676" id="Fill-34" fill="#242F4F"></path>
            <path d="M119.243678,54.5508676 C117.873678,54.3818676 116.873678,53.1128676 117.003678,51.7238676 C117.143678,50.2968676 118.473678,49.2348676 119.893678,49.4108676 C121.263678,49.5798676 122.263678,50.8498676 122.123678,52.2358676 C121.963678,53.6878676 120.673678,54.7278676 119.243678,54.5508676" id="Fill-35" fill="#242F4F"></path>
            <path d="M97.0636777,35.7858676 C93.9036777,34.6328676 73.2436777,29.4298676 72.0236777,29.5108676 C71.4936777,33.7668676 70.9636777,38.0478676 70.4336777,42.3518676 C77.3436777,46.7598676 84.1536777,51.1088676 91.0436777,55.5028676 C93.8536777,53.2408676 96.6036777,51.0258676 99.3836777,48.7848676 C98.6136777,44.4288676 97.8436777,40.1328676 97.0636777,35.7858676 Z M70.0436777,35.3558676 C70.3536777,33.3088676 70.6536777,31.2608676 70.9636777,29.2138676 C71.1436777,28.0098676 71.3236777,27.8828676 72.5036777,28.1878676 C78.5536777,29.7578676 84.6036777,31.3378676 90.6636777,32.9078676 C92.6636777,33.4278676 94.6636777,33.9678676 96.6836777,34.4268676 C97.6036777,34.6368676 98.0836777,35.0488676 98.2436777,36.0368676 C98.9136777,40.0728676 99.6436777,44.0988676 100.393678,48.1198676 C100.543678,48.8928676 100.403678,49.4088676 99.7636777,49.9098676 C97.1936777,51.9278676 94.6636777,53.9988676 92.1136777,56.0378676 C91.1236777,56.8288676 91.1036777,56.8308676 90.0736777,56.1758676 C83.4436777,51.9538676 76.8236777,47.7168676 70.1836777,43.5098676 C69.5036777,43.0798676 69.2636777,42.6108676 69.3936777,41.8138676 C69.7536777,39.6838676 70.0536777,37.5418676 70.3736777,35.4058676 C70.2636777,35.3888676 70.1536777,35.3718676 70.0436777,35.3558676 L70.0436777,35.3558676 Z" id="Fill-36" fill="#000000"></path>
            <path d="M48.4236777,66.6558676 C48.6036777,66.9268676 48.6836777,67.0928676 48.8036777,67.2198676 C52.7236777,71.3698676 56.6536777,75.5108676 60.5736777,79.6698676 C60.9536777,80.0778676 61.3736777,80.2118676 61.9136777,80.2278676 C64.1636777,80.2978676 66.4136777,80.4108676 68.6736777,80.4928676 C70.2236777,80.5498676 71.7836777,80.5818676 73.3636777,80.6258676 C74.2836777,78.3748676 75.1736777,76.2118676 76.0436777,74.0718676 C75.8836777,73.8938676 75.8136777,73.7768676 75.7136777,73.6948676 C72.4236777,71.0898676 69.1336777,68.5008676 65.8736777,65.8738676 C65.2536777,65.3818676 64.6236777,65.3808676 63.9236777,65.4358676 C60.7136777,65.6858676 57.5036777,65.9218676 54.2936777,66.1718676 C52.3736777,66.3208676 50.4536777,66.4878676 48.4236777,66.6558676 Z M46.2836777,65.8778676 C47.0236777,65.7428676 47.4036777,65.6368676 47.7936777,65.6058676 C53.3336777,65.1658676 58.8836777,64.7388676 64.4236777,64.2978676 C65.1936777,64.2368676 65.8236777,64.4328676 66.4536777,64.9338676 C69.7436777,67.5848676 73.0736777,70.1908676 76.3936777,72.8218676 C77.3736777,73.6038676 77.3936777,73.6718676 76.9436777,74.7798676 C76.1436777,76.7378676 75.3436777,78.6938676 74.5336777,80.6448676 C74.0636777,81.7538676 74.0136777,81.7678676 72.7636777,81.7198676 C69.0436777,81.5738676 65.3336777,81.4118676 61.6036777,81.3098676 C60.8936777,81.2908676 60.3936777,81.0678676 59.9236777,80.5688676 C55.7236777,76.1188676 51.5036777,71.6808676 47.3136777,67.2318676 C47.0036777,66.9108676 46.7736777,66.5268676 46.2836777,65.8778676 L46.2836777,65.8778676 Z" id="Fill-37" fill="#000000"></path>
            <path d="M138.313678,18.7448676 C134.813678,17.0428676 131.473678,15.4178676 128.073678,13.7608676 C124.313678,17.1698676 120.603678,20.5308676 116.833678,23.9428676 C118.853678,27.9668676 120.843678,31.9388676 122.853678,35.9548676 C124.793678,35.3588676 126.583678,34.7758676 128.393678,34.2718676 C129.113678,34.0708676 129.573678,33.6888676 129.943678,33.0498676 C132.043678,29.4308676 134.173678,25.8318676 136.293678,22.2248676 C136.943678,21.1208676 137.573678,20.0098676 138.313678,18.7448676 Z M128.103678,12.5658676 C128.533678,12.7698676 128.773678,12.8878676 129.023678,13.0078676 C132.173678,14.5338676 135.313678,16.0598676 138.453678,17.5878676 C138.703678,17.7088676 139.033678,17.7818676 139.163678,17.9828676 C139.343678,18.2408676 139.473678,18.6228676 139.423678,18.9188676 C139.373678,19.2598676 139.103678,19.5718676 138.923678,19.8888676 C136.193678,24.5278676 133.453678,29.1588676 130.753678,33.8128676 C130.333678,34.5368676 129.823678,34.9848676 129.013678,35.2358676 C127.133678,35.8148676 125.283678,36.4968676 123.413678,37.1378676 C122.683678,37.3918676 122.263678,37.1978676 121.813678,36.3008676 C120.293678,33.3018676 118.793678,30.2948676 117.293678,27.2918676 C116.833678,26.3858676 116.403678,25.4688676 115.923678,24.5788676 C115.583678,23.9458676 115.693678,23.4858676 116.223678,23.0088676 C119.883678,19.7138676 123.523678,16.3958676 127.183678,13.1008676 C127.463678,12.8468676 127.853678,12.7088676 128.103678,12.5658676 L128.103678,12.5658676 Z" id="Fill-38" fill="#000000"></path>
            <path d="M182.023678,18.7528676 C181.843678,18.7408676 181.693678,18.6918676 181.583678,18.7298676 C177.333678,20.1098676 173.083678,21.4708676 168.853678,22.9018676 C167.673678,23.3028676 167.523678,23.7048676 167.683678,25.0468676 C168.013678,28.0198676 168.353678,30.9908676 168.703678,33.9628676 C168.753678,34.3598676 168.853678,34.7508676 168.943678,35.2388676 C172.443678,34.8978676 175.833678,35.1828676 179.183678,35.8938676 C180.073678,36.0828676 180.623678,35.7818676 181.253678,35.2018676 C182.793678,33.7598676 184.413678,32.3958676 186.013678,31.0038676 C186.413678,30.6508676 186.833678,30.3078676 187.233678,29.9628676 C184.973678,26.3738676 183.203678,22.6998676 182.023678,18.7528676 Z M167.983678,36.2178676 C167.903678,35.8308676 167.783678,35.3568676 167.723678,34.8758676 C167.353678,31.6798676 166.993678,28.4828676 166.633678,25.2858676 C166.403678,23.2168676 166.743678,22.4978676 168.713678,21.8198676 C172.803678,20.4128676 176.913678,19.0898676 181.033678,17.7968676 C182.563678,17.3168676 182.793678,17.5368676 183.263678,19.1098676 C184.293678,22.5668676 185.823678,25.8028676 187.793678,28.8258676 C188.583678,30.0428676 188.583678,30.1758676 187.503678,31.1068676 C185.493678,32.8508676 183.453678,34.5728676 181.493678,36.3688676 C180.733678,37.0598676 179.953678,37.0458676 179.063678,36.9118676 C177.113678,36.6188676 175.163678,36.2768676 173.193678,36.1398676 C171.563678,36.0268676 169.913678,36.1778676 167.983678,36.2178676 L167.983678,36.2178676 Z" id="Fill-39" fill="#000000"></path>
            <path d="M176.893678,138.953868 C175.823678,136.005868 176.493678,133.601868 178.503678,131.553868 C180.553678,129.473868 182.963678,129.175868 185.573678,130.330868 C187.033678,125.538868 191.183678,122.935868 195.843678,123.934868 C196.933678,124.169868 197.983678,124.737868 198.993678,125.254868 C199.563678,125.544868 199.843678,126.129868 199.523678,126.782868 C199.423678,126.989868 199.133678,127.211868 198.923678,127.222868 C198.753678,127.230868 198.433678,126.919868 198.433678,126.741868 C198.413678,126.227868 198.093678,126.037868 197.723678,125.823868 C194.403678,123.897868 189.463678,125.152868 187.473678,128.423868 C186.913678,129.338868 186.873678,130.335868 186.943678,131.357868 C186.953678,131.537868 187.013678,131.718868 187.073678,131.893868 C187.193678,132.274868 187.233678,132.691868 186.773678,132.794868 C186.553678,132.844868 186.133678,132.641868 186.003678,132.431868 C185.353678,131.292868 184.263678,130.995868 183.093678,130.865868 C182.693678,130.821868 182.263678,130.832868 181.863678,130.904868 C179.443678,131.333868 176.483678,134.769868 177.823678,138.074868 C178.033678,138.574868 178.343678,139.046868 178.673678,139.477868 C178.923678,139.802868 179.363678,140.050868 179.013678,140.511868 C178.673678,140.959868 178.273678,140.599868 177.893678,140.491868 C177.273678,140.319868 176.653678,140.106868 176.023678,140.068868 C174.103678,139.951868 172.523678,140.722868 171.273678,142.153868 C169.993678,143.613868 169.273678,145.338868 168.973678,147.242868 C168.733678,148.779868 169.173678,150.167868 169.983678,151.442868 C170.163678,151.719868 170.563678,151.845868 170.813678,152.084868 C170.963678,152.222868 171.163678,152.518868 171.103678,152.616868 C170.993678,152.818868 170.743678,153.037868 170.523678,153.066868 C169.903678,153.146868 169.493678,152.771868 169.183678,152.271868 C168.163678,150.620868 167.573678,148.884868 167.923678,146.895868 C168.253678,145.041868 168.923678,143.349868 170.073678,141.868868 C171.533678,139.981868 173.423678,138.891868 175.883678,138.944868 C176.153678,138.949868 176.423678,138.948868 176.893678,138.953868" id="Fill-40" fill="#000000"></path>
            <path d="M225.443678,59.1008676 C224.953678,54.9798676 224.483678,50.9738676 223.993678,46.8228676 C218.693678,48.3298676 213.533678,49.7988676 208.293678,51.2888676 C208.323678,52.6388676 208.403678,53.9188676 208.353678,55.1918676 C208.323678,55.7228676 208.473678,56.0368676 208.833678,56.3738676 C210.063678,57.5468676 211.273678,58.7458676 212.503678,59.9308676 C213.423678,60.8228676 214.343678,61.7078676 215.293678,62.6138676 C218.663678,61.4478676 221.963678,60.3068676 225.443678,59.1008676 Z M207.153678,50.9338676 C207.303678,50.7838676 207.503678,50.4968676 207.783678,50.3128676 C208.003678,50.1668676 208.303678,50.1468676 208.573678,50.0708676 C213.383678,48.6988676 218.203678,47.3278676 223.013678,45.9568676 C223.233678,45.8938676 223.453678,45.8218676 223.683678,45.7698676 C224.723678,45.5308676 224.943678,45.6378676 225.063678,46.6608676 C225.563678,50.7198676 226.013678,54.7838676 226.523678,58.8418676 C226.613678,59.5728676 226.373678,59.9488676 225.693678,60.1808676 C222.423678,61.2898676 219.173678,62.4118676 215.923678,63.5598676 C215.273678,63.7888676 214.783678,63.6928676 214.303678,63.2158676 C212.133678,61.0908676 209.953678,58.9808676 207.773678,56.8708676 C207.423678,56.5348676 207.293678,56.2078676 207.313678,55.6728676 C207.373678,54.4858676 207.243678,53.2908676 207.183678,52.0998676 C207.173678,51.7788676 207.173678,51.4568676 207.153678,50.9338676 L207.153678,50.9338676 Z" id="Fill-41" fill="#000000"></path>
            <path d="M165.583678,138.541868 C166.413678,138.699868 167.163678,137.663868 167.843678,138.758868 C167.293678,139.412868 166.533678,139.631868 165.803678,139.792868 C165.163678,139.932868 164.813678,139.576868 164.583678,138.765868 C163.693678,135.691868 164.933678,132.212868 167.593678,130.335868 C169.323678,129.122868 171.253678,128.645868 173.343678,128.721868 C173.663678,128.733868 173.983678,128.759868 174.303678,128.772868 C174.343678,128.773868 174.383678,128.728868 174.503678,128.655868 C174.503678,128.350868 174.513678,127.994868 174.503678,127.640868 C174.423678,124.466868 176.053678,122.230868 178.513678,120.499868 C179.913678,119.511868 181.483678,119.323868 183.123678,119.898868 C183.453678,120.015868 183.793678,120.106868 184.143678,120.210868 C184.983678,117.028868 187.473678,115.162868 190.733678,115.209868 C192.053678,115.229868 193.213678,115.681868 193.963678,116.774868 C194.603678,117.714868 195.093678,118.762868 195.603678,119.788868 C195.783678,120.157868 195.863678,120.688868 195.293678,120.781868 C195.073678,120.817868 194.703678,120.451868 194.543678,120.185868 C194.103678,119.435868 193.773678,118.617868 193.333678,117.870868 C192.613678,116.671868 191.473678,116.250868 190.133678,116.396868 C188.833678,116.537868 187.653678,117.033868 186.613678,117.862868 C185.663678,118.622868 185.263678,119.576868 185.553678,120.789868 C185.643678,121.147868 185.763678,121.510868 185.763678,121.871868 C185.763678,122.156868 185.603678,122.443868 185.523678,122.728868 C185.243678,122.633868 184.963678,122.558868 184.703678,122.434868 C184.583678,122.381868 184.523678,122.223868 184.433678,122.122868 C183.003678,120.584868 181.063678,120.224868 179.313678,121.355868 C176.843678,122.959868 175.333678,125.152868 175.653678,128.271868 C175.703678,128.774868 175.823678,129.271868 175.853678,129.775868 C175.883678,130.393868 175.543678,130.643868 174.993678,130.368868 C172.753678,129.261868 170.663678,129.868868 168.693678,130.974868 C166.813678,132.022868 165.713678,133.718868 165.473678,135.864868 C165.373678,136.755868 165.543678,137.675868 165.583678,138.541868" id="Fill-42" fill="#000000"></path>
            <path d="M196.563678,134.349868 C196.823678,132.549868 197.703678,131.329868 199.233678,130.605868 C200.913678,129.803868 202.573678,130.250868 204.183678,130.832868 C204.413678,130.915868 204.683678,131.463868 204.603678,131.697868 C204.463678,132.155868 204.043678,131.940868 203.673678,131.842868 C202.963678,131.654868 202.243678,131.485868 201.513678,131.402868 C199.003678,131.114868 197.313678,133.161868 198.003678,135.602868 C198.043678,135.734868 198.153678,135.873868 198.123678,135.989868 C198.073678,136.239868 198.023678,136.598868 197.853678,136.686868 C197.673678,136.777868 197.213678,136.681868 197.133678,136.528868 C196.243678,134.937868 194.683678,135.035868 193.243678,135.003868 C191.613678,134.966868 190.163678,135.579868 189.043678,136.792868 C187.213678,138.777868 186.433678,141.088868 187.033678,143.782868 C187.073678,143.962868 187.133678,144.137868 187.173678,144.318868 C187.403678,145.435868 187.153678,145.707868 185.973678,145.615868 C185.653678,145.590868 185.333678,145.536868 185.013678,145.505868 C180.803678,145.085868 177.503678,148.145868 177.723678,152.362868 C177.783678,153.442868 178.143678,154.508868 178.403678,155.573868 C178.483678,155.922868 178.793678,156.340868 178.283678,156.493868 C178.053678,156.561868 177.553678,156.292868 177.443678,156.053868 C174.993678,150.763868 177.913678,144.962868 183.323678,144.407868 C184.133678,144.323868 184.973678,144.387868 185.913678,144.381868 C185.883678,144.055868 185.863678,143.715868 185.823678,143.378868 C185.473678,140.818868 186.133678,138.525868 187.753678,136.538868 C189.723678,134.109868 192.343678,133.484868 195.323678,134.016868 C195.683678,134.079868 196.033678,134.202868 196.563678,134.349868" id="Fill-43" fill="#000000"></path>
            <path d="M111.493678,126.257868 C111.843678,124.420868 112.543678,122.919868 113.673678,121.678868 C114.283678,121.011868 115.003678,120.393868 115.793678,119.947868 C117.263678,119.112868 118.483678,119.347868 119.663678,120.547868 C120.073678,120.968868 120.423678,121.452868 120.853678,121.963868 C121.203678,121.722868 121.523678,121.479868 121.863678,121.268868 C124.273678,119.779868 126.733678,120.476868 127.993678,123.012868 C128.643678,124.318868 128.913678,125.697868 128.753678,127.159868 C128.693678,127.703868 128.753678,128.259868 128.683678,128.801868 C128.653678,129.022868 128.443678,129.220868 128.313678,129.428868 C128.063678,129.271868 127.653678,129.155868 127.593678,128.947868 C127.483678,128.522868 127.513678,128.040868 127.573678,127.593868 C127.753678,126.138868 127.593678,124.744868 126.913678,123.434868 C126.023678,121.717868 124.613678,121.236868 122.873678,122.019868 C122.093678,122.372868 121.633678,122.943868 121.553678,123.804868 C121.533678,124.031868 121.593678,124.287868 121.503678,124.482868 C121.423678,124.664868 121.213678,124.883868 121.043678,124.904868 C120.873678,124.922868 120.613678,124.743868 120.513678,124.579868 C120.383678,124.353868 120.403678,124.032868 120.283678,123.797868 C119.853678,122.994868 119.473678,122.138868 118.913678,121.439868 C118.113678,120.452868 117.353678,120.389868 116.213678,120.964868 C114.233678,121.957868 112.463678,125.098868 112.643678,127.274868 C112.693678,127.845868 113.073678,128.639868 112.403678,128.902868 C111.543678,129.242868 111.493678,128.218868 111.143678,127.755868 C109.023678,124.960868 106.683678,125.000868 104.513678,127.531868 C103.813678,128.343868 103.453678,129.448868 102.993678,130.447868 C102.873678,130.702868 102.933678,131.072868 103.003678,131.369868 C103.073678,131.736868 103.073678,132.082868 102.653678,132.098868 C102.393678,132.109868 102.043678,131.909868 101.873678,131.694868 C101.733678,131.515868 101.713678,131.156868 101.773678,130.909868 C102.223678,128.995868 102.963678,127.211868 104.513678,125.923868 C106.303678,124.446868 108.453678,123.820868 110.773678,125.746868 C110.943678,125.888868 111.133678,126.005868 111.493678,126.257868" id="Fill-44" fill="#000000"></path>
            <path d="M115.883678,136.869868 C117.863678,131.962868 121.653678,131.344868 124.003678,133.814868 C125.243678,132.478868 126.753678,131.916868 128.583678,132.253868 C129.653678,132.448868 130.493678,132.944868 131.053678,133.841868 C131.573678,134.655868 132.033678,135.507868 132.483678,136.362868 C132.563678,136.523868 132.533678,136.916868 132.443678,136.959868 C132.233678,137.058868 131.913678,137.090868 131.713678,136.993868 C131.483678,136.885868 131.303678,136.625868 131.163678,136.396868 C130.923678,136.004868 130.733678,135.582868 130.523678,135.176868 C129.273678,132.801868 126.543678,132.567868 124.923678,134.694868 C124.243678,135.579868 123.903678,135.667868 123.243678,134.767868 C121.683678,132.639868 119.253678,133.548868 118.223678,135.010868 C117.663678,135.818868 117.313678,136.797868 116.953678,137.729868 C116.573678,138.690868 116.313678,138.784868 115.493678,138.135868 C114.883678,137.652868 114.273678,137.165868 113.633678,136.719868 C112.673678,136.053868 111.653678,136.005868 110.623678,136.529868 C108.703678,137.508868 107.353678,139.018868 106.603678,141.050868 C106.453678,141.453868 106.483678,142.133868 105.843678,141.967868 C105.123678,141.781868 105.423678,141.110868 105.583678,140.690868 C106.533678,138.165868 108.193678,136.272868 110.763678,135.293868 C111.843678,134.878868 112.933678,134.993868 113.943678,135.613868 C114.563678,135.996868 115.163678,136.404868 115.883678,136.869868" id="Fill-45" fill="#000000"></path>
            <path d="M190.863678,150.355868 C190.563678,145.584868 192.833678,143.601868 197.573678,144.454868 C197.623678,144.258868 197.733678,144.053868 197.733678,143.847868 C197.793678,141.728868 200.373678,139.866868 202.353678,139.833868 C203.363678,139.816868 204.263678,140.125868 205.033678,140.768868 C205.193678,140.910868 205.213678,141.239868 205.293678,141.483868 C205.013678,141.545868 204.723678,141.634868 204.443678,141.657868 C204.333678,141.666868 204.203678,141.534868 204.093678,141.453868 C202.123678,140.020868 198.483678,141.997868 198.833678,144.779868 C198.843678,144.869868 198.853678,144.962868 198.853678,145.053868 C198.843678,145.945868 198.593678,146.128868 197.793678,145.857868 C197.443678,145.740868 197.103678,145.593868 196.743678,145.499868 C195.623678,145.200868 194.563678,145.366868 193.543678,145.901868 C192.203678,146.600868 191.673678,147.583868 191.913678,149.073868 C192.003678,149.658868 192.243678,150.219868 192.383678,150.798868 C192.523678,151.378868 192.293678,151.692868 191.703678,151.693868 C191.333678,151.694868 190.973678,151.543868 190.613678,151.561868 C189.743678,151.604868 188.843678,151.560868 188.033678,151.812868 C185.693678,152.544868 184.553678,155.072868 185.443678,157.332868 C185.593678,157.717868 185.813678,158.084868 185.913678,158.481868 C185.963678,158.700868 185.833678,158.965868 185.783678,159.209868 C185.513678,159.114868 185.103678,159.100868 184.993678,158.911868 C183.983678,157.157868 183.503678,155.359868 184.593678,153.425868 C185.713678,151.438868 187.413678,150.462868 189.663678,150.379868 C190.063678,150.364868 190.463678,150.363868 190.863678,150.355868" id="Fill-46" fill="#000000"></path>
            <path d="M46.6736777,89.9408676 C45.7236777,88.2048676 44.8536777,86.6118676 44.1136777,85.2448676 C41.4136777,87.1688676 38.8036777,89.0238676 36.1036777,90.9458676 C37.2436777,91.9428676 38.3536777,92.9278676 39.5436777,93.9768676 C41.9136777,92.6338676 44.2236777,91.3278676 46.6736777,89.9408676 Z M44.3736777,83.5528676 C45.6936777,85.6978676 46.8236777,87.9288676 48.0436777,90.2388676 C47.6236777,90.5488676 47.3236777,90.8218676 46.9836777,91.0188676 C44.7836777,92.2768676 42.5636777,93.4948676 40.3836777,94.7778676 C39.6836777,95.1908676 39.1736777,95.1908676 38.5636777,94.6038676 C37.4736777,93.5548676 36.2736777,92.6078676 35.1636777,91.5798676 C34.4936777,90.9668676 34.4836777,90.6648676 35.1836777,90.1418676 C38.0036777,88.0028676 40.8536777,85.8988676 43.7036777,83.7898676 C43.8436777,83.6898676 44.0336777,83.6688676 44.3736777,83.5528676 L44.3736777,83.5528676 Z" id="Fill-47" fill="#000000"></path>
            <path d="M94.6536777,181.833868 C95.6636777,181.627868 96.5936777,181.358868 97.5436777,181.261868 C100.273678,180.980868 101.853678,182.207868 102.243678,184.892868 C102.473678,186.455868 102.333678,188.007868 101.903678,189.530868 C101.803678,189.891868 101.643678,190.335868 101.193678,190.131868 C100.983678,190.034868 100.783678,189.507868 100.853678,189.247868 C101.233678,187.800868 101.323678,186.343868 101.103678,184.877868 C100.823678,183.023868 99.7236777,182.202868 97.8236777,182.341868 C96.2636777,182.454868 94.8636777,182.972868 93.6636777,183.977868 C93.5536777,184.066868 93.4736777,184.206868 93.3536777,184.247868 C93.1136777,184.329868 92.8636777,184.358868 92.6136777,184.408868 C92.5736777,184.121868 92.4136777,183.793868 92.5036777,183.555868 C92.9136777,182.443868 93.4636777,181.378868 93.8336777,180.253868 C94.2936777,178.878868 94.3036777,177.439868 93.9836777,176.030868 C93.5836777,174.298868 92.4736777,173.827868 90.9336777,174.693868 C90.5836777,174.886868 90.2136777,175.130868 90.0136777,174.691868 C89.9136777,174.477868 90.1136777,173.988868 90.3336777,173.783868 C91.5536777,172.652868 93.6936777,172.953868 94.4836777,174.478868 C94.9336777,175.339868 95.1936777,176.391868 95.2136777,177.363868 C95.2436777,178.585868 94.9336777,179.813868 94.7736777,181.037868 C94.7336777,181.293868 94.6936777,181.548868 94.6536777,181.833868" id="Fill-48" fill="#000000"></path>
            <path d="M124.773678,151.016868 C125.713678,149.853868 127.073678,149.375868 128.663678,149.256868 C130.533678,149.115868 133.063678,151.267868 133.453678,152.845868 C133.583678,153.359868 133.553678,153.943868 133.463678,154.473868 C133.333678,155.283868 133.103678,156.080868 132.873678,156.870868 C132.823678,157.056868 132.583678,157.338868 132.463678,157.322868 C132.233678,157.289868 131.943678,157.119868 131.843678,156.923868 C131.733678,156.708868 131.753678,156.388868 131.803678,156.133868 C131.893678,155.731868 132.063678,155.348868 132.183678,154.951868 C132.713678,153.180868 132.253678,152.105868 130.453678,150.953868 C129.173678,150.133868 127.263678,150.224868 126.193678,151.199868 C125.943678,151.436868 125.763678,151.784868 125.613678,152.110868 C125.423678,152.499868 125.553678,153.172868 124.953678,153.155868 C124.663678,153.148868 124.363678,152.682868 124.113678,152.383868 C122.943678,150.975868 121.503678,150.238868 119.643678,150.489868 C118.023678,150.707868 117.183678,151.451868 116.763678,153.020868 C116.723678,153.197868 116.733678,153.419868 116.633678,153.546868 C116.513678,153.697868 116.273678,153.870868 116.113678,153.845868 C115.943678,153.819868 115.693678,153.589868 115.673678,153.421868 C115.623678,153.117868 115.683678,152.782868 115.763678,152.478868 C116.403678,150.101868 118.993678,148.748868 121.623678,149.534868 C122.693678,149.856868 123.673678,150.487868 124.773678,151.016868" id="Fill-49" fill="#000000"></path>
            <path d="M119.033678,144.438868 C119.693678,142.904868 120.633678,141.809868 121.983678,141.091868 C124.763678,139.613868 127.963678,140.608868 129.403678,143.397868 C129.483678,143.559868 129.563678,143.726868 129.623678,143.900868 C129.743678,144.287868 129.973678,144.754868 129.443678,144.976868 C128.903678,145.201868 128.773678,144.720868 128.593678,144.340868 C127.763678,142.570868 126.433678,141.394868 124.413678,141.538868 C122.313678,141.690868 120.853678,142.895868 120.093678,144.888868 C120.023678,145.059868 119.993678,145.242868 119.923678,145.412868 C119.583678,146.255868 119.183678,146.338868 118.503678,145.695868 C118.243678,145.442868 118.023678,145.143868 117.743678,144.899868 C116.593678,143.863868 115.203678,143.628868 113.753678,143.924868 C112.103678,144.261868 111.283678,145.621868 111.203678,147.833868 C111.193678,148.091868 111.023678,148.499868 110.843678,148.564868 C110.403678,148.716868 110.203678,148.347868 110.113678,147.959868 C110.103678,147.914868 110.093678,147.868868 110.093678,147.823868 C109.753678,145.194868 111.833678,142.801868 114.513678,142.726868 C115.993678,142.684868 117.323678,143.045868 118.463678,144.037868 C118.593678,144.154868 118.753678,144.242868 119.033678,144.438868" id="Fill-50" fill="#000000"></path>
            <path d="M233.613678,78.1628676 C233.663678,76.4038676 233.703678,74.8078676 233.753678,73.0098676 C231.573678,73.6278676 229.523678,74.2098676 227.523678,74.7768676 C227.313678,76.1748676 227.123678,77.4608676 226.913678,78.8638676 C229.183678,78.6268676 231.323678,78.4038676 233.613678,78.1628676 Z M234.833678,71.8728676 C234.823678,73.2068676 234.823678,74.3938676 234.803678,75.5798676 C234.793678,76.4548676 234.753678,77.3278676 234.723678,78.2018676 C234.693678,78.8538676 234.383678,79.2028676 233.713678,79.2658676 C231.373678,79.4858676 229.043678,79.7488676 226.703678,79.9558676 C225.803678,80.0368676 225.613678,79.8368676 225.733678,78.9548676 C225.913678,77.5388676 226.153678,76.1318676 226.353678,74.7178676 C226.423678,74.2048676 226.653678,73.8848676 227.173678,73.7418676 C229.433678,73.1138676 231.683678,72.4638676 233.943678,71.8388676 C234.153678,71.7818676 234.383678,71.8508676 234.833678,71.8728676 L234.833678,71.8728676 Z" id="Fill-51" fill="#000000"></path>
            <path d="M202.913678,184.339868 C202.973678,183.954868 203.023678,183.567868 203.093678,183.185868 C203.433678,181.354868 201.973678,179.352868 200.123678,179.281868 C199.483678,179.257868 198.813678,179.566868 198.173678,179.782868 C197.923678,179.865868 197.763678,180.181868 197.513678,180.273868 C197.213678,180.387868 196.743678,180.535868 196.553678,180.392868 C196.153678,180.072868 196.533678,179.758868 196.783678,179.495868 C198.843678,177.361868 202.093678,177.761868 203.573678,180.349868 C203.883678,180.898868 204.103678,181.501868 204.423678,182.208868 C204.883678,181.826868 205.303678,181.492868 205.703678,181.146868 C206.743678,180.252868 207.943678,179.687868 209.313678,179.574868 C211.743678,179.375868 213.563678,181.474868 213.023678,183.843868 C212.973678,184.055868 212.853678,184.279868 212.703678,184.431868 C212.593678,184.539868 212.353678,184.606868 212.213678,184.563868 C212.073678,184.521868 211.913678,184.323868 211.893678,184.178868 C211.863678,183.910868 211.893678,183.624868 211.943678,183.357868 C212.313678,181.596868 210.503678,180.326868 208.983678,180.765868 C208.123678,181.014868 207.273678,181.441868 206.533678,181.951868 C205.743678,182.494868 205.093678,183.243868 204.363678,183.875868 C204.043678,184.153868 203.663678,184.362868 203.313678,184.602868 C203.183678,184.514868 203.053678,184.427868 202.913678,184.339868" id="Fill-52" fill="#000000"></path>
            <path d="M31.8136777,115.416868 C32.2536777,115.071868 32.7636777,114.678868 33.2736777,114.275868 C33.0736777,113.352868 32.8836777,112.459868 32.6936777,111.568868 C32.6036777,111.197868 32.5036777,110.791868 33.0336777,110.701868 C33.5236777,110.615868 33.6236777,111.030868 33.7036777,111.393868 C33.8736777,112.143868 34.0336777,112.896868 34.2036777,113.689868 C35.1136777,113.591868 35.8736777,113.510868 36.7436777,113.417868 C36.9436777,112.506868 37.1136777,111.569868 37.3536777,110.651868 C37.4236777,110.397868 37.7236777,110.015868 37.9036777,110.01885 C38.4036777,110.027868 38.4036777,110.479868 38.3336777,110.849868 C38.1636777,111.742868 37.9636777,112.629868 37.7736777,113.530868 C38.7336777,114.019868 39.5836777,114.449868 40.4936777,114.912868 C41.1136777,114.017868 41.7236777,113.139868 42.4336777,112.101868 C42.6636777,112.504868 42.8736777,112.694868 42.8536777,112.856868 C42.7536777,113.654868 41.1336777,115.865868 40.4336777,116.292868 C39.7236777,115.826868 39.0836777,115.283868 38.3536777,114.952868 C36.2636777,114.003868 34.1736777,114.492868 32.4636777,116.269868 C32.0536777,116.697868 31.7436777,117.221868 31.3636777,117.680868 C31.1536777,117.930868 30.8936777,118.135868 30.5836777,118.432868 C29.9636777,117.473868 30.7836777,117.016868 30.9336777,116.333868 C30.2536777,115.421868 28.6236777,115.192868 28.6436777,113.399868 C29.9336777,113.834868 30.5236777,115.143868 31.8136777,115.416868" id="Fill-53" fill="#000000"></path>
            <path d="M16.0436777,99.3808676 C16.5536777,100.187868 17.0236777,100.951868 17.5736777,101.824868 C19.0436777,100.954868 20.4436777,100.129868 21.8636777,99.2938676 C21.4936777,97.7468676 21.2936777,96.3318676 20.7836777,94.8038676 C19.1236777,96.4078676 17.6136777,97.8648676 16.0436777,99.3808676 Z M21.4536777,93.0908676 C21.6236777,93.5308676 21.7936777,93.8878676 21.8836777,94.2668676 C22.2236777,95.7438676 22.5036777,97.2378676 22.8736777,98.7038676 C23.0836777,99.5038676 22.9036777,99.9998676 22.1736777,100.403868 C20.8136777,101.162868 19.4936777,102.002868 18.1336777,102.773868 C17.3336777,103.222868 17.1636777,103.175868 16.6636777,102.434868 C16.1136777,101.636868 15.6236777,100.802868 15.1036777,99.9928676 C14.7836777,99.4988676 14.7936777,99.0668676 15.2336777,98.6418676 C17.0236777,96.9218676 18.7936777,95.1888676 20.5936777,93.4778676 C20.7736777,93.3068676 21.0736777,93.2578676 21.4536777,93.0908676 L21.4536777,93.0908676 Z" id="Fill-54" fill="#000000"></path>
            <path d="M247.313678,74.2568676 C248.493678,74.0368676 249.523678,73.8198676 250.553678,73.6598676 C253.163678,73.2558676 253.163678,73.2658676 253.463678,70.6538676 C253.483678,70.5238676 253.443678,70.3878676 253.413678,70.1568676 C251.283678,69.9978676 249.293678,70.5248676 247.303678,71.1108676 C247.313678,72.1898676 247.313678,73.1428676 247.313678,74.2568676 Z M254.293678,71.5188676 C253.803678,74.5688676 253.553678,74.1558676 251.113678,74.5858676 C249.983678,74.7848676 248.863678,75.0298676 247.743678,75.2328676 C246.553678,75.4468676 246.273678,75.1778676 246.293678,73.9498676 C246.313678,73.1248676 246.283678,72.2998676 246.313678,71.4758676 C246.353678,70.4718676 246.583678,70.1268676 247.543678,69.9458676 C249.243678,69.6218676 250.953678,69.2928676 252.683678,69.1168676 C254.493678,68.9328676 254.803678,69.3718676 254.383678,71.1478676 C254.353678,71.2808676 254.313678,71.4148676 254.293678,71.5188676 L254.293678,71.5188676 Z" id="Fill-55" fill="#000000"></path>
            <path d="M265.143678,66.3908676 C266.823678,65.9838676 266.823678,65.9838676 266.723678,64.6848676 C266.153678,64.8638676 265.613678,65.0358676 265.033678,65.2188676 C265.083678,65.6898676 265.113678,66.0348676 265.143678,66.3908676 Z M267.753678,65.8168676 C267.763678,66.3498676 267.383678,66.8138676 266.613678,67.0428676 C266.103678,67.1978676 265.623678,67.4938676 265.123678,67.7108676 C264.633678,67.9228676 264.303678,67.7138676 264.193678,67.2368676 C264.093678,66.7958676 264.053678,66.3328676 264.053678,65.8798676 C264.073678,64.7188676 264.323678,64.3948676 265.453678,64.0178676 C265.843678,63.8888676 266.233678,63.7558676 266.633678,63.6718676 C267.523678,63.4858676 267.843678,63.7368676 267.853678,64.6088676 C267.853678,64.9268676 267.803678,65.2448676 267.753678,65.8168676 L267.753678,65.8168676 Z" id="Fill-56" fill="#000000"></path>
            <path d="M8.10367774,123.179868 C8.80367774,123.573868 9.33367774,123.872868 10.0436777,124.270868 C10.2436777,123.467868 10.3836777,122.872868 10.5436777,122.238868 C10.7636777,122.271868 11.0636777,122.273868 11.0736777,122.324868 C11.1636777,122.843868 11.3436777,123.402868 11.2236777,123.888868 C10.9736777,125.027868 10.0536777,125.447868 9.01367774,124.917868 C8.56367774,124.685868 8.20367774,124.228868 7.86367774,123.826868 C7.79367774,123.755868 7.99367774,123.459868 8.10367774,123.179868" id="Fill-57" fill="#000000"></path>
        </g>
    </g>
</svg>