<?xml version="1.0" encoding="UTF-8"?>
<svg width="266px" height="216px" viewBox="0 0 266 216" version="1.1" xmlns="http://www.w3.org/2000/svg" xmlns:xlink="http://www.w3.org/1999/xlink">
    <!-- Generator: Sketch 63.1 (92452) - https://sketch.com -->
    <title>Group 2</title>
    <desc>Created with Sketch.</desc>
    <g id="Page-1" stroke="none" stroke-width="1" fill="none" fill-rule="evenodd">
        <g id="Group-2">
            <path d="M30.811531,122.379008 C28.721531,123.390008 27.531531,124.781008 26.991531,126.740008 C26.871531,127.188008 26.781531,127.650008 26.601531,128.071008 C26.321531,128.709008 25.791531,129.075008 25.081531,129.007008 C24.381531,128.939008 23.931531,128.502008 23.751531,127.817008 C23.681531,127.541008 23.631531,127.242008 23.661531,126.964008 C24.151531,122.124008 24.661531,117.298008 26.321531,112.663008 C27.871531,108.328008 30.521531,104.839008 34.061531,101.973008 C36.751531,99.7960082 39.831531,98.5830082 43.281531,98.3000082 C46.161531,98.0630082 49.051531,97.8450082 51.941531,97.6550082 C54.971531,97.4560082 57.781531,96.6210082 60.071531,94.5780082 C61.831531,93.0040082 63.521531,91.3210082 65.071531,89.5300082 C66.781531,87.5410082 67.541531,85.0610082 67.711531,82.4830082 C67.871531,80.1280082 67.971531,77.7220082 67.661531,75.3950082 C67.141531,71.4370082 64.401531,67.0210082 58.871531,63.4690082 C58.741531,63.4690082 58.611531,63.4280082 58.521531,63.4740082 C53.511531,65.9990082 48.471531,68.4710082 43.501531,71.0830082 C39.811531,73.0220082 36.191531,75.0960082 32.591531,77.1970082 C28.771531,79.4260082 24.761531,81.2030082 20.621531,82.7270082 C16.261531,84.3370082 11.841531,84.7140082 7.37153104,83.1720082 C7.20153104,83.1150082 7.03153104,83.0630082 6.86153104,83.0270082 C3.13153104,82.2250082 3.58153104,82.2840082 1.88153104,78.9280082 C1.29153104,77.7410082 0.701531039,76.5370082 0.261531039,75.2860082 C-0.348468961,73.5530082 0.0915310394,72.6540082 1.76153104,71.9930082 C3.05153104,71.4820082 4.39153104,71.1000082 5.69153104,70.6030082 C7.62153104,69.8600082 9.58153104,69.1530082 11.461531,68.2790082 C15.771531,66.2800082 20.011531,64.1530082 24.311531,62.1450082 C30.611531,59.1990082 35.541531,54.6570082 39.671531,49.1550082 C40.081531,48.6040082 40.411531,47.9770082 40.701531,47.3510082 C41.571531,45.5130082 41.281531,44.4620082 39.531531,43.4400082 C37.711531,42.3780082 35.721531,41.7740082 33.621531,41.5470082 C30.311531,41.1880082 27.041531,41.5580082 23.751531,41.9520082 C20.771531,42.3110082 17.761531,42.5250082 14.771531,42.8350082 C12.701531,43.0490082 10.631531,43.2570082 8.57153104,43.5740082 C5.58153104,44.0360082 2.29153104,41.8720082 1.70153104,38.5450082 C0.621531039,32.4120082 0.0715310394,26.2630082 1.58153104,20.1070082 C2.37153104,16.8990082 4.12153104,14.3070082 6.64153104,12.1950082 C9.63153104,9.69100822 13.081531,8.15500822 16.811531,7.10700822 C21.901531,5.67400822 27.101531,4.83900822 32.371531,4.53100822 C38.431531,4.17700822 44.241531,2.60600822 50.081531,1.16000822 C53.311531,0.361008218 56.561531,-8.52651283e-14 59.881531,-8.52651283e-14 C61.661531,-8.52651283e-14 63.391531,0.295008218 64.891531,1.21100822 C67.201531,2.63000822 69.481531,4.12700822 71.601531,5.82000822 C72.691531,6.69400822 73.531531,7.98100822 74.231531,9.22300822 C76.441531,13.1370082 77.881531,17.3510082 78.561531,21.7980082 C78.921531,24.1030082 79.591531,26.2640082 80.621531,28.3810082 C81.851531,30.9240082 82.851531,33.5910082 83.811531,36.2580082 C84.841531,39.1640082 86.051531,41.9670082 87.821531,44.5070082 C88.281531,45.1710082 88.751531,45.8450082 89.121531,46.5630082 C91.521531,51.2090082 95.491531,54.1880082 100.001531,56.4390082 C103.721531,58.2950082 107.711531,58.7970082 111.831531,57.7160082 C115.291531,56.8080082 118.441531,55.2900082 121.371531,53.2420082 C124.691531,50.9160082 127.961531,48.5210082 131.391531,46.3590082 C136.271531,43.2780082 141.501531,40.9430082 147.281531,40.1370082 C151.371531,39.5660082 155.481531,39.6840082 159.601531,39.8250082 C168.771531,40.1400082 176.981531,43.4100082 184.811531,47.8780082 C185.861531,48.4770082 186.911531,49.1550082 187.761531,50.0060082 C190.771531,53.0490082 193.971531,55.9680082 196.571531,59.3380082 C199.671531,63.3450082 203.621531,65.5140082 208.381531,66.6980082 C212.311531,67.6760082 216.181531,67.4720082 220.081531,66.6620082 C224.741531,65.6940082 229.261531,64.2600082 233.681531,62.4940082 C236.491531,61.3690082 239.061531,59.7970082 241.481531,57.9890082 C244.001531,56.1090082 245.861531,53.6790082 247.071531,50.8020082 C249.691531,44.6040082 251.901531,38.2720082 253.071531,31.6180082 C253.111531,31.3900082 253.161531,31.1640082 253.201531,30.9370082 C253.391531,29.9030082 253.801531,29.0220082 254.921531,28.7660082 C256.041531,28.5060082 256.811531,29.1900082 257.431531,29.9800082 C259.201531,32.2490082 260.501531,34.7770082 260.971531,37.6290082 C261.711531,42.0970082 262.881531,46.4490082 264.181531,50.7750082 C265.191531,54.1240082 265.531531,57.5800082 265.721531,61.0560082 C265.831531,63.0610082 265.431531,64.9730082 264.671531,66.8160082 C260.821531,76.1820082 255.681531,84.7500082 248.401531,91.8430082 C241.141531,98.9100082 232.891531,104.466008 223.111531,107.577008 C218.731531,108.972008 214.271531,109.378008 209.741531,109.167008 C206.531531,109.017008 203.391531,109.284008 200.121531,110.205008 C199.981531,111.361008 199.861531,112.612008 199.701531,113.858008 C198.761531,121.272008 196.341531,128.273008 193.671531,135.195008 C190.731531,142.811008 187.661531,150.372008 184.771531,158.005008 C183.651531,160.974008 182.801531,164.055008 181.991531,167.125008 C181.731531,168.084008 181.811531,169.218008 182.041531,170.202008 C183.101531,174.826008 184.231531,179.438008 185.421531,184.029008 C186.121531,186.717008 187.581531,189.059008 189.561531,190.970008 C192.391531,193.701008 195.381531,196.262008 198.281531,198.933008 C199.201531,199.790008 200.161531,200.670008 200.861531,201.705008 C202.211531,203.701008 201.641531,205.676008 199.501531,206.789008 C197.911531,207.614008 196.161531,207.939008 194.431531,207.562008 C189.911531,206.574008 185.431531,205.440008 180.921531,204.391008 C179.631531,204.091008 178.341531,203.752008 177.031531,203.662008 C175.611531,203.563008 174.431531,204.278008 173.671531,205.482008 C173.031531,206.506008 172.511531,207.612008 171.961531,208.689008 C171.531531,209.511008 171.221531,210.401008 170.701531,211.156008 C169.571531,212.798008 168.001531,212.930008 166.601531,211.514008 C166.081531,210.990008 165.651531,210.337008 165.311531,209.680008 C164.151531,207.480008 163.011531,205.262008 161.921531,203.028008 C160.831531,200.812008 160.121531,200.302008 157.701531,200.654008 C156.171531,200.879008 154.681531,201.416008 153.161531,201.769008 C151.251531,202.212008 149.341531,202.664008 147.411531,202.995008 C146.751531,203.107008 146.011531,202.976008 145.371531,202.762008 C143.541531,202.151008 142.651531,200.354008 143.411531,198.589008 C143.841531,197.606008 144.501531,196.667008 145.251531,195.896008 C147.761531,193.319008 150.801531,191.554008 154.231531,190.473008 C156.771531,189.673008 159.361531,189.012008 161.851531,188.089008 C164.231531,187.208008 166.521531,186.068008 168.841531,185.041008 C169.601531,184.706008 170.041531,184.229008 169.911531,183.297008 C169.121531,178.032008 168.521531,172.736008 167.551531,167.507008 C167.101531,165.094008 166.011531,162.793008 165.141531,160.467008 C163.031531,154.803008 161.371531,149.038008 161.151531,142.945008 C161.051531,140.168008 160.981531,137.389008 160.891531,134.610008 C160.881531,134.391008 160.801531,134.173008 160.721531,133.802008 C160.061531,134.010008 159.461531,134.193008 158.871531,134.387008 C155.211531,135.574008 151.481531,136.358008 147.621531,136.230008 C146.061531,136.179008 144.491531,136.015008 142.971531,135.677008 C136.931531,134.330008 130.911531,132.895008 124.881531,131.496008 C124.541531,131.420008 124.211531,131.380008 123.681531,131.291008 C123.631531,131.854008 123.541531,132.341008 123.531531,132.828008 C123.471531,139.938008 125.861531,146.215008 130.041531,151.878008 C131.481531,153.837008 133.561531,155.039008 135.521531,156.364008 C136.931531,157.316008 138.181531,158.395008 139.141531,159.814008 C141.531531,163.345008 141.811531,167.012008 139.911531,170.820008 C139.441531,171.750008 138.881531,172.634008 138.311531,173.508008 C133.241531,181.373008 129.931531,189.982008 127.551531,198.985008 C127.411531,199.489008 127.271531,199.992008 127.181531,200.505008 C126.691531,203.433008 124.671531,204.909008 122.111531,205.902008 C118.491531,207.302008 114.681531,207.698008 110.871531,207.972008 C106.201531,208.309008 101.511531,208.413008 96.821531,208.573008 C95.791531,208.608008 94.741531,208.476008 93.711531,208.391008 C92.211531,208.269008 90.911531,207.632008 89.751531,206.746008 C87.731531,205.213008 87.411531,202.784008 88.951531,200.769008 C89.821531,199.629008 90.931531,198.807008 92.371531,198.551008 C95.561531,197.985008 98.751531,197.471008 101.941531,196.883008 C104.461531,196.418008 106.981531,195.750008 109.061531,194.262008 C111.161531,192.756008 113.081531,190.961008 114.541531,188.743008 C116.661531,185.524008 118.171531,182.048008 119.371531,178.393008 C120.191531,175.895008 120.851531,173.426008 120.741531,170.761008 C120.681531,169.355008 120.301531,168.309008 119.011531,167.633008 C118.041531,167.126008 117.161531,166.421008 116.181531,165.955008 C108.951531,162.553008 102.291531,158.288008 96.481531,152.787008 C92.821531,149.326008 89.291531,145.736008 85.741531,142.165008 C84.411531,140.827008 83.581531,139.148008 83.051531,137.353008 C82.041531,133.893008 81.501531,130.344008 81.381531,126.744008 C81.351531,125.880008 81.111531,125.229008 80.621531,124.528008 C79.111531,122.341008 77.521531,120.183008 76.291531,117.836008 C75.291531,115.910008 74.761531,113.733008 74.041531,111.663008 C73.891531,111.239008 73.791531,110.798008 73.631531,110.211008 C70.261531,113.004008 66.411531,113.768008 62.311531,113.714008 C61.041531,113.697008 59.761531,113.829008 58.501531,113.925008 C55.611531,114.144008 52.701531,114.207008 49.851531,114.653008 C45.601531,115.318008 41.851531,116.909008 39.781531,121.134008 C38.731531,123.267008 37.481531,125.280008 37.321531,127.745008 C37.271531,128.526008 36.891531,129.224008 36.011531,129.388008 C35.041531,129.569008 34.531531,128.958008 34.131531,128.186008 C33.501531,126.950008 32.871531,125.709008 32.191531,124.497008 C31.801531,123.804008 31.321531,123.161008 30.811531,122.379008" id="Fill-115" fill="#83A8D4"></path>
            <path d="M70.761531,135.281008 C69.951531,135.910008 69.321531,136.300008 68.811531,136.814008 C67.631531,138.010008 66.511531,139.264008 65.371531,140.495008 C65.141531,140.749008 64.911531,141.011008 64.671531,141.265008 C64.041531,141.931008 63.341531,142.423008 62.371531,142.075008 C61.601531,141.797008 61.211531,140.968008 61.461531,139.689008 C61.981531,136.964008 62.431531,134.208008 63.211531,131.554008 C64.321531,127.789008 66.731531,124.793008 69.641531,122.241008 C72.561531,119.684008 75.661531,117.373008 79.191531,115.655008 C81.521531,114.521008 83.711531,113.071008 85.921531,111.709008 C88.171531,110.328008 89.931531,108.399008 91.621531,106.409008 C93.201531,104.560008 94.771531,102.704008 96.431531,100.929008 C99.071531,98.0910082 101.201531,94.9990082 102.041531,91.1170082 C102.711531,88.0290082 104.711531,85.6320082 106.561531,83.2010082 C106.971531,82.6690082 107.771531,82.3510082 108.451531,82.1380082 C109.411531,81.8380082 110.251531,81.4480082 110.961531,80.6950082 C111.371531,80.2660082 111.981531,79.9220082 112.551531,79.7720082 C114.651531,79.2310082 116.731531,79.4800082 118.631531,80.4610082 C119.901531,81.1180082 121.071531,82.0130082 122.181531,82.9310082 C122.731531,83.3870082 123.211531,84.0790082 123.431531,84.7590082 C125.491531,91.1830082 125.121531,97.3750082 121.071531,102.962008 C117.481531,107.924008 113.131531,112.172008 107.871531,115.380008 C104.811531,117.247008 101.631531,118.912008 98.531531,120.725008 C94.841531,122.889008 91.171531,125.106008 87.511531,127.315008 C85.061531,128.790008 82.951531,130.673008 80.971531,132.720008 C79.061531,134.684008 77.821531,136.990008 77.061531,139.590008 C76.891531,140.199008 76.701531,140.810008 76.471531,141.402008 C76.161531,142.204008 75.651531,142.868008 74.711531,142.822008 C73.781531,142.776008 73.321531,142.080008 73.041531,141.268008 C72.661531,140.115008 72.321531,138.945008 71.901531,137.807008 C71.611531,137.020008 71.211531,136.273008 70.761531,135.281008" id="Fill-116" fill="#242F4F"></path>
            <path d="M221.191531,93.7540082 C219.151531,94.2230082 216.951531,94.7290082 214.711531,95.2440082 C215.241531,98.4380082 216.171531,101.277008 217.431531,104.012008 C217.881531,104.995008 218.351531,105.154008 219.561531,104.816008 C221.061531,104.396008 222.541531,103.938008 224.031531,103.468008 C224.891531,103.193008 225.741531,102.862008 226.641531,102.541008 C224.791531,99.5540082 223.021531,96.6960082 221.191531,93.7540082 Z M237.771531,84.2170082 C239.521531,87.0410082 241.501531,89.7710082 244.271531,92.0020082 C246.881531,89.4510082 249.671531,87.2330082 251.701531,84.6110082 C249.391531,81.6330082 247.251531,78.8850082 245.071531,76.0830082 C242.571531,78.8710082 240.221531,81.4840082 237.771531,84.2170082 Z M214.931531,106.014008 C213.841531,102.623008 212.781531,99.3440082 211.681531,95.9540082 C211.571531,95.9530082 211.341531,95.9380082 211.121531,95.9530082 C208.591531,96.1370082 206.061531,96.3040082 203.531531,96.5230082 C202.881531,96.5810082 202.241531,96.8060082 201.551531,96.9650082 C202.101531,100.142008 202.631531,103.097008 203.131531,106.057008 C203.291531,107.018008 204.001531,107.230008 204.771531,107.294008 C208.271531,107.586008 211.651531,106.905008 214.931531,106.014008 Z M251.291531,63.5360082 C249.771531,67.0310082 248.331531,70.3440082 246.891531,73.6580082 C248.141531,75.3650082 249.431531,77.1340082 250.741531,78.8910082 C251.191531,79.4930082 251.641531,80.0920082 252.151531,80.6490082 C253.221531,81.8520082 253.801531,81.8070082 254.701531,80.5020082 C256.481531,77.9120082 257.671531,75.0430082 258.791531,72.1190082 C259.201531,71.0220082 259.061531,70.2800082 258.191531,69.5410082 C255.911531,67.5940082 253.671531,65.6090082 251.291531,63.5360082 Z M257.081531,36.5910082 C257.071531,39.1930082 257.261531,41.4280082 256.991531,43.6080082 C256.731531,45.8060082 256.011531,47.9490082 255.431531,50.3960082 C257.541531,50.0740082 258.621531,51.4410082 259.941531,52.2950082 C260.521531,52.6710082 260.741531,53.2950082 260.391531,53.9720082 C260.061531,54.6280082 259.491531,54.8410082 258.791531,54.6850082 C258.521531,54.6210082 258.261531,54.4480082 257.981531,54.3820082 C256.891531,54.1230082 255.791531,53.8870082 254.601531,53.6240082 C253.771531,56.0050082 253.021531,58.1680082 252.281531,60.2750082 C253.621531,61.5540082 254.811531,62.7540082 256.071531,63.8790082 C257.331531,65.0070082 258.661531,66.0600082 260.181531,67.3300082 C262.321531,56.6740082 262.111531,46.5930082 257.081531,36.5910082 Z M224.961531,92.0900082 C226.441531,94.9510082 227.791531,97.5570082 229.141531,100.163008 C229.231531,100.080008 229.311531,99.9960082 229.391531,99.9130082 C230.241531,100.154008 231.081531,100.396008 232.211531,100.718008 C235.871531,99.4370082 238.801531,96.5510082 241.881531,94.1360082 C239.621531,91.3550082 237.481531,88.7310082 235.401531,86.1750082 C233.701531,87.1180082 231.991531,88.0580082 230.281531,89.0210082 C228.541531,90.0110082 226.801531,91.0240082 224.961531,92.0900082 Z M264.441531,55.7390082 C264.641531,62.3050082 263.441531,68.6320082 261.111531,74.7620082 C259.011531,80.2660082 255.721531,84.9800082 251.661531,89.1930082 C250.781531,90.1090082 249.821531,90.9530082 248.891531,91.8280082 C248.431531,92.2650082 247.841531,92.6240082 247.511531,93.1450082 C246.331531,95.0150082 244.371531,95.9590082 242.751531,97.3130082 C241.161531,98.6520082 239.521531,99.9590082 237.781531,101.093008 C236.281531,102.064008 234.691531,102.988008 233.021531,103.561008 C226.121531,105.915008 219.251531,108.383008 212.041531,109.646008 C210.001531,110.004008 207.911531,110.144008 205.831531,110.210008 C204.751531,110.244008 203.661531,109.947008 202.591531,109.712008 C201.681531,109.511008 201.061531,108.887008 200.761531,108.010008 C200.531531,107.355008 200.331531,106.683008 200.221531,106.003008 C199.551531,102.125008 198.901531,98.2440082 198.281531,94.3590082 C197.831531,91.5490082 198.161531,91.1250082 200.931531,90.7040082 C203.391531,90.3300082 205.831531,89.8460082 208.301531,89.5520082 C210.421531,89.3000082 212.581531,89.3200082 214.711531,89.0900082 C218.601531,88.6660082 222.261531,87.4270082 225.731531,85.6070082 C233.091531,81.7490082 238.871531,76.1580082 243.411531,69.2800082 C246.371531,64.7820082 249.041531,60.1050082 250.741531,54.9400082 C252.241531,50.3610082 253.331531,45.7050082 253.621531,40.8750082 C253.801531,37.9290082 254.091531,34.9890082 254.341531,32.0480082 C254.371531,31.7030082 254.411531,31.3530082 254.491531,31.0190082 C254.691531,30.2280082 255.181531,29.6830082 255.981531,29.4800082 C256.761531,29.2840082 257.411531,29.6420082 257.781531,30.2500082 C258.551531,31.5310082 259.341531,32.8320082 259.881531,34.2180082 C260.941531,36.9050082 261.981531,39.6160082 262.761531,42.3940082 C263.511531,45.0550082 264.041531,47.7950082 264.421531,50.5350082 C264.661531,52.2370082 264.451531,54.0020082 264.441531,55.7390082 L264.441531,55.7390082 Z" id="Fill-117" fill="#CCA733"></path>
            <path d="M57.641531,14.9130082 C57.211531,11.7890082 56.371531,8.80600822 54.761531,6.06400822 C53.261531,3.51500822 51.081531,2.78300822 48.431531,4.15300822 C45.251531,5.80200822 42.731531,8.30800822 40.351531,10.9120082 C38.551531,12.8720082 36.971531,15.0280082 35.291531,17.0970082 C35.111531,17.3200082 34.971531,17.6780082 34.741531,17.7380082 C34.271531,17.8650082 33.701531,17.9910082 33.291531,17.8170082 C32.971531,17.6790082 32.621531,17.0580082 32.681531,16.7180082 C32.791531,16.0680082 33.071531,15.3800082 33.471531,14.8570082 C36.551531,10.8660082 39.701531,6.92300822 43.751531,3.84700822 C44.951531,2.94200822 46.201531,2.06300822 47.531531,1.40600822 C51.121531,-0.353991782 54.941531,0.821008218 57.031531,4.19800822 C58.921531,7.25000822 59.981531,10.6030082 60.531531,14.1210082 C60.831531,16.0060082 60.031531,17.5340082 58.631531,17.9680082 C57.911531,18.1890082 57.221531,18.1280082 56.771531,17.4450082 C56.371531,16.8400082 56.481531,16.2310082 56.941531,15.6890082 C57.061531,15.5590082 57.211531,15.4650082 57.331531,15.3370082 C57.441531,15.2110082 57.531531,15.0640082 57.641531,14.9130082" id="Fill-118" fill="#CCA733"></path>
            <path d="M69.691531,23.3450082 C69.081531,23.9700082 68.511531,24.5090082 67.991531,25.0940082 C67.651531,25.4800082 67.361531,25.9130082 67.101531,26.3570082 C63.901531,31.7710082 59.091531,34.1600082 52.891531,33.9790082 C48.221531,33.8420082 43.691531,33.1020082 39.401531,31.1250082 C38.311531,30.6240082 37.111531,30.3510082 35.961531,30.0110082 C35.191531,29.7860082 34.731531,29.3600082 34.781531,28.5320082 C34.821531,27.7730082 35.471531,27.1100082 36.251531,27.0860082 C36.651531,27.0730082 37.061531,27.1880082 37.431531,27.3180082 C38.251531,27.6050082 39.081531,27.8910082 39.861531,28.2620082 C44.071531,30.2630082 48.541531,31.0500082 53.161531,31.1200082 C57.991531,31.1940082 61.841531,29.4280082 64.391531,25.1890082 C64.751531,24.5940082 65.081531,23.9810082 65.451531,23.3950082 C66.611531,21.5380082 67.891531,21.4480082 69.691531,23.3450082" id="Fill-119" fill="#CCA733"></path>
            <path d="M50.271531,28.4480082 C49.211531,28.3110082 47.791531,28.2810082 46.461531,27.9260082 C42.551531,26.8800082 38.701531,25.6460082 35.241531,23.4250082 C34.721531,23.0930082 34.091531,22.9310082 33.501531,22.7240082 C32.521531,22.3800082 32.081531,21.6040082 32.381531,20.7160082 C32.641531,19.9490082 33.481531,19.4960082 34.361531,19.8180082 C35.171531,20.1140082 35.941531,20.5420082 36.671531,21.0070082 C39.931531,23.0990082 43.561531,24.3250082 47.281531,25.1670082 C50.301531,25.8500082 53.411531,25.5900082 56.401531,24.8020082 C59.251531,24.0550082 61.201531,22.1010082 62.681531,19.6380082 C62.941531,19.1920082 63.151531,18.7040082 63.461531,18.2930082 C63.891531,17.7270082 64.511531,17.5330082 65.161531,17.8390082 C65.891531,18.1780082 66.141531,18.8070082 65.921531,19.5760082 C65.831531,19.9070082 65.691531,20.2310082 65.521531,20.5330082 C63.081531,24.9190082 59.511531,27.6530082 54.401531,28.1220082 C53.141531,28.2390082 51.871531,28.3230082 50.271531,28.4480082" id="Fill-120" fill="#CCA733"></path>
            <path d="M139.451531,204.911008 C139.691531,203.800008 139.731531,202.708008 140.161531,201.801008 C141.771531,198.418008 144.461531,196.111008 147.921531,194.791008 C149.861531,194.050008 150.791531,195.009008 150.551531,197.114008 C150.501531,197.527008 150.721531,197.974008 150.831531,198.401008 C151.061531,199.295008 150.811531,199.985008 149.941531,200.153008 C147.821531,200.561008 146.981531,202.188008 146.171531,203.857008 C145.671531,204.883008 145.441531,206.077008 144.151531,206.500008 C144.001531,206.549008 143.861531,206.845008 143.841531,207.039008 C143.751531,207.965008 143.131531,208.331008 142.331531,208.431008 C141.391531,208.549008 140.561531,208.167008 140.161531,207.324008 C139.801531,206.567008 139.671531,205.698008 139.451531,204.911008" id="Fill-121" fill="#000000"></path>
            <path d="M152.911531,78.6020082 C150.961531,78.4820082 149.251531,77.4670082 148.191531,75.4500082 C147.351531,73.8400082 147.751531,71.9860082 149.091531,70.8950082 C150.411531,69.8260082 152.151531,69.7990082 153.591531,70.8400082 C154.251531,71.3130082 154.901531,71.7890082 155.531531,72.3020082 C156.851531,73.3880082 157.311531,74.8960082 156.791531,76.3280082 C156.281531,77.7310082 154.921531,78.5990082 152.911531,78.6020082" id="Fill-122" fill="#CCA733"></path>
            <path d="M176.331531,90.5950082 C174.001531,90.6190082 172.511531,88.8550082 172.491531,86.0280082 C172.471531,83.7100082 173.971531,82.0130082 176.071531,81.9770082 C178.231531,81.9390082 180.181531,84.1770082 180.181531,86.7030082 C180.181531,88.7480082 178.371531,90.5730082 176.331531,90.5950082" id="Fill-123" fill="#CCA733"></path>
            <path d="M99.211531,73.5650082 C96.851531,73.5170082 95.221531,71.3800082 95.791531,69.0210082 C96.151531,67.5570082 97.031531,66.4290082 98.361531,65.6990082 C99.811531,64.9010082 101.511531,65.1570082 102.651531,66.2970082 C103.761531,67.3990082 104.111531,69.0340082 103.351531,70.4310082 C102.461531,72.0740082 101.431531,73.6400082 99.211531,73.5650082" id="Fill-124" fill="#CCA733"></path>
            <path d="M185.641531,54.3350082 C185.551531,54.7090082 185.471531,55.4680082 185.221531,56.1650082 C184.691531,57.6090082 183.351531,58.5020082 181.881531,58.5040115 C180.411531,58.5060082 179.051531,57.6010082 178.531531,56.1730082 C177.931531,54.5550082 178.141531,52.9590082 179.021531,51.5040082 C179.851531,50.1230082 181.621531,49.5490082 183.121531,50.0440082 C184.771531,50.5870082 185.721531,52.0560082 185.641531,54.3350082" id="Fill-125" fill="#CCA733"></path>
            <path d="M147.361531,67.1950082 C144.911531,67.1870082 142.931531,65.2460082 142.651531,63.0500082 C142.401531,61.1330082 143.521531,59.4830082 145.401531,59.0030082 C145.461531,58.9880082 145.511531,58.9680082 145.571531,58.9580082 C147.091531,58.6950082 148.331531,59.2450082 149.201531,60.4610082 C150.261531,61.9330082 150.861531,63.5570082 149.981531,65.3330082 C149.361531,66.5790082 148.291531,67.1930082 147.361531,67.1950082" id="Fill-126" fill="#CCA733"></path>
            <path d="M162.481531,59.3150082 C162.461531,56.7130082 165.491531,54.3520082 168.021531,55.0260082 C169.151531,55.3300082 169.941531,56.0600082 170.321531,57.1660082 C170.931531,58.9190082 170.221531,60.3280082 169.031531,61.5410082 C167.911531,62.6810082 166.581531,63.2440082 164.961531,62.7000082 C163.451531,62.1960082 162.501531,60.8900082 162.481531,59.3150082" id="Fill-127" fill="#CCA733"></path>
            <path d="M85.741531,60.3110082 C85.711531,62.3930082 83.641531,64.3660082 81.521531,64.3220082 C79.501531,64.2800082 77.691531,62.3370082 77.761531,60.3040082 C77.841531,58.3670082 79.891531,56.6630082 82.151531,56.6709802 C84.201531,56.6770082 85.761531,58.2560082 85.741531,60.3110082" id="Fill-128" fill="#CCA733"></path>
            <path d="M201.081531,83.3710082 C198.911531,83.4030082 197.311531,81.7320082 197.231531,79.3350082 C197.161531,77.2390082 198.761531,75.4850082 200.801531,75.4310082 C202.861531,75.3750082 204.811531,77.4050082 204.821531,79.6100082 C204.841531,81.6310082 203.131531,83.3420082 201.081531,83.3710082" id="Fill-129" fill="#CCA733"></path>
            <path d="M128.901531,111.126001 C131.081531,111.129008 132.771531,113.005008 132.741531,115.393008 C132.711531,117.403008 131.071531,119.053009 129.101531,119.053009 C126.991531,119.054008 125.251531,117.097008 125.271531,114.742008 C125.291531,112.691008 126.861531,111.122008 128.901531,111.126001" id="Fill-130" fill="#000000"></path>
            <path d="M185.271531,79.4610082 C183.231531,79.4470082 181.611531,77.8550082 181.601531,75.8520082 C181.601531,73.6470082 183.451531,72.0310082 185.911531,72.0890082 C187.961531,72.1370082 189.571531,73.7690082 189.521531,75.7520082 C189.461531,77.8280082 187.571531,79.4770082 185.271531,79.4610082" id="Fill-131" fill="#CCA733"></path>
            <path d="M130.661531,60.6510082 C132.721531,60.6810082 134.271531,62.1640082 134.271531,64.0890082 C134.271531,66.0660082 132.191531,68.0210082 130.131531,67.9780082 C128.131531,67.9370082 126.531531,66.2520082 126.591531,64.2390082 C126.651531,62.1090082 128.341531,60.6170082 130.661531,60.6510082" id="Fill-132" fill="#CCA733"></path>
            <path d="M135.761531,83.7730082 C133.721531,83.7870082 132.121531,82.2070082 132.121531,80.1820082 C132.121531,78.1060082 133.771531,76.5090082 135.901531,76.506004 C138.091531,76.5030082 139.831531,78.0900082 139.811531,80.0700082 C139.791531,82.0380082 137.911531,83.7600082 135.761531,83.7730082" id="Fill-133" fill="#CCA733"></path>
            <path d="M146.751531,90.9880082 C146.991531,88.4510082 149.181531,86.9500082 151.291531,87.5170082 C152.471531,87.8310082 153.361531,88.5350082 153.991531,89.5460082 C154.801531,90.8510082 154.611531,92.5860082 153.581531,93.7180082 C152.561531,94.8430082 150.811531,95.2250082 149.461531,94.5570082 C149.131531,94.3920082 148.871531,94.0530082 148.621531,93.7550082 C148.181531,93.2310082 147.751531,92.6990082 147.371531,92.1330082 C147.071531,91.6890082 146.861531,91.1900082 146.751531,90.9880082" id="Fill-134" fill="#CCA733"></path>
            <path d="M145.051531,46.8730082 C147.181531,46.8460082 148.771531,48.4730082 148.851531,50.7660082 C148.921531,52.7910082 147.431531,54.3910082 145.471531,54.3960119 C143.461531,54.3990082 141.531531,52.5520082 141.471531,50.5640082 C141.411531,48.5670082 143.031531,46.8990082 145.051531,46.8730082" id="Fill-135" fill="#CCA733"></path>
            <path d="M163.581531,89.8790082 C161.571531,89.8370082 159.971531,88.1790082 160.031531,86.1890082 C160.081531,84.1150082 162.051531,82.3910082 164.241531,82.4870082 C166.061531,82.5670082 167.481531,84.0510082 167.481531,85.8730082 C167.471531,88.0970082 165.701531,89.9230082 163.581531,89.8790082" id="Fill-136" fill="#CCA733"></path>
            <path d="M172.911531,101.317008 C170.871531,101.293008 169.281531,99.6450082 169.341531,97.6220082 C169.391531,95.6830082 170.991531,94.0990082 172.921531,94.0720082 C174.901531,94.0460082 176.591531,95.7250082 176.591531,97.7170082 C176.591531,99.7230082 174.931531,101.342008 172.911531,101.317008" id="Fill-137" fill="#CCA733"></path>
            <path d="M78.511531,73.1460082 C76.451531,73.1610082 74.861531,71.5830082 74.8714841,69.5370082 C74.881531,67.5110082 76.531531,65.8820082 78.531531,65.9120082 C80.441531,65.9410082 82.071531,67.5620082 82.121531,69.4740082 C82.161531,71.4630082 80.531531,73.1300082 78.511531,73.1460082" id="Fill-138" fill="#CCA733"></path>
            <path d="M173.891531,73.1750082 C171.861531,73.1410082 170.301531,71.5310082 170.331531,69.5100082 C170.371531,67.5190082 172.041531,65.8880082 174.011531,65.9260082 C176.001531,65.9640082 177.591531,67.6250082 177.561531,69.6310082 C177.531531,71.6600082 175.931531,73.2090082 173.891531,73.1750082" id="Fill-139" fill="#CCA733"></path>
            <path d="M120.711531,72.9260082 C118.801531,72.9530082 117.271531,71.4880082 117.221531,69.5900082 C117.161531,67.6370082 118.751531,66.0020082 120.681531,66.0240082 C122.551531,66.0450082 124.101531,67.6090082 124.101531,69.4790082 C124.101531,71.3700082 122.601531,72.8980082 120.711531,72.9260082" id="Fill-140" fill="#CCA733"></path>
            <path d="M24.151531,48.2310082 C24.381531,49.2570082 23.421531,49.8560082 22.411531,49.4170082 C21.581531,49.0550082 21.241531,48.3270082 21.191531,47.4760082 C21.081531,45.5820082 20.961531,43.6870082 20.961531,41.7910082 C20.961531,41.3720082 21.361531,40.7130082 21.711531,40.5950082 C22.161531,40.4440082 22.861531,40.5870082 23.261531,40.8760082 C23.611531,41.1330082 23.841531,41.7490082 23.871531,42.2250082 C24.011531,44.2240082 24.061531,46.2290082 24.151531,48.2310082" id="Fill-141" fill="#CCA733"></path>
            <path d="M6.67153104,46.9070082 C6.67153104,47.4830082 6.68153104,48.0590082 6.66153104,48.6340082 C6.63153104,49.3610082 6.26153104,49.8530082 5.53153104,49.9530082 C4.82153104,50.0510082 4.29153104,49.6910082 4.06153104,49.0190082 C3.90153104,48.5350082 3.83153104,48.0120082 3.79153104,47.5010082 C3.68153104,45.9660082 3.84153104,44.4070082 2.91153104,42.9970082 C2.49153104,42.3570082 2.96153104,41.4530082 3.65153104,41.1260082 C4.40153104,40.7720082 5.38153104,41.0190082 5.71153104,41.8380082 C6.08153104,42.7900082 6.27153104,43.8240082 6.45153104,44.8390082 C6.58153104,45.5150082 6.55153104,46.2170082 6.59153104,46.9070082 C6.62153104,46.9070082 6.64153104,46.9070082 6.67153104,46.9070082" id="Fill-142" fill="#CCA733"></path>
            <path d="M13.541531,45.3650082 C13.471531,44.6760082 13.361531,43.9860082 13.331531,43.2950082 C13.311531,42.5290082 13.611531,41.9080082 14.461531,41.7950082 C15.271531,41.6870082 15.831531,42.0970082 15.981531,42.8810082 C16.161531,43.8420082 16.221531,44.8260082 16.361531,45.7970082 C16.501531,46.8180082 16.621531,47.8480082 16.851531,48.8520082 C17.011531,49.5450082 17.011531,50.1220082 16.361531,50.5180082 C15.731531,50.8960082 15.051531,50.8060082 14.611531,50.2990082 C14.221531,49.8490082 13.901531,49.2350082 13.791531,48.6490082 C13.591531,47.5750082 13.561531,46.4680082 13.461531,45.3740082 C13.491531,45.3710082 13.521531,45.3680082 13.541531,45.3650082" id="Fill-143" fill="#CCA733"></path>
            <path d="M4.97153104,63.5570082 C6.09153104,63.6690082 6.48153104,64.1580082 6.54153104,64.9560082 C6.61153104,65.8180082 6.59153104,66.6970082 6.76153104,67.5400082 C6.94153104,68.4270082 7.25153104,69.2960082 7.58153104,70.1410082 C7.91153104,70.9870082 7.80153104,71.6510082 7.10153104,72.1020082 C6.40153104,72.5560082 5.79153104,72.3550351 5.21153104,71.8480082 C5.13153104,71.7710082 5.03153104,71.6890082 4.98153104,71.5890082 C3.96153104,69.3330082 3.48153104,66.9800082 3.99153104,64.5290082 C4.08153104,64.1030082 4.72153104,63.7920082 4.97153104,63.5570082" id="Fill-144" fill="#CCA733"></path>
            <path d="M31.661531,43.9070082 C31.531531,44.9120082 31.421531,46.0040082 31.231531,47.0840082 C31.151531,47.5270082 30.991531,47.9810082 30.751531,48.3670082 C30.281531,49.1510082 29.491531,49.4510082 28.851531,49.1130082 C28.121531,48.7260082 28.071531,48.1140082 28.211531,47.3390082 C28.491531,45.8120082 28.651531,44.2640082 28.851531,42.7230082 C28.871531,42.4950082 28.841531,42.2590082 28.871531,42.0300082 C28.991531,41.0330082 29.441531,40.5210082 30.191531,40.4900082 C31.011531,40.4570082 31.521531,41.0160082 31.651531,42.0870082 C31.671531,42.2590082 31.671531,42.4330082 31.671531,42.6060082 C31.671531,43.0110082 31.671531,43.4150082 31.661531,43.9070082" id="Fill-145" fill="#CCA733"></path>
            <path d="M11.651531,62.0310082 C12.371531,62.0060082 12.921531,62.5240082 13.061531,63.4710082 C13.191531,64.3790082 13.231531,65.3010082 13.361531,66.2100082 C13.461531,66.9430082 13.611531,67.6700082 13.761531,68.3960082 C13.891531,69.0020082 13.861531,69.5630082 13.271531,69.9040082 C12.651531,70.2640082 11.991531,70.1660082 11.541531,69.6580082 C11.171531,69.2490082 10.821531,68.7060082 10.741531,68.1800082 C10.521531,66.7070082 10.391531,65.2150082 10.331531,63.7260082 C10.291531,62.6760082 10.861531,62.0590082 11.651531,62.0310082" id="Fill-146" fill="#CCA733"></path>
            <path d="M26.881531,54.6640082 C27.121531,54.9130082 27.601531,55.2440082 27.821531,55.7010082 C28.021531,56.1440082 27.981531,56.7170082 27.981531,57.2320082 C27.981531,58.0560082 27.981531,58.8130082 28.831531,59.3330082 C29.351531,59.6530082 29.531531,60.2550082 29.211531,60.8620082 C28.861531,61.5090082 28.281531,61.7130082 27.591531,61.5740082 C26.401531,61.3340082 25.571531,60.5860082 25.371531,59.4110082 C25.181531,58.2830082 25.201531,57.1100082 25.241531,55.9610082 C25.261531,55.1720082 25.761531,54.7080082 26.881531,54.6640082" id="Fill-147" fill="#CCA733"></path>
            <path d="M37.541531,43.2870082 C37.421531,44.0830082 37.291531,45.2250082 37.081531,46.3510082 C36.991531,46.7880082 36.791531,47.2240082 36.551531,47.6050082 C36.191531,48.2000082 35.611531,48.4800082 34.931531,48.2230082 C34.151531,47.9290082 34.021531,47.2930082 34.161531,46.5280082 C34.381531,45.2300082 34.571531,43.9240082 34.771531,42.6210082 C34.981531,41.2760082 35.481531,40.7160082 36.391531,40.8120082 C37.281531,40.9050082 37.631531,41.5380082 37.541531,43.2870082" id="Fill-148" fill="#CCA733"></path>
            <path d="M17.851531,61.6590082 C17.851531,61.2700082 17.821531,60.8610082 17.861531,60.4630082 C17.941531,59.7510082 18.321531,59.2770082 19.071531,59.2230082 C19.731531,59.1750082 20.211531,59.4960082 20.401531,60.1170082 C20.551531,60.6100082 20.601531,61.1360082 20.711531,61.6430082 C20.901531,62.5350082 21.071531,63.4370082 21.331531,64.3110082 C21.511531,64.9140082 21.581531,65.4620082 21.061531,65.9000082 C20.511531,66.3800082 19.821531,66.3630082 19.311531,65.9280082 C18.861531,65.5390082 18.441531,64.9800082 18.271531,64.4170082 C18.011531,63.5390082 17.981531,62.5950082 17.851531,61.6590082" id="Fill-149" fill="#CCA733"></path>
            <path d="M4.89153104,21.4700082 C5.27153104,20.3130082 5.59153104,18.9030082 6.17153104,17.6080082 C6.64153104,16.5600082 7.90153104,16.6300082 8.52153104,17.6120082 C9.18153104,18.6590082 9.11153104,19.3370082 8.41153104,20.4180082 C8.02153104,21.0350082 7.80153104,21.7600082 7.47153104,22.4190082 C7.16153104,23.0320082 6.67153104,23.4370082 5.95153104,23.2470082 C5.18153104,23.0470082 4.85153104,22.4760082 4.89153104,21.4700082" id="Fill-150" fill="#CCA733"></path>
            <path d="M8.54153104,44.4500082 C8.54153104,43.8170082 8.42153104,43.1500082 8.59153104,42.5630082 C8.71153104,42.1430082 9.14153104,41.6770082 9.55153104,41.5060082 C10.121531,41.2630082 10.751531,41.5540082 10.981531,42.1460082 C11.601531,43.6930082 11.531531,45.3150082 11.141531,46.8890082 C11.051531,47.2320082 10.321531,47.6790082 9.96153104,47.6240082 C9.49153104,47.5550082 8.88153104,47.1010082 8.72153104,46.6700082 C8.47153104,45.9940082 8.55153104,45.1990082 8.49153104,44.4540082 C8.51153104,44.4530082 8.52153104,44.4520082 8.54153104,44.4500082" id="Fill-151" fill="#CCA733"></path>
            <path d="M86.621531,82.1800082 C86.211531,83.3680082 85.401531,83.2540082 84.421531,83.0270082 C85.041531,82.3000082 85.711531,82.0360082 86.621531,82.1800082" id="Fill-152" fill="#83A8D4"></path>
            <path d="M162.171531,119.507008 C162.001531,120.100008 161.831531,120.688008 161.651531,121.293008 C161.331531,120.613008 161.091531,120.102008 160.841531,119.601008 C158.111531,114.219008 154.571531,109.558008 148.971531,106.890008 C142.821531,103.956008 136.681531,104.009008 130.661531,107.354008 C126.171531,109.846008 123.521531,113.833008 121.641531,118.446008 C121.011531,120.011008 120.781531,121.563008 120.851531,123.285008 C120.861531,123.458008 120.841531,123.634008 120.861531,123.806008 C121.121531,126.105008 121.241531,128.430008 121.691531,130.691008 C122.051531,132.544008 123.071531,133.948008 125.061531,134.720008 C129.311531,136.366008 133.781531,137.021008 138.181531,137.938008 C143.731531,139.094008 149.331531,139.240008 154.811531,137.325008 C155.081531,137.233008 155.391531,137.208008 155.661531,137.254008 C156.501531,137.395008 157.061531,137.012008 157.661531,136.466008 C158.491531,135.697008 159.441531,135.067008 160.641531,134.915008 C160.661531,134.983008 160.661531,135.032008 160.681531,135.090008 C161.251531,129.995008 161.081531,124.896008 162.241531,119.805008 C162.241531,119.705008 162.211531,119.606008 162.171531,119.507008" id="Fill-153" fill="#242F4F"></path>
            <path d="M170.681531,174.114008 C170.641531,170.804008 170.241531,167.529008 169.461531,164.311008 C168.031531,158.468008 166.441531,152.659008 165.201531,146.776008 C164.421531,143.055008 164.061531,139.232008 163.711531,135.437008 C163.531531,133.499008 163.791531,131.521008 163.851531,129.563008 C163.881531,128.355008 163.781531,127.127008 163.971531,125.943008 C164.331531,123.600008 164.681531,121.234008 165.331531,118.961008 C166.531531,114.750008 167.251531,110.359008 169.621531,106.548008 C170.011531,105.929008 169.891531,105.302008 169.341531,104.826008 C168.771531,104.340008 168.111531,104.362008 167.601531,104.855008 C167.111531,105.326008 166.641531,105.881008 166.361531,106.492008 C165.741531,107.860008 165.171531,109.262008 164.731531,110.695008 C163.861531,113.564008 163.041531,116.463008 162.171531,119.507008 C162.211531,119.606008 162.241531,119.705008 162.241531,119.805008 C161.081531,124.896008 161.251531,129.995008 160.681531,135.090008 C160.711531,135.252008 160.741531,135.391008 160.741531,135.517008 C161.041531,143.441008 162.871531,151.081008 164.901531,158.700008 C165.891531,162.382008 166.741531,166.125008 167.281531,169.893008 C167.731531,173.029008 167.671531,176.242008 167.801531,179.423008 C167.871531,181.265008 167.681531,183.089008 167.411531,184.968008 C165.211531,185.333008 163.161531,185.701008 161.111531,186.010008 C153.851531,187.101008 148.501531,191.232008 144.021531,196.725008 C143.341531,197.548008 143.561531,198.495008 144.391531,198.949008 C145.111531,199.349008 145.791531,199.088008 146.321531,198.639008 C147.121531,197.972008 147.871531,197.235008 148.541531,196.447008 C152.131531,192.264008 156.681531,189.866008 162.101531,189.049008 C163.881531,188.782008 165.661531,188.511008 167.411531,188.127008 C169.871531,187.589008 170.571531,186.840008 170.651531,184.354008 C170.751531,180.943008 170.711531,177.527008 170.681531,174.114008" id="Fill-154" fill="#000000"></path>
            <path d="M211.021531,90.7000082 C209.531531,90.8520082 208.101531,91.0580082 206.671531,91.1260082 C204.591531,91.2250082 202.511531,91.2250082 200.431531,91.2620082 C200.261531,91.2660082 200.081531,91.2430082 199.911531,91.2130082 C198.741531,91.0110082 198.141531,90.4370082 198.221531,89.6160082 C198.301531,88.7520082 199.251531,88.0590082 200.311531,88.2650082 C204.341531,89.0480082 208.251531,88.1110082 212.181531,87.4580082 C220.591531,86.0560082 227.491531,81.8010082 233.641531,76.0770082 C239.041531,71.0470082 243.271531,65.1790082 246.781531,58.7050082 C249.191531,54.2480082 251.251531,49.7130082 252.331531,44.7300082 C253.171531,40.8450082 253.541531,36.9580082 253.201531,33.0010082 C253.141531,32.3130082 253.101531,31.6050082 253.181531,30.9250082 C253.311531,29.9420082 253.981531,29.3760082 254.781531,29.4070082 C255.591531,29.4390082 256.161531,30.0240082 256.231531,31.0540082 C256.341531,32.9610082 256.391531,34.8720082 256.471531,36.7810082 C256.481531,37.0660082 256.521531,37.3500082 256.561531,37.7550082 C257.201531,37.8520082 257.821531,37.9420082 258.441531,38.0390082 C258.891531,38.1100082 259.371531,38.1270082 259.801531,38.2740082 C260.761531,38.6080082 261.211531,39.3280082 261.011531,40.1040082 C260.821531,40.8220082 260.291531,41.0710082 259.191531,40.9680082 C258.281531,40.8810082 257.361531,40.8040082 256.341531,40.7130082 C255.751531,43.3870082 255.191531,45.9670082 254.621531,48.5400082 C256.921531,49.6820082 259.191531,50.8060082 261.461531,51.9340082 C261.821531,52.1140082 262.201531,52.2740082 262.521531,52.5160082 C263.101531,52.9550082 263.311531,53.6380082 262.901531,54.1930082 C262.611531,54.5810082 261.971531,54.8630082 261.471531,54.8960082 C261.001531,54.9270082 260.491531,54.6050082 260.021531,54.3750082 C258.681531,53.7030082 257.361531,52.9750082 256.001531,52.3180082 C255.341531,51.9940082 254.621531,51.7810082 253.851531,51.4930082 C252.501531,54.2060082 251.201531,56.8280082 249.831531,59.5670082 C250.471531,59.9880082 251.151531,60.3960082 251.791531,60.8710082 C253.921531,62.4680082 256.031531,64.0930082 258.151531,65.6970082 C258.741531,66.1430082 259.291531,66.5580082 260.161531,66.5260082 C261.221531,66.4870082 261.751531,67.3360082 261.571531,68.4310082 C261.411531,69.4380082 260.531531,70.1490082 259.591531,69.8630082 C258.891531,69.6500082 258.211531,69.2640082 257.611531,68.8220082 C255.291531,67.0920082 253.021531,65.2950082 250.711531,63.5560082 C250.031531,63.0470082 249.271531,62.6480082 248.441531,62.1310082 C246.961531,64.4440082 245.561531,66.6230082 244.161531,68.8090082 C245.081531,71.0290082 246.711531,72.6830082 248.361531,74.3050082 C250.261531,76.1740082 252.221531,77.9690082 254.161531,79.7940082 C254.291531,79.9130082 254.451531,80.0030082 254.551531,80.1350082 C255.081531,80.7600082 255.061531,81.4180082 254.571531,82.0340082 C254.061531,82.6760082 253.381531,82.7480082 252.711531,82.3460082 C252.321531,82.1130082 251.991531,81.7640082 251.661531,81.4380082 C248.481531,78.2500082 245.291531,75.0560082 242.331531,72.0840082 C239.661531,74.6350082 236.841531,77.3390082 233.911531,80.1340082 C236.291531,83.2620082 238.801531,86.5650082 241.331531,89.8470082 C241.551531,90.1390082 241.961531,90.3120082 242.301531,90.4890082 C243.331531,91.0160082 243.611531,91.6500082 243.171531,92.5560082 C242.681531,93.5710082 241.661531,93.9240082 240.711531,93.3000082 C240.201531,92.9580082 239.751531,92.4710082 239.361531,91.9740082 C237.491531,89.5450082 235.661531,87.0810082 233.791531,84.6480082 C233.091531,83.7390082 232.321531,82.8790082 231.561531,81.9590082 C228.881531,83.6460082 226.311531,85.2620082 223.651531,86.9390082 C224.281531,87.6550082 224.621531,88.4500082 224.301531,89.4540082 C224.191531,89.7910082 224.391531,90.2480082 224.511531,90.6290082 C225.031531,92.2840082 225.561531,93.9370082 226.121531,95.5790082 C226.361531,96.2780082 226.591531,96.9170082 227.441531,97.2670082 C228.441531,97.6770082 228.221531,98.6990082 228.091531,99.5620082 C227.971531,100.332008 227.491531,100.813008 226.721531,100.940008 C225.771531,101.101008 225.181531,100.560008 224.811531,99.7710082 C223.151531,96.2470082 221.921531,92.5810082 221.171531,88.7560082 C221.121531,88.5310082 221.081531,88.3090082 221.031531,88.0750082 C218.841531,88.7260082 216.691531,89.3630082 214.381531,90.0520082 C214.891531,90.7760082 215.081531,91.4740082 214.671531,92.2960082 C214.461531,92.7010082 214.541531,93.3050082 214.641531,93.7880082 C214.941531,95.2620082 215.311531,96.7210082 215.661531,98.1850082 C215.901531,99.1830082 216.021531,100.168008 216.921531,100.942008 C217.641531,101.564008 217.681531,102.608008 217.531531,103.553008 C217.411531,104.358008 216.961531,104.954008 216.111531,105.111008 C215.241531,105.275008 214.641531,104.814008 214.331531,104.061008 C213.981531,103.208008 213.671531,102.325008 213.461531,101.429008 C212.721531,98.2730082 212.031531,95.1070082 211.321531,91.9450082 C211.231531,91.5600082 211.131531,91.1740082 211.021531,90.7000082" id="Fill-155" fill="#000000"></path>
            <path d="M126.511531,90.8070082 C126.141531,92.7900082 125.891531,94.8090082 125.361531,96.7500082 C123.841531,102.290008 121.221531,107.290008 117.601531,111.757008 C114.071531,116.099008 109.391531,118.823008 104.451531,121.186008 C100.641531,123.004008 96.691531,124.603008 93.101531,126.791008 C89.761531,128.827008 86.751531,131.427008 83.741531,133.944008 C81.581531,135.747008 80.081531,138.110008 79.141531,140.794008 C78.891531,141.503008 78.621531,142.212008 78.291531,142.885008 C77.801531,143.884008 77.021531,144.247008 76.201531,143.942008 C75.381531,143.635008 75.061531,142.832008 75.421531,141.758008 C76.851531,137.374008 79.211531,133.620008 82.751531,130.584008 C88.291531,125.827008 94.411531,122.061008 101.171531,119.285008 C103.891531,118.170008 106.471531,116.713008 109.041531,115.271008 C111.961531,113.635008 114.321531,111.344008 116.311531,108.653008 C119.771531,103.975008 122.181531,98.8330082 123.261531,93.0930082 C123.691531,90.7640082 123.501531,88.4790082 122.781531,86.2350082 C122.381531,85.0180082 121.851531,83.8860082 120.881531,82.9720082 C120.061531,82.1980082 120.011531,81.4430082 120.571531,80.8530082 C121.091531,80.2910082 122.021531,80.2350082 122.741531,80.9540082 C123.501531,81.7190082 124.221531,82.5970082 124.711531,83.5510082 C125.881531,85.7970082 126.361531,88.2350082 126.511531,90.8070082" id="Fill-156" fill="#000000"></path>
            <path d="M2.17153104,75.9600082 C1.37153104,75.9290082 0.701531039,75.6620082 0.341531039,74.8760082 C0.00153103939,74.1130082 0.301531039,73.4420082 0.881531039,73.0230082 C2.23153104,72.0450082 3.59153104,71.0330082 5.07153104,70.2750082 C9.85153104,67.8250082 14.761531,65.6090082 19.491531,63.0610082 C23.251531,61.0320082 27.011531,58.9020082 30.421531,56.3470082 C33.301531,54.1810082 35.701531,51.3580082 38.281531,48.7840082 C38.711531,48.3500082 38.941531,47.7040082 39.251531,47.1520082 C39.451531,46.8010082 39.601531,46.4150082 39.831531,46.0890082 C40.351531,45.3770082 41.161531,45.1460082 41.801531,45.5420082 C42.481531,45.9590082 42.691531,46.6020082 42.421531,47.3430082 C41.811531,49.0530082 40.801531,50.5080082 39.591531,51.8700082 C35.681531,56.2950082 31.101531,59.8760082 25.981531,62.7970082 C20.051531,66.1820082 14.051531,69.4180082 7.78153104,72.1380082 C6.77153104,72.5740082 5.77153104,73.0350082 4.84153104,73.6120082 C4.35153104,73.9200082 3.92153104,74.4490082 3.65153104,74.9760082 C3.32153104,75.6410082 2.87153104,75.9350082 2.17153104,75.9600082" id="Fill-157" fill="#000000"></path>
            <path d="M39.461531,19.4120082 C38.671531,20.2030082 38.821531,20.8130082 39.911531,21.1210082 C40.121531,21.1820082 40.361531,21.1510082 40.701531,21.1690082 C40.701531,21.1890082 40.701531,21.2090082 40.711531,21.2300082 C40.891531,20.9120082 41.111531,20.6050082 41.371531,20.3180082 C43.201531,18.2680082 45.681531,16.6120082 48.541531,17.4170082 C50.071531,17.8450082 51.721531,19.0010082 52.561531,20.4930082 C52.931531,20.6510082 53.241531,20.8200082 53.561531,20.8490082 C53.911531,20.8800082 54.561531,20.7480082 54.581531,20.6010082 C54.651531,20.2180082 54.541531,19.7300082 54.331531,19.3940082 C54.141531,19.0860082 53.721531,18.9230082 53.311531,18.6330082 C53.631531,18.0210082 53.901531,17.4550082 54.211531,16.9160082 C54.561531,16.3170082 55.041531,15.7790082 55.291531,15.1460082 C55.421531,14.8130082 55.181531,14.3350082 55.101531,13.9220082 C54.731531,13.9950082 54.251531,13.9510082 54.011531,14.1670082 C53.591531,14.5420082 53.301531,15.0680082 52.981531,15.5470082 C52.601531,16.1080082 52.251531,16.6880082 51.881531,17.2570082 C50.751531,16.5340082 50.501531,15.6530082 50.861531,14.5090082 C51.061531,13.8510082 51.151531,13.1490082 51.231531,12.4600082 C51.331531,11.5250082 50.911531,10.9770082 50.201531,10.9990082 C49.551531,11.0200082 49.241531,11.4930082 49.221531,12.3500082 C49.201531,13.1880082 49.111531,14.0250082 49.051531,14.9040082 C47.931531,14.8680082 47.031531,14.8390082 46.041531,14.8080082 C45.861531,13.8560082 45.711531,12.9480082 45.511531,12.0530082 C45.411531,11.6060082 45.301531,11.1280082 45.051531,10.7610082 C44.671531,10.2010082 44.101531,10.1350082 43.531531,10.5260082 C43.021531,10.8790082 42.501531,11.5400082 43.041531,11.9400082 C44.411531,12.9630082 43.911531,14.4320082 44.321531,15.6730082 C44.061531,15.8760082 43.901531,16.0650082 43.701531,16.1520082 C42.001531,16.8790082 40.731531,18.1450082 39.461531,19.4120082" id="Fill-158" fill="#000000"></path>
            <path d="M182.691531,58.3130082 C181.531531,57.9930082 180.241531,57.8160082 179.121531,57.2900082 C177.381531,56.4720082 176.661531,54.9020082 176.811531,53.0020082 C176.951531,51.1280082 178.061531,49.9440082 179.771531,49.3170082 C180.251531,49.1440082 180.791531,49.1030082 181.301531,49.1230082 C182.351531,49.1640082 182.991531,49.7050082 183.031531,50.4740082 C183.081531,51.2340082 182.531531,51.7270082 181.431531,51.9180082 C180.141531,52.1400082 179.641531,52.5380082 179.621531,53.3650082 C179.591531,54.2620082 180.241531,54.9440082 181.421531,55.1120082 C182.991531,55.3340082 184.541531,55.3380082 185.961531,54.4560082 C186.151531,54.3340082 186.351531,54.2040082 186.571531,54.1340082 C187.161531,53.9440082 187.831531,53.9310082 188.091531,54.5320082 C188.291531,54.9860082 188.331531,55.7460082 188.071531,56.1070082 C187.661531,56.6850082 187.001531,57.2180082 186.341531,57.4560082 C185.211531,57.8600082 184.001531,58.0210082 182.691531,58.3130082" id="Fill-159" fill="#000000"></path>
            <path d="M155.831531,89.8380082 C155.721531,90.6410082 155.601531,91.4420082 155.501531,92.2460082 C155.101531,95.3790082 152.061531,97.4150082 148.961531,96.7360082 C147.051531,96.3180082 145.731531,94.9860082 144.251531,93.9230082 C143.551531,93.4220082 143.721531,92.5490082 143.961531,91.8230082 C144.211531,91.0590082 144.481531,90.2510082 145.401531,90.0080082 C146.291531,89.7720082 146.991531,90.2830082 147.081531,91.4620082 C147.171531,92.7150082 147.881531,93.3210082 148.911531,93.7270082 C150.841531,94.4830082 152.461531,93.4850082 152.711531,91.4170082 C152.791531,90.7280082 152.851531,90.0280082 153.031531,89.3610082 C153.281531,88.4290082 154.071531,87.9100082 154.821531,88.0780082 C155.561531,88.2420082 155.891531,88.8250082 155.831531,89.8380082" id="Fill-160" fill="#000000"></path>
            <path d="M184.711531,81.5170082 C184.561531,81.4870082 184.101531,81.4470082 183.671531,81.3000082 C180.861531,80.3420082 179.391531,75.8680082 181.061531,73.4230082 C181.191531,73.2330082 181.331531,73.0450082 181.501531,72.8910082 C182.091531,72.3530082 182.861531,72.2760082 183.381531,72.7190082 C183.941531,73.1900082 184.111531,73.8210082 183.701531,74.4210082 C183.001531,75.4630082 183.061531,76.4640082 183.621531,77.5170082 C183.961531,78.1560082 184.341531,78.7550082 185.171531,78.6590082 C186.051531,78.5590082 186.911531,78.3640082 187.251531,77.3730082 C187.411531,76.8820082 187.491531,76.3490082 187.721531,75.8950082 C187.981531,75.4010082 188.281531,74.8050082 188.721531,74.5720082 C189.141531,74.3540082 189.851531,74.4000082 190.311531,74.6030082 C190.881531,74.8560082 190.991531,75.4800082 190.761531,76.1050082 C190.541531,76.6980082 190.321531,77.2910082 190.121531,77.8910082 C189.301531,80.3040082 187.611531,81.5120082 184.711531,81.5170082" id="Fill-161" fill="#000000"></path>
            <path d="M68.081531,28.7450082 C69.291531,28.7700082 69.911531,29.5260082 69.701531,30.4340082 C69.571531,30.9820082 69.301531,31.5270082 68.981531,31.9970082 C67.741531,33.8310082 66.291531,35.4910082 64.341531,36.6060082 C62.341531,37.7550082 60.271531,38.8020082 58.231531,39.8900082 C58.081531,39.9720082 57.921531,40.0370082 57.751531,40.0920082 C56.851531,40.3960082 56.171531,40.1970082 55.801531,39.5260082 C55.401531,38.8030082 55.671531,38.0810082 56.591531,37.5210082 C56.941531,37.3110082 57.321531,37.1650082 57.681531,36.9790082 C59.111531,36.2310082 60.561531,35.4980082 61.981531,34.7280082 C64.121531,33.5710082 65.771531,31.9180082 67.021531,29.8310082 C67.311531,29.3410082 67.831531,28.9880082 68.081531,28.7450082" id="Fill-162" fill="#CCA733"></path>
            <path d="M154.431531,75.4510082 C154.631531,75.1160082 154.781531,74.8000082 154.991531,74.5330082 C155.431531,73.9730082 156.011531,73.7850082 156.681531,74.0820082 C157.351531,74.3810082 157.551531,74.9680082 157.481531,75.6570082 C157.341531,77.0040082 156.281531,78.0830082 154.881531,78.2950082 C153.221531,78.5460082 151.621531,78.2720082 150.191531,77.4480082 C149.101531,76.8210082 148.041531,76.0830082 147.111531,75.2300082 C145.791531,74.0120082 145.701531,71.8960082 146.811531,70.5050082 C147.121531,70.1190082 147.581531,69.7890082 148.041531,69.6020082 C148.671531,69.3440082 149.301531,69.4800082 149.721531,70.1020082 C150.091531,70.6570082 149.971531,71.1690082 149.611531,71.7000082 C148.731531,73.0090082 148.751531,73.0550082 149.961531,73.9830082 C151.411531,75.1080082 152.511531,75.4830082 154.431531,75.4510082" id="Fill-163" fill="#000000"></path>
            <path d="M98.991531,69.9400082 C100.491531,69.8290082 101.651531,69.3770082 102.661531,68.5330082 C102.971531,68.2760082 103.301531,67.9290082 103.661531,67.8800082 C104.121531,67.8170082 104.761531,67.8600082 105.041531,68.1430082 C105.321531,68.4270082 105.431531,69.1190082 105.291531,69.5240082 C105.111531,70.0360082 104.681531,70.5070082 104.251531,70.8760082 C102.891531,72.0520082 101.271531,72.6460082 99.491531,72.7660082 C97.621531,72.8920082 96.401531,71.9530082 95.981531,70.1290082 C95.671531,68.8160082 95.481531,67.4530082 96.231531,66.2490082 C96.601531,65.6520082 97.221531,65.1150082 97.851531,64.7960082 C98.501531,64.4650082 99.221531,64.6970082 99.641531,65.4000082 C100.041531,66.0620082 99.861531,66.6790082 99.301531,67.0940082 C98.171531,67.9300082 98.571531,68.8530082 98.991531,69.9400082" id="Fill-164" fill="#000000"></path>
            <path d="M171.161531,70.8040082 C172.541531,71.2190082 173.521531,70.8300082 174.501531,70.5200082 C174.781531,70.4330082 175.021531,70.2690082 175.291531,70.1590082 C176.351531,69.7270082 177.061531,69.8610082 177.411531,70.5510082 C177.751531,71.2280082 177.491531,72.0440082 176.601531,72.6080082 C174.821531,73.7340082 172.851531,74.1370082 170.791531,73.7060082 C169.501531,73.4380082 168.631531,72.5030082 168.421531,71.2040082 C168.091531,69.1180082 168.671531,67.1980082 169.841531,65.4560082 C169.961531,65.2690082 170.141531,65.0940082 170.331531,64.9700082 C170.911531,64.5830082 171.541531,64.5150082 172.091531,64.9830082 C172.641531,65.4530082 172.681531,66.0490082 172.361531,66.7090082 C171.981531,67.4800082 171.601531,68.2640082 171.341531,69.0780082 C171.171531,69.5950082 171.211531,70.1790082 171.161531,70.8040082" id="Fill-165" fill="#000000"></path>
            <path d="M172.231531,102.019008 C172.081531,101.999008 171.611531,101.985008 171.161531,101.883008 C167.941531,101.148008 166.661531,97.6250082 168.621531,94.9290082 C169.091531,94.2850082 169.701531,94.0340082 170.431531,94.3500082 C171.121531,94.6460082 171.271531,95.2640082 171.121531,95.9520082 C171.061531,96.2330082 170.911531,96.4960082 170.861531,96.7780082 C170.731531,97.4870082 170.321531,98.2580082 171.121531,98.8350082 C171.821531,99.3380082 173.221531,99.3180082 173.921531,98.7890082 C174.231531,98.5480082 174.491531,98.2180082 174.741531,97.9060082 C174.961531,97.6390082 175.121531,97.3170082 175.341531,97.0590082 C175.861531,96.4760082 176.491531,96.2360082 177.191531,96.6950082 C177.881531,97.1460082 177.931531,97.8090082 177.671531,98.5370082 C176.961531,100.560008 174.781531,102.042008 172.231531,102.019008" id="Fill-166" fill="#000000"></path>
            <path d="M176.351531,91.1370082 C173.061531,91.0870082 170.531531,87.7230082 170.361531,85.1850082 C170.311531,84.4200082 170.581531,83.7880082 171.381531,83.5980082 C172.191531,83.4070082 172.711531,83.8300082 173.001531,84.5550082 C173.191531,85.0350082 173.231531,85.6120082 173.521531,86.0070082 C174.061531,86.7290082 174.641531,87.4800082 175.371531,87.9750082 C176.231531,88.5580082 177.311531,88.2280082 177.991531,87.4120082 C178.211531,87.1480082 178.371531,86.8300082 178.581531,86.5630082 C179.091531,85.9450082 179.751531,85.7570082 180.421531,86.1830082 C181.081531,86.6000082 181.211531,87.2530082 180.941531,88.0080082 C180.301531,89.7710082 178.361531,91.1150082 176.351531,91.1370082" id="Fill-167" fill="#000000"></path>
            <path d="M123.211531,73.4990082 C121.281531,73.3220082 119.421531,72.7340082 117.881531,71.3940082 C116.521531,70.2020082 116.231531,68.5430082 117.071531,67.1800082 C117.561531,66.3770082 118.261531,66.0470082 118.941531,66.3260082 C119.731531,66.6460082 119.981531,67.3250082 119.701531,68.0320082 C119.311531,69.0070082 119.801531,69.4300082 120.531531,69.8010082 C120.841531,69.9580082 121.151531,70.1050082 121.481531,70.2220082 C122.791531,70.6930082 124.051531,70.9000082 125.121531,69.6450082 C125.621531,69.0610082 126.311531,68.8560082 126.971531,69.4180082 C127.601531,69.9570082 127.521531,70.6520082 127.181531,71.3190082 C126.371531,72.8950082 124.941531,73.3930082 123.211531,73.4990082" id="Fill-168" fill="#000000"></path>
            <path d="M129.151531,64.9100082 C130.471531,65.7590082 131.091531,65.7520082 132.191531,64.8320082 C132.761531,64.3540082 133.211531,63.7290082 133.771531,63.2350082 C134.241531,62.8220082 134.821531,62.7500082 135.371531,63.1390082 C135.911531,63.5260082 135.981531,64.0660082 135.811531,64.6820082 C134.991531,67.6660082 130.521531,69.3760082 127.971531,67.6720082 C126.521531,66.7010082 125.911531,65.0270082 126.421531,63.4250082 C126.691531,62.6000082 127.181531,61.9820082 128.091531,61.8570082 C128.821531,61.7580082 129.491531,61.9390082 129.921531,62.5940082 C130.381531,63.3120082 130.101531,63.9070082 129.521531,64.4260082 C129.401531,64.5350082 129.311531,64.6880082 129.151531,64.9100082" id="Fill-169" fill="#000000"></path>
            <path d="M147.191531,67.8450082 C145.171531,67.8610082 142.741531,66.3080082 142.151531,64.4490082 C141.911531,63.7150082 141.921531,62.8450082 142.041531,62.0690082 C142.191531,61.0440082 142.911531,60.5430082 143.711531,60.7160082 C144.631531,60.9140082 144.921531,61.5820082 144.781531,62.4170082 C144.561531,63.7170082 145.281531,64.3500082 146.331531,64.7840082 C147.251531,65.1620082 147.691531,65.0240082 148.211531,64.1590082 C148.451531,63.7660082 148.541531,63.2810082 148.811531,62.9180082 C149.221531,62.3650082 149.821531,62.1260082 150.511531,62.3780082 C151.191531,62.6300082 151.471531,63.1620082 151.421531,63.8850082 C151.281531,65.7580082 149.071531,67.8290082 147.191531,67.8450082" id="Fill-170" fill="#000000"></path>
            <path d="M199.131531,77.5630082 C199.291531,78.1920082 199.341531,78.7140082 199.541531,79.1780082 C199.931531,80.1170082 200.481531,80.3550082 201.491531,80.0940082 C201.821531,80.0070082 202.131531,79.8270082 202.461531,79.7450082 C203.261531,79.5500082 203.941531,79.8470082 204.181531,80.4940082 C204.431531,81.1740082 204.221531,81.7340082 203.671531,82.1860082 C202.141531,83.4490082 199.321531,83.3310082 197.951531,81.8590082 C196.551531,80.3660082 196.091531,78.5450082 196.541531,76.5620082 C196.871531,75.0610082 198.071531,74.2710082 199.471531,74.4750082 C200.201531,74.5810082 200.841531,74.8550082 201.001531,75.6570082 C201.161531,76.4720082 200.711531,76.9630082 199.961531,77.2200082 C199.751531,77.2930082 199.551531,77.3910082 199.131531,77.5630082" id="Fill-171" fill="#000000"></path>
            <path d="M163.431531,90.8670082 C161.441531,90.7210082 159.921531,89.9590082 158.991531,88.2120082 C158.721531,87.7070082 158.471531,87.1870082 158.171531,86.7000082 C157.791531,86.0810082 157.781531,85.4950082 158.291531,84.9710082 C158.861531,84.3950082 159.571531,84.3550082 160.171531,84.8160082 C160.601531,85.1460082 160.961531,85.6490082 161.201531,86.1480082 C162.201531,88.2370082 163.651531,88.5880082 165.411531,87.0860082 C165.751531,86.7900082 166.001531,86.3800082 166.331531,86.0630082 C166.791531,85.6210082 167.421531,85.4380082 167.891531,85.8690082 C168.261531,86.2080082 168.491531,86.8000082 168.571531,87.3130082 C168.621531,87.6440082 168.361531,88.0950082 168.111531,88.3920082 C166.881531,89.8810082 165.281531,90.6880082 163.431531,90.8670082" id="Fill-172" fill="#000000"></path>
            <path d="M83.151531,63.9350082 C81.441531,63.8260082 79.801531,63.2190082 78.831531,61.4790082 C78.101531,60.1760082 78.081531,58.8160082 78.911531,57.5350082 C79.411531,56.7810082 80.231531,56.5210082 80.861531,56.8710082 C81.581531,57.2690082 81.681531,57.8920082 81.491531,58.6550082 C81.071531,60.2820082 81.641531,61.0330082 83.291531,61.0100082 C83.911531,61.0010082 84.541531,60.8020082 85.141531,60.6410082 C85.531531,60.5380082 85.891531,60.3360082 86.271531,60.1960082 C86.931531,59.9500082 87.561531,60.0260082 87.951531,60.6530082 C88.401531,61.3760082 88.061531,61.9690082 87.501531,62.4840082 C86.641531,63.2940082 84.811531,63.9320082 83.151531,63.9350082" id="Fill-173" fill="#000000"></path>
            <path d="M144.991531,54.6020082 C143.331531,54.6530082 142.151531,54.2270082 141.421531,53.2070082 C140.701531,52.1990082 140.171531,51.0200082 139.751531,49.8450082 C139.561531,49.3160082 139.771531,48.5970082 139.941531,48.0040082 C140.131531,47.3360082 140.671531,46.9380082 141.391531,47.0510082 C142.101531,47.1600082 142.451531,47.6490082 142.541531,48.3690082 C142.641531,49.0970082 142.691531,49.8670082 142.981531,50.5220082 C143.501531,51.6990082 144.091531,51.9050082 145.341531,51.6190082 C146.771531,51.2930082 147.401531,51.4980082 147.621531,52.3590082 C147.851531,53.2240082 147.351531,53.9330082 146.141531,54.3420082 C145.661531,54.5060082 145.141531,54.5680082 144.991531,54.6020082" id="Fill-174" fill="#000000"></path>
            <path d="M136.321531,84.0850082 C135.011531,83.8890082 133.611531,83.3770082 132.491531,82.3110082 C131.021531,80.9160082 131.081531,78.2110082 132.561531,76.8650082 C133.131531,76.3500082 133.791531,76.1960082 134.461531,76.6400082 C135.141531,77.1020082 135.171531,77.7710082 134.831531,78.4720082 C134.701531,78.7300082 134.531531,78.9640082 134.411531,79.2240082 C134.151531,79.7840082 134.291531,80.2870082 134.831531,80.5380082 C135.501531,80.8480082 136.211531,81.1100082 136.931531,81.2710082 C138.161531,81.5480082 138.691531,81.9800082 138.621531,82.8050082 C138.541531,83.6820082 137.761531,84.1660082 136.321531,84.0850082" id="Fill-175" fill="#000000"></path>
            <path d="M166.681531,60.4790082 C167.421531,60.3310082 168.071531,60.5260082 168.311531,61.3200082 C168.551531,62.1070082 168.071531,62.6330082 167.451531,63.0270082 C166.611531,63.5690082 165.661531,63.6050082 164.801531,63.2080082 C162.961531,62.3610082 161.791531,60.8980082 161.431531,58.8990082 C161.191531,57.6050082 161.671531,56.5130082 162.751531,55.7290082 C163.371531,55.2740082 164.031531,55.1940082 164.631531,55.7680082 C165.161531,56.2770082 165.231531,56.9560082 164.781531,57.4860082 C164.201531,58.1780082 164.131531,58.7810082 164.671531,59.4880082 C165.171531,60.1440082 165.671531,60.7990082 166.681531,60.4790082" id="Fill-176" fill="#000000"></path>
            <path d="M72.481531,35.9610082 C72.311531,36.3710082 72.211531,37.0020082 71.861531,37.3980082 C70.591531,38.8000082 69.291531,40.1770082 67.891531,41.4490082 C67.181531,42.1050082 66.071531,41.9100082 65.571531,41.2700082 C65.041531,40.5980082 65.211531,39.7320082 66.151531,39.0750082 C67.671531,38.0050082 69.081531,36.8800082 69.831531,35.0900082 C70.111531,34.4380082 70.721531,34.2190082 71.421531,34.3860082 C72.171531,34.5640082 72.361531,35.1500082 72.481531,35.9610082" id="Fill-177" fill="#CCA733"></path>
            <path d="M73.711531,68.3160082 C73.911531,67.3600082 74.031531,66.3840082 74.311531,65.4540082 C74.581531,64.5550082 75.271531,64.1700082 76.011531,64.3400082 C76.831531,64.5260082 77.081531,65.1350082 77.081531,65.8930082 C77.071531,66.2940082 77.081531,66.7210082 76.961531,67.0920082 C76.591531,68.1790082 76.501531,69.1840082 77.191531,70.2200082 C77.571531,70.7990082 77.401531,71.4930082 76.801531,71.8990082 C76.151531,72.3370082 75.481531,72.1970082 74.901531,71.6830082 C74.191531,71.0570082 73.781531,69.8020082 73.711531,68.3160082" id="Fill-178" fill="#000000"></path>
            <path d="M11.661531,18.5280082 C11.211531,19.4700082 10.861531,20.4520082 10.301531,21.2980082 C9.80153104,22.0580082 9.08153104,22.6720082 8.44153104,23.3410082 C8.02153104,23.7770082 7.53153104,23.8980082 7.06153104,23.4700082 C6.52153104,22.9730082 6.65153104,22.4400082 7.14153104,21.9660082 C7.68153104,21.4410082 8.27153104,20.9680082 8.76153104,20.3960082 C9.54153104,19.4700082 10.051531,18.4580082 9.25153104,17.2500082 C8.94153104,16.7670082 8.86153104,16.2300082 9.43153104,15.8910082 C10.001531,15.5510082 10.491531,15.8960082 10.751531,16.3570082 C11.111531,16.9950082 11.331531,17.7110082 11.661531,18.5280082" id="Fill-179" fill="#000000"></path>
            <path d="M74.101531,40.1370082 C74.871531,40.1140082 75.711531,40.9160082 75.371531,41.5910082 C74.821531,42.6790082 74.041531,43.7090082 73.151531,44.5460082 C72.591531,45.0770082 71.631531,44.5230082 71.411531,43.7340082 C71.101531,42.6370082 72.941531,40.1690082 74.101531,40.1370082" id="Fill-180" fill="#CCA733"></path>
            <path d="M214.051531,71.4980082 C216.031531,71.5240082 217.541531,73.0760082 217.511531,75.0680082 C217.481531,77.0350082 215.901531,78.5720082 213.931531,78.5420082 C211.991531,78.5120082 210.421531,76.8940082 210.461531,74.9530082 C210.491531,72.9900082 212.071531,71.4730082 214.051531,71.4980082" id="Fill-181" fill="#CCA733"></path>
            <path d="M213.641531,79.1190082 C210.851531,79.1240082 208.721531,76.8200082 209.091531,74.1760082 C209.221531,73.2940082 209.531531,72.4800082 210.341531,71.9860082 C210.931531,71.6250082 211.551531,71.5940082 212.101531,72.0850082 C212.601531,72.5280082 212.641531,73.0800082 212.391531,73.6660082 C212.321531,73.8240082 212.191531,73.9550082 212.121531,74.1140082 C211.681531,75.2210082 212.181531,76.0570082 213.361531,76.2100082 C214.991531,76.4220082 216.021531,75.7520082 216.641531,74.0750082 C217.011531,73.0650082 217.641531,72.6760082 218.431531,73.0290082 C219.121531,73.3400082 219.521531,73.9200082 219.471531,74.6820082 C219.431531,75.1240082 219.281531,75.5940082 219.061531,75.9800082 C217.861531,78.0560082 216.061531,79.1350082 213.641531,79.1190082" id="Fill-182" fill="#000000"></path>
            <path d="M204.371531,207.515008 C204.781531,210.525008 202.841531,212.637008 201.501531,214.966008 C201.151531,215.567008 200.541531,215.800008 199.841531,215.505008 C199.141531,215.210008 198.991531,214.631008 199.031531,213.939008 C199.111531,212.558008 199.281531,211.170008 199.211531,209.794008 C199.171531,208.896008 198.881531,207.968008 198.521531,207.139008 C198.111531,206.215008 197.381531,205.618008 196.241531,205.508008 C194.891531,205.375008 194.241531,204.566008 194.271531,203.347008 C194.291531,202.198008 195.071531,201.489008 196.521531,201.496941 C197.971531,201.504008 199.421531,201.571008 200.851531,201.785008 C203.201531,202.138008 204.241531,203.381008 204.381531,205.778008 C204.411531,206.355008 204.381531,206.936008 204.371531,207.515008" id="Fill-183" fill="#000000"></path>
            <path d="M82.421531,210.350008 C80.691531,210.268008 80.151531,209.610008 80.481531,207.927008 C80.641531,207.136008 80.841531,206.352008 81.041531,205.572008 C81.801531,202.765008 83.721531,201.205008 86.481531,200.633008 C87.951531,200.330008 89.431531,200.125008 90.921531,199.922008 C92.471531,199.709008 93.121531,200.655008 92.631531,202.148008 C92.201531,203.484008 91.311531,204.504008 90.501531,205.580008 C90.261531,205.908008 89.751531,206.085008 89.331531,206.223008 C88.671531,206.436008 87.991531,206.549008 87.311531,206.719008 C86.301531,206.974008 85.611531,207.528008 85.231531,208.566008 C84.711531,209.952008 83.861531,210.418008 82.421531,210.350008" id="Fill-184" fill="#000000"></path>
            <path d="M171.581531,205.668008 C171.091531,208.021008 170.721531,209.999008 170.261531,211.959008 C170.121531,212.565008 169.791531,213.135008 169.501531,213.694008 C169.141531,214.361008 168.591531,214.752008 167.791531,214.611008 C167.071531,214.481008 166.721531,213.944008 166.601531,213.285008 C166.451531,212.491008 166.251531,211.671008 166.321531,210.883008 C166.481531,209.041008 166.711531,207.199008 167.031531,205.380008 C167.421531,203.259008 168.521531,202.291008 170.631531,201.984008 C171.811531,201.813008 172.651531,202.168008 172.981531,202.980008 C173.291531,203.746008 173.021531,204.569008 172.191531,205.268008 C171.931531,205.485008 171.621531,205.643008 171.581531,205.668008" id="Fill-185" fill="#000000"></path>
        </g>
    </g>
</svg>