<?xml version="1.0" encoding="UTF-8"?>
<svg width="269px" height="160px" viewBox="0 0 269 160" version="1.1" xmlns="http://www.w3.org/2000/svg" xmlns:xlink="http://www.w3.org/1999/xlink">
    <!-- Generator: Sketch 63.1 (92452) - https://sketch.com -->
    <title>Group 6</title>
    <desc>Created with Sketch.</desc>
    <g id="Page-1" stroke="none" stroke-width="1" fill="none" fill-rule="evenodd">
        <g id="Group-6" transform="translate(-0.000000, -0.000000)">
            <path d="M159.368005,93.7717368 C159.226005,96.8307368 159.664005,99.6347368 160.249005,102.426737 C161.186005,106.906737 162.883005,111.061737 165.529005,114.808737 C166.014005,115.493737 166.301005,116.202737 166.253005,117.053737 C166.153005,118.823737 166.072005,120.595737 166.000005,122.366737 C165.975005,122.961737 165.692005,123.335737 165.200005,123.662737 C162.383005,125.541737 160.144005,128.009737 158.223005,130.762737 C155.443005,134.746737 152.896005,138.864737 151.807005,143.689737 C151.404005,145.472737 151.098005,147.277737 150.738005,149.070737 C150.252005,151.485737 149.012005,153.504737 147.161005,155.053737 C146.246005,155.819737 145.052005,156.442737 143.890005,156.689737 C139.003005,157.729737 134.108005,158.770737 129.110005,159.172737 C126.859005,159.353737 124.610005,159.678737 122.357005,159.710877 C120.711005,159.732737 119.058005,159.402737 117.413005,159.188737 C116.506005,159.070737 116.231005,158.482737 116.215005,157.588737 C116.165005,154.698737 117.775005,152.750737 119.846005,151.083737 C120.220005,150.781737 120.857005,150.780737 121.382005,150.693737 C124.456005,150.188737 127.566005,149.974737 130.592005,149.095737 C133.785005,148.169737 136.493005,146.566737 138.822005,144.230737 C139.460005,143.591737 140.262005,143.117737 140.899005,142.480737 C141.494005,141.884737 142.191005,141.250737 142.462005,140.495737 C144.782005,134.053737 145.358005,127.507737 143.321005,120.864737 C142.861005,119.364737 142.204005,117.979737 141.151005,116.763737 C140.102005,115.552737 139.286005,114.135737 138.215005,112.946737 C136.384005,110.911737 134.419005,108.998737 132.538005,107.008737 C130.543005,104.898737 128.530005,102.800737 126.614005,100.618737 C124.537005,98.2547368 122.955005,95.5527368 121.869005,92.6037368 C121.440005,91.4387368 120.772005,91.0427368 119.602005,90.7267368 C112.795005,88.8857368 106.075005,86.7817368 99.7730046,83.5257368 C97.1470046,82.1677368 94.4350046,80.9737368 91.7980046,79.6337368 C90.0840046,78.7627368 88.4340046,77.7627368 86.6960046,76.7867368 C85.8490046,78.0497368 85.6810046,79.4407368 85.4780046,80.8037368 C85.2320046,82.4517368 85.0930046,84.1157368 84.8650046,85.7677368 C84.5740046,87.8777368 83.7410046,89.7937368 82.6780046,91.6237368 C81.9350046,92.9057368 80.8590046,93.8027368 79.4260046,94.0747368 C77.9050046,94.3647368 76.3290046,94.6607368 74.8020046,94.5647368 C71.1040046,94.3287368 67.4200046,93.8617368 63.7290046,93.4967368 C60.5180046,93.1807368 57.3110046,92.7957368 54.0920046,92.5917368 C51.1320046,92.4037368 48.1850046,92.2557368 45.2140046,91.0877368 C44.7600046,91.7087368 44.2810046,92.2707368 43.9130046,92.8967368 C43.5590046,93.4957368 43.3910046,94.2077368 43.0120046,94.7857368 C42.6070046,95.4027368 42.1260046,96.0167368 41.5440046,96.4537368 C40.8090046,97.0057368 39.9090046,97.4017368 38.9810046,96.9027368 C38.0310046,96.3907368 37.9440046,95.4247368 38.0550046,94.4967368 C38.2970046,92.4727368 38.4030046,90.3957368 38.9630046,88.4547368 C39.5530046,86.4137368 40.5730046,84.4907368 41.4680046,82.5457368 C42.1150046,81.1377368 43.3510046,80.2847368 44.7630046,79.8697368 C46.9220046,79.2367368 49.1290046,78.7427368 51.3380046,78.3027368 C54.6090046,77.6517368 57.8040046,77.8017368 61.0410046,78.8747368 C62.4220046,79.3337368 64.1120046,78.8947368 65.6600046,78.8077368 C66.2440046,78.7757368 66.8200046,78.5877368 67.4000046,78.4677368 C72.1870046,77.4757368 74.5360046,74.0697368 75.9900046,69.7817368 C76.2540046,69.0037368 76.1090046,68.3887368 75.4850046,67.7577368 C71.5030046,63.7347368 67.9770046,59.3227368 64.5630046,54.8187368 C63.3930046,53.2747368 62.2060046,51.7387368 60.9240046,50.2887368 C58.5530046,47.6087368 55.6260046,45.7537368 52.1620046,44.8097368 C51.7330046,44.6937368 51.2050046,44.7817368 50.7600046,44.9077368 C46.3110046,46.1687368 41.8700046,47.4317368 37.6240046,49.3237368 C34.5470046,50.6967368 31.2020046,51.1087368 27.8720046,51.3777368 C25.0320046,51.6087368 22.1750046,51.7927368 19.3310046,51.7407368 C17.5850046,51.7097368 15.7810046,51.3997368 14.1240046,50.8497368 C11.5790046,50.0047368 9.07700459,48.9707368 6.67000459,47.7867368 C4.16000459,46.5527368 2.02900459,44.7367368 1.05500459,42.0197368 C-0.255995407,38.3617368 -0.275995407,34.8257368 2.22200459,31.4707368 C5.81100459,26.6517368 9.86000459,22.2867368 14.4320046,18.4107368 C18.0580046,15.3367368 22.2970046,13.5247368 27.0170046,13.0537368 C31.7780046,12.5787368 36.5580046,12.2677368 41.3360046,11.9997368 C45.9430046,11.7417368 50.1630046,13.1887368 54.0930046,15.4367368 C56.3750046,16.7417368 58.4670046,18.3757368 60.6940046,19.7837368 C62.4160046,20.8737368 64.1560046,21.9647368 65.9920046,22.8347368 C68.2720046,23.9167368 70.6590046,24.7717368 73.0000046,25.7237368 C75.1520046,26.5997368 77.2130046,26.4057368 79.1630046,25.1537368 C80.8820046,24.0477368 82.5710046,22.8957368 84.2940046,21.7967368 C86.5180046,20.3807368 88.7260046,18.9367368 91.0030046,17.6137368 C99.4310046,12.7157368 108.614005,10.6187368 118.282005,10.1787368 C125.585005,9.84673678 132.809005,10.3397368 139.949005,11.8327368 C145.772005,13.0517368 151.301005,15.1517368 156.506005,18.0437368 C163.090005,21.7027368 169.707005,25.3177368 175.693005,29.9387368 C178.590005,32.1747368 181.435005,34.4757368 184.320005,36.7267368 C185.593005,37.7197368 186.906005,38.6587368 188.201005,39.6237368 C192.421005,42.7667368 196.990005,45.2847368 202.023005,46.8167368 C204.267005,47.4997368 206.639005,47.8787368 208.981005,48.0967368 C214.250005,48.5867368 219.522005,48.4387368 224.749005,47.5417368 C226.015005,47.3237368 227.291005,47.0127368 228.482005,46.5417368 C235.039005,43.9537368 241.583005,41.3227368 247.631005,37.6447368 C252.747005,34.5337368 257.513005,30.9327368 262.063005,27.0537368 C263.195005,26.0877368 264.085005,24.8337368 265.078005,23.7057368 C265.361005,23.3837368 265.586005,23.0067368 265.891005,22.7087368 C266.364005,22.2497368 267.006005,22.1087368 267.512005,22.4917368 C267.888005,22.7787368 268.272005,23.3527368 268.258376,23.7857368 C268.236005,24.5107368 267.989005,25.2677368 267.680005,25.9377368 C264.127005,33.6267368 260.034005,40.9907368 254.744005,47.6557368 C250.439005,53.0787368 245.719005,58.0467368 239.994005,62.0157368 C237.786005,63.5467368 235.748005,65.3227368 233.564005,66.8927368 C229.195005,70.0317368 224.389005,72.2697368 219.183005,73.6517368 C216.169005,74.4517368 213.165005,75.2897368 210.161005,76.1297368 C209.595005,76.2877368 209.038005,76.4967368 208.506005,76.7457368 C205.879005,77.9767368 203.272005,79.2497368 200.639005,80.4677368 C198.198005,81.5957368 195.704005,82.6097368 193.286005,83.7837368 C188.670005,86.0277368 183.869005,87.7277368 178.905005,89.0057368 C173.854005,90.3067368 168.820005,91.6737368 163.765005,92.9597368 C162.367005,93.3167368 160.923005,93.4897368 159.368005,93.7717368" id="Fill-640" fill="#96B5DA"></path>
            <path d="M215.988005,43.5867368 C217.794005,41.9647368 218.897005,40.0747368 219.799005,38.0497368 C220.084005,37.4107368 220.291005,36.7367368 220.603005,36.1127368 C221.579005,34.1617368 223.272005,33.8147368 224.971005,35.2107368 C225.385005,35.5507368 225.726005,35.9777368 226.125005,36.3367368 C227.364005,37.4517368 228.605005,38.5677368 229.871005,39.6527368 C230.185005,39.9217368 230.596005,40.0787368 231.115005,40.3727368 C231.423005,39.7257368 231.709005,39.1737368 231.952005,38.6037368 C232.437005,37.4657368 232.868005,36.3047368 233.376005,35.1767368 C234.362005,32.9887368 235.752005,32.3017368 238.056005,32.9427368 C240.074005,33.5037368 242.062005,34.1737368 244.064005,34.7897368 C244.316005,34.8677368 244.579005,34.9087368 245.012005,35.0077368 C245.140005,34.5277368 245.294005,34.0897368 245.369005,33.6397368 C245.509005,32.7907368 245.543005,31.9217368 245.728005,31.0847368 C246.198005,28.9617368 247.464005,28.1197368 249.603005,28.4517368 C250.772005,28.6337368 251.935005,28.8537368 253.105005,29.0317368 C253.630005,29.1137368 254.165005,29.1357368 254.730005,29.1877368 C255.088005,28.3327368 255.389005,27.5357368 255.752005,26.7677368 C256.567005,25.0397368 257.858005,24.0477368 259.857005,24.3487368 C260.993005,24.5197368 261.945005,24.3787368 262.726005,23.4137368 C263.047005,23.0157368 263.569005,22.6417368 264.055005,22.5517368 C264.572005,22.4567368 265.231005,22.5807368 265.687005,22.8487368 C266.222005,23.1617368 266.365005,23.8167368 266.125005,24.4337368 C265.591005,25.8017368 265.002005,27.0897368 263.404005,27.6117368 C262.778005,27.8157368 262.282005,28.4047368 261.711005,28.7957368 C259.185005,30.5327368 256.654005,32.2657368 254.120005,33.9927368 C253.901005,34.1427368 253.660005,34.3247368 253.412005,34.3567368 C251.741005,34.5637368 250.671005,35.7027368 249.468005,36.7107368 C248.197005,37.7747368 246.818005,38.7337368 245.396005,39.5867368 C240.735005,42.3857368 235.948005,44.9197368 230.826005,46.8227368 C228.049005,47.8557368 225.158005,48.0187368 222.305005,48.5027368 C221.298005,48.6737368 220.277005,48.7767368 219.278005,48.9837368 C216.439005,49.5707368 213.598005,49.4347368 210.770005,48.9937368 C208.167005,48.5897368 205.579005,48.0867368 202.991005,47.5937368 C199.592005,46.9467368 196.627005,45.3647368 193.843005,43.3607368 C192.851005,42.6467368 191.785005,41.9487368 190.646005,41.5467368 C189.084005,40.9937368 187.625005,40.1917368 186.596005,39.0317368 C184.354005,36.5027368 181.436005,34.8557368 178.936005,32.6777368 C178.249005,32.0787368 177.493005,31.5457368 176.715005,31.0707368 C176.236005,30.7777368 175.670005,30.5417368 175.119005,30.4687368 C174.072005,30.3287368 173.298005,29.9717368 172.911005,28.8927368 C172.764005,28.4837368 172.380005,28.0817368 172.000005,27.8447368 C168.620005,25.7437368 165.240005,23.6417368 161.813005,21.6197368 C159.482005,20.2447368 156.952005,19.3227368 154.288005,18.8117368 C147.002005,17.4157368 139.705005,16.0827368 132.429005,14.6377368 C128.025005,13.7617368 123.600005,13.4027368 119.116005,13.4527368 C110.328005,13.5517368 101.919005,15.2267368 94.0220046,19.1967368 C89.7450046,21.3457368 85.4390046,23.4347368 81.1590046,25.5787368 C80.1030046,26.1077368 79.0920046,26.7297368 78.0780046,27.3387368 C76.9040046,28.0427368 75.6960046,28.1157368 74.5730046,27.3577368 C72.4880046,25.9497368 70.0720046,25.3337368 67.8100046,24.3517368 C66.4360046,23.7557368 65.1060046,23.0457368 63.7940046,22.3207368 C62.7140046,21.7237368 61.6890046,21.0307368 60.6400046,20.3787368 C59.2870046,19.5377368 57.8380046,19.3397368 56.3020046,19.7377368 C56.1970046,19.7647368 56.0950046,19.8017368 55.9890046,19.8177368 C55.0650046,19.9587368 54.5040046,19.7197368 54.2420046,19.0407368 C53.9750046,18.3467368 54.2120046,17.7707368 54.7440046,17.3087368 C55.8370046,16.3587368 56.9260046,15.4047368 58.0440046,14.4867368 C59.9220046,12.9477368 61.9810046,13.3707368 63.1470046,15.5267368 C63.7030046,16.5557368 64.2260046,17.6037368 64.8820046,18.8717368 C65.6460046,17.8157368 66.2620046,16.9567368 66.8840046,16.1027368 C67.3590046,15.4497368 67.7940046,14.7627368 68.3290046,14.1617368 C69.4030046,12.9557368 70.5980046,13.0407368 71.5410046,14.3747368 C71.9110046,14.8997368 72.2120046,15.4777368 72.4990046,16.0547368 C73.0980046,17.2587368 73.6570046,18.4827368 74.2480046,19.6907368 C74.7020046,20.6197368 75.3210046,21.4087368 76.3820046,22.0667368 C76.6270046,21.3117368 76.8620046,20.6747368 77.0410046,20.0227368 C77.5950046,17.9997368 78.1090046,15.9657368 78.6720046,13.9457368 C79.6540046,10.4157368 81.6060046,9.70373678 84.6350046,11.8317368 C86.0410046,12.8207368 87.3430046,13.9567368 88.6900046,15.0297368 C89.0650046,15.3267368 89.4330046,15.6337368 89.9940046,16.0907368 C90.2760046,15.4687368 90.5060046,14.9597368 90.7370046,14.4517368 C91.9860046,11.7127368 93.2330046,8.97373678 94.4850046,6.23673678 C94.6190046,5.94273678 94.7680046,5.65473678 94.9370046,5.37973678 C95.8720046,3.85973678 97.1540046,3.46473678 98.6090046,4.52073678 C100.346005,5.78073678 101.937005,7.24173678 103.578005,8.63173678 C104.022005,9.00673678 104.420005,9.43773678 104.850005,9.85273678 C106.233005,9.33773678 107.325005,8.56873678 108.243005,7.57673678 C109.560005,6.15673678 110.777005,4.64373678 112.127005,3.25573678 C112.980005,2.37873678 113.925005,1.54873678 114.955005,0.896736783 C116.344005,0.0167367834 117.501005,0.334736783 118.398005,1.73773678 C119.122005,2.86773678 119.703005,4.08973678 120.396005,5.23973678 C121.066005,6.35273678 121.840005,7.38573678 123.232005,7.98573678 C123.645005,7.66173678 124.109005,7.31473678 124.558005,6.94773678 C126.893005,5.04173678 129.234005,3.14573678 131.553005,1.21973678 C134.167005,-0.951263217 136.337005,-0.202263217 137.106005,3.29173678 C137.546005,5.28773678 137.948005,7.29173678 138.375005,9.28973678 C138.429005,9.54473678 138.528005,9.78973678 138.663005,10.2197368 C139.246005,9.91273678 139.754005,9.65373678 140.255005,9.38073678 C142.948005,7.91873678 145.634005,6.44173678 148.337005,4.99673678 C148.902005,4.69573678 149.514005,4.45273678 150.131005,4.28273678 C151.878005,3.80173678 153.190005,4.65173678 153.289005,6.45773678 C153.368005,7.90173678 153.194005,9.35773678 153.137005,10.8087368 C153.095005,11.8707368 152.969005,12.9557368 153.898005,13.9177368 C154.955005,13.3717368 156.007005,12.8487368 157.042005,12.2907368 C159.077005,11.1937368 161.092005,10.0567368 163.136005,8.97473678 C165.216005,7.87173678 166.647005,8.73673678 166.635005,11.0897368 C166.626005,12.9737368 166.547005,14.8567368 166.506005,16.7397368 C166.495005,17.2667368 166.504005,17.7937368 166.504005,18.5117368 C167.180005,18.2517368 167.672005,18.0777368 168.153005,17.8737368 C169.935005,17.1177368 171.712005,16.3507368 173.493005,15.5927368 C173.839005,15.4457368 174.189005,15.3027368 174.547005,15.1907368 C176.528005,14.5707368 177.775005,15.5697368 177.506005,17.6117368 C177.281005,19.3167368 176.947005,21.0067368 176.701005,22.7097368 C176.518005,23.9737368 176.398005,25.2447368 176.212005,26.8367368 C177.038005,26.5637368 177.592005,26.4357368 178.099005,26.2017368 C180.247005,25.2097368 182.379005,24.1847368 184.520005,23.1767368 C185.054005,22.9247368 185.579005,22.6307368 186.140005,22.4597368 C187.466005,22.0567368 188.515005,22.6247368 188.866005,23.9687368 C189.041005,24.6367368 189.119005,25.3517368 189.106005,26.0427368 C189.056005,28.6777368 188.948005,31.3107368 188.869005,33.9447368 C188.852005,34.5277368 188.867005,35.1107368 188.867005,35.8797368 C189.362005,35.6397368 189.752005,35.5007368 190.085005,35.2807368 C191.296005,34.4777368 192.480005,33.6337368 193.690005,32.8307368 C194.271005,32.4457368 194.861005,32.0547368 195.495005,31.7717368 C197.170005,31.0217368 198.516005,31.4277368 199.222005,33.1127368 C199.797005,34.4857368 200.086005,35.9847368 200.431005,37.4447368 C200.715005,38.6467368 200.881005,39.8757368 201.128005,41.0877368 C201.200005,41.4377368 201.370005,41.7677368 201.581005,42.3387368 C202.156005,41.6877368 202.617005,41.1867368 203.053005,40.6657368 C203.950005,39.5927368 204.777005,38.4537368 205.737005,37.4427368 C207.001005,36.1107368 208.201005,36.0167368 209.555005,37.2537368 C211.340005,38.8857368 212.994005,40.6607368 214.709005,42.3697368 C215.085005,42.7447368 215.478005,43.1037368 215.988005,43.5867368" id="Fill-641" fill="#E9ABBA"></path>
            <path d="M191.526005,83.4257368 C191.215005,83.9837368 190.992005,84.3387368 190.812005,84.7157368 C189.815005,86.7957368 188.819005,88.8757368 187.845005,90.9667368 C187.277005,92.1847368 186.782005,93.4387368 186.195005,94.6477368 C185.093005,96.9187368 184.591005,99.2947368 184.662005,101.824737 C184.693005,102.920737 185.053005,103.767737 185.745005,104.587737 C187.548005,106.724737 189.264005,108.935737 191.071005,111.070737 C192.532005,112.795737 192.518005,114.495737 191.391005,116.398737 C188.086005,121.976737 186.413005,128.155737 184.929005,134.393737 C184.045005,138.108737 183.155005,141.822737 182.344005,145.553737 C181.139005,151.102737 177.889005,154.573737 172.303005,155.875737 C168.794005,156.694737 165.324005,157.708737 161.691005,157.780737 C160.681005,157.800737 159.648005,157.687737 158.657005,157.482737 C156.410005,157.019737 155.380005,155.374737 154.925005,153.296737 C154.476005,151.239737 155.198005,149.600737 156.867005,148.354737 C158.878005,146.854737 161.238005,146.082737 163.505005,145.096737 C165.415005,144.264737 167.275005,143.272737 169.027005,142.148737 C169.789005,141.658737 170.388005,140.734737 170.773005,139.877737 C171.606005,138.023737 172.330005,136.109737 172.954005,134.173737 C173.497005,132.488737 174.017005,130.760737 174.230005,129.012737 C174.554005,126.354737 174.607005,123.662737 174.763005,120.984737 C174.775005,120.775737 174.738005,120.540737 174.651005,120.351737 C173.984005,118.889737 173.526005,117.261737 172.575005,116.012737 C170.268005,112.984737 168.188005,109.777737 165.369005,107.129737 C163.457005,105.334737 161.852005,103.204737 160.179005,101.168737 C159.806005,100.714737 159.723005,100.021737 159.421005,99.5027368 C159.010005,98.7927368 158.355005,98.1207368 158.240005,97.3657368 C158.034005,96.0107368 157.749005,94.5437368 158.555005,93.2677368 C159.124005,92.3667368 160.053005,91.9177368 161.120005,91.8037368 C162.439005,91.6607368 163.786005,91.6447368 165.074005,91.3607368 C167.381005,90.8507368 169.645005,90.1517368 171.940005,89.5867368 C174.703005,88.9067368 177.482005,88.2937368 180.250005,87.6317368 C180.716005,87.5207368 181.163005,87.3207368 181.612005,87.1447368 C184.560005,85.9897368 187.505005,84.8257368 190.456005,83.6777368 C190.732005,83.5697368 191.037005,83.5377368 191.526005,83.4257368" id="Fill-642" fill="#83A8D4"></path>
            <path d="M75.0640046,68.0537368 C74.6030046,69.9347368 73.1480046,70.6667368 71.5050046,71.2027368 C67.9500046,72.3617368 64.3200046,72.9817368 60.5680046,72.8647368 C58.2580046,72.7917368 55.9440046,72.8297368 53.6350046,72.7487368 C52.6270046,72.7147368 52.0260046,73.0487368 51.7030046,74.0307368 C51.0400046,76.0457368 49.3740046,76.7527368 47.4770046,76.9917368 C45.8920046,77.1927368 44.9940046,76.3657368 44.9930046,74.7917368 C44.9930046,74.0457368 45.0680046,73.2767368 45.2580046,72.5567368 C46.0770046,69.4567368 47.3570046,66.5767368 49.5530046,64.1817368 C51.7710046,61.7607368 54.6530046,60.7087368 57.8080046,60.2057368 C60.8280046,59.7247368 63.8470046,59.2257368 66.8550046,58.6717368 C67.5420046,58.5457368 67.9280046,58.6907368 68.3430046,59.2427368 C70.5330046,62.1607368 72.7640046,65.0487368 75.0640046,68.0537368" id="Fill-643" fill="#83A8D4"></path>
            <path d="M12.3440046,40.0527368 C12.5500046,39.7897368 12.6570046,39.6717368 12.7440046,39.5407368 C13.8480046,37.8657368 14.8330046,37.5297368 16.6970046,38.2677368 C17.6910046,38.6617368 18.6530046,39.1347368 19.7330046,39.6187368 C19.9060046,39.2277368 20.0420046,38.9047368 20.1900046,38.5867368 C20.4860046,37.9577368 20.7160046,37.2837368 21.1010046,36.7147368 C22.1670046,35.1407368 23.4960046,34.8957368 25.1210046,35.9217368 C25.7520046,36.3217368 26.3520046,36.7717368 27.1060046,37.2957368 C27.4820046,36.7307368 27.8210046,36.2117368 28.1700046,35.6997368 C28.7300046,34.8807368 29.4790046,34.3877368 30.4950046,34.6077368 C31.6470046,34.8567368 32.6110046,35.4787368 33.0830046,36.5797368 C33.5010046,37.5587368 32.6760046,38.5827368 31.6020046,38.5047368 C31.1920046,38.4757368 30.7940046,38.2967368 30.4190046,38.1937368 C27.9380046,41.1567368 27.6680046,41.1767368 23.4800046,38.6127368 C23.2720046,39.2197368 23.0470046,39.7817368 22.8860046,40.3627368 C22.2420046,42.6737368 21.0810046,43.2957368 18.7900046,42.4597368 C17.6910046,42.0587368 16.6310046,41.5507368 15.3780046,41.0167368 C15.2380046,41.6277368 15.1460046,42.1377368 15.0020046,42.6317368 C14.5730046,44.1037368 13.3990046,44.5387368 12.1520046,43.6537368 C10.8450046,42.7247368 9.57700459,41.7397368 8.22100459,40.7247368 C7.54400459,41.4247368 7.36900459,42.1707368 7.35300459,42.9827368 C7.34500459,43.4117368 7.38100459,43.8497368 7.31100459,44.2697368 C7.09300459,45.5577368 5.90900459,46.1387368 4.76500459,45.4937368 C4.25600459,45.2067368 3.80600459,44.8037368 3.36200459,44.4147368 C2.75100459,43.8777368 2.16000459,43.4867368 1.25000459,43.4527368 C0.0480045935,43.4087368 -0.375995407,42.1517368 0.372004593,41.1937368 C0.982004593,40.4127368 1.95900459,40.1787368 2.99500459,40.6137368 C3.47900459,40.8167368 3.92700459,41.1027368 4.46300459,41.3897368 C4.82300459,40.6077368 5.11400459,39.8647368 5.49300459,39.1717368 C6.29200459,37.7157368 7.28800459,37.3247368 8.86200459,37.8927368 C9.50800459,38.1257368 10.1100046,38.5057368 10.6990046,38.8717368 C11.2440046,39.2097368 11.7450046,39.6177368 12.3440046,40.0527368" id="Fill-644" fill="#83A8D4"></path>
            <path d="M111.447005,40.3087368 C114.014005,39.3997368 116.192005,38.6527368 118.350005,37.8537368 C119.660005,37.3687368 120.961005,36.8527368 122.227005,36.2637368 C123.769005,35.5467368 123.808005,35.3727368 123.425005,33.7857368 C122.619005,30.4417368 121.827005,27.0947368 121.017005,23.7507368 C120.911005,23.3097368 120.737005,22.8847368 120.497005,22.1547368 C115.862005,27.4917368 113.621005,33.6437368 111.447005,40.3087368 Z M125.877005,34.8037368 C125.921005,36.0837368 125.465005,36.8737368 124.655005,37.3847368 C123.752005,37.9537368 122.808005,38.4947368 121.816005,38.8777368 C118.363005,40.2057368 114.881005,41.4617368 111.410005,42.7417368 C111.158005,42.8347368 110.904005,42.9357368 110.643005,42.9817368 C109.641005,43.1587368 108.940005,42.6107368 108.947937,41.5817368 C108.951005,41.0557368 109.080005,40.5167368 109.227005,40.0047368 C111.143005,33.3637368 113.633005,26.9857368 117.956005,21.4867368 C118.566005,20.7097368 119.398005,20.0827368 120.205005,19.4927368 C120.818005,19.0427368 121.508005,19.2457368 121.969005,20.0237368 C122.373005,20.7047368 122.696005,21.4687368 122.891005,22.2377368 C123.877005,26.1377368 124.813005,30.0507368 125.756005,33.9617368 C125.844005,34.3237368 125.863005,34.7027368 125.877005,34.8037368 L125.877005,34.8037368 Z" id="Fill-645" fill="#EBD06B"></path>
            <path d="M143.582005,42.6267368 C143.014005,39.3757368 139.818005,29.2917368 138.936005,27.9447368 C137.285005,29.8237368 133.342005,39.0517368 133.061005,41.6757368 C136.565005,41.9917368 140.069005,42.3087368 143.582005,42.6267368 Z M146.318005,43.5037368 C146.299005,44.6307368 145.726005,45.2347368 144.684005,45.1837368 C143.773005,45.1387368 142.873005,44.9357368 141.964005,44.8437368 C139.399005,44.5847368 136.833005,44.3417368 134.266005,44.1057368 C133.624005,44.0467368 132.967005,44.0997368 132.335005,43.9917368 C130.696005,43.7157368 130.095005,42.7897368 130.668005,41.2397368 C131.861005,38.0137368 133.071005,34.7907368 134.412005,31.6247368 C135.206005,29.7487368 136.228005,27.9657368 137.210005,26.1737368 C138.062005,24.6187368 139.788005,24.5927368 140.756005,26.1377368 C141.236005,26.9037368 141.606005,27.7667368 141.875005,28.6317368 C143.330005,33.3017368 144.739005,37.9867368 146.156005,42.6667368 C146.249005,42.9737368 146.280005,43.2987368 146.318005,43.5037368 L146.318005,43.5037368 Z" id="Fill-646" fill="#EBD06B"></path>
            <path d="M153.652005,45.4257368 C156.811005,45.7057368 159.851005,45.9757368 162.987005,46.2537368 C161.070005,40.3637368 158.714005,33.9897368 156.684005,31.6417368 C155.917005,33.2127368 154.541005,39.4157368 153.652005,45.4257368 Z M158.476005,29.8107368 C161.190005,34.1707368 162.913005,38.8567368 164.514005,43.5957368 C164.857005,44.6117368 165.344005,45.5817368 165.656005,46.6057368 C166.103005,48.0687368 165.511005,48.7887368 163.992005,48.6487368 C160.623005,48.3367368 157.257005,47.9877368 153.891005,47.6397368 C153.468005,47.5957368 153.036005,47.5147368 152.637005,47.3717368 C151.489005,46.9617368 151.163005,46.4237368 151.385005,45.1187368 C151.664005,43.4787368 152.000005,41.8457368 152.363005,40.2217368 C153.101005,36.9207368 153.897005,33.6337368 154.620005,30.3297368 C154.972005,28.7227368 155.891005,27.8227368 157.515005,27.5627368 C158.070005,27.4747368 158.613005,27.3267368 158.988005,27.8357368 C159.357005,28.3367368 159.204005,28.8497368 158.807005,29.3007368 C158.705005,29.4167368 158.636005,29.5617368 158.476005,29.8107368 L158.476005,29.8107368 Z" id="Fill-647" fill="#EBD06B"></path>
            <path d="M120.874005,45.2087368 C115.231005,48.6997368 112.478005,54.1237368 109.584005,59.6747368 C109.904005,59.6117368 110.013005,59.6227368 110.071005,59.5727368 C113.869005,56.3397368 117.658005,53.0957368 121.461005,49.8687368 C121.989005,49.4217368 122.106005,48.9407368 121.885005,48.3047368 C121.550005,47.3467368 121.252005,46.3757368 120.874005,45.2087368 Z M124.356005,49.1417368 C124.160005,49.6097368 124.007005,50.1217368 123.739005,50.5667368 C123.522005,50.9247368 123.191005,51.2287368 122.867005,51.5077368 C118.389005,55.3627368 113.905005,59.2087368 109.419005,63.0547368 C109.093005,63.3337368 108.769005,63.6297368 108.401005,63.8437368 C107.217005,64.5317368 106.091005,63.8647368 106.105856,62.4817368 C106.110005,62.1147368 106.174005,61.7167368 106.327005,61.3877368 C108.931005,55.7737368 111.573005,50.1747368 116.227005,45.8787368 C117.286005,44.9017368 118.512005,44.1057368 119.646005,43.2067368 C121.220005,41.9587368 121.773005,42.2667368 122.718005,43.8657368 C123.615005,45.3857368 123.821005,47.3117368 124.356005,49.1417368 L124.356005,49.1417368 Z" id="Fill-648" fill="#EBD06B"></path>
            <path d="M176.490005,49.4917368 C176.331005,49.4717368 176.172005,49.4507368 176.013005,49.4307368 C173.273005,53.5927368 171.141005,58.0847368 168.940005,62.5327368 C171.042005,63.8537368 175.280005,65.1947368 177.109005,65.1427368 C176.903005,59.9237368 176.696005,54.7077368 176.490005,49.4917368 Z M177.369005,67.6997368 C176.850005,67.5987368 176.086005,67.5307368 175.380005,67.2947368 C172.890005,66.4607368 170.390005,65.6457368 167.955005,64.6717368 C166.454005,64.0727368 166.126005,63.1657368 166.781005,61.8647368 C169.245005,56.9737368 171.568005,52.0017368 174.718005,47.4897368 C175.207005,46.7887368 175.769005,46.1317368 176.352005,45.5057368 C176.820005,45.0027368 177.445005,44.8297368 178.127005,45.0237368 C178.974005,45.2647368 179.256005,45.9517368 178.896005,46.7647368 C178.732005,47.1317368 178.520005,47.5367368 178.537005,47.9157368 C178.689005,51.1317368 178.887005,54.3447368 179.073005,57.5587368 C179.197005,59.7027368 179.331005,61.8457368 179.448005,63.9897368 C179.486005,64.6867368 179.543005,65.3897368 179.491005,66.0827368 C179.398005,67.3327368 178.839005,67.7807368 177.369005,67.6997368 L177.369005,67.6997368 Z" id="Fill-649" fill="#EBD06B"></path>
            <path d="M137.814005,65.9037368 C139.420005,62.0327368 140.993005,58.2397368 142.563005,54.4537368 C142.139005,53.8207368 141.636005,54.1117368 141.128005,54.2907368 C137.283005,55.6497368 133.435005,56.9987368 129.591005,58.3597368 C129.199005,58.4977368 128.829005,58.6977368 128.253005,58.9577368 C131.307005,61.7267368 134.221005,64.3647368 137.814005,65.9037368 Z M145.810005,54.6237368 C145.641005,54.8927368 145.483005,55.4757368 145.136005,55.6287368 C144.394005,55.9577368 144.167005,56.5817368 143.854005,57.1977368 C142.337005,60.1757368 141.112005,63.2677368 140.189005,66.4807368 C140.056005,66.9427368 139.915005,67.4207368 139.670005,67.8257368 C139.252005,68.5207368 138.594005,68.7237368 137.700005,68.3027368 C136.293005,67.6417368 134.865005,66.9727368 133.588005,66.0987368 C131.775005,64.8567368 130.088005,63.4287368 128.355005,62.0717368 C127.508005,61.4087368 126.678005,60.7267368 125.841005,60.0527368 C124.492005,58.9667368 124.563005,57.9587368 126.182005,57.3007368 C128.867005,56.2087368 131.603005,55.2407368 134.327005,54.2447368 C136.546005,53.4337368 138.789005,52.6847368 141.001005,51.8557368 C142.102005,51.4437368 143.069005,51.3217368 143.897005,52.3767368 C144.071005,52.5987368 144.419005,52.7227368 144.712005,52.8037368 C145.560005,53.0397368 145.687005,53.7087368 145.810005,54.6237368 L145.810005,54.6237368 Z" id="Fill-650" fill="#EBD06B"></path>
            <path d="M103.618005,25.1157368 C100.523005,27.3707368 97.6910046,29.4357368 94.8940046,31.4747368 C95.0690046,32.1487368 95.2140046,32.7047368 95.3730046,33.3157368 C96.2220046,33.8017368 97.1040046,34.3097368 97.9870046,34.8117368 C98.9140046,35.3387368 99.8660046,35.8247368 100.764005,36.3967368 C101.576005,36.9127368 102.044005,37.9207368 103.297005,38.2797368 C103.297005,35.9897368 103.212005,33.9017368 103.321005,31.8237368 C103.432005,29.7107368 103.781005,27.6097368 103.618005,25.1157368 Z M105.744005,27.2427368 C105.659005,31.3737368 105.571005,35.5057368 105.493005,39.6377368 C105.479005,40.3597368 105.442005,41.0737368 104.671005,41.4107368 C103.948005,41.7277368 103.310005,41.4507368 102.735005,40.9877368 C101.818005,40.2457368 100.925005,39.4717368 99.9780046,38.7727368 C99.1230046,38.1427368 98.2320046,37.5517368 97.3140046,37.0197368 C95.5160046,35.9787368 93.5130046,35.2797368 92.0430046,33.7057368 C90.9890046,32.5787368 90.9430046,31.6397368 92.1730046,30.7327368 C95.6290046,28.1827368 99.1390046,25.7047368 102.630005,23.2017368 C102.804005,23.0777368 102.998005,22.9787368 103.190005,22.8837368 C104.753005,22.1147368 105.689005,22.6097368 105.830005,24.3477368 C105.909005,25.3077368 105.844005,26.2797368 105.844005,27.2447368 C105.811005,27.2437368 105.777005,27.2437368 105.744005,27.2427368 L105.744005,27.2427368 Z" id="Fill-651" fill="#EBD06B"></path>
            <path d="M101.378005,48.1587368 C100.561005,47.5427368 99.8090046,46.8547368 98.9480046,46.3517368 C97.3720046,45.4307368 95.7430046,44.6007368 94.1170046,43.7697368 C92.8560046,43.1237368 91.5940046,42.4647368 89.9600046,42.0697368 C91.6620046,46.5177368 94.2030046,50.2397368 96.1050046,54.2957368 C97.8860046,52.2237368 99.5270046,50.3137368 101.378005,48.1587368 Z M102.835005,50.8357368 C102.190005,50.6047368 101.745005,50.9607368 101.356005,51.4537368 C100.324005,52.7607368 99.2880046,54.0627368 98.2670046,55.3757368 C98.0030046,55.7147368 97.8180046,56.1147368 97.5430046,56.4417368 C96.7830046,57.3437368 95.8780046,57.4027368 95.0580046,56.5347368 C94.6230046,56.0747368 94.2970046,55.4967368 93.9910046,54.9347368 C92.5500046,52.2927368 91.0580046,49.6737368 89.7310046,46.9757368 C88.7630046,45.0047368 88.0230046,42.9217368 87.1850046,40.8877368 C87.1240046,40.7397368 87.0910046,40.5787368 87.0560046,40.4217368 C86.9150046,39.8057368 86.9300046,39.1217368 87.5220046,38.8517368 C87.9900046,38.6367368 88.7130046,38.5787368 89.1640046,38.7897368 C91.4450046,39.8607368 93.6780046,41.0357368 95.9220046,42.1847368 C97.1160046,42.7967368 98.2720046,43.4927368 99.4950046,44.0377368 C101.724005,45.0327368 103.248005,46.6757368 104.245005,48.8627368 C104.924005,50.3537368 104.512005,50.9507368 102.835005,50.8357368 L102.835005,50.8357368 Z" id="Fill-652" fill="#EBD06B"></path>
            <path d="M190.710005,69.7507368 C193.237005,65.7907368 195.513005,62.2267368 197.845005,58.5727368 C195.148005,56.2247368 191.715005,56.0157368 188.389005,55.5277368 C189.159005,60.2467368 189.908005,64.8357368 190.710005,69.7507368 Z M185.786005,55.2687368 C185.912005,55.0407368 186.087005,54.4567368 186.260005,54.4567368 C187.738005,54.4617368 188.801005,52.8497368 190.512005,53.5577368 C191.728005,54.0617368 193.139005,54.0757368 194.440005,54.3997368 C196.402005,54.8877368 198.126005,55.8777368 199.683005,57.1487368 C200.690005,57.9707368 200.827005,58.6297368 200.038005,59.6377368 C197.071005,63.4197368 194.661005,67.5467368 192.371005,71.7537368 C192.243005,71.9887368 192.099005,72.2197368 191.929005,72.4267368 C191.023005,73.5297368 189.896005,73.4067368 189.251005,72.1107368 C189.014005,71.6337368 188.831005,71.1117368 188.727005,70.5897368 C188.238005,68.1147368 187.792005,65.6297368 187.316005,63.1517368 C186.881005,60.8867368 186.428005,58.6257368 185.985005,56.3627368 C185.923005,56.0467368 185.869005,55.7297368 185.786005,55.2687368 L185.786005,55.2687368 Z" id="Fill-653" fill="#EBD06B"></path>
            <path d="M160.201005,57.4887368 C157.765005,59.2757368 155.471005,60.9577368 153.017005,62.7577368 C155.545005,64.0487368 157.505005,65.9717368 160.201005,67.1087368 C160.201005,63.7937368 160.201005,60.7527368 160.201005,57.4887368 Z M162.617005,55.4087368 C162.564005,57.9127368 162.500005,60.4167368 162.460005,62.9207368 C162.434005,64.5867368 162.490005,66.2557368 162.420005,67.9207368 C162.338005,69.8897368 161.444005,70.3977368 159.674005,69.4537368 C158.255005,68.6967368 156.907005,67.8037368 155.524005,66.9777368 C154.006005,66.0707368 152.508005,65.1257368 150.957005,64.2797368 C149.546005,63.5097368 149.387005,62.5497368 150.650005,61.5727368 C151.286005,61.0817368 152.019005,60.7167368 152.662005,60.2327368 C154.935005,58.5197368 157.184005,56.7757368 159.452005,55.0557368 C159.960005,54.6697368 160.464005,54.2217368 161.045005,53.9997368 C162.046005,53.6177368 162.887005,54.3657368 162.617005,55.4087368 L162.617005,55.4087368 Z" id="Fill-654" fill="#EBD06B"></path>
            <path d="M80.3350046,34.7097368 C77.4130046,35.1877368 74.7300046,35.2257368 71.8530046,35.7537368 C73.8950046,37.9297368 75.7200046,39.8727368 77.7280046,42.0107368 C78.6190046,39.5157368 79.4330046,37.2347368 80.3350046,34.7097368 Z M85.4720046,32.4847368 C85.4270046,33.0937368 84.9070046,33.4497368 84.3140046,33.5107368 C82.9140046,33.6547368 82.5790046,34.6057368 82.2240046,35.7477368 C81.4620046,38.2097368 80.5620046,40.6277368 79.7150046,43.0637368 C79.6450046,43.2657368 79.5660046,43.4677368 79.4640046,43.6557368 C78.7400046,44.9897368 77.6820046,45.1817368 76.6140046,44.0847368 C74.9640046,42.3917368 73.3750046,40.6397368 71.7580046,38.9137368 C71.0600046,38.1687368 70.3360046,37.4467368 69.6630046,36.6797368 C69.1380046,36.0837368 68.4570046,35.4927368 68.7600046,34.5737368 C69.0730046,33.6277368 69.9860046,33.6107368 70.7700046,33.5167368 C72.6360046,33.2917368 74.5260046,33.2237368 76.3770046,32.9147368 C78.6350046,32.5387368 80.8620046,31.9807368 83.1020046,31.5017368 C83.5220046,31.4117368 83.9400046,31.2627368 84.3610046,31.2547368 C85.0350046,31.2417368 85.5030046,31.7547368 85.4720046,32.4847368 L85.4720046,32.4847368 Z" id="Fill-655" fill="#EBD06B"></path>
            <path d="M210.921005,60.5577368 C209.240005,62.4377368 207.805005,64.0257368 206.539005,65.8537368 C207.687005,66.0297368 208.746005,65.9937368 209.802005,66.0397368 C210.877005,66.0857368 211.949005,66.2127368 213.248005,66.3237368 C212.442005,64.3287368 211.748005,62.6087368 210.921005,60.5577368 Z M212.755005,59.0937368 C213.635005,61.2947368 214.453005,63.3347368 215.266005,65.3767368 C215.385005,65.6757368 215.500005,65.9787368 215.589005,66.2867368 C216.199005,68.4067368 215.416005,69.1787368 213.233005,68.8007368 C211.495005,68.5007368 209.725005,68.3817368 207.966005,68.2087368 C206.898005,68.1037368 205.816005,68.1107368 204.756005,67.9547368 C203.249005,67.7357368 202.790005,66.6077368 203.732005,65.4057368 C204.559005,64.3507368 205.489005,63.3747368 206.386005,62.3757368 C207.751005,60.8577368 209.120005,59.3437368 210.501005,57.8397368 C210.789005,57.5257368 211.106005,57.2227368 211.456005,56.9807368 C212.176005,56.4807368 212.901005,56.5287368 213.327005,57.0927368 C213.796005,57.7157368 213.674005,58.2927368 213.106005,58.7967368 C212.987005,58.9027368 212.863005,59.0017368 212.755005,59.0937368 L212.755005,59.0937368 Z" id="Fill-656" fill="#EBD06B"></path>
            <path d="M173.911005,35.1067368 C171.594005,34.9327368 169.653005,34.3987368 167.677005,34.5667368 C168.590005,36.6337368 169.464005,38.6117368 170.418005,40.7727368 C171.527005,38.9737368 172.628005,37.1867368 173.911005,35.1067368 Z M165.444005,34.7597368 C164.855005,34.7097368 164.186005,34.5057368 164.258005,33.5637368 C164.314005,32.8437368 164.859005,32.4607368 165.915005,32.3917368 C169.157005,32.1807368 172.348005,32.6527368 175.522005,33.2007368 C177.024005,33.4607368 177.328005,34.4487368 176.489005,35.6507368 C175.356005,37.2747368 174.304005,38.9547368 173.174005,40.5827368 C172.627005,41.3697368 172.079005,42.1997368 171.364005,42.8187368 C170.059005,43.9477368 168.463005,43.3607368 168.089005,41.6587368 C167.671005,39.7557368 167.131005,37.9277368 165.944005,36.3267368 C165.657005,35.9407368 165.627005,35.3637368 165.444005,34.7597368 L165.444005,34.7597368 Z" id="Fill-657" fill="#EBD06B"></path>
            <path d="M222.446005,56.4587368 C222.890005,58.1447368 223.311005,59.7387368 223.777005,61.5077368 C225.198005,59.5667368 226.450005,57.8567368 227.885005,55.8967368 C225.901005,56.1017368 224.222005,56.2757368 222.446005,56.4587368 Z M222.918005,54.2227368 C224.625005,54.0237368 226.332005,53.8247368 228.038005,53.6237368 C228.305005,53.5927368 228.568005,53.5227368 228.835005,53.5087368 C229.607005,53.4687368 230.389005,53.5057368 230.799005,54.2917368 C231.164005,54.9897368 230.905005,55.6527368 230.474005,56.2497368 C230.223005,56.5987368 229.949005,56.9307368 229.702005,57.2817368 C228.194005,59.4357368 226.689005,61.5907368 225.186005,63.7467368 C225.094005,63.8787368 225.024005,64.0277368 224.930005,64.1577368 C223.980005,65.4847368 222.811005,65.3777368 222.136005,63.8607368 C221.833005,63.1777368 221.644005,62.4407368 221.451005,61.7157368 C221.217005,60.8337368 221.092005,59.9187368 220.810005,59.0547368 C220.547005,58.2507368 220.205005,57.4547368 219.779005,56.7257368 C219.083005,55.5317368 219.597005,54.3137368 220.979005,54.1547368 C221.615005,54.0817368 222.266005,54.1427368 222.911005,54.1427368 C222.913005,54.1687368 222.916005,54.1967368 222.918005,54.2227368 L222.918005,54.2227368 Z" id="Fill-658" fill="#EBD06B"></path>
            <path d="M145.185005,23.9637368 C145.713005,25.5507368 146.184005,26.9617368 146.653005,28.3717368 C147.294005,26.8877368 148.124005,25.5187368 147.940005,23.7447368 C146.950005,23.8227368 146.131005,23.8887368 145.185005,23.9637368 Z M146.328005,21.6647368 C146.864005,21.6647368 147.401005,21.6397368 147.936005,21.6697368 C149.257005,21.7427368 150.032005,22.4137368 150.152005,23.7487368 C150.219005,24.4817368 150.138005,25.2547368 149.968005,25.9737368 C149.696005,27.1177368 149.308005,28.2367368 148.943005,29.3577368 C148.496005,30.7297368 148.007005,32.0897368 147.567005,33.4647368 C147.375005,34.0667368 147.118005,34.5997368 146.415005,34.6197368 C145.679005,34.6427368 145.428005,34.0857368 145.288005,33.4757368 C145.179005,33.0057368 145.027005,32.5367368 144.994005,32.0607368 C144.803005,29.3457368 143.914005,26.8227368 142.914005,24.3287368 C142.336005,22.8907368 142.726005,22.0707368 144.241005,21.7927368 C144.920005,21.6697368 145.630005,21.7147368 146.327005,21.6827368 C146.327005,21.6767368 146.327005,21.6707368 146.328005,21.6647368 L146.328005,21.6647368 Z" id="Fill-659" fill="#EBD06B"></path>
            <path d="M237.896005,53.4477368 C237.968005,53.5227368 238.041005,53.5977368 238.113005,53.6737368 C238.856005,53.3667368 239.598005,53.0617368 240.440005,52.7147368 C240.039005,52.0117368 239.725005,51.4587368 239.284005,50.6857368 C238.724005,51.8007368 238.310005,52.6237368 237.896005,53.4477368 Z M242.781005,52.7927368 C242.706005,53.7617368 242.290005,54.3747368 241.543005,54.6797368 C239.860005,55.3657368 238.162005,56.0157368 236.457005,56.6457368 C235.770005,56.8987368 235.049005,56.9177368 234.563005,56.2517368 C234.109005,55.6317368 234.439005,55.0367368 234.765005,54.4627368 C235.398005,53.3457368 236.036005,52.2317368 236.635005,51.0957368 C237.050005,50.3087368 237.527005,49.5677368 237.042005,48.5537368 C236.757005,47.9577368 237.347005,47.1847368 238.015005,46.9197368 C238.677005,46.6577368 240.150005,47.0127368 240.293005,47.6327368 C240.665005,49.2497368 241.944005,50.3587368 242.478005,51.8637368 C242.602005,52.2117368 242.708005,52.5667368 242.781005,52.7927368 L242.781005,52.7927368 Z" id="Fill-660" fill="#EBD06B"></path>
            <path d="M127.657005,21.5327368 C128.172005,22.6497368 128.626005,23.6287368 129.174005,24.8157368 C129.660005,23.5277368 130.236005,22.5527368 130.036005,21.2897368 C129.194005,21.3757368 128.473005,21.4497368 127.657005,21.5327368 Z M132.410005,21.4077368 C132.346005,21.7787368 132.313005,22.4367368 132.114005,23.0397368 C131.527005,24.8207368 130.889005,26.5837368 130.240005,28.3437368 C130.012005,28.9607368 129.669005,29.5477368 128.875005,29.4927368 C128.034005,29.4367368 127.711005,28.8117368 127.531005,28.1007368 C127.099005,26.3927368 126.821005,24.6397368 125.854005,23.1017368 C125.691005,22.8417368 125.716005,22.3257368 125.867005,22.0397368 C126.110005,21.5787368 126.158005,21.2337368 125.977005,20.7157368 C125.738005,20.0307368 126.192005,19.5787368 126.866005,19.4737368 C128.137005,19.2747368 129.412005,19.0617368 130.694005,18.9857368 C131.917005,18.9117368 132.473005,19.6807368 132.410005,21.4077368 L132.410005,21.4077368 Z" id="Fill-661" fill="#EBD06B"></path>
            <path d="M182.659005,46.1327368 C182.199005,45.6837368 181.646005,45.2957368 181.307005,44.7687368 C180.966005,44.2397368 181.088005,43.5317368 181.604005,43.1757368 C181.981005,42.9157368 182.596005,42.8147368 183.055005,42.9027368 C183.969005,43.0777368 184.860005,43.2557368 185.132005,44.5217368 C185.251005,45.0767368 186.185005,45.4897368 186.795005,45.8997368 C187.457005,46.3427368 188.250005,46.6147368 188.847005,47.1227368 C189.866005,47.9907368 189.599005,49.0427368 188.321005,49.3697368 C187.340005,49.6217368 186.340005,49.8087368 185.341005,49.9777368 C184.470005,50.1237368 183.992005,49.8167368 183.683005,48.8647368 C183.387005,47.9507368 183.180005,47.0087368 182.935005,46.0787368 C182.843005,46.0977368 182.751005,46.1147368 182.659005,46.1327368" id="Fill-662" fill="#000000"></path>
            <path d="M245.761005,48.768771 C244.440005,48.7747368 243.893005,47.9917368 244.265005,46.9327368 C244.460005,46.3777368 244.736005,45.8507368 244.919005,45.2917368 C245.100005,44.7377368 245.207005,44.2037368 244.898005,43.5917368 C244.729005,43.2587368 244.814005,42.6197368 245.044005,42.3187368 C245.227005,42.0807368 245.865005,41.9877368 246.201005,42.1087368 C248.024005,42.7627368 249.531005,43.8157368 250.261005,45.7257368 C250.525005,46.4147368 250.474005,47.1217368 249.798005,47.4007368 C248.418005,47.9677368 246.969005,48.3687368 245.761005,48.768771" id="Fill-663" fill="#EBD06B"></path>
            <path d="M25.0040046,26.9457368 C24.8410046,27.1977368 24.6340046,27.7127368 24.2650046,28.0507368 C23.5330046,28.7177368 22.5210046,28.5747368 21.6790046,27.7927368 C20.5090046,26.7067368 20.1660046,25.7297368 20.7080046,24.8867368 C20.8720046,24.6317368 21.1320046,24.3957368 21.4030046,24.2627368 C22.6850046,23.6307368 25.0870046,25.2637368 25.0040046,26.9457368" id="Fill-664" fill="#EBD06B"></path>
            <path d="M21.2610046,41.8967368 C21.4870046,41.1317368 21.6120046,40.5637368 21.8210046,40.0287368 C22.4680046,38.3717368 23.6290046,37.8587368 25.2960046,38.4607368 C26.1040046,38.7527368 26.9050046,39.0597368 27.7150046,39.3457368 C27.8560046,39.3957368 28.0230046,39.3747368 28.1480046,39.3847368 C28.2670046,39.2957368 28.3960046,39.2497368 28.4300046,39.1657368 C29.5060046,36.5247368 31.8820046,36.3767368 34.2030046,36.2057368 C35.1710046,36.1347368 35.7630046,36.6717368 35.8270046,37.4147368 C35.8920046,38.1807368 35.4040046,38.7007368 34.4360046,38.8757368 C34.0670046,38.9427368 33.6920046,38.9877368 33.3190046,39.0247368 C32.1340046,39.1427368 31.2180046,39.5427368 30.6630046,40.7547368 C30.0290046,42.1367368 28.7410046,42.3947368 27.3650046,42.0677368 C26.3870046,41.8347368 25.4400046,41.4697368 24.3720046,41.1287368 C24.2340046,41.6307368 24.1190046,42.0807368 23.9860046,42.5267368 C23.4100046,44.4567368 22.1690046,45.0877368 20.2740046,44.3267368 C19.2370046,43.9097368 18.2550046,43.3567368 17.1780046,42.8297368 C16.7810046,43.3997368 16.4150046,43.9897368 15.9850046,44.5277368 C15.0690046,45.6737368 14.3660046,45.8617368 13.0360046,45.2537368 C11.4850046,44.5447368 9.96400459,43.7717368 8.31500459,42.9717368 C7.97500459,43.6237368 7.66100459,44.2367368 7.33700459,44.8437368 C7.16100459,45.1737368 7.00100459,45.5217368 6.77300459,45.8157368 C6.35700459,46.3547368 5.78100459,46.4867368 5.19500459,46.1627368 C4.61400459,45.8437368 4.33800459,45.2427368 4.62000459,44.6507368 C5.26400459,43.2997368 5.91300459,41.9297368 6.75400459,40.6997368 C7.40600459,39.7457368 8.28000459,39.7777368 9.48200459,40.4347368 C10.9310046,41.2257368 12.3870046,42.0057368 13.8770046,42.8117368 C14.3280046,42.1837368 14.6580046,41.7007368 15.0110046,41.2357368 C16.2690046,39.5777368 17.0770046,39.4417368 18.8220046,40.5237368 C19.5790046,40.9927368 20.3750046,41.4007368 21.2610046,41.8967368" id="Fill-665" fill="#000000"></path>
            <path d="M28.2320046,26.1967368 C27.5180046,26.8487368 26.9300046,27.3847368 26.2990046,27.9597368 C26.6930046,28.7077368 27.0960046,29.3937368 27.4240046,30.1137368 C27.9010046,31.1607368 27.7610046,31.8737368 27.0760046,32.2357368 C26.3840046,32.6017368 25.6830046,32.2837368 25.1210046,31.3327368 C24.7410046,30.6927368 24.3790046,30.0397368 23.9760046,29.3347368 C23.1700046,29.4127368 22.4390046,29.4827368 21.6400046,29.5597368 C21.5330046,30.2207368 21.4720046,30.8557368 21.3220046,31.4677368 C21.1460046,32.1837368 20.6630046,32.5697368 19.8970046,32.4667368 C19.1930046,32.3727368 18.8830046,31.8887368 18.8570046,31.2347368 C18.8340046,30.6447368 18.8510046,30.0497368 18.9110046,29.4627368 C18.9940046,28.6527368 18.6990046,28.1247368 17.8380046,27.8647368 C17.5430046,28.2207368 17.2450046,28.5927368 16.9340046,28.9537368 C16.6180046,29.3197368 16.3200046,29.7097368 15.9610046,30.0277368 C15.3010046,30.6117368 14.5810046,30.6377368 14.0930046,30.1207368 C13.5670046,29.5647368 13.6090046,28.9427368 14.0300046,28.3607368 C14.4710046,27.7517368 14.9800046,27.1927368 15.4340046,26.5927368 C15.9100046,25.9637368 16.4310046,25.3967368 16.4160046,24.4727368 C16.4110046,24.1027368 16.9590046,23.5627368 17.3770046,23.3837368 C17.9970046,23.1187368 18.4710046,23.5437368 18.8050046,24.1147368 C19.1800046,24.7597368 19.5030046,25.4977368 20.0470046,25.9617368 C20.5790046,26.4157368 21.3500046,26.7897368 22.0350046,26.8247368 C24.1930046,26.9367368 26.4810046,24.5687368 26.4970046,22.3727368 C26.5060046,20.9597368 26.8750046,20.3477368 27.7330046,20.3187368 C28.5970046,20.2877368 29.2290046,20.9377368 29.1640046,22.2687368 C29.1030046,23.5117368 29.6510046,24.1257368 30.6280046,24.6397368 C31.1940046,24.9377368 31.7320046,25.3207368 32.2090046,25.7467368 C32.9080046,26.3727368 33.0120046,27.1977368 32.5550046,27.7517368 C32.1160046,28.2867368 31.5240046,28.3187368 30.6780046,27.7957368 C29.8580046,27.2877368 29.0620046,26.7407368 28.2320046,26.1967368" id="Fill-666" fill="#000000"></path>
            <path d="M114.722005,36.3297368 C115.870005,35.9347368 117.028005,35.5667368 118.163005,35.1357368 C119.468005,34.6417368 120.738005,34.0517368 122.053005,33.5847368 C122.642005,33.3757368 123.309005,33.2467368 123.926005,33.2897368 C124.752005,33.3477368 125.258005,34.0747368 125.211005,34.8667368 C125.163005,35.6667368 124.590005,36.1577368 123.738005,36.2807368 C122.908005,36.4017368 122.060005,36.5387368 121.277005,36.8247368 C118.557005,37.8207368 115.857005,38.8737368 113.157005,39.9267368 C112.400005,40.2217368 111.688005,40.3067368 111.063005,39.6967368 C110.421005,39.0697368 110.523005,38.3067368 110.853005,37.5997368 C111.601005,35.9947368 112.372005,34.3987368 113.196005,32.8317368 C114.946005,29.5077368 116.737005,26.2047368 118.510005,22.8937368 C118.636005,22.6567368 118.719005,22.3927368 118.874005,22.1787368 C119.231005,21.6847368 119.785005,21.4797368 120.287005,21.7617368 C120.648005,21.9647368 121.064005,22.4617368 121.065005,22.8277368 C121.067005,23.4367368 120.848005,24.0947368 120.559005,24.6467368 C118.839005,27.9267368 117.071005,31.1807368 115.324005,34.4467368 C115.047005,34.9627368 114.796005,35.4927368 114.533005,36.0167368 C114.596005,36.1207368 114.659005,36.2257368 114.722005,36.3297368" id="Fill-667" fill="#000000"></path>
            <path d="M157.796005,37.8287368 C157.666005,37.8477368 157.535005,37.8647368 157.405005,37.8837368 C156.962005,39.7607368 156.520005,41.6387368 156.028005,43.7277368 C157.501005,43.5897368 158.723005,43.4757368 160.113005,43.3457368 C159.272005,41.3417368 158.534005,39.5847368 157.796005,37.8287368 Z M156.200005,33.9137368 C156.065005,33.5677368 155.914005,33.2267368 155.802005,32.8727368 C155.595005,32.2197368 155.808005,31.7157368 156.399005,31.3767368 C156.950005,31.0617368 157.494005,31.2037368 157.871005,31.6117368 C158.222005,31.9907368 158.466005,32.4917368 158.675005,32.9757368 C160.160005,36.4217368 161.601005,39.8867368 163.104005,43.3247368 C163.779005,44.8687368 163.430005,45.6957368 161.758005,45.9067368 C160.110005,46.1147368 158.444005,46.1907368 156.787005,46.3227368 C156.039005,46.3817368 155.292005,46.4637368 154.542005,46.4887368 C153.356005,46.5277368 152.747005,45.8557368 152.873005,44.6757368 C152.901005,44.4097368 152.983005,44.1507368 153.046005,43.8897368 C153.678005,41.2837368 154.278005,38.6707368 154.963005,36.0787368 C155.155005,35.3507368 155.594005,34.6867368 155.919005,33.9917368 C156.013005,33.9657368 156.106005,33.9407368 156.200005,33.9137368 L156.200005,33.9137368 Z" id="Fill-668" fill="#000000"></path>
            <path d="M172.866005,60.8827368 C173.356005,61.0257368 173.654005,61.1227368 173.959005,61.1977368 C174.249005,61.2687368 174.545005,61.3157368 175.012005,61.4067368 C175.012005,60.3887368 174.992005,59.4887368 175.018005,58.5897368 C175.043005,57.6987368 175.114005,56.8097368 175.165005,55.9197368 C175.085005,55.9147368 175.006005,55.9087368 174.926005,55.9047368 C174.262005,57.5077368 173.599005,59.1127368 172.866005,60.8827368 Z M177.625005,57.5647368 C177.625005,59.2297368 177.632005,60.8947368 177.619005,62.5597368 C177.616005,62.9337368 177.590005,63.3207368 177.491005,63.6777368 C177.219005,64.6557368 176.464005,65.1277368 175.518005,64.7307368 C174.125005,64.1467368 172.726005,63.6817368 171.229005,63.4237368 C170.111005,63.2317368 169.631005,62.3507368 169.876005,61.2437368 C170.014005,60.6197368 170.290005,60.0267368 170.521005,59.4247368 C171.272005,57.4727368 172.010005,55.5157368 172.794005,53.5757368 C173.337005,52.2347368 173.936005,50.9137368 174.540005,49.5987368 C174.694005,49.2647368 174.919005,48.9307368 175.193005,48.6927368 C175.818005,48.1517368 176.829005,48.3227368 177.087005,49.0767368 C177.598005,50.5687368 178.310005,52.0107368 178.043005,53.7017368 C177.842005,54.9697368 177.878005,56.2757368 177.809005,57.5637368 C177.748005,57.5647368 177.686005,57.5647368 177.625005,57.5647368 L177.625005,57.5647368 Z" id="Fill-669" fill="#000000"></path>
            <path d="M132.919005,59.2777368 C134.258005,60.4997368 135.476005,61.6117368 136.772005,62.7937368 C137.210005,62.1597368 137.597005,61.5877368 137.996005,61.0247368 C138.275005,60.6297368 138.539005,60.2177368 138.864005,59.8647368 C139.334005,59.3527368 139.896005,59.0617368 140.576005,59.5067368 C141.236005,59.9407368 141.342005,60.6367368 140.990005,61.2107368 C140.067005,62.7187368 139.103005,64.2147368 138.007005,65.5977368 C137.349005,66.4287368 136.382005,66.3627368 135.585005,65.6317368 C135.032005,65.1237368 134.577005,64.5127368 134.043005,63.9837368 C132.784005,62.7397368 131.564005,61.4707368 129.831005,60.8117368 C128.461005,60.2907368 128.299005,59.0087368 129.556005,58.2577368 C131.438005,57.1317368 133.397005,56.1017368 135.415005,55.2487368 C137.584005,54.3317368 139.859005,53.6657368 142.089005,52.8947368 C142.947005,52.5977368 143.595005,52.7857368 143.910005,53.4117368 C144.224005,54.0337368 144.037005,54.7997368 143.253005,55.1677368 C141.848005,55.8277368 140.386005,56.3717368 138.927005,56.9067368 C137.618005,57.3877368 136.266005,57.7537368 134.959005,58.2407368 C134.274005,58.4957368 133.646005,58.9027368 132.919005,59.2777368" id="Fill-670" fill="#000000"></path>
            <path d="M192.561005,62.8697368 C193.427005,61.4047368 194.297005,59.9397368 195.157005,58.4707368 C195.374005,58.1007368 195.515005,57.6777368 195.773005,57.3427368 C196.178005,56.8197368 196.748005,56.6707368 197.359005,56.9517368 C197.978005,57.2377368 198.201005,57.7797368 198.061005,58.4197368 C197.970005,58.8327368 197.797005,59.2417368 197.589005,59.6137368 C196.934005,60.7837368 196.252005,61.9417368 195.566005,63.0957368 C194.690005,64.5727368 193.790005,66.0337368 192.921005,67.5147368 C192.365005,68.4607368 191.810005,68.8047368 191.001005,68.6007368 C190.105005,68.3747368 189.863005,67.6657368 189.854005,66.8717368 C189.810005,63.1807368 188.763005,59.6677368 187.982005,56.1077368 C187.936005,55.8987368 187.875005,55.6887368 187.862005,55.4777368 C187.823005,54.8037368 188.129005,54.3197368 188.769005,54.1237368 C189.350005,53.9477368 189.918005,54.1557368 190.140005,54.6917368 C190.528005,55.6247368 190.841005,56.6007368 191.071005,57.5857368 C191.472005,59.3027368 191.786005,61.0407368 192.136005,62.7697368 C192.278005,62.8027368 192.419005,62.8357368 192.561005,62.8697368" id="Fill-671" fill="#000000"></path>
            <path d="M101.888005,34.8877368 C101.943005,34.3127368 101.997005,33.9067368 102.017005,33.4997368 C102.119005,31.4597368 102.188005,29.4167368 102.323005,27.3787368 C102.369005,26.6907368 102.491005,25.9817368 102.731005,25.3377368 C102.955005,24.7367368 103.520005,24.4637368 104.185005,24.6047368 C104.865005,24.7477368 105.192005,25.2257368 105.155005,25.8927368 C104.942005,29.6467368 104.719005,33.4007368 104.476005,37.1527368 C104.430005,37.8557368 104.293005,38.5807368 103.501005,38.8617368 C102.741005,39.1287368 102.205005,38.7127368 101.623005,38.2577368 C100.571005,37.4327368 99.4830046,36.6357368 98.3300046,35.9657368 C96.9540046,35.1667368 95.8050046,34.1507368 94.8140046,32.9297368 C94.0520046,31.9897368 93.9870046,31.2067368 94.6140046,30.6627368 C95.3130046,30.0567368 96.2190046,30.2137368 96.9190046,31.2137368 C98.1450046,32.9647368 99.9920046,33.7967368 101.888005,34.8877368" id="Fill-672" fill="#000000"></path>
            <path d="M134.988005,38.9337368 C136.920005,39.2637368 138.600005,39.5407368 140.275005,39.8417368 C140.908005,39.9547368 141.555005,40.0597368 142.153005,40.2827368 C142.954005,40.5827368 143.306005,41.2607368 143.129005,41.9187368 C142.946005,42.6007368 142.367005,42.9537368 141.465005,42.8067368 C138.972005,42.4017368 136.479005,41.9927368 134.000005,41.5097368 C132.372005,41.1917368 131.738005,40.2157368 132.314005,38.7007368 C133.592005,35.3367368 134.993005,32.0207368 136.368005,28.6947368 C136.528005,28.3067368 136.796005,27.9407368 137.089005,27.6367368 C137.501005,27.2097368 138.088005,27.0597368 138.542005,27.4537368 C138.859005,27.7297368 139.070005,28.2367368 139.129005,28.6667368 C139.173005,28.9927368 138.913005,29.3657368 138.771005,29.7117368 C137.551005,32.6927368 136.327005,35.6707368 134.988005,38.9337368" id="Fill-673" fill="#000000"></path>
            <path d="M156.022005,61.7697368 C157.119005,62.7587368 157.999005,63.3567368 159.231005,63.4337368 C159.348005,62.1107368 159.710005,60.8857368 158.966005,59.5747368 C158.368005,60.0357368 157.872005,60.4257368 157.367005,60.8037368 C156.942005,61.1207368 156.506005,61.4227368 156.022005,61.7697368 Z M161.638005,58.2267368 C161.628005,58.1547368 161.621005,58.4807368 161.716005,58.7737368 C162.387005,60.8417368 162.063005,62.9267368 161.788005,64.9927368 C161.565005,66.6697368 160.597005,67.1847368 159.041005,66.5397368 C158.052005,66.1297368 157.060005,65.6977368 156.144005,65.1507368 C155.373005,64.6887368 154.617005,64.1297368 154.021005,63.4647368 C153.018005,62.3447368 153.073005,61.4307368 154.070005,60.3297368 C155.563005,58.6827368 157.327005,57.3727368 159.296005,56.3557368 C160.789005,55.5837368 161.687005,56.1757368 161.638005,58.2267368 L161.638005,58.2267368 Z" id="Fill-674" fill="#000000"></path>
            <path d="M97.0050046,50.4097368 C97.5790046,49.7577368 97.9920046,49.2807368 98.4130046,48.8117368 C98.7000046,48.4927368 98.9690046,48.1507368 99.2970046,47.8797368 C99.9460046,47.3457368 100.716005,47.3327368 101.185005,47.8277368 C101.716005,48.3877368 101.655005,49.0067368 101.234005,49.5857368 C100.889005,50.0627368 100.486005,50.4977368 100.099005,50.9437368 C99.5010046,51.6317368 98.9130046,52.3307368 98.2880046,52.9937368 C97.0670046,54.2907368 96.0250046,54.1477368 95.1160046,52.5777368 C94.9550046,52.2997368 94.8190046,52.0067368 94.6680046,51.7237368 C93.2810046,49.1237368 91.8940046,46.5267368 90.5080046,43.9277368 C90.4320046,43.7857368 90.3490046,43.6467368 90.2920046,43.4977368 C89.9980046,42.7277368 90.1930046,42.0007368 90.7790046,41.6537368 C91.3860046,41.2937368 92.0320046,41.4607368 92.5420046,42.2397368 C93.2730046,43.3607368 93.9740046,44.5057368 94.6110046,45.6817368 C95.4020046,47.1417368 96.1160046,48.6437368 97.0050046,50.4097368" id="Fill-675" fill="#000000"></path>
            <path d="M121.057005,46.1257368 C120.951005,46.2977368 120.787005,46.6977368 120.511005,46.9937368 C117.863005,49.8317368 115.458005,52.8387368 113.656005,56.3057368 C113.216005,57.1537368 112.583005,57.9147368 111.956005,58.6467368 C111.334005,59.3707368 110.538005,59.4427368 109.972005,58.9497368 C109.432005,58.4807368 109.356005,57.8177368 109.875005,57.0647368 C112.309005,53.5327368 114.326005,49.7047368 117.319005,46.5727368 C117.873005,45.9927368 118.414005,45.3677368 119.071005,44.9277368 C119.995005,44.3087368 121.036005,44.8587368 121.057005,46.1257368" id="Fill-676" fill="#000000"></path>
            <path d="M77.2290046,38.8157368 C77.6480046,37.6367368 77.9450046,36.7417368 78.2860046,35.8637368 C78.4590046,35.4177368 78.6510046,34.9587368 78.9390046,34.5867368 C79.2890046,34.1327368 79.8630046,33.8637368 80.3480046,34.2487368 C80.7130046,34.5397368 80.9240046,35.0717368 81.0970046,35.5357368 C81.1720046,35.7407368 80.9850046,36.0447368 80.9140046,36.3027368 C80.4960046,37.7967368 80.1010046,39.2977368 79.6440046,40.7797368 C79.4920046,41.2747368 79.2760046,41.8167368 78.9200046,42.1657368 C78.3490046,42.7287368 77.6040046,42.6517368 77.0260046,42.1357368 C76.1890046,41.3887368 75.3970046,40.5867368 74.6350046,39.7627368 C73.8860046,38.9537368 73.0770046,38.3417368 71.9360046,38.1667368 C70.8550046,38.0017368 70.4720046,37.5127368 70.5860046,36.7397368 C70.6920046,36.0237368 71.3560046,35.4987368 72.2530046,35.5497368 C73.7100046,35.6337368 74.9210046,36.3037368 75.9430046,37.3107368 C76.3560046,37.7167368 76.7000046,38.1917368 77.2290046,38.8157368" id="Fill-677" fill="#000000"></path>
            <path d="M133.613005,1.87073678 C133.295005,5.60973678 132.997005,9.34973678 132.639005,13.0837368 C132.580005,13.7037368 132.360005,14.3567368 132.043005,14.8927368 C131.696005,15.4777368 131.078005,15.7667368 130.371005,15.4437368 C129.732005,15.1527368 129.557005,14.5857368 129.721005,13.9557368 C130.652005,10.3787368 130.580005,6.71373678 130.727005,3.06573678 C130.748005,2.53173678 130.807005,1.98973678 130.934005,1.47273678 C131.170005,0.511736783 131.765005,0.0437367834 132.479005,0.173736783 C133.175005,0.299736783 133.683005,1.02673678 133.613005,1.87073678" id="Fill-678" fill="#000000"></path>
            <path d="M156.201005,21.2447368 C156.316005,21.0177368 156.495005,20.5687368 156.756005,20.1727368 C158.566005,17.4327368 160.088005,14.5407368 161.383005,11.5257368 C161.551005,11.1357368 161.773005,10.7527368 162.042005,10.4257368 C162.445005,9.93473678 162.966005,9.68073678 163.605005,10.0077368 C164.296005,10.3627368 164.446005,10.9507368 164.218005,11.6417368 C164.101005,11.9937368 163.906005,12.3237368 163.732005,12.6557368 C162.044005,15.8847368 160.352005,19.1117368 158.665005,22.3397368 C158.315005,23.0107368 157.774005,23.2847368 157.068005,23.0287368 C156.376005,22.7777368 156.119005,22.2047368 156.201005,21.2447368" id="Fill-679" fill="#000000"></path>
            <path d="M223.126005,35.4157368 C223.882005,35.5347368 224.309005,36.0377368 224.408005,36.8047368 C224.606005,38.3437368 224.777005,39.8867368 224.948005,41.4297368 C225.171005,43.4367368 225.027005,45.4967368 225.935005,47.4027368 C226.187005,47.9327368 225.938005,48.4597368 225.420005,48.7827368 C224.853005,49.1377368 223.902005,49.0377368 223.551005,48.4227368 C223.166005,47.7467368 222.877005,46.9587368 222.776005,46.1887368 C222.497005,44.0677368 222.344005,41.9287368 222.127005,39.7987368 C222.034005,38.8947368 221.878005,37.9957368 221.799005,37.0917368 C221.712005,36.0957368 222.276005,35.3907368 223.126005,35.4157368" id="Fill-680" fill="#000000"></path>
            <path d="M175.429005,16.4727368 C176.132005,16.4907368 176.656005,17.0127368 176.583005,17.7247368 C176.546005,18.0777368 176.369005,18.4347368 176.190005,18.7517368 C174.480005,21.7847368 172.750005,24.8067368 171.039005,27.8397368 C170.584005,28.6457368 170.026005,28.9747368 169.387005,28.7397368 C168.749005,28.5067368 168.395005,27.8127368 168.561005,27.0127368 C168.636005,26.6507368 168.766005,26.2817368 168.950005,25.9617368 C170.555005,23.1737368 172.166005,20.3897368 173.803005,17.6207368 C174.158005,17.0207368 174.603005,16.4527368 175.429005,16.4727368" id="Fill-681" fill="#000000"></path>
            <path d="M188.131005,24.8377368 C187.842005,25.4317368 187.681005,25.8927368 187.416005,26.2827368 C186.272005,27.9647368 185.104005,29.6317368 183.931005,31.2947368 C183.221005,32.3017368 182.490005,33.2947368 181.761005,34.2867368 C181.541005,34.5867368 181.342005,35.0187368 181.043005,35.1177368 C180.585005,35.2707368 179.962005,35.3547368 179.576005,35.1507368 C179.275005,34.9917368 179.064005,34.3317368 179.111005,33.9297368 C179.170005,33.4317368 179.480005,32.9297368 179.781005,32.4997368 C181.684005,29.7797368 183.618005,27.0807368 185.535005,24.3697368 C185.949005,23.7837368 186.510005,23.4127368 187.170005,23.7347368 C187.574005,23.9307368 187.816005,24.4577368 188.131005,24.8377368" id="Fill-682" fill="#000000"></path>
            <path d="M99.7470046,15.9927368 C99.6960046,16.3347368 99.7020046,16.6717368 99.5910046,16.9637368 C99.2370046,17.8897368 98.1290046,18.0737368 97.5410046,17.2827368 C97.2990046,16.9577368 97.1870046,16.5107368 97.1010046,16.1007368 C96.4030046,12.7947368 95.7290046,9.48473678 95.0390046,6.17673678 C94.8270046,5.16273678 95.0460046,4.53373678 95.7310046,4.30373678 C96.4850046,4.04973678 97.1550046,4.47273678 97.5450046,5.46673678 C97.6420046,5.71473678 97.7080046,5.97773678 97.7640046,6.23873678 C98.3520046,8.96473678 98.9410046,11.6917368 99.5150046,14.4207368 C99.6250046,14.9437368 99.6730046,15.4797368 99.7470046,15.9927368" id="Fill-683" fill="#000000"></path>
            <path d="M150.889005,6.55473678 C150.758005,7.14273678 150.699005,7.51573678 150.592005,7.87273678 C149.668005,10.9617368 148.736005,14.0477368 147.806005,17.1337368 C147.759005,17.2867368 147.715005,17.4447368 147.650005,17.5907368 C147.255005,18.4847368 146.589005,18.8977368 145.919005,18.6407368 C145.085005,18.3197368 145.059005,17.6217368 145.177005,16.8937368 C145.245005,16.4707368 145.347005,16.0507368 145.472005,15.6407368 C146.348005,12.7627368 147.232005,9.88673678 148.121005,7.01273678 C148.215005,6.70673678 148.321005,6.39473678 148.484005,6.12073678 C148.822005,5.55273678 149.370005,5.22873678 149.972005,5.54773678 C150.380005,5.76473678 150.637005,6.26473678 150.889005,6.55473678" id="Fill-684" fill="#000000"></path>
            <path d="M82.2150046,22.5497368 C81.8300046,20.8787368 81.4910046,19.1957368 81.0410046,17.5407368 C80.7180046,16.3507368 80.2280046,15.2057368 79.8520046,14.0287368 C79.7250046,13.6287368 79.5990046,13.1577368 79.6970046,12.7787368 C79.7910046,12.4167368 80.1280046,11.9407368 80.4460046,11.8607368 C80.8400046,11.7617368 81.3480046,11.9627368 81.7570046,12.1467368 C81.9590046,12.2367368 82.0910046,12.5627368 82.1800046,12.8087368 C83.2570046,15.7917368 84.4370046,18.7537368 84.6800046,21.9567368 C84.7310046,22.6207368 84.6010046,23.3567368 84.3430046,23.9697368 C84.0740046,24.6097368 83.4210046,24.8807368 82.7110046,24.6487368 C82.0370046,24.4287368 81.8700046,23.8787368 81.9600046,23.2247368 C81.9900046,23.0117368 82.0270046,22.7997368 82.0610046,22.5867368 C82.1120046,22.5737368 82.1640046,22.5627368 82.2150046,22.5497368" id="Fill-685" fill="#000000"></path>
            <path d="M116.937005,9.09573678 C116.937005,10.1347368 116.983005,10.9957368 116.923005,11.8487368 C116.863005,12.7107368 116.434005,13.4297368 115.586005,13.6877368 C115.189005,13.8087368 114.601005,13.7347368 114.270005,13.5037368 C114.008005,13.3207368 113.823005,12.7077368 113.920005,12.3807368 C114.765005,9.53773678 113.975005,6.74473678 113.745005,3.93773678 C113.701005,3.40373678 113.591005,2.87273678 113.569005,2.33773678 C113.539005,1.60873678 113.869005,1.08673678 114.615005,0.929736783 C115.292005,0.785736783 115.905005,1.23773678 116.100005,2.07773678 C116.270005,2.80873678 116.371005,3.55773678 116.454005,4.30473678 C116.637005,5.95873678 116.789005,7.61573678 116.937005,9.09573678" id="Fill-686" fill="#000000"></path>
            <path d="M205.237005,47.2827368 C205.530005,44.7037368 205.773005,42.3497368 206.079005,40.0037368 C206.160005,39.3767368 206.342005,38.7297368 206.632005,38.1717368 C206.992005,37.4817368 207.790005,37.3057368 208.446005,37.6267368 C209.116005,37.9537368 209.397005,38.6257368 209.106005,39.3987368 C208.123005,42.0117368 208.318005,44.7927368 207.930005,47.4897368 C207.887005,47.7867368 208.051005,48.1117368 208.107005,48.4247368 C208.261005,49.2977368 207.963005,49.8867368 207.270005,50.0977368 C206.570005,50.3107368 205.696005,49.9137368 205.464005,49.1257368 C205.272005,48.4717368 205.290005,47.7557368 205.237005,47.2827368" id="Fill-687" fill="#000000"></path>
            <path d="M210.503005,62.9957368 C209.636005,64.1307368 208.995005,64.9847368 208.337005,65.8247368 C207.723005,66.6087368 207.203005,66.7677368 206.575005,66.3967368 C205.874005,65.9827368 205.642005,65.0727368 206.175005,64.2897368 C207.078005,62.9647368 208.023005,61.6617368 209.037005,60.4207368 C209.871005,59.4007368 211.131005,59.3867368 211.913005,60.4807368 C212.712005,61.5997368 213.348005,62.8597368 213.902005,64.1247368 C214.275005,64.9777368 213.882005,65.7527368 213.204005,66.0217368 C212.452005,66.3197368 211.860005,65.9557368 211.404005,64.9317368 C211.149005,64.3607368 210.877005,63.7967368 210.503005,62.9957368" id="Fill-688" fill="#000000"></path>
            <path d="M235.173005,32.9737368 C235.901005,33.0127368 236.372005,33.4177368 236.620005,34.0677368 C236.849005,34.6667368 237.035005,35.2837368 237.211005,35.9017368 C237.785005,37.9187368 238.485005,39.8717368 239.734005,41.5957368 C240.259005,42.3197368 240.142005,42.9457368 239.523005,43.4257368 C238.935005,43.8827368 238.182005,43.8507368 237.641005,43.2747368 C237.352005,42.9677368 237.105005,42.5947368 236.934005,42.2097368 C236.261005,40.6947368 235.599005,39.1737368 234.986005,37.6337368 C234.611005,36.6917368 234.330005,35.7117368 234.015005,34.7467368 C233.687005,33.7407368 234.208005,32.9487368 235.173005,32.9737368" id="Fill-689" fill="#000000"></path>
            <path d="M191.273005,40.7777368 C191.407005,40.4187368 191.551005,39.8987368 191.790005,39.4237368 C192.294005,38.4167368 192.894005,37.4547368 193.368005,36.4347368 C193.747005,35.6197368 194.041005,34.7587368 194.293005,33.8957368 C194.583005,32.9007368 195.329005,32.2827368 196.120005,32.4937368 C196.920005,32.7077368 197.325005,33.5757368 197.047005,34.5927368 C196.907005,35.1077368 196.715005,35.6177368 196.478005,36.0957368 C195.572005,37.9227368 194.643005,39.7387368 193.710005,41.5517368 C193.385005,42.1857368 192.883005,42.5697368 192.140005,42.3297368 C191.491005,42.1217368 191.265005,41.5897368 191.273005,40.7777368" id="Fill-690" fill="#000000"></path>
            <path d="M170.732005,36.3137368 C171.310005,35.8447368 171.624005,35.5497368 171.976005,35.3157368 C172.489005,34.9747368 173.016005,35.0457368 173.457005,35.4477368 C173.899005,35.8487368 174.070005,36.4127368 173.721005,36.9037368 C172.945005,37.9917368 172.171005,39.1057368 171.233005,40.0457368 C170.453005,40.8287368 169.474005,40.4627368 169.078005,39.4297368 C168.638005,38.2857368 168.171005,37.1537368 167.742005,36.0057368 C167.593005,35.6087368 167.449005,35.1857368 167.431005,34.7687368 C167.396005,33.9947368 167.941005,33.3837368 168.658005,33.3227368 C169.412005,33.2577368 169.863005,33.6277368 170.074005,34.3507368 C170.249005,34.9507368 170.470005,35.5377368 170.732005,36.3137368" id="Fill-691" fill="#000000"></path>
            <path d="M67.6720046,21.0747368 C67.8850046,19.3797368 68.0910046,17.4587368 68.3870046,15.5527368 C68.4730046,14.9957368 68.7200046,14.4027368 69.0670046,13.9637368 C69.4990046,13.4197368 70.1680046,13.3127368 70.8150046,13.6747368 C71.3430046,13.9707368 71.6370046,14.4897368 71.3930046,15.0297368 C70.4600046,17.0967368 70.6870046,19.3417368 70.3120046,21.4907368 C70.2750046,21.7017368 70.2860046,21.9227368 70.2360046,22.1297368 C70.0400046,22.9527368 69.4560046,23.4437368 68.7810046,23.3157368 C68.0410046,23.1767368 67.7090046,22.6677368 67.6740046,21.9427368 C67.6640046,21.7297368 67.6720046,21.5147368 67.6720046,21.0747368" id="Fill-692" fill="#000000"></path>
            <path d="M224.331005,57.1797368 C225.013005,56.3717368 225.452005,55.7647368 225.981005,55.2477368 C226.686005,54.5607368 227.425005,54.5307368 227.959005,55.0677368 C228.439005,55.5527368 228.495005,56.2997368 227.923005,56.9517368 C226.973005,58.0367368 225.986005,59.1027368 224.913005,60.0637368 C224.046005,60.8387368 222.963005,60.6337368 222.480005,59.6587368 C222.054005,58.8017368 221.717005,57.8867368 221.460005,56.9637368 C221.193005,56.0027368 221.534005,55.3217368 222.227005,55.0927368 C222.918005,54.8647368 223.436005,55.1877368 223.925005,56.1637368 C224.020005,56.3537368 224.084005,56.5577368 224.331005,57.1797368" id="Fill-693" fill="#000000"></path>
            <path d="M246.576005,29.0497368 C247.541005,29.0747368 248.148005,29.4277368 248.457005,30.1137368 C249.273005,31.9287368 250.016005,33.7697368 251.339005,35.3137368 C251.749005,35.7907368 251.673005,36.4477368 251.164005,36.9197368 C250.653005,37.3927368 250.050005,37.3717368 249.541005,36.9727368 C249.085005,36.6147368 248.646005,36.1797368 248.342005,35.6907368 C247.749005,34.7327368 247.224005,33.7287368 246.734005,32.7127368 C246.506005,32.2417368 246.302005,31.8937368 245.707005,31.8667368 C245.022005,31.8357368 244.614005,31.4067368 244.573005,30.7267368 C244.533005,30.0507368 244.947005,29.6197368 245.532005,29.3737368 C245.923005,29.2087368 246.346005,29.1187368 246.576005,29.0497368" id="Fill-694" fill="#000000"></path>
            <path d="M61.9020046,16.5517368 C61.9020046,17.3017368 61.9070046,18.0527368 61.9010046,18.8027368 C61.8970046,19.4637368 61.6180046,19.9607368 60.9450046,20.1077368 C60.1920046,20.2707368 59.7180046,19.8547368 59.4290046,19.2097368 C59.3220046,18.9717368 59.2480046,18.6937368 59.2500046,18.4347368 C59.2640046,16.9887368 59.2530046,15.5377368 59.3560046,14.0967368 C59.4270046,13.1087368 60.0050046,12.6097368 60.7570046,12.6657368 C61.4970046,12.7227368 61.9010046,13.2827368 61.9150046,14.3007368 C61.9200046,14.6757368 61.8810046,15.0507368 61.8730046,15.4257368 C61.8650046,15.8007368 61.8720046,16.1767368 61.8720046,16.5517368 C61.8820046,16.5517368 61.8920046,16.5517368 61.9020046,16.5517368" id="Fill-695" fill="#000000"></path>
            <path d="M144.699005,24.8187368 C144.708005,23.8377368 144.950005,23.3257368 145.606005,23.1207368 C146.194005,22.9367368 146.670005,23.1777368 147.003005,23.6587368 C147.183005,23.9197368 147.307005,24.2287368 147.410005,24.5307368 C147.740005,25.4957368 148.054005,26.4657368 148.364005,27.4377368 C148.678005,28.4207368 148.482005,29.0937368 147.811005,29.3867368 C147.204005,29.6517368 146.458005,29.4227368 146.089005,28.5977368 C145.501005,27.2817368 145.084005,25.8897368 144.699005,24.8187368" id="Fill-697" fill="#000000"></path>
            <path d="M77.0010046,78.1617368 C77.1350046,77.9437368 77.3530046,77.3817368 77.7440046,76.9947368 C78.2410046,76.5047368 78.9090046,76.4537368 79.5190046,76.8737368 C80.1150046,77.2857368 80.1510046,78.7137368 79.6120046,79.8787368 C79.3500046,80.4457368 78.8780046,80.6457368 78.2840046,80.5247368 C77.5220046,80.3697368 76.9660046,79.4897368 77.0010046,78.1617368" id="Fill-698" fill="#000000"></path>
            <path d="M240.509005,51.6657368 C240.393005,52.1127368 240.289005,52.7507368 240.057005,53.3407368 C239.817005,53.9497368 239.251005,54.3157368 238.645005,54.0507368 C238.235005,53.8707368 237.732005,53.3497368 237.710005,52.9567368 C237.670005,52.2437368 237.874005,51.4807368 238.135005,50.7987368 C238.365005,50.1967368 238.958005,49.9677368 239.605005,50.1447368 C240.264005,50.3247368 240.516005,50.8267368 240.509005,51.6657368" id="Fill-699" fill="#000000"></path>
            <path d="M139.263005,150.409737 C139.013005,150.854737 138.914005,151.283737 138.649005,151.449737 C138.078005,151.809737 137.446005,152.154737 136.795005,152.282737 C135.969005,152.447737 135.383005,151.717737 135.535005,150.896737 C135.727005,149.864737 137.357005,148.948737 138.296005,149.418737 C138.671005,149.607737 138.920005,150.046737 139.263005,150.409737" id="Fill-700" fill="#000000"></path>
            <path d="M144.495005,104.231737 C145.204005,104.197737 145.819005,104.807737 145.818006,105.540737 C145.816005,106.590737 145.151005,107.572737 144.414005,107.614737 C143.724005,107.653737 143.053005,106.975737 142.980005,106.164737 C142.894005,105.201737 143.622005,104.272737 144.495005,104.231737" id="Fill-701" fill="#000000"></path>
            <path d="M139.447005,98.9377368 C139.473005,99.8267368 138.405005,101.103737 137.628005,101.111737 C136.983005,101.117737 136.439005,100.561737 136.410005,99.8667368 C136.372005,98.9137368 137.370005,97.7267368 138.219005,97.7147368 C138.878005,97.7057368 139.427005,98.2517368 139.447005,98.9377368" id="Fill-702" fill="#000000"></path>
            <path d="M149.135005,136.359737 C149.145005,137.283737 148.214005,138.388737 147.438005,138.373737 C146.789005,138.361737 146.311005,137.837737 146.274005,137.100737 C146.223005,136.058737 147.032005,135.098737 147.939005,135.126737 C148.628005,135.148737 149.128005,135.663737 149.135005,136.359737" id="Fill-703" fill="#000000"></path>
            <path d="M7.34700459,34.8337368 C7.31800459,35.8737368 6.80400459,36.5457368 6.04300459,36.5377368 C5.32200459,36.5307368 4.73800459,35.8457368 4.73100459,34.9997368 C4.72200459,34.0817368 5.32100459,33.3557368 6.10300459,33.3357368 C6.90800459,33.3147368 7.37300459,33.8747368 7.34700459,34.8337368" id="Fill-704" fill="#000000"></path>
            <path d="M152.884005,118.830737 C152.217005,118.818737 151.693005,118.259737 151.694003,117.560737 C151.695005,116.624737 152.538005,115.679737 153.353005,115.698737 C154.029005,115.715737 154.564005,116.266737 154.56201,116.945737 C154.560005,117.815737 153.643005,118.844737 152.884005,118.830737" id="Fill-705" fill="#000000"></path>
            <path d="M143.739005,147.897737 C143.064005,147.903737 142.519005,147.354737 142.518004,146.668737 C142.517005,145.812737 143.425005,144.795737 144.188005,144.800718 C144.861005,144.804737 145.397005,145.340737 145.415005,146.029737 C145.437005,146.894737 144.544005,147.890737 143.739005,147.897737" id="Fill-706" fill="#000000"></path>
            <path d="M149.458005,116.080737 C149.471005,117.019737 148.880005,117.731737 148.094005,117.724737 C147.336005,117.718737 146.860005,117.109737 146.878005,116.167737 C146.895005,115.252737 147.394005,114.628737 148.132005,114.599737 C148.882005,114.569737 149.446005,115.198737 149.458005,116.080737" id="Fill-707" fill="#000000"></path>
            <path d="M61.3170046,84.6827368 C60.5790046,84.7027368 59.9190046,84.0057368 59.9270046,83.2107368 C59.9340046,82.4567368 60.4640046,81.8847368 61.2100046,81.8287368 C62.0560046,81.7657368 62.7120046,82.3457368 62.6950046,83.1417368 C62.6780046,83.9037368 61.9990046,84.6617368 61.3170046,84.6827368" id="Fill-708" fill="#000000"></path>
            <path d="M60.9420046,62.8207368 C60.9560046,63.5847368 59.9270046,64.5407368 59.1090046,64.5247368 C58.4290046,64.5107368 57.9230046,63.9827368 57.9120046,63.2737368 C57.8980046,62.4247368 58.6600046,61.6377368 59.5390046,61.5937368 C60.3030046,61.5557368 60.9280046,62.1027368 60.9420046,62.8207368" id="Fill-709" fill="#000000"></path>
            <path d="M77.5090046,84.0987368 C77.5190046,84.8667368 76.7580046,85.7337368 76.0430046,85.7687368 C75.2770046,85.8067368 74.6210046,85.1207368 74.6540046,84.3187368 C74.6850046,83.5647368 75.3560046,82.8897368 76.1150046,82.8467368 C76.8640046,82.8047368 77.5000046,83.3747368 77.5090046,84.0987368" id="Fill-710" fill="#000000"></path>
            <path d="M46.6260046,81.4827368 C47.4230046,81.5017368 47.9920046,82.0157368 47.9960243,82.7177368 C48.0010046,83.4507368 47.0530046,84.2817368 46.2520046,84.2497368 C45.5570046,84.2217368 45.0040046,83.5997368 45.0140046,82.8557368 C45.0250046,82.0207368 45.6850046,81.4587368 46.6260046,81.4827368" id="Fill-711" fill="#000000"></path>
            <path d="M53.5760046,82.1367368 C54.3640046,82.1197368 55.0440046,82.7527368 55.0450089,83.5057368 C55.0470046,84.2627368 54.3490046,85.0247368 53.6700046,85.0047368 C52.9990046,84.9867368 52.2990046,84.2157368 52.2900046,83.4827368 C52.2790046,82.7437368 52.8450046,82.1527368 53.5760046,82.1367368" id="Fill-712" fill="#000000"></path>
            <path d="M177.445005,97.9987368 C176.711005,98.0047368 175.952005,97.2327368 175.919005,96.4457368 C175.887005,95.7157368 176.491005,95.0987368 177.202005,95.1327368 C177.951005,95.1697368 178.649005,95.9707368 178.637005,96.7787368 C178.626005,97.4807368 178.125005,97.9927368 177.445005,97.9987368" id="Fill-713" fill="#000000"></path>
            <path d="M128.173005,153.815737 C128.164005,154.596737 127.415005,155.194737 126.501005,155.149737 C125.787005,155.114737 125.249005,154.620737 125.220005,153.976737 C125.186005,153.205737 125.928005,152.551737 126.829005,152.558737 C127.635005,152.564737 128.182005,153.075737 128.173005,153.815737" id="Fill-714" fill="#000000"></path>
            <path d="M166.030005,148.607737 C166.725005,148.569737 167.282005,149.052737 167.331005,149.736737 C167.390005,150.556737 166.570005,151.506737 165.809005,151.499737 C165.161005,151.494737 164.624005,150.939737 164.603005,150.252737 C164.578005,149.419737 165.246005,148.649737 166.030005,148.607737" id="Fill-715" fill="#000000"></path>
            <path d="M175.854005,140.218737 C175.174005,140.226737 174.615005,139.705737 174.584005,139.032737 C174.547005,138.272737 175.284005,137.533737 176.132005,137.481737 C176.859005,137.436737 177.516005,138.041737 177.505005,138.748737 C177.494005,139.482737 176.677005,140.208737 175.854005,140.218737" id="Fill-716" fill="#000000"></path>
            <path d="M9.42300459,27.1787368 C10.1900046,27.1537368 10.8070046,27.7157368 10.7880046,28.4227368 C10.7680046,29.1467368 9.95400459,29.8517368 9.12800459,29.8617368 C8.41900459,29.8687368 7.90100459,29.3857368 7.87800459,28.6937368 C7.85200459,27.9067368 8.56600459,27.2067368 9.42300459,27.1787368" id="Fill-717" fill="#000000"></path>
            <path d="M179.664005,117.540737 C180.446005,117.525737 181.098005,118.177737 181.071005,118.948737 C181.045005,119.660737 180.453005,120.243737 179.734005,120.262737 C178.955005,120.281737 178.298005,119.628737 178.322005,118.858737 C178.344005,118.150737 178.950005,117.554737 179.664005,117.540737" id="Fill-718" fill="#000000"></path>
            <path d="M170.259005,146.810737 C169.503005,146.783737 168.899005,146.064737 168.972005,145.278737 C169.038005,144.565737 169.650005,144.041737 170.404005,144.053737 C171.169005,144.066737 171.722005,144.637737 171.688005,145.381737 C171.650005,146.176737 170.992005,146.835737 170.259005,146.810737" id="Fill-719" fill="#000000"></path>
            <path d="M66.5060046,61.6527368 C67.1930046,61.6307368 67.7250046,62.1287368 67.7560046,62.8247368 C67.7960046,63.6947368 67.0180046,64.5447368 66.2020046,64.5227368 C65.5210046,64.5037368 65.0230046,63.9727368 65.0240031,63.2667368 C65.0260046,62.4677368 65.7520046,61.6757368 66.5060046,61.6527368" id="Fill-720" fill="#000000"></path>
            <path d="M149.821005,126.850737 C149.849005,127.674737 149.368005,128.286737 148.665005,128.322737 C147.958005,128.357737 147.301005,127.671737 147.249005,126.845737 C147.201005,126.082737 147.731005,125.440737 148.443005,125.400737 C149.218005,125.356737 149.791005,125.959737 149.821005,126.850737" id="Fill-721" fill="#000000"></path>
            <path d="M69.2780046,88.8677368 C68.5850046,88.8567368 68.0110046,88.2127368 68.0180046,87.4547368 C68.0230046,86.7257368 68.6100046,86.1347368 69.3530046,86.1117368 C70.0910046,86.0877368 70.7190046,86.6827368 70.7160153,87.4037368 C70.7130046,88.1557368 70.0020046,88.8807368 69.2780046,88.8677368" id="Fill-722" fill="#000000"></path>
            <path d="M183.312005,107.331737 C183.318005,108.103737 182.658005,108.726737 181.871005,108.691737 C181.141005,108.658737 180.573005,108.076737 180.567005,107.355737 C180.560005,106.572737 181.209005,105.961737 182.006005,105.997737 C182.727005,106.030737 183.306005,106.621737 183.312005,107.331737" id="Fill-723" fill="#000000"></path>
            <path d="M178.294005,108.669737 C178.326005,109.387737 177.774005,110.059737 177.093005,110.132737 C176.365005,110.209737 175.614005,109.537737 175.595005,108.791737 C175.578005,108.104737 176.172005,107.489737 176.905005,107.437737 C177.630005,107.385737 178.262005,107.945737 178.294005,108.669737" id="Fill-724" fill="#000000"></path>
            <path d="M55.1180046,67.1567368 C55.1270046,67.9417368 54.3610046,68.7487368 53.6260046,68.7297368 C52.9690046,68.7117368 52.4800046,68.1927368 52.4420046,67.4747368 C52.3980046,66.6047368 53.0470046,65.9257368 53.9010046,65.9487368 C54.5930046,65.9687368 55.1100046,66.4817368 55.1180046,67.1567368" id="Fill-726" fill="#000000"></path>
            <path d="M12.8170046,33.6927368 C12.7960046,34.3827368 12.2510046,34.9407368 11.6030046,34.9327368 C10.8870046,34.9237368 10.2130046,34.1407368 10.2820046,33.3967368 C10.3430046,32.7347368 10.9510046,32.2017368 11.5950046,32.2477368 C12.2890046,32.2967368 12.8390046,32.9477368 12.8170046,33.6927368" id="Fill-727" fill="#000000"></path>
            <path d="M151.334005,107.311737 C150.689005,107.273737 150.154005,106.678737 150.159005,106.005737 C150.165005,105.197737 150.856005,104.552737 151.624005,104.639737 C152.307005,104.717737 152.741005,105.272737 152.691005,106.003737 C152.640005,106.764737 152.030005,107.352737 151.334005,107.311737" id="Fill-728" fill="#000000"></path>
            <path d="M177.530005,145.344737 C177.483005,146.095737 176.716005,146.720737 175.961005,146.622737 C175.278005,146.534737 174.817005,145.944737 174.894005,145.256737 C174.972005,144.546737 175.622005,144.025737 176.370005,144.070737 C177.076005,144.114737 177.574005,144.659737 177.530005,145.344737" id="Fill-729" fill="#000000"></path>
            <path d="M186.372005,119.911737 C185.696005,119.877737 185.151005,119.326737 185.153992,118.682737 C185.157005,117.933737 185.892005,117.308737 186.669005,117.394737 C187.330005,117.467737 187.852005,118.064737 187.812005,118.701737 C187.770005,119.369737 187.082005,119.947737 186.372005,119.911737" id="Fill-730" fill="#000000"></path>
            <path d="M130.695005,96.9267379 C130.062005,96.9257368 129.479005,96.3527368 129.457005,95.7107368 C129.432005,94.9847368 130.130005,94.2607368 130.858005,94.2567242 C131.525005,94.2537368 132.060005,94.7857368 132.076005,95.4677368 C132.093005,96.2287368 131.431005,96.9277368 130.695005,96.9267379" id="Fill-731" fill="#000000"></path>
            <path d="M182.546006,125.009737 C182.547005,125.756737 181.979005,126.383737 181.282005,126.405737 C180.544005,126.426737 180.014005,125.849737 180.043005,125.053737 C180.071005,124.262737 180.613005,123.728737 181.359005,123.757737 C182.046005,123.783737 182.546006,124.312737 182.546006,125.009737" id="Fill-732" fill="#000000"></path>
            <path d="M171.938005,101.135737 C171.891005,101.831737 171.225005,102.377737 170.471005,102.338737 C169.710005,102.298737 169.132005,101.651737 169.230005,100.947737 C169.325005,100.257737 170.013005,99.7627368 170.771005,99.8397368 C171.464005,99.9087368 171.981005,100.483737 171.938005,101.135737" id="Fill-733" fill="#000000"></path>
            <path d="M83.5880046,69.8057368 C83.6110046,70.5357368 83.0090046,71.1207368 82.2500046,71.1057368 C81.5620046,71.0907368 80.9860046,70.5837368 80.9260046,69.9387368 C80.8560046,69.1887368 81.3930046,68.6057368 82.1790046,68.5797368 C82.9680046,68.5537368 83.5650046,69.0727368 83.5880046,69.8057368" id="Fill-734" fill="#000000"></path>
            <path d="M70.3560046,81.7607368 C70.3880046,82.4417368 69.8510046,83.0187368 69.1770046,83.0267368 C68.4810046,83.0337368 67.7930046,82.4027368 67.7670046,81.7307368 C67.7420046,81.0717368 68.2910046,80.5007368 68.9680046,80.4837368 C69.6950046,80.4637368 70.3230046,81.0417368 70.3560046,81.7607368" id="Fill-735" fill="#000000"></path>
            <path d="M145.278005,93.0047368 C145.313005,93.6977368 144.845005,94.3037368 144.216005,94.3787368 C143.545005,94.4587368 142.897005,93.8707368 142.835005,93.1247368 C142.777005,92.4327368 143.238005,91.8577368 143.907005,91.7877368 C144.657005,91.7097368 145.239005,92.2267368 145.278005,93.0047368" id="Fill-736" fill="#000000"></path>
            <path d="M136.405005,90.3877368 C136.386005,91.0507368 135.788005,91.5877368 135.112005,91.5497368 C134.426005,91.5107368 133.886005,90.9167368 133.975005,90.2507368 C134.065005,89.5707368 134.483005,89.2017368 135.171005,89.1787368 C135.862005,89.1547368 136.424005,89.7167368 136.405005,90.3877368" id="Fill-737" fill="#000000"></path>
            <path d="M178.712005,133.437737 C178.086005,133.390737 177.547005,132.727737 177.633005,132.109737 C177.713005,131.527737 178.271005,131.078737 178.870005,131.116737 C179.546005,131.158737 180.032005,131.753737 179.937005,132.421737 C179.856005,132.992737 179.270005,133.479737 178.712005,133.437737" id="Fill-738" fill="#000000"></path>
            <path d="M173.354005,150.103737 C173.346005,150.798737 172.811005,151.307737 172.109005,151.284737 C171.423005,151.262737 170.923005,150.701737 170.971005,150.007737 C171.015005,149.375737 171.497005,148.916737 172.128005,148.904737 C172.828005,148.890737 173.361005,149.411737 173.354005,150.103737" id="Fill-739" fill="#000000"></path>
            <path d="M63.5620046,67.5597368 C63.5800046,68.2347368 63.0220046,68.8217368 62.3690046,68.8147368 C61.7910046,68.8077368 61.2480046,68.2887368 61.1990046,67.6957368 C61.1430046,67.0167368 61.6490046,66.4167368 62.3140046,66.3757368 C62.9770046,66.3357368 63.5440046,66.8737368 63.5620046,67.5597368" id="Fill-740" fill="#000000"></path>
        </g>
    </g>
</svg>