<?xml version="1.0" encoding="UTF-8"?>
<svg width="196px" height="279px" viewBox="0 0 196 279" version="1.1" xmlns="http://www.w3.org/2000/svg" xmlns:xlink="http://www.w3.org/1999/xlink">
    <!-- Generator: Sketch 63.1 (92452) - https://sketch.com -->
    <title>Group</title>
    <desc>Created with Sketch.</desc>
    <g id="Page-1" stroke="none" stroke-width="1" fill="none" fill-rule="evenodd">
        <g id="Group">
            <path d="M39.1113834,261.455414 C35.3013834,262.535414 31.4313834,263.695414 27.5313834,264.695414 C25.5313834,265.205414 23.4613834,265.595414 21.4113834,265.695414 C20.3213834,265.755414 19.0613834,265.295414 18.6113834,263.935414 C18.0513834,262.215414 18.8013834,260.825414 20.2513834,260.305414 C23.5913834,259.115414 27.1313834,258.465414 30.4313834,257.155414 C32.4713834,256.355414 35.2613834,256.945414 36.9613834,253.485414 C31.6113834,252.315414 26.4313834,252.645414 21.3413834,252.155414 C18.3613834,251.865414 13.3013834,252.805414 13.4013834,248.735414 C13.5213834,243.355414 18.8413834,245.765414 21.8613834,245.795414 C27.4713834,245.845414 33.1413834,246.345414 38.6613834,247.365414 C43.1913834,248.205414 44.9213834,246.675414 46.1113834,242.455414 C49.6213834,229.905414 53.5113834,217.465414 57.3213834,204.995414 C58.3513834,201.595414 59.5613834,198.245414 60.8013834,194.925414 C61.7213834,192.475414 62.5513834,189.165414 66.1313834,190.715414 C69.2113834,192.055414 67.3413834,194.745414 66.6713834,196.905414 C62.2113834,211.335414 57.6213834,225.735414 53.3213834,240.215414 C50.7913834,248.725414 48.7113834,257.375414 46.4213834,265.955414 C45.9613834,267.675414 45.5113834,269.395414 44.9813834,271.095414 C44.4113834,272.945414 43.3013834,274.465414 41.1913834,273.995414 C38.5713834,273.415414 38.4213834,271.385414 38.8813834,269.105414 C39.3413834,266.875414 40.5413834,264.675414 39.1113834,261.455414" id="Fill-131" fill="#43619E"></path>
            <path d="M85.8413834,270.005414 C80.6513834,270.095414 75.9913834,273.035414 70.8913834,274.275414 C68.5913834,274.825414 65.8813834,275.965414 64.9813834,272.705414 C64.3013834,270.255414 66.5113834,269.145414 68.5613834,268.435414 C73.3113834,266.785414 78.0613834,265.145414 82.8413834,263.555414 C84.2813834,263.075414 86.0213834,262.555414 85.8313834,260.855414 C85.5813834,258.555414 83.4513834,258.565414 81.6813834,258.665414 C77.8413834,258.885414 74.0113834,259.345414 70.1713834,259.455414 C68.3213834,259.505414 66.6413834,258.685414 66.6213834,256.405414 C66.6113834,254.575414 68.1213834,253.765414 69.5213834,253.575414 C73.3313834,253.065414 77.1713834,252.585414 81.0013834,252.615414 C85.0313834,252.655414 86.2213834,250.885414 85.7313834,247.185414 C84.8613834,240.725414 83.9113834,234.275414 83.3213834,227.785414 C82.6513834,220.415414 82.2413834,213.025414 81.9113834,205.625414 C81.8013834,203.375414 81.5513834,200.265414 84.9513834,200.345414 C87.4713834,200.405414 87.7013834,202.925414 87.9013834,205.085414 C89.9613834,227.495414 92.0713834,249.905414 94.1513834,272.305414 C94.2413834,273.185414 94.3313834,274.095414 94.2213834,274.965414 C94.0213834,276.545414 93.1613834,277.775414 91.5513834,278.085414 C89.9113834,278.405414 88.7413834,277.545414 88.0013834,276.085414 C87.0713834,274.255414 87.8313834,271.885414 85.8413834,270.005414" id="Fill-132" fill="#43619E"></path>
            <path d="M5.56138342,115.025414 C5.24138342,98.4054141 7.80138342,83.1854141 10.3213834,67.9754141 C11.7313834,59.4454141 12.3113834,50.8654141 11.2613834,42.2754141 C10.3113834,34.5654141 8.36138342,27.1954141 2.94138342,21.1254141 C-1.05861658,16.6554141 -1.10861658,15.4354141 3.59138342,11.8654141 C15.0813834,3.15541415 27.8113834,-1.46458585 42.5813834,0.415414149 C66.9713834,3.52541415 84.5513834,17.1854141 98.6913834,36.1354141 C108.321383,49.0454141 115.721383,63.2654141 121.381383,78.3054141 C125.871383,90.2254141 129.781383,102.365414 133.801383,114.455414 C135.681383,120.085414 137.611383,125.685414 140.361383,130.955414 C146.931383,143.565414 157.421383,150.305414 171.541383,151.395414 C175.371383,151.695414 179.241383,151.705414 183.091383,151.645414 C186.131383,151.595414 189.051383,152.005414 191.721383,153.375414 C195.251383,155.185414 196.211383,158.545414 193.721383,161.445414 C181.751383,175.445414 169.061383,188.435414 152.411383,197.335414 C129.121383,209.775414 104.881383,210.725414 79.8213834,205.675414 C69.3413834,203.555414 59.1613834,200.245414 49.2713834,196.275414 C33.1013834,189.795414 21.8013834,178.005414 14.4113834,162.395414 C7.15138342,147.045414 4.62138342,130.775414 5.56138342,115.025414" id="Fill-133" fill="#F2BEC9"></path>
            <path d="M70.4213834,153.135414 C66.7513834,159.925414 62.8613834,163.515414 56.6913834,161.725414 C50.4713834,159.905414 46.9213834,155.195414 45.2913834,149.155414 C44.0613834,144.545414 44.3213834,139.755414 44.6613834,135.015414 C45.2913834,126.425414 47.3413834,118.075414 49.0813834,109.675414 C49.2613834,108.815414 49.5913834,107.975414 49.8613834,107.135414 C50.4413834,105.355414 51.3713834,103.655414 53.4713834,103.965414 C55.6413834,104.295414 56.0213834,106.235414 55.7613834,108.105414 C55.4713834,110.145414 54.9013834,112.145414 54.5013834,114.175414 C52.7313834,123.175414 50.4713834,132.095414 50.5213834,141.355414 C50.5513834,146.275414 51.7213834,150.765414 55.6713834,154.075414 C58.4613834,156.415414 61.1913834,156.435414 62.9813834,152.995414 C64.8913834,149.335414 66.4413834,145.485414 68.0513834,141.675414 C69.0813834,139.225414 69.8413834,136.665414 70.9113834,134.235414 C71.6713834,132.535414 73.0013834,131.335414 75.0913834,131.705414 C77.2413834,132.095414 78.0213834,133.835414 77.9913834,135.605414 C77.9313834,139.445414 77.5113834,143.275414 77.2113834,147.115414 C76.8513834,151.635414 77.2813834,156.025414 79.7713834,159.935414 C81.0513834,161.945414 82.7013834,163.865414 85.3913834,163.725414 C88.3213834,163.565414 89.0713834,161.085414 89.8013834,158.825414 C91.9713834,152.025414 93.2513834,145.055414 93.4313834,137.905414 C93.4913834,135.805414 93.3213834,133.385414 96.2013834,133.285414 C99.3813834,133.185414 100.241383,135.815414 99.9813834,138.195414 C99.0113834,147.005414 98.2713834,155.955414 94.4813834,164.115414 C91.2313834,171.125414 84.5313834,172.385414 78.2713834,167.685414 C74.0213834,164.485414 72.3513834,159.755414 70.4213834,153.135414" id="Fill-134" fill="#E2A0B3"></path>
            <path d="M11.7613834,39.0954141 C8.37138342,31.2354141 6.95138342,24.1354141 1.20138342,19.3354141 C-0.93861658,17.5454141 0.10138342,14.9454141 2.08138342,13.1554141 C9.22138342,6.68541415 17.5813834,2.89541415 28.5413834,1.10541415 C23.5513834,14.3954141 18.1013834,26.1054141 11.7613834,39.0954141" id="Fill-135" fill="#E2A0B3"></path>
            <path d="M54.1713834,41.7154141 C54.1713834,43.5054141 54.2113834,44.0954141 54.1613834,44.6854141 C54.0213834,46.1954141 53.6513834,47.7054141 51.9213834,48.0454141 C49.7913834,48.4554141 48.7113834,47.2654141 48.3513834,45.2354141 C47.9013834,42.7254141 48.2413834,39.3354141 44.5413834,39.3454141 C41.4913834,39.3554141 38.9013834,40.9454141 37.9313834,44.2154141 C37.1413834,46.8854141 35.5213834,48.5954141 32.7913834,47.0854141 C29.7013834,45.3754141 30.5213834,42.6254141 32.0913834,40.2454141 C34.4313834,36.6854141 37.6113834,34.2254141 41.9013834,33.3154141 C49.3113834,31.7454141 54.0513834,35.4154141 54.1713834,41.7154141" id="Fill-136" fill="#E2A0B3"></path>
            <path d="M43.0513834,38.7554141 C45.9113834,38.5454141 47.3513834,39.7454141 47.4813834,42.1954141 C47.6413834,45.2154141 46.2413834,47.3654141 43.1513834,47.8154141 C40.2813834,48.2254141 38.6013834,46.4254141 38.4813834,43.7954141 C38.3313834,40.6554141 40.4613834,39.1554141 43.0513834,38.7554141" id="Fill-137" fill="#FFFFFE"></path>
        </g>
    </g>
</svg>