<?xml version="1.0" encoding="UTF-8"?>
<svg width="951px" height="651px" viewBox="0 0 951 651" version="1.1" xmlns="http://www.w3.org/2000/svg" xmlns:xlink="http://www.w3.org/1999/xlink">
    <!-- Generator: Sketch 63.1 (92452) - https://sketch.com -->
    <title>Group</title>
    <desc>Created with Sketch.</desc>
    <g id="Page-1" stroke="none" stroke-width="1" fill="none" fill-rule="evenodd">
        <g id="Group" transform="translate(0.298333, 0.815000)">
            <path d="M11.4596667,179.894 C6.97866667,149.42 7.01066667,107.496 9.55466667,88.797 C12.1296667,69.883 9.55466667,2.955 9.55466667,2.955 C9.55466667,2.955 22.4336667,2.955 35.8246667,3.439 C49.2136667,3.924 100.722667,6.349 131.627667,6.834 C162.527667,7.318 190.342667,7.804 215.066667,7.804 C239.791667,7.804 330.955667,6.834 357.740667,7.318 C370.103667,7.542 397.504667,7.146 426.363667,6.75 C460.021667,6.288 495.663667,5.827 511.746667,6.349 C541.617667,7.318 584.369667,7.318 617.334667,10.228 C650.299667,13.138 705.924667,13.138 714.680667,12.17 C723.435667,11.199 742.494667,11.199 771.853667,12.654 C785.614667,13.336 793.943667,12.419 803.631667,11.503 C814.610667,10.464 827.334667,9.426 851.687667,10.715 C897.529667,13.138 939.763667,4.41 939.763667,4.41 C940.865667,13.146 941.295667,32.421 941.299667,56.64 C941.299667,56.64 940.260667,59.586 938.433667,57.617 C936.607667,55.646 938.174667,58.847 935.303667,58.847 C932.432667,58.847 929.560667,58.109 926.951667,59.093 C924.342667,60.08 920.428667,62.541 920.428667,62.541 L938.957667,61.556 C938.957667,61.556 938.693667,63.527 939.998667,64.511 L940.523667,68.943 C940.279667,123.303 939.041667,195.043 937.705667,232.84 C935.644667,291.039 939.250667,331.291 941.310667,357.965 C943.369667,384.638 934.134667,442.039 931.560667,504.599 C928.984667,567.166 934.344667,640.193 934.344667,640.193 C919.408667,639.222 853.162667,634.111 832.043667,633.625 C810.924667,633.14 723.949667,629.56 717.254667,629.074 C710.560667,628.592 648.166667,628.717 636.836667,629.685 C625.506667,630.656 609.537667,629.201 599.236667,629.201 C588.935667,629.201 544.236667,630.015 528.271667,630.015 C512.302667,630.015 475.644667,634.222 465.344667,633.738 C455.045667,633.254 380.873667,631.799 365.424667,630.343 C349.969667,628.888 321.170667,628.592 306.748667,627.136 C292.328667,625.679 272.863667,623.166 247.111667,626.076 C230.881667,627.91 218.754667,628.207 210.180667,627.033 L204.660667,608.347 L202.191667,625.679 C180.043667,627.136 4.40466667,639.259 4.40466667,639.259 C4.40466667,639.259 3.89066667,567.966 4.40466667,526.254 C4.92266667,484.547 6.97866667,450.597 8.01266667,421.013 C9.04166667,391.43 8.01266667,373.484 6.46566667,366.695 C4.92266667,359.906 5.43566667,307.525 5.94766667,293.463 C6.46566667,279.398 6.97866667,260.484 6.97866667,260.484 C9.52766667,239.838 16.1196667,212.058 11.7486667,181.855 C11.7486667,181.855 28.7646667,184.834 31.5496667,184.506 L11.4596667,179.894" id="Fill-1" fill="#E6D4B6"></path>
            <path d="M832.043667,633.625 C810.924667,633.14 723.949667,629.56 717.254667,629.074 C710.560667,628.592 648.166667,628.717 636.836667,629.685 C625.506667,630.656 609.537667,629.201 599.236667,629.201 C588.935667,629.201 544.236667,630.015 528.271667,630.015 C512.303667,630.015 475.644667,634.222 465.344667,633.738 C455.045667,633.254 380.873667,631.799 365.424667,630.344 C349.969667,628.888 321.170667,628.592 306.748667,627.136 C292.328667,625.679 272.863667,623.166 247.111667,626.076 C230.881667,627.91 218.754667,628.207 210.180667,627.033 L204.660667,608.347 L202.191667,625.679 C180.043667,627.136 4.40466667,639.26 4.40466667,639.26 C4.40466667,639.26 3.89066667,567.967 4.40466667,526.254 C4.92266667,484.547 6.97866667,450.597 8.01266667,421.013 C9.04166667,391.429 8.01266667,373.484 6.46566667,366.695 C4.92266667,359.906 5.43566667,307.525 5.94766667,293.463 C6.46566667,279.398 6.97866667,260.484 6.97866667,260.484 C9.52766667,239.838 16.1196667,212.058 11.7486667,181.855 C11.7486667,181.855 28.7636667,184.834 31.5496667,184.506 L11.4596667,179.894 C6.97866667,149.42 7.01066667,107.496 9.55466667,88.797 C12.1296667,69.883 9.55466667,2.955 9.55466667,2.955 C9.55466667,2.955 22.4336667,2.955 35.8246667,3.439 C49.2136667,3.924 100.722667,6.349 131.627667,6.834 C162.527667,7.318 190.342667,7.804 215.066667,7.804 C239.791667,7.804 330.955667,6.834 357.740667,7.318 C384.521667,7.804 481.873667,5.379 511.746667,6.349 C541.617667,7.318 584.369667,7.318 617.334667,10.228 C650.299667,13.138 705.924667,13.138 714.680667,12.17 C723.435667,11.199 742.494667,11.199 771.853667,12.654 C801.211667,14.109 805.847667,8.289 851.687667,10.715 C897.529667,13.138 939.764667,4.41 939.764667,4.41 C940.865667,13.146 941.295667,32.422 941.299667,56.64 C941.299667,56.64 940.260667,59.586 938.433667,57.617 C936.607667,55.646 938.174667,58.847 935.303667,58.847 C932.431667,58.847 929.560667,58.109 926.951667,59.093 C924.342667,60.08 920.428667,62.541 920.428667,62.541 L938.957667,61.556 C938.957667,61.556 938.693667,63.527 939.998667,64.511 L940.523667,68.943 C940.279667,123.303 939.041667,195.043 937.705667,232.84 C935.644667,291.039 939.250667,331.291 941.310667,357.965 C943.369667,384.638 934.135667,442.039 931.560667,504.599 C928.984667,567.166 934.344667,640.193 934.344667,640.193 C919.408667,639.222 853.162667,634.111 832.043667,633.625 Z M941.826667,508.703 C944.435667,445.178 951.744667,387.562 949.656667,360.476 C947.568667,333.39 943.914667,292.519 946.002667,233.424 C948.090667,174.328 951.744667,30.531 948.090667,1.476 C948.090667,1.476 905.289667,10.342 858.840667,7.879 C812.383667,5.416 807.685667,11.326 777.935667,9.849 C748.183667,8.371 728.869667,8.371 719.998667,9.357 C711.125667,10.342 654.754667,10.342 621.351667,7.386 C587.945667,4.431 544.623667,4.431 514.351667,3.447 C484.078667,2.463 385.430667,4.924 358.287667,4.431 C331.146667,3.939 238.764667,4.924 213.709667,4.924 C188.656667,4.924 160.471667,4.431 129.152667,3.939 C97.8386667,3.447 45.6426667,0.984 32.0726667,0.492 C18.5026667,0 5.45366667,0 5.45366667,0 C5.45366667,0 8.05866667,67.959 5.45366667,87.164 C2.84466667,106.369 2.84466667,149.705 7.54166667,180.73 C12.2366667,211.756 5.45366667,240.318 2.84466667,261.494 C2.84466667,261.494 2.32066667,280.701 1.79766667,294.982 C1.27766667,309.261 0.754666667,362.445 2.32066667,369.34 C3.88766667,376.234 4.93066667,394.455 3.88766667,424.496 C2.84466667,454.535 0.754666667,489.008 0.230666667,531.355 C-0.288333333,573.711 0.230666667,646.101 0.230666667,646.101 C0.230666667,646.101 178.217667,633.791 200.660667,632.312 C200.660667,632.312 222.580667,637.238 248.678667,634.283 C274.775667,631.328 292.000667,632.312 306.615667,633.791 C321.230667,635.267 349.937667,637.73 365.594667,639.207 C381.254667,640.685 456.414667,642.162 466.855667,642.656 C477.293667,643.146 509.652667,638.222 525.834667,638.222 C542.015667,638.222 592.121667,638.715 602.560667,638.715 C612.998667,638.715 629.180667,640.193 640.662667,639.207 C652.144667,638.222 715.824667,635.267 722.609667,635.76 C729.394667,636.254 820.215667,641.67 841.613667,642.162 C863.012667,642.656 928.777667,648.564 943.914667,649.549 C943.914667,649.549 939.217667,572.234 941.826667,508.703 L941.826667,508.703 Z" id="Fill-2" fill="#AF917E"></path>
            <path d="M17.9786667,26.099 C17.9786667,26.099 15.8906667,22.16 13.2796667,24.131 C10.6706667,26.099 13.6296667,37.754 15.0196667,56.468 C16.4126667,75.181 16.7616667,100.133 16.0626667,121.472 C15.3696667,142.812 16.4126667,154.959 50.5136667,168.42 C84.6136667,181.881 90.1816667,182.865 108.971667,180.894 C127.762667,178.926 134.373667,185.82 140.635667,192.715 C146.898667,199.609 162.906667,218.322 173.693667,213.398 C184.478667,208.474 186.912667,182.83 170.213667,153.646 C148.988667,116.547 120.525667,91.299 78.3516667,78.465 C35.2016667,65.332 24.0686667,45.963 17.9786667,26.099" id="Fill-3" fill="#E4D0AC"></path>
            <path d="M214.869667,118.99 C214.730667,118.912 214.597667,118.834 214.463667,118.756 C207.724667,114.871 199.146667,108.744 190.744667,111.295 C181.002667,114.25 184.129667,134.603 194.572667,158.242 C205.011667,181.879 228.670667,228.172 227.279667,247.213 C225.886667,266.256 204.660667,257.39 198.049667,254.435 C191.439667,251.48 183.090667,250.168 187.261667,270.523 C191.439667,290.877 194.222667,304.008 212.664667,323.707 C231.107667,343.404 251.289667,370.652 263.465667,393.963 C275.646667,417.273 302.092667,439.597 333.060667,448.789 C348.088667,453.25 357.708667,452.608 365.539667,451.966 C373.845667,451.286 380.138667,450.605 388.734667,456.013 C405.439667,466.517 419.010667,479.978 429.101667,475.711 C439.191667,471.443 443.365667,452.4 436.060667,430.734 C428.754667,409.066 415.529667,364.416 384.560667,326.662 C353.590667,288.908 321.230667,256.406 301.744667,217.338 C286.519667,186.814 270.127667,153.748 240.730667,132.976 C232.736667,127.326 223.381667,123.838 214.869667,118.99" id="Fill-4" fill="#E4D0AC"></path>
            <path d="M623.959667,262.97 C621.941667,277.996 615.306667,314.65 600.648667,340.449 C577.334667,381.488 552.976667,423.51 587.424667,462.25 C587.424667,462.25 585.340667,454.699 584.642667,441.238 C583.945667,427.777 576.634667,401.844 590.555667,386.74 C603.246667,372.97 632.312667,358.506 623.959667,262.97" id="Fill-5" fill="#E4D0AC"></path>
            <path d="M655.974667,190.414 C655.974667,190.414 644.142667,198.295 644.488667,210.443 C644.840667,222.59 657.365667,234.408 662.582667,259.031 C667.803667,283.654 669.195667,298.756 665.715667,311.23 C662.236667,323.705 656.670667,333.554 649.361667,343.404 C642.054667,353.254 639.967667,358.178 638.228667,365.728 C636.484667,373.281 626.746667,377.877 623.959667,382.472 C623.959667,382.472 640.312667,370.98 656.670667,359.82 C673.023667,348.658 701.904667,328.631 697.728667,293.832 C693.555667,259.031 679.635667,212.412 695.988667,175.312 C712.343667,138.215 706.428667,131.976 708.515667,134.603 C710.603667,137.23 712.691667,133.947 710.603667,125.41 C708.515667,116.875 705.383667,110.965 702.601667,116.875 C699.816667,122.785 697.381667,139.527 689.029667,143.797 C680.678667,148.064 661.886667,156.928 661.541667,164.808 C661.193667,172.687 662.933667,184.506 655.974667,190.414" id="Fill-6" fill="#E4D0AC"></path>
            <path d="M762.449667,24.295 C762.449667,24.295 734.961667,32.172 733.918667,48.26 C732.873667,64.347 762.799667,85.357 763.144667,105.713 C763.494667,126.066 749.924667,129.021 736.006667,135.916 C722.086667,142.81 723.478667,153.646 722.783667,170.06 C722.086667,186.474 719.303667,209.129 736.006667,216.351 C752.709667,223.574 770.453667,225.217 787.502667,213.398 C804.555667,201.578 814.994667,189.101 858.140667,187.789 C901.289667,186.474 922.514667,181.222 925.299667,150.033 C928.082667,118.845 898.853667,92.582 875.537667,104.072 C852.226667,115.562 851.877667,125.082 835.176667,115.562 C818.470667,106.041 827.170667,66.972 854.312667,60.406 C881.453667,53.84 924.603667,51.214 931.215667,33.486 C937.824667,15.758 916.250667,3.281 896.763667,16.086 C877.277667,28.89 856.400667,27.576 827.519667,24.293 C798.638667,21.011 783.330667,19.371 762.449667,24.295" id="Fill-7" fill="#E4D0AC"></path>
            <path d="M693.900667,36.111 C693.900667,36.111 671.631667,43.336 664.670667,58.109 C657.711667,72.883 633.006667,87 625.701667,96.847 C618.392667,106.697 615.957667,114.248 614.215667,130.664 C612.478667,147.078 611.086667,158.898 598.558667,169.076 C586.033667,179.252 573.506667,185.162 575.941667,196.982 C575.941667,196.982 567.592667,184.506 575.246667,173.672 C582.900667,162.838 586.728667,159.554 588.816667,130.992 C590.904667,102.429 600.994667,92.908 615.609667,87.656 C630.222667,82.404 637.879667,70.256 652.494667,54.498 C667.107667,38.74 678.242667,33.486 693.900667,36.111" id="Fill-8" fill="#E4D0AC"></path>
            <path d="M923.211667,338.48 C923.211667,338.48 930.865667,338.15 930.170667,347.343 C929.471667,356.537 913.467667,373.281 892.590667,388.381 C871.711667,403.482 857.445667,415.631 863.012667,437.627 C868.580667,459.623 865.795667,463.234 845.613667,475.711 C825.431667,488.187 808.728667,501.318 790.285667,515.762 C771.846667,530.207 759.316667,533.16 742.617667,534.474 C725.914667,535.789 703.295667,532.504 698.078667,547.939 C692.855667,563.369 699.119667,578.8 736.006667,587.008 C772.891667,595.215 813.256667,601.453 846.656667,589.305 C880.062667,577.158 907.551667,582.41 915.205667,590.291 C915.205667,590.291 901.984667,576.83 911.381667,555.49 C920.773667,534.146 920.428667,516.746 916.250667,494.752 C912.074667,472.756 918.687667,459.951 921.818667,444.849 C924.949667,429.748 938.256667,359.113 933.998667,344.388 C931.910667,337.166 923.211667,338.48 923.211667,338.48" id="Fill-9" fill="#E4D0AC"></path>
            <path d="M100.965667,404.797 C100.965667,404.797 78.5256667,392.486 60.7756667,391.994 C43.0316667,391.502 67.0436667,410.707 73.3066667,417.109 C79.5686667,423.51 86.8776667,434.838 84.7896667,449.611 C82.7016667,464.385 78.0026667,486.053 94.7056667,497.871 C104.030667,504.469 102.943667,500.783 101.888667,497.096 C101.054667,494.18 100.241667,491.263 104.621667,493.439 C114.537667,498.363 144.810667,512.642 152.642667,522.492 C160.471667,532.342 152.119667,548.103 193.877667,563.863 C235.629667,579.621 275.297667,583.56 249.201667,565.832 C223.103667,548.103 209.531667,531.847 209.531667,511.166 C209.531667,490.484 211.701667,462.066 177.693667,449.611 C133.330667,433.359 124.978667,420.064 100.965667,404.797" id="Fill-10" fill="#E4D0AC"></path>
            <path d="M23.1956667,492.455 C23.1956667,492.455 21.6296667,487.529 17.9786667,492.947 C14.3266667,498.363 9.10366667,512.642 10.1466667,529.879 C11.1916667,547.115 17.4576667,558.937 13.2796667,581.097 C9.10366667,603.258 6.49266667,612.123 6.49266667,632.312 C6.49266667,632.312 24.2426667,637.238 52.4286667,626.404 C80.6136667,615.57 90.3126667,619.138 117.562667,620.308 C144.810667,621.478 167.254667,612.615 160.992667,612.615 C154.728667,612.615 119.236667,619.51 104.621667,610.646 C90.0086667,601.781 57.1256667,571.248 43.0316667,558.445 C28.9396667,545.636 21.1096667,512.642 22.1526667,501.81 C23.1956667,490.976 28.4186667,511.658 23.1956667,492.455" id="Fill-11" fill="#E4D0AC"></path>
            <path d="M124.592667,24.173 C124.514667,15.154 124.457667,9.361 124.457667,9.361 L125.500667,9.351 C125.500667,9.351 125.560667,15.144 125.635667,24.166 L124.592667,24.173 M124.660667,33.047 L124.638667,30.09 L125.685667,30.082 L125.707667,33.041 L124.660667,33.047 M124.851667,62.619 C124.826667,57.586 124.797667,52.609 124.769667,47.836 L125.810667,47.83 C125.844667,52.603 125.869667,57.582 125.896667,62.615 L124.851667,62.619 M124.887667,71.496 L124.877667,68.535 L125.922667,68.529 L125.930667,71.484 L124.887667,71.496 M125.941667,101.062 L124.896667,101.058 C124.912667,97.23 124.922667,93.137 124.922667,88.879 L124.918667,86.301 L125.963667,86.281 L125.441667,86.281 L125.963667,86.299 L125.963667,88.879 C125.963667,93.137 125.957667,97.234 125.941667,101.062 M125.881667,109.929 L124.838667,109.922 L124.863667,106.967 L125.906667,106.974 L125.881667,109.929 M124.718667,139.473 L123.676667,139.42 C123.766667,137.764 123.846667,136.193 123.926667,134.697 C124.107667,131.258 124.261667,128.285 124.457667,125.543 C124.474667,125.281 124.492667,124.992 124.510667,124.677 L125.555667,124.728 C125.537667,125.048 125.519667,125.341 125.496667,125.609 C125.306667,128.344 125.146667,131.31 124.971667,134.746 C124.892667,136.242 124.810667,137.814 124.718667,139.473 M124.179667,148.322 L123.135667,148.26 C123.205667,147.252 123.269667,146.269 123.330667,145.314 L124.369667,145.373 C124.310667,146.33 124.244667,147.312 124.179667,148.322 M121.439667,177.761 L120.398667,177.654 C120.988667,172.654 121.508667,167.713 121.953667,162.97 L122.992667,163.056 C122.547667,167.806 122.025667,172.754 121.439667,177.761 M120.353667,186.57 L119.314667,186.451 C119.445667,185.459 119.568667,184.482 119.691667,183.519 L120.728667,183.634 C120.607667,184.599 120.478667,185.578 120.353667,186.57 M116.062667,215.844 L115.029667,215.699 L115.590667,212.175 C116.201667,208.32 116.765667,204.627 117.289667,201.088 L118.320667,201.224 C117.797667,204.765 117.234667,208.463 116.621667,212.322 L116.062667,215.844 M114.691667,224.607 L113.658667,224.467 L114.111667,221.543 L115.144667,221.685 L114.691667,224.607 M110.685667,253.873 L109.642667,253.775 C110.103667,249.461 110.701667,244.66 111.484667,239.097 L112.519667,239.224 C111.740667,244.777 111.139667,249.568 110.685667,253.873 M109.898667,262.683 L108.859667,262.617 C108.926667,261.644 109.002667,260.662 109.086667,259.668 L110.127667,259.746 C110.045667,260.734 109.969667,261.715 109.898667,262.683 M108.838667,292.193 C108.510667,286.802 108.351667,281.965 108.342667,277.404 L109.387667,277.402 C109.394667,281.945 109.554667,286.765 109.879667,292.136 L108.838667,292.193 M109.465667,301.045 C109.387667,300.043 109.308667,299.058 109.236667,298.093 L110.277667,298.025 C110.349667,298.988 110.426667,299.97 110.508667,300.969 L109.465667,301.045 M112.346667,330.521 C111.746667,324.943 111.225667,319.982 110.803667,315.783 L111.844667,315.691 C112.262667,319.889 112.785667,324.847 113.387667,330.422 L112.346667,330.521 M113.310667,339.355 L112.988667,336.412 L114.027667,336.312 L114.346667,339.254 L113.310667,339.355 M116.578667,368.791 L114.939667,354.074 L115.976667,353.972 L117.615667,368.685 L116.578667,368.791 M117.560667,377.615 L117.236667,374.674 L118.271667,374.57 L118.597667,377.511 L117.560667,377.615 M120.810667,407.045 C120.269667,402.093 119.728667,397.177 119.195667,392.33 L120.230667,392.228 C120.765667,397.076 121.308667,401.992 121.846667,406.945 L120.810667,407.045 M121.764667,415.857 L121.445667,412.918 L122.484667,412.818 L122.803667,415.758 L121.764667,415.857 M124.875667,445.303 C124.375667,440.431 123.861667,435.513 123.338667,430.578 L124.379667,430.48 C124.898667,435.418 125.412667,440.336 125.912667,445.207 L124.875667,445.303 M125.771667,454.133 L125.475667,451.189 L126.514667,451.095 L126.810667,454.041 L125.771667,454.133 M128.592667,483.599 C128.164667,478.838 127.705667,473.91 127.222667,468.863 L128.260667,468.775 C128.746667,473.824 129.205667,478.754 129.629667,483.517 L128.592667,483.599 M129.359667,492.443 L129.109667,489.496 L130.152667,489.416 L130.404667,492.365 L129.359667,492.443 M131.445667,521.957 C131.230667,517.668 130.924667,512.701 130.525667,507.191 L131.568667,507.125 C131.965667,512.64 132.277667,517.615 132.488667,521.91 L131.445667,521.957 M131.771667,530.816 L131.763667,530.382 C131.746667,529.574 131.719667,528.734 131.693667,527.867 L132.736667,527.836 C132.764667,528.707 132.789667,529.549 132.808667,530.361 L132.814667,530.793 L131.771667,530.816 M132.877667,560.359 L131.832667,560.334 C131.935667,556.67 131.988667,552.578 131.988667,548.172 L131.984667,545.58 L133.027667,545.574 L133.031667,548.172 C133.031667,552.588 132.978667,556.687 132.877667,560.359 M132.482667,569.226 L131.441667,569.168 C131.502667,568.219 131.554667,567.24 131.603667,566.226 L132.646667,566.273 C132.597667,567.289 132.543667,568.273 132.482667,569.226 M126.701667,598.259 L125.726667,597.91 C127.658667,593.117 128.875667,588.894 129.795667,583.787 L130.824667,583.951 C129.892667,589.125 128.658667,593.404 126.701667,598.259 M123.295667,606.517 L122.314667,606.172 C122.678667,605.259 123.055667,604.338 123.435667,603.404 L124.410667,603.761 C124.029667,604.689 123.658667,605.607 123.295667,606.517 M116.629667,630.412 C116.523667,629.683 116.465667,628.888 116.465667,628.045 C116.465667,625.861 116.826667,623.332 117.562667,620.308 L118.580667,620.531 C117.861667,623.478 117.510667,625.937 117.510667,628.045 C117.510667,628.842 117.562667,629.592 117.664667,630.273 L116.629667,630.412" id="Fill-12" fill="#DAAB80"></path>
            <path d="M254.584667,22.171 C254.517667,20.584 254.478667,18.957 254.478667,17.336 C254.478667,11.463 254.939667,7.373 254.943667,7.334 L255.982667,7.439 C255.978667,7.478 255.523667,11.519 255.523667,17.336 C255.523667,18.943 255.560667,20.556 255.629667,22.131 L254.584667,22.171 L254.584667,22.171 Z M255.367667,31.047 C255.230667,30.055 255.115667,29.068 255.014667,28.095 L256.052667,28 C256.152667,28.963 256.269667,29.937 256.404667,30.92 L255.367667,31.047 L255.367667,31.047 Z M261.482667,59.988 C260.881667,55.119 259.970667,50.388 258.699667,45.525 L259.713667,45.289 C260.994667,50.193 261.912667,54.965 262.521667,59.875 L261.482667,59.988 L261.482667,59.988 Z M262.236667,68.789 C262.187667,67.808 262.129667,66.83 262.058667,65.849 L263.101667,65.783 C263.172667,66.769 263.230667,67.756 263.279667,68.742 L262.236667,68.789 L262.236667,68.789 Z M263.006667,98.336 L261.963667,98.322 C262.049667,92.183 262.144667,87.722 262.248667,84.685 L262.289667,83.519 L263.332667,83.549 L263.293667,84.718 C263.185667,87.75 263.092667,92.203 263.006667,98.336 L263.006667,98.336 Z M262.898667,107.209 L261.857667,107.199 L261.888667,104.24 L262.933667,104.25 L262.898667,107.209 L262.898667,107.209 Z M262.611667,136.797 L261.566667,136.785 C261.621667,132.103 261.668667,127.066 261.713667,121.994 L262.758667,122.002 C262.711667,127.076 262.664667,132.113 262.611667,136.797 L262.611667,136.797 Z M262.492667,145.674 L261.447667,145.66 L261.492667,142.701 L262.537667,142.715 L262.492667,145.674 L262.492667,145.674 Z M260.953667,175.287 L259.912667,175.217 C260.412667,168.609 260.762667,163.777 260.973667,160.441 L262.014667,160.5 C261.803667,163.84 261.457667,168.678 260.953667,175.287 L260.953667,175.287 Z M260.269667,184.15 L259.226667,184.078 L259.457667,181.127 L260.496667,181.199 L260.269667,184.15 L260.269667,184.15 Z M257.953667,213.674 L256.912667,213.601 C257.302667,208.586 257.691667,203.627 258.068667,198.842 L259.111667,198.916 C258.730667,203.701 258.342667,208.658 257.953667,213.674 L257.953667,213.674 Z M257.265667,222.529 L256.224667,222.459 L256.453667,219.5 L257.492667,219.572 L257.265667,222.529 L257.265667,222.529 Z M255.084667,252.056 L254.041667,251.992 C254.369667,247.281 254.726667,242.316 255.107667,237.223 L256.146667,237.291 C255.769667,242.383 255.410667,247.347 255.084667,252.056 L255.084667,252.056 Z M254.488667,260.918 L253.447667,260.859 L253.640667,257.904 L254.681667,257.965 L254.488667,260.918 L254.488667,260.918 Z M253.369667,290.472 L252.328667,290.472 L252.332667,284.64 C252.332667,282.508 252.422667,279.486 252.601667,275.656 L253.642667,275.699 C253.465667,279.515 253.377667,282.523 253.377667,284.64 L253.369667,290.472 L253.369667,290.472 Z M252.320667,299.336 L253.363667,299.336 L253.363667,296.383 L252.320667,296.383 L252.320667,299.336 Z M252.482667,328.91 C252.426667,323.693 252.386667,318.74 252.359667,314.125 L253.404667,314.119 C253.429667,318.732 253.469667,323.685 253.527667,328.9 L252.482667,328.91 L252.482667,328.91 Z M252.603667,337.783 L252.560667,334.826 L253.603667,334.812 L253.646667,337.769 L252.603667,337.783 L252.603667,337.783 Z M253.277667,367.349 C253.123667,362.342 252.992667,357.4 252.881667,352.566 L253.926667,352.545 C254.037667,357.377 254.164667,362.316 254.322667,367.32 L253.277667,367.349 L253.277667,367.349 Z M253.576667,376.207 L253.471667,373.26 L254.514667,373.226 L254.619667,376.172 L253.576667,376.207 L253.576667,376.207 Z M254.978667,405.752 C254.695667,401.019 254.433667,396.051 254.191667,390.982 L255.236667,390.939 C255.474667,396.002 255.740667,400.968 256.023667,405.697 L254.978667,405.752 L254.978667,405.752 Z M255.549667,414.609 L255.353667,411.658 L256.394667,411.597 L256.594667,414.547 L255.549667,414.609 L255.549667,414.609 Z M258.137667,444.078 L257.555667,438.33 C257.254667,435.394 256.971667,432.4 256.703667,429.359 L257.744667,429.279 C258.010667,432.312 258.293667,435.302 258.594667,438.236 L259.176667,443.984 L258.137667,444.078 L258.137667,444.078 Z M259.011667,452.892 L258.722667,449.953 L259.761667,449.861 L260.049667,452.803 L259.011667,452.892 L259.011667,452.892 Z M261.734667,482.285 L261.709667,482.006 C261.346667,477.91 260.926667,473.189 260.408667,467.588 L261.447667,467.502 C261.965667,473.103 262.387667,477.826 262.748667,481.924 L262.775667,482.201 L261.734667,482.285 L261.734667,482.285 Z M262.527667,491.103 L262.260667,488.164 L263.297667,488.082 L263.568667,491.015 L262.527667,491.103 L262.527667,491.103 Z M266.674667,520.351 C266.592667,519.945 266.510667,519.539 266.433667,519.133 C265.430667,513.92 264.726667,509.802 264.164667,505.775 L265.195667,505.646 C265.761667,509.656 266.459667,513.762 267.461667,518.957 C267.537667,519.359 267.615667,519.763 267.699667,520.168 L266.674667,520.351 L266.674667,520.351 Z M268.556667,529.041 L267.908667,526.15 L268.930667,525.949 L269.576667,528.834 L268.556667,529.041 L268.556667,529.041 Z M273.933667,558.078 C273.345667,553.257 272.601667,548.49 271.650667,543.5 L272.677667,543.326 C273.633667,548.336 274.381667,553.125 274.969667,557.967 L273.933667,558.078 L273.933667,558.078 Z M274.814667,566.881 C274.736667,565.882 274.650667,564.904 274.560667,563.941 L275.601667,563.855 C275.691667,564.822 275.775667,565.804 275.857667,566.805 L274.814667,566.881 L274.814667,566.881 Z M276.535667,596.375 L275.490667,596.347 C275.568667,593.408 275.611667,590.488 275.611667,587.668 C275.611667,585.584 275.588667,583.562 275.547667,581.601 L276.590667,581.582 C276.633667,583.549 276.654667,585.578 276.654667,587.668 C276.654667,590.496 276.611667,593.424 276.535667,596.375 L276.535667,596.375 Z M276.185667,605.242 L275.144667,605.195 C275.195667,604.203 275.240667,603.219 275.279667,602.248 L276.324667,602.287 C276.283667,603.262 276.236667,604.246 276.185667,605.242 L276.185667,605.242 Z M274.773667,624.476 L273.734667,624.39 C273.877667,622.877 274.010667,621.388 274.135667,619.922 L275.176667,620 C275.049667,621.469 274.916667,622.961 274.773667,624.476 L274.773667,624.476 Z" id="Fill-13" fill="#DAAB80"></path>
            <path d="M389.820667,21.873 L388.775667,21.855 C388.943667,12.865 389.082667,7.047 389.082667,7.047 L390.127667,7.068 C390.127667,7.068 389.988667,12.884 389.820667,21.873 M389.660667,30.744 L388.617667,30.726 L388.668667,27.769 L389.711667,27.787 L389.660667,30.744 M389.281667,60.31 L388.236667,60.303 C388.277667,55.289 388.334667,50.308 388.396667,45.517 L389.439667,45.529 C389.377667,50.318 389.322667,55.298 389.281667,60.31 M389.222667,69.181 L388.177667,69.177 L388.195667,66.218 L389.236667,66.224 L389.222667,69.181 M388.324667,98.746 C388.240667,94.486 388.187667,89.513 388.166667,83.963 L389.209667,83.959 C389.230667,89.504 389.283667,94.472 389.369667,98.726 L388.324667,98.746 M388.584667,107.619 C388.545667,106.676 388.508667,105.689 388.476667,104.66 L389.517667,104.631 C389.553667,105.656 389.588667,106.64 389.625667,107.58 L388.584667,107.619 M392.054667,137.035 L391.537667,133.525 C390.941667,129.488 390.390667,125.742 389.933667,122.383 L390.971667,122.258 C391.426667,125.615 391.976667,129.355 392.572667,133.39 L393.086667,136.9 L392.054667,137.035 M393.316667,145.82 L392.904667,142.89 L393.935667,142.76 L394.351667,145.691 L393.316667,145.82 M396.629667,175.181 C396.275667,170.558 395.808667,165.75 395.201667,160.482 L396.240667,160.375 C396.847667,165.656 397.312667,170.476 397.666667,175.111 L396.629667,175.181 M397.166667,184.025 C397.125667,183.043 397.072667,182.058 397.019667,181.072 L398.060667,181.021 C398.117667,182.009 398.166667,182.998 398.211667,183.984 L397.166667,184.025 M397.139667,213.57 L396.107667,213.435 C396.760667,209.01 397.166667,204.074 397.320667,198.767 L398.365667,198.795 C398.211667,204.138 397.799667,209.111 397.139667,213.57 M395.728667,222.34 L394.697667,222.183 C394.861667,221.236 395.025667,220.265 395.187667,219.269 L396.219667,219.42 C396.054667,220.418 395.892667,221.39 395.728667,222.34 M390.769667,251.461 L389.732667,251.353 C390.269667,246.742 391.017667,242.339 392.050667,236.726 L393.082667,236.896 C392.049667,242.488 391.302667,246.875 390.769667,251.461 M390.060667,260.258 L389.017667,260.217 C389.060667,259.211 389.117667,258.226 389.181667,257.256 L390.226667,257.32 C390.160667,258.281 390.103667,259.259 390.060667,260.258 M390.441667,289.771 C389.826667,284.322 389.406667,279.498 389.158667,275.025 L390.201667,274.972 C390.449667,279.428 390.865667,284.234 391.480667,289.668 L390.441667,289.771 M391.424667,298.576 L391.101667,295.642 L392.139667,295.541 L392.463667,298.476 L391.424667,298.576 M394.197667,327.963 C393.855667,323.345 393.445667,318.537 392.939667,313.261 L393.978667,313.174 C394.484667,318.455 394.896667,323.269 395.240667,327.894 L394.197667,327.963 M394.781667,336.795 C394.726667,335.812 394.666667,334.832 394.603667,333.849 L395.644667,333.791 C395.709667,334.775 395.767667,335.758 395.824667,336.742 L394.781667,336.795 M395.883667,366.275 C395.746667,360.511 395.613667,355.824 395.461667,351.527 L396.502667,351.494 C396.656667,355.797 396.789667,360.486 396.928667,366.254 L395.883667,366.275 M396.078667,375.131 L396.017667,372.177 L397.060667,372.156 L397.121667,375.113 L396.078667,375.131 M396.361667,404.681 C396.334667,401.98 396.320667,399.178 396.303667,396.291 L396.260667,389.904 L397.303667,389.896 L397.348667,396.285 C397.361667,399.174 397.379667,401.973 397.404667,404.674 L396.361667,404.681 M396.484667,413.552 C396.467667,412.582 396.445667,411.597 396.431667,410.594 L397.476667,410.578 C397.490667,411.58 397.508667,412.564 397.529667,413.529 L396.484667,413.552 M400.754667,442.81 C400.595667,442.519 400.435667,442.236 400.281667,441.965 C398.777667,439.33 397.799667,435.002 397.195667,428.346 L398.236667,428.262 C398.816667,434.689 399.785667,439.017 401.201667,441.498 C401.357667,441.775 401.519667,442.06 401.683667,442.359 L400.754667,442.81 M404.494667,450.867 C404.117667,449.906 403.742667,448.994 403.365667,448.133 L404.330667,447.758 C404.711667,448.631 405.096667,449.552 405.474667,450.527 L404.494667,450.867 M410.642667,479.599 C410.264667,474.535 409.590667,469.629 408.631667,465.017 L409.658667,464.832 C410.621667,469.478 411.303667,474.426 411.683667,479.529 L410.642667,479.599 M411.006667,488.423 C410.994667,487.426 410.976667,486.445 410.945667,485.48 L411.992667,485.453 C412.019667,486.424 412.041667,487.41 412.049667,488.416 L411.006667,488.423 M410.490667,517.953 L409.449667,517.892 C409.644667,514.992 409.838667,512.183 410.023667,509.472 L410.457667,503.146 L411.498667,503.209 L411.064667,509.537 C410.879667,512.246 410.685667,515.054 410.490667,517.953 M409.912667,526.802 L408.869667,526.744 L409.058667,523.793 L410.101667,523.853 L409.912667,526.802 M408.390667,556.308 L407.347667,556.273 C407.525667,551.541 407.746667,546.568 408.011667,541.5 L409.054667,541.549 C408.789667,546.611 408.568667,551.58 408.390667,556.308 M408.103667,565.164 L407.060667,565.138 L407.144667,562.183 L408.187667,562.213 L408.103667,565.164 M406.859667,594.705 C406.808667,591.484 406.781667,588.183 406.781667,584.894 C406.781667,583.232 406.789667,581.574 406.803667,579.922 L407.844667,579.929 C407.834667,581.578 407.826667,583.234 407.826667,584.894 C407.826667,588.179 407.853667,591.474 407.900667,594.691 L406.859667,594.705 M407.060667,603.574 C407.029667,602.588 407.002667,601.601 406.978667,600.617 L408.023667,600.594 C408.049667,601.576 408.074667,602.56 408.103667,603.545 L407.060667,603.574 M408.572667,630.218 C408.242667,626.361 407.959667,622.369 407.718667,618.346 L408.763667,618.293 C408.998667,622.306 409.285667,626.291 409.613667,630.138 L408.572667,630.218" id="Fill-14" fill="#DAAB80"></path>
            <path d="M529.086667,20.742 C525.791667,12.328 522.803667,7.351 522.771667,7.302 L523.680667,6.814 C523.709667,6.863 526.736667,11.902 530.064667,20.402 L529.086667,20.742 Z M532.045667,29.127 C531.740667,28.16 531.433667,27.222 531.125667,26.312 L532.117667,26.011 C532.428667,26.927 532.740667,27.873 533.049667,28.845 L532.045667,29.127 Z M537.711667,58.029 C537.334667,53.197 536.656667,48.287 535.701667,43.437 L536.728667,43.258 C537.687667,48.144 538.369667,53.09 538.754667,57.957 L537.711667,58.029 Z M538.092667,66.853 C538.086667,65.863 538.064667,64.883 538.037667,63.91 L539.082667,63.881 C539.109667,64.861 539.127667,65.849 539.135667,66.847 L538.092667,66.853 Z M537.012667,96.347 L535.978667,96.224 C536.639667,91.287 537.135667,86.492 537.494667,81.566 L538.533667,81.635 C538.174667,86.578 537.676667,91.39 537.012667,96.347 Z M535.711667,105.127 L534.676667,104.98 C534.834667,104.019 534.984667,103.049 535.135667,102.064 L536.170667,102.205 C536.019667,103.191 535.861667,104.166 535.711667,105.127 Z M531.453667,134.324 L530.414667,134.242 C530.830667,129.603 531.400667,125.076 532.264667,119.562 L533.295667,119.705 C532.435667,125.199 531.865667,129.709 531.453667,134.324 Z M530.861667,143.14 L529.820667,143.099 C529.865667,142.094 529.914667,141.109 529.971667,140.144 L531.015667,140.199 C530.957667,141.16 530.904667,142.138 530.861667,143.14 Z M530.096667,172.689 C529.896667,167.226 529.754667,162.246 529.670667,157.892 L530.715667,157.873 C530.799667,162.224 530.941667,167.197 531.139667,172.656 L530.096667,172.689 Z M530.449667,181.56 L530.326667,178.605 L531.369667,178.566 L531.494667,181.521 L530.449667,181.56 Z M531.914667,211.125 C531.642667,206.195 531.379667,201.238 531.139667,196.342 L532.180667,196.297 C532.424667,201.189 532.685667,206.146 532.953667,211.074 L531.914667,211.125 Z M532.410667,219.988 L532.242667,217.035 L533.281667,216.982 L533.449667,219.935 L532.410667,219.988 Z M534.185667,249.531 C533.896667,244.918 533.592667,239.949 533.277667,234.76 L534.320667,234.705 C534.631667,239.892 534.939667,244.859 535.226667,249.472 L534.185667,249.531 Z M534.742667,258.394 L534.555667,255.441 L535.596667,255.383 L535.781667,258.336 L534.742667,258.394 Z M536.144667,287.926 C536.096667,282.959 536.025667,279.488 535.924667,277.605 C535.865667,276.508 535.777667,275.01 535.666667,273.17 L536.709667,273.113 C536.820667,274.957 536.910667,276.455 536.967667,277.556 C537.068667,279.451 537.142667,282.937 537.187667,287.918 L536.144667,287.926 Z M536.195667,296.789 L536.185667,293.834 L537.228667,293.83 L537.236667,296.787 L536.195667,296.789 Z M537.139667,326.361 L536.096667,326.353 C536.131667,321.26 536.162667,316.285 536.180667,311.568 L537.222667,311.572 C537.205667,316.289 537.178667,321.265 537.139667,326.361 Z M537.060667,335.232 L536.019667,335.222 L536.049667,332.271 L537.090667,332.279 L537.060667,335.232 Z M536.662667,364.806 L535.617667,364.789 C535.701667,360.037 535.781667,355.064 535.847667,350.006 L536.892667,350.019 C536.824667,355.078 536.746667,360.053 536.662667,364.806 Z M536.484667,373.681 L535.441667,373.66 L535.502667,370.703 L536.549667,370.722 L536.484667,373.681 Z M535.355667,403.258 L534.312667,403.205 C534.383667,402 534.457667,400.822 534.533667,399.676 C534.711667,397.092 534.883667,393.31 535.045667,388.441 L536.086667,388.472 C535.924667,393.351 535.754667,397.144 535.576667,399.74 C535.498667,400.883 535.424667,402.056 535.355667,403.258 Z M534.980667,412.103 L533.939667,412.078 C533.967667,411.08 533.998667,410.092 534.033667,409.119 L535.078667,409.154 C535.043667,410.125 535.010667,411.107 534.980667,412.103 Z M534.697667,441.656 C534.295667,436.914 534.029667,431.939 533.904667,426.875 L534.949667,426.851 C535.068667,431.898 535.340667,436.853 535.736667,441.578 L534.697667,441.656 Z M535.635667,450.494 C535.508667,449.515 535.390667,448.535 535.281667,447.553 L536.316667,447.449 C536.428667,448.424 536.549667,449.402 536.670667,450.377 L535.635667,450.494 Z M542.049667,479.457 C541.631667,478.033 541.219667,476.668 540.816667,475.355 C539.826667,472.125 538.928667,468.681 538.144667,465.119 L539.166667,464.92 C539.941667,468.457 540.840667,471.875 541.820667,475.082 C542.224667,476.398 542.635667,477.767 543.051667,479.193 L542.049667,479.457 Z M544.408667,488.017 C544.156667,487.043 543.904667,486.09 543.648667,485.158 L544.662667,484.914 C544.914667,485.849 545.166667,486.806 545.424667,487.785 L544.408667,488.017 Z M550.351667,516.961 C549.578667,512.011 548.697667,507.119 547.740667,502.422 L548.764667,502.238 C549.728667,506.947 550.609667,511.853 551.383667,516.818 L550.351667,516.961 Z M551.607667,525.732 C551.476667,524.744 551.344667,523.767 551.211667,522.804 L552.246667,522.678 C552.379667,523.644 552.512667,524.621 552.642667,525.611 L551.607667,525.732 Z M554.344667,555.127 C554.049667,550.121 553.670667,545.166 553.232667,540.404 L554.271667,540.318 C554.711667,545.09 555.086667,550.056 555.383667,555.07 L554.344667,555.127 Z M554.789667,563.97 C554.746667,562.978 554.701667,561.996 554.658667,561.021 L555.701667,560.976 C555.746667,561.953 555.789667,562.937 555.830667,563.931 L554.789667,563.97 Z M556.289667,593.492 L555.242667,593.484 C555.260667,591.564 555.269667,589.668 555.269667,587.799 C555.269667,584.705 555.246667,581.679 555.201667,578.722 L556.246667,578.709 C556.289667,581.67 556.312667,584.699 556.312667,587.799 C556.312667,589.672 556.303667,591.568 556.289667,593.492 Z M556.148667,602.359 L555.107667,602.34 C555.127667,601.349 555.148667,600.365 555.166667,599.388 L556.207667,599.406 C556.191667,600.383 556.170667,601.369 556.148667,602.359 Z M555.060667,629.551 L554.019667,629.496 C554.260667,625.345 554.465667,621.176 554.635667,617.099 L555.680667,617.136 C555.508667,621.217 555.299667,625.394 555.060667,629.551 L555.060667,629.551 Z" id="Fill-15" fill="#DAAB80"></path>
            <path d="M674.480667,30.795 L673.435667,30.779 L673.484667,27.816 L674.529667,27.832 L674.480667,30.795 M674.144667,51.537 L673.099667,51.521 L673.340667,36.709 L674.383667,36.722 L674.144667,51.537 M673.861667,69.301 L672.816667,69.287 L672.861667,66.328 L673.906667,66.343 L673.861667,69.301 M673.533667,90.027 L672.488667,90.013 L672.722667,75.209 L673.767667,75.224 L673.533667,90.027 M673.259667,107.783 L672.217667,107.769 L672.262667,104.81 L673.306667,104.824 L673.259667,107.783 M672.953667,128.519 L671.910667,128.506 C671.974667,123.963 672.049667,118.973 672.127667,113.695 L673.170667,113.709 C673.092667,118.986 673.017667,123.976 672.953667,128.519 M672.722667,146.314 L671.678667,146.303 L671.711667,143.336 L672.754667,143.346 L672.722667,146.314 M672.480667,167.093 L671.439667,167.078 C671.568667,158.881 671.629667,154.172 671.631667,152.258 L672.675667,152.258 C672.670667,154.176 672.611667,158.89 672.480667,167.093 M672.191667,184.857 L671.148667,184.843 L671.197667,181.885 L672.240667,181.9 L672.191667,184.857 M671.847667,205.574 L670.803667,205.56 L671.049667,190.763 L672.092667,190.779 L671.847667,205.574 M671.560667,223.326 L670.517667,223.31 L670.564667,220.353 L671.607667,220.369 L671.560667,223.326 M671.242667,244.035 L670.197667,244.021 C670.271667,239.07 670.347667,234.119 670.426667,229.228 L671.467667,229.244 C671.390667,234.135 671.314667,239.084 671.242667,244.035 M670.988667,261.791 L669.943667,261.777 L669.984667,258.82 L671.027667,258.834 L670.988667,261.791 M670.728667,282.5 L669.685667,282.49 C669.736667,277.697 669.799667,272.744 669.865667,267.693 L670.908667,267.707 C670.844667,272.756 670.783667,277.709 670.728667,282.5 M670.555667,300.252 L669.514667,300.244 L669.537667,297.287 L670.582667,297.295 L670.555667,300.252 M669.435667,320.968 L669.431667,318.375 C669.431667,314.697 669.445667,310.599 669.470667,306.166 L670.517667,306.172 C670.488667,310.603 670.476667,314.699 670.476667,318.375 L670.478667,320.967 L669.435667,320.968 M669.758667,338.722 C669.715667,337.689 669.679667,336.699 669.648667,335.759 L670.693667,335.728 C670.722667,336.668 670.762667,337.654 670.801667,338.685 L669.758667,338.722 M670.777667,359.435 C670.478667,354.052 670.218667,349.072 670.012667,344.646 L671.055667,344.601 C671.261667,349.027 671.519667,354.004 671.820667,359.384 L670.777667,359.435 M671.812667,377.168 L671.634667,374.215 L672.675667,374.16 L672.855667,377.111 L671.812667,377.168 M673.097667,397.847 C672.781667,392.849 672.471667,387.902 672.174667,383.076 L673.215667,383.019 C673.512667,387.845 673.820667,392.791 674.138667,397.789 L673.097667,397.847 M674.228667,415.566 L674.041667,412.615 L675.082667,412.556 L675.271667,415.508 L674.228667,415.566 M675.560667,436.226 L674.609667,421.459 L675.652667,421.4 L676.601667,436.168 L675.560667,436.226 M676.683667,453.949 L676.498667,450.996 L677.537667,450.937 L677.724667,453.89 L676.683667,453.949 M677.916667,474.64 C677.674667,470.258 677.379667,465.277 677.049667,459.859 L678.090667,459.802 C678.424667,465.222 678.715667,470.205 678.959667,474.588 L677.916667,474.64 M678.701667,492.385 C678.666667,491.392 678.631667,490.406 678.601667,489.428 L679.644667,489.398 C679.676667,490.377 679.709667,491.359 679.746667,492.349 L678.701667,492.385 M679.953667,513.06 C679.545667,508.23 679.215667,503.263 678.961667,498.295 L680.002667,498.25 C680.254667,503.205 680.586667,508.162 680.994667,512.98 L679.953667,513.06 M681.861667,530.724 C681.732667,529.754 681.603667,528.773 681.480667,527.787 L682.517667,527.672 C682.639667,528.656 682.767667,529.632 682.896667,530.601 L681.861667,530.724 M685.590667,551.16 C684.545667,546.967 683.578667,542.066 682.715667,536.59 L683.750667,536.447 C684.607667,541.894 685.568667,546.769 686.603667,550.935 L685.590667,551.16 M689.011667,568.496 C688.918667,567.486 688.816667,566.508 688.705667,565.564 L689.744667,565.457 C689.855667,566.408 689.957667,567.392 690.050667,568.41 L689.011667,568.496 M690.050667,589.131 C689.939667,583.654 689.742667,578.691 689.467667,574.381 L690.508667,574.32 C690.785667,578.646 690.980667,583.623 691.095667,589.111 L690.050667,589.131 M691.193667,606.861 L690.148667,606.853 L690.166667,603.9 L691.211667,603.904 L691.193667,606.861 M690.769667,627.57 L689.726667,627.535 C689.728667,627.474 689.953667,621.365 690.082667,612.763 L691.127667,612.777 C690.998667,621.39 690.771667,627.508 690.769667,627.57" id="Fill-16" fill="#DAAB80"></path>
            <path d="M812.498667,25.131 L811.453667,25.129 C811.484667,15.98 811.512667,10.34 811.512667,10.34 L812.555667,10.343 C812.555667,10.343 812.527667,15.984 812.498667,25.131 M812.476667,34.002 L811.431667,33.998 L811.439667,31.043 L812.482667,31.045 L812.476667,34.002 M811.402667,63.562 L811.400667,58.787 L811.408667,48.779 L812.449667,48.779 L812.445667,58.787 L812.445667,63.56 L811.402667,63.562 M811.410667,72.433 L811.408667,69.476 L812.449667,69.476 L812.453667,72.431 L811.410667,72.433 M811.517667,102.004 C811.488667,97.117 811.465667,92.162 811.449667,87.217 L812.490667,87.215 C812.508667,92.158 812.531667,97.111 812.560667,101.998 L811.517667,102.004 M811.576667,110.877 L811.554667,107.92 L812.597667,107.914 L812.617667,110.869 L811.576667,110.877 M811.945667,140.453 C811.855667,135.886 811.781667,130.914 811.718667,125.666 L812.763667,125.654 C812.826667,130.9 812.900667,135.869 812.988667,140.435 L811.945667,140.453 M812.148667,149.328 L812.072667,146.369 L813.117667,146.347 L813.193667,149.303 L812.148667,149.328 M813.988667,178.861 C813.676667,173.972 813.312667,169.426 812.906667,165.345 C812.873667,164.976 812.836667,164.572 812.799667,164.135 L813.842667,164.06 C813.877667,164.492 813.912667,164.89 813.947667,165.254 C814.353667,169.344 814.719667,173.902 815.029667,178.802 L813.988667,178.861 M814.478667,187.707 C814.431667,186.709 814.383667,185.726 814.330667,184.758 L815.373667,184.709 C815.424667,185.68 815.474667,186.664 815.519667,187.664 L814.478667,187.707 M816.117667,217.234 L815.072667,217.228 C815.082667,216.041 815.086667,214.861 815.086667,213.689 C815.086667,209.994 815.049667,206.218 814.970667,202.465 L816.015667,202.445 C816.090667,206.207 816.131667,209.988 816.131667,213.689 C816.131667,214.863 816.125667,216.045 816.117667,217.234 M815.980667,226.101 L814.939667,226.078 C814.965667,225.091 814.984667,224.109 815.002667,223.129 L816.045667,223.144 C816.029667,224.127 816.006667,225.113 815.980667,226.101 M814.295667,255.636 L813.256667,255.549 C813.701667,250.844 814.072667,245.89 814.355667,240.828 L815.396667,240.879 C815.113667,245.955 814.744667,250.92 814.295667,255.636 M813.342667,264.47 L812.303667,264.359 C812.424667,263.383 812.537667,262.404 812.648667,261.423 L813.687667,261.529 C813.576667,262.513 813.461667,263.494 813.342667,264.47 M808.529667,293.705 L807.502667,293.531 C808.564667,287.99 809.433667,283.23 810.152667,278.972 L811.183667,279.129 C810.465667,283.392 809.596667,288.16 808.529667,293.705 M806.820667,302.425 L805.793667,302.244 L806.369667,299.34 L807.394667,299.519 L806.820667,302.425 M801.066667,331.474 L800.037667,331.3 C800.971667,326.414 801.932667,321.56 802.886667,316.769 L803.914667,316.951 C802.957667,321.74 801.998667,326.592 801.066667,331.474 M799.443667,340.201 L798.412667,340.035 C798.586667,339.064 798.765667,338.092 798.945667,337.121 L799.970667,337.291 C799.793667,338.26 799.617667,339.23 799.443667,340.201 M794.906667,369.423 L793.869667,369.312 C794.435667,364.666 795.109667,359.867 795.931667,354.644 L796.965667,354.789 C796.144667,360.002 795.471667,364.787 794.906667,369.423 M793.953667,378.234 L792.912667,378.144 C793.006667,377.166 793.101667,376.183 793.205667,375.197 L794.242667,375.295 C794.142667,376.275 794.045667,377.256 793.953667,378.234 M792.068667,407.73 L792.027667,406.955 C791.904667,404.447 791.842667,401.82 791.842667,399.148 C791.842667,397.117 791.879667,395.023 791.945667,392.922 L792.992667,392.953 C792.924667,395.043 792.887667,397.127 792.883667,399.148 C792.883667,401.806 792.947667,404.416 793.068667,406.908 L793.109667,407.683 L792.068667,407.73 M792.724667,416.591 C792.631667,415.621 792.543667,414.638 792.465667,413.642 L793.502667,413.566 C793.582667,414.556 793.670667,415.537 793.764667,416.502 L792.724667,416.591 M797.715667,445.791 C796.494667,440.808 795.502667,436.06 794.681667,431.275 L795.711667,431.117 C796.529667,435.881 797.515667,440.609 798.732667,445.57 L797.715667,445.791 M799.988667,454.406 C799.722667,453.467 799.461667,452.513 799.201667,451.543 L800.211667,451.301 C800.471667,452.267 800.732667,453.219 800.996667,454.154 L799.988667,454.406 M807.459667,483.006 C806.728667,478.144 805.424667,473.234 804.117667,468.652 L805.121667,468.396 C806.439667,473.01 807.756667,477.955 808.492667,482.867 L807.459667,483.006 M808.109667,491.779 C808.090667,490.812 808.064667,489.892 808.033667,489.025 L808.025667,488.83 L809.068667,488.801 L809.074667,488.986 C809.107667,489.865 809.131667,490.787 809.152667,491.759 L808.109667,491.779 M808.234667,521.324 C808.205667,516.814 808.205667,512.488 808.205667,508.441 L808.205667,506.543 L809.250667,506.543 L809.250667,508.441 C809.250667,512.486 809.250667,516.81 809.277667,521.318 L808.234667,521.324 M808.330667,530.197 L808.289667,527.24 L809.332667,527.226 L809.373667,530.183 L808.330667,530.197 M809.560667,559.761 C809.215667,555.205 808.933667,550.232 808.722667,544.98 L809.767667,544.943 C809.974667,550.185 810.256667,555.144 810.603667,559.689 L809.560667,559.761 M810.365667,568.611 C810.264667,567.635 810.162667,566.652 810.068667,565.664 L811.109667,565.576 C811.201667,566.56 811.303667,567.539 811.404667,568.512 L810.365667,568.611 M815.320667,597.818 C814.595667,594.045 813.799667,589.978 812.912667,585.623 C812.758667,584.853 812.603667,584.076 812.461667,583.289 L813.488667,583.119 C813.633667,583.9 813.783667,584.673 813.939667,585.439 C814.820667,589.797 815.621667,593.867 816.348667,597.642 L815.320667,597.818 M816.953667,606.545 L816.418667,603.635 L817.445667,603.464 L817.980667,606.377 L816.953667,606.545 M821.260667,632.865 C821.256667,632.824 820.736667,628.781 819.482667,621.115 L820.515667,620.965 C821.771667,628.65 822.289667,632.709 822.295667,632.748 L821.260667,632.865" id="Fill-17" fill="#DAAB80"></path>
            <path d="M115.748667,504.004 L115.398667,503.078 C116.258667,502.787 117.156667,502.531 118.062667,502.318 C120.191667,501.816 122.639667,501.564 125.332667,501.564 L125.359667,501.564 C127.111667,501.564 129.045667,501.672 131.094667,501.885 L130.978667,502.863 C128.965667,502.654 127.076667,502.547 125.359667,502.547 L125.342667,502.547 C122.724667,502.547 120.359667,502.791 118.320667,503.273 C117.441667,503.48 116.578667,503.726 115.748667,504.004 Z M149.324667,506.344 C148.312667,506.101 147.297667,505.863 146.289667,505.631 L146.535667,504.674 C147.547667,504.906 148.562667,505.146 149.580667,505.39 L149.324667,506.344 Z M550.853667,506.789 C549.826667,506.76 548.795667,506.752 547.746667,506.767 L547.732667,505.781 C548.795667,505.767 549.844667,505.775 550.887667,505.806 L550.853667,506.789 Z M107.676667,508.172 L107.062667,507.375 C107.994667,506.736 108.853667,506.189 109.687667,505.701 L110.236667,506.539 C109.426667,507.013 108.590667,507.549 107.676667,508.172 Z M572.303667,510.176 C565.941667,508.648 561.232667,507.746 557.041667,507.252 L557.170667,506.275 C561.410667,506.773 566.156667,507.683 572.560667,509.222 L572.303667,510.176 Z M170.695667,511.113 C165.912667,510.345 160.728667,509.115 155.392667,507.816 L155.652667,506.863 C160.965667,508.156 166.129667,509.379 170.875667,510.14 L170.695667,511.113 Z M517.795667,513.494 L517.355667,512.601 C521.939667,510.597 526.851667,508.547 532.090667,507.424 L532.320667,508.383 C527.180667,509.484 522.328667,511.513 517.795667,513.494 Z M189.174667,514.133 C188.129667,513.939 187.111667,513.758 186.103667,513.584 L186.295667,512.615 C187.306667,512.791 188.328667,512.972 189.373667,513.164 L189.174667,514.133 Z M590.465667,514.748 C589.467667,514.531 588.449667,514.293 587.408667,514.031 L587.676667,513.078 C588.709667,513.338 589.715667,513.574 590.697667,513.789 L590.465667,514.748 Z M627.984667,515.594 L627.941667,514.609 C628.974667,514.57 630.019667,514.545 631.090667,514.535 L631.096667,515.519 C630.041667,515.527 629.002667,515.554 627.984667,515.594 Z M608.127667,516.664 L608.068667,516.664 C604.156667,516.664 600.424667,516.402 596.652667,515.865 L596.808667,514.892 C600.525667,515.422 604.207667,515.679 608.068667,515.679 C609.424667,515.719 610.810667,515.648 612.320667,515.586 L612.365667,516.57 C610.861667,516.633 609.474667,516.664 608.127667,516.664 Z M509.264667,517.215 L508.840667,516.316 C509.808667,515.908 510.754667,515.502 511.680667,515.097 L512.121667,515.992 C511.187667,516.398 510.236667,516.806 509.264667,517.215 Z M28.9596667,518.031 L28.9046667,517.049 C29.9356667,516.996 30.9846667,516.955 32.0456667,516.922 L32.0766667,517.906 C31.0256667,517.939 29.9846667,517.98 28.9596667,518.031 Z M53.9636667,518.094 C49.0926667,517.947 43.8946667,517.81 38.8796667,517.81 L38.3266667,517.81 L38.3206667,516.826 L38.8796667,516.824 C43.9086667,516.824 49.1156667,516.961 53.9966667,517.109 L53.9636667,518.094 Z M652.510667,518.412 C649.633667,517.472 646.847667,516.801 644.232667,516.414 C641.900667,516.07 639.635667,515.832 637.316667,515.683 L637.387667,514.701 C639.736667,514.849 642.029667,515.092 644.394667,515.441 C647.068667,515.834 649.914667,516.521 652.853667,517.482 L652.510667,518.412 Z M79.0316667,518.566 L79.0196667,517.582 C81.0436667,517.554 82.9746667,517.494 84.7586667,517.406 C88.2446667,517.232 91.3306667,516.603 94.1956667,515.484 L94.5966667,516.394 C91.6156667,517.556 88.4186667,518.209 84.8146667,518.388 C83.0176667,518.478 81.0726667,518.537 79.0316667,518.566 Z M72.7586667,518.576 C71.7226667,518.566 70.6766667,518.551 69.6236667,518.533 L69.6426667,517.547 C70.6936667,517.566 71.7366667,517.58 72.7696667,517.592 L72.7586667,518.576 Z M210.508667,518.66 C204.482667,517.263 199.650667,516.201 195.289667,515.316 L195.508667,514.353 C199.879667,515.24 204.724667,516.304 210.754667,517.703 L210.508667,518.66 Z M228.764667,522.883 C227.728667,522.679 226.705667,522.467 225.691667,522.244 L225.926667,521.283 C226.933667,521.504 227.947667,521.717 228.976667,521.918 L228.764667,522.883 Z M4.34266667,523.562 L3.77366667,522.736 C6.32066667,521.17 9.43566667,519.959 13.3086667,519.031 L13.5626667,519.986 C9.85966667,520.873 6.75866667,522.076 4.34266667,523.562 Z M479.260667,525.734 L479.096667,524.76 C484.404667,523.97 489.369667,522.908 494.271667,521.508 L494.576667,522.449 C489.627667,523.863 484.617667,524.937 479.260667,525.734 Z M250.510667,525.869 C244.976667,525.375 239.736667,524.738 234.941667,523.976 L235.111667,523.006 C239.881667,523.761 245.097667,524.396 250.607667,524.888 L250.510667,525.869 Z M669.340667,526.043 C668.439667,525.547 667.533667,525.058 666.623667,524.58 L667.135667,523.72 C668.049667,524.203 668.959667,524.693 669.865667,525.191 L669.340667,526.043 Z M469.904667,526.801 L469.812667,525.818 C470.869667,525.734 471.904667,525.638 472.918667,525.533 L473.033667,526.511 C472.012667,526.617 470.967667,526.715 469.904667,526.801 Z M269.297667,526.976 C268.271667,526.943 267.226667,526.906 266.164667,526.865 L266.207667,525.879 C267.269667,525.922 268.310667,525.959 269.332667,525.992 L269.297667,526.976 Z M281.713667,527.172 C279.814667,527.172 277.758667,527.158 275.574667,527.123 L275.592667,526.138 C282.486667,526.248 288.191667,526.146 291.230667,526.066 L291.260667,527.051 C289.174667,527.105 285.826667,527.172 281.713667,527.172 Z M310.062667,527.187 L306.926667,527.136 L306.943667,526.152 L310.080667,526.203 L310.062667,527.187 Z M332.010667,527.513 C326.285667,527.435 321.006667,527.359 316.332667,527.289 L316.353667,526.303 C321.021667,526.375 326.301667,526.451 332.025667,526.529 L332.010667,527.513 Z M350.818667,527.744 L347.685667,527.711 L347.697667,526.724 L350.830667,526.76 L350.818667,527.744 Z M438.568667,527.9 L438.551667,526.916 C444.375667,526.834 449.644667,526.724 454.201667,526.586 L454.236667,527.572 C449.670667,527.707 444.396667,527.82 438.568667,527.9 Z M372.762667,527.951 C367.451667,527.91 362.201667,527.863 357.088667,527.812 L357.101667,526.826 C362.211667,526.877 367.461667,526.924 372.769667,526.965 L372.762667,527.951 Z M429.166667,528.008 L429.158667,527.021 L432.289667,526.992 L432.299667,527.976 L429.166667,528.008 Z M391.572667,528.06 L388.451667,528.047 L388.441667,527.062 L391.576667,527.076 L391.572667,528.06 Z M406.928667,528.092 C403.924667,528.092 400.887667,528.088 397.830667,528.082 L397.834667,527.097 C403.135667,527.109 408.379667,527.111 413.502667,527.101 L413.502667,528.086 C411.330667,528.092 409.139667,528.092 406.928667,528.092 Z M687.992667,536.924 C685.488667,535.51 682.916667,533.974 680.187667,532.347 C678.392667,531.275 676.558667,530.181 674.693667,529.09 L675.242667,528.254 C677.111667,529.345 678.949667,530.441 680.748667,531.515 C683.467667,533.138 686.037667,534.672 688.527667,536.08 L687.992667,536.924 Z M914.758667,538.765 L914.670667,537.783 C924.289667,537.013 930.230667,536.453 930.289667,536.447 L930.394667,537.428 C930.334667,537.433 924.387667,537.994 914.758667,538.765 Z M905.381667,539.492 L905.299667,538.51 L908.424667,538.273 L908.508667,539.254 L905.381667,539.492 Z M742.869667,539.72 L742.765667,538.74 C743.824667,538.642 744.869667,538.558 745.904667,538.498 L745.971667,539.48 C744.949667,539.541 743.914667,539.623 742.869667,539.72 Z M767.701667,540.851 L766.215667,540.683 C761.002667,540.095 756.502667,539.588 752.176667,539.4 L752.222667,538.418 C756.586667,538.605 761.103667,539.115 766.340667,539.707 L767.826667,539.875 L767.701667,540.851 Z M874.109667,541.562 L874.045667,540.58 C879.162667,540.287 884.424667,539.961 889.676667,539.611 L889.750667,540.595 C884.492667,540.943 879.228667,541.269 874.109667,541.562 Z M864.719667,542.072 L864.662667,541.09 L867.789667,540.926 L867.849667,541.908 L864.719667,542.072 Z M786.410667,542.613 C785.340667,542.539 784.299667,542.461 783.285667,542.381 L783.373667,541.4 C784.383667,541.478 785.418667,541.556 786.484667,541.629 L786.410667,542.613 Z M833.396667,543.328 L833.367667,542.344 C838.418667,542.205 843.685667,542.025 849.017667,541.808 L849.060667,542.795 C843.724667,543.01 838.453667,543.189 833.396667,543.328 Z M808.328667,543.515 C802.918667,543.431 797.648667,543.256 792.666667,542.992 L792.724667,542.01 C797.693667,542.271 802.949667,542.447 808.344667,542.529 L808.328667,543.515 Z M823.998667,543.521 L823.984667,542.537 C825.012667,542.523 826.051667,542.506 827.113667,542.486 L827.131667,543.472 C826.072667,543.492 825.027667,543.508 823.998667,543.521 Z M705.480667,543.566 C704.771667,543.508 704.072667,543.431 703.390667,543.334 C703.037667,543.285 702.680667,543.222 702.316667,543.15 L702.535667,542.185 C702.877667,542.256 703.215667,542.314 703.545667,542.361 C704.207667,542.455 704.883667,542.529 705.568667,542.584 L705.480667,543.566 Z M711.808667,543.654 L711.762667,542.67 C716.711667,542.459 722.121667,541.672 727.236667,540.883 L727.408667,541.853 C722.260667,542.646 716.814667,543.439 711.808667,543.654 L711.808667,543.654 Z" id="Fill-18" fill="#DAAB80"></path>
            <path d="M110.394667,396.289 L110.375667,395.304 C111.412667,395.287 112.461667,395.277 113.514667,395.275 L113.518667,396.26 C112.465667,396.262 111.427667,396.271 110.394667,396.289 M88.5686667,397.576 L88.4636667,396.595 C94.0926667,396.06 99.2076667,395.697 104.103667,395.488 L104.146667,396.473 C99.2756667,396.681 94.1786667,397.041 88.5686667,397.576 M144.642667,398.392 C139.443667,397.67 134.219667,397.127 129.121667,396.775 L129.195667,395.791 C134.320667,396.146 139.568667,396.693 144.795667,397.418 L144.642667,398.392 M69.9246667,399.656 L69.7936667,398.679 L72.8986667,398.306 L73.0296667,399.285 L69.9246667,399.656 M153.887667,399.857 C152.853667,399.676 151.826667,399.498 150.810667,399.33 L150.992667,398.361 C152.012667,398.529 153.041667,398.705 154.076667,398.89 L153.887667,399.857 M515.404667,401.078 L515.396667,400.093 L518.529667,400.082 L518.533667,401.066 L515.404667,401.078 M596.820667,401.295 L596.789667,400.31 L599.918667,400.217 L599.949667,401.201 L596.820667,401.295 M549.830667,401.455 C544.117667,401.324 538.998667,401.228 534.180667,401.164 L534.195667,400.179 C539.015667,400.244 544.139667,400.34 549.853667,400.47 L549.830667,401.455 M493.519667,401.547 L493.476667,400.56 C498.596667,400.365 503.715667,400.232 509.131667,400.156 L509.148667,401.14 C503.744667,401.216 498.631667,401.349 493.519667,401.547 M631.162667,401.56 C626.392667,401.101 621.465667,400.886 615.656667,400.886 L615.582667,399.902 L615.656667,399.902 C621.502667,399.902 626.465667,400.117 631.267667,400.58 L631.162667,401.56 M559.226667,401.65 C558.197667,401.635 557.152667,401.617 556.092667,401.596 L556.113667,400.609 C557.174667,400.631 558.215667,400.648 559.242667,400.666 L559.226667,401.65 M574.894667,401.724 L574.887667,400.74 C579.886667,400.709 584.859667,400.627 590.529667,400.482 L590.558667,401.467 C584.879667,401.611 579.900667,401.693 574.894667,401.724 M48.1386667,402.131 L48.0236667,401.152 C53.5376667,400.562 58.7716667,399.978 63.5786667,399.416 L63.7096667,400.394 C58.8966667,400.955 53.6586667,401.541 48.1386667,402.131 M474.791667,402.554 L474.715667,401.574 C475.761667,401.5 476.802667,401.431 477.840667,401.365 L477.912667,402.347 C476.875667,402.414 475.840667,402.484 474.791667,402.554 M640.424667,402.779 C639.381667,402.605 638.355667,402.447 637.344667,402.301 L637.502667,401.328 C638.519667,401.474 639.555667,401.635 640.603667,401.808 L640.424667,402.779 M29.4416667,404.051 L29.3326667,403.072 L32.4476667,402.763 L32.5606667,403.742 L29.4416667,404.051 M452.988667,404.402 L452.879667,403.424 C458.369667,402.883 463.467667,402.431 468.470667,402.037 L468.558667,403.017 C463.562667,403.412 458.471667,403.865 452.988667,404.402 M184.547667,405.734 C180.248667,404.967 175.513667,404.074 169.201667,402.836 L169.412667,401.873 C175.722667,403.107 180.447667,404 184.742667,404.765 L184.547667,405.734 M7.58666667,406.111 L7.49066667,405.129 C7.49066667,405.129 13.7056667,404.584 23.0976667,403.68 L23.2056667,404.66 C13.8036667,405.564 7.58666667,406.111 7.58666667,406.111 M434.334667,406.394 L434.207667,405.418 L437.316667,405.066 L437.441667,406.045 L434.334667,406.394 M193.802667,407.291 C192.773667,407.129 191.744667,406.963 190.709667,406.793 L190.887667,405.822 C191.922667,405.992 192.947667,406.158 193.974667,406.32 L193.802667,407.291 M671.170667,408.404 C666.033667,407.806 660.971667,406.996 655.697667,405.922 L655.916667,404.959 C661.160667,406.025 666.191667,406.832 671.299667,407.427 L671.170667,408.404 M412.599667,408.994 L412.467667,408.017 L414.592667,407.756 C419.260667,407.18 423.719667,406.638 427.994667,406.138 L428.121667,407.115 C423.847667,407.617 419.394667,408.156 414.728667,408.734 L412.599667,408.994 M680.549667,409.248 C679.516667,409.181 678.474667,409.105 677.418667,409.021 L677.506667,408.039 C678.555667,408.125 679.594667,408.199 680.617667,408.265 L680.549667,409.248 M697.912667,409.717 L696.228667,409.715 L696.232667,408.728 L697.912667,408.73 C699.562667,408.73 701.201667,408.724 702.840667,408.718 C705.851667,408.707 708.853667,408.697 711.892667,408.724 L711.883667,409.709 C708.845667,409.681 705.851667,409.691 702.842667,409.703 C701.205667,409.709 699.564667,409.717 697.912667,409.717 M721.250667,409.963 C720.201667,409.908 719.162667,409.869 718.131667,409.836 L718.166667,408.851 C719.205667,408.885 720.250667,408.927 721.303667,408.978 L721.250667,409.963 M224.898667,410.761 C219.447667,410.394 214.346667,409.943 209.306667,409.382 L209.428667,408.404 C214.453667,408.963 219.537667,409.414 224.974667,409.779 L224.898667,410.761 M393.914667,410.972 L393.812667,409.992 C394.842667,409.898 395.879667,409.802 396.928667,409.703 L397.033667,410.681 C395.980667,410.783 394.941667,410.879 393.914667,410.972 M234.277667,411.289 C233.219667,411.24 232.179667,411.187 231.152667,411.133 L231.209667,410.15 C232.230667,410.205 233.275667,410.256 234.330667,410.304 L234.277667,411.289 M265.576667,412.004 C259.894667,411.974 254.773667,411.908 249.926667,411.804 L249.947667,410.82 C254.791667,410.924 259.906667,410.99 265.580667,411.019 L265.576667,412.004 M274.970667,412.023 L271.840667,412.021 L271.840667,411.037 L274.972667,411.039 L274.970667,412.023 M306.269667,412.425 C301.271667,412.318 296.080667,412.221 290.619667,412.146 L290.635667,411.162 C296.098667,411.234 301.291667,411.334 306.291667,411.441 L306.269667,412.425 M372.033667,412.496 L371.980667,411.513 C377.181667,411.263 382.285667,410.937 387.582667,410.519 L387.668667,411.502 C382.361667,411.92 377.248667,412.246 372.033667,412.496 M315.656667,412.636 L312.525667,412.564 L312.553667,411.58 L315.681667,411.65 L315.656667,412.636 M353.240667,413.051 L353.226667,412.066 C354.266667,412.052 355.307667,412.037 356.353667,412.019 L356.371667,413.006 C355.322667,413.023 354.281667,413.039 353.240667,413.051 M345.892667,413.093 C341.478667,413.091 336.711667,413.049 331.314667,412.959 L331.332667,411.974 C336.725667,412.064 341.486667,412.107 345.892667,412.107 L346.976667,412.107 L346.976667,413.091 L345.892667,413.093 M919.090667,413.715 L918.967667,412.738 C920.033667,412.619 921.074667,412.507 922.086667,412.406 L922.197667,413.384 C921.187667,413.486 920.152667,413.597 919.090667,413.715 M897.377667,416.509 L897.228667,415.533 L899.439667,415.238 C904.185667,414.598 908.631667,413.998 912.744667,413.48 L912.883667,414.457 C908.769667,414.974 904.330667,415.572 899.586667,416.211 L897.377667,416.509 M751.025667,417.785 C747.666667,416.748 744.879667,415.697 742.183667,414.683 C740.197667,413.933 738.320667,413.228 736.398667,412.599 L736.742667,411.668 C738.685667,412.306 740.572667,413.015 742.568667,413.767 C745.250667,414.777 748.023667,415.82 751.351667,416.849 L751.025667,417.785 M878.750667,418.926 L878.617667,417.949 C879.658667,417.822 880.695667,417.691 881.719667,417.564 L881.859667,418.541 C880.832667,418.67 879.795667,418.799 878.750667,418.926 M760.107667,420.144 C759.045667,419.916 758.029667,419.685 757.054667,419.449 L757.314667,418.494 C758.279667,418.73 759.285667,418.959 760.340667,419.185 L760.107667,420.144 M856.953667,421.304 L856.851667,420.326 C861.873667,419.853 866.961667,419.316 872.404667,418.689 L872.533667,419.666 C867.080667,420.295 861.984667,420.832 856.953667,421.304 M838.211667,422.789 L838.142667,421.805 C839.187667,421.74 840.228667,421.672 841.263667,421.599 L841.340667,422.582 C840.303667,422.652 839.260667,422.72 838.211667,422.789 M791.215667,423.574 C785.599667,423.357 780.342667,422.998 775.586667,422.508 L775.701667,421.529 C780.431667,422.017 785.666667,422.373 791.260667,422.59 L791.215667,423.574 M816.289667,423.724 L816.264667,422.74 C821.381667,422.631 826.638667,422.435 831.894667,422.164 L831.953667,423.146 C826.685667,423.42 821.414667,423.613 816.289667,423.724 M800.615667,423.808 C799.549667,423.797 798.502667,423.779 797.480667,423.758 L797.502667,422.773 C798.525667,422.795 799.564667,422.812 800.629667,422.824 L800.615667,423.808" id="Fill-19" fill="#DAAB80"></path>
            <path d="M575.441667,279.47 C574.404667,279.379 573.373667,279.301 572.340667,279.24 L572.404667,278.256 C573.449667,278.318 574.494667,278.396 575.537667,278.492 L575.441667,279.47 M550.596667,280.388 L550.453667,279.412 C557.529667,278.506 562.355667,278.094 566.109667,278.076 L566.117667,279.06 C562.410667,279.08 557.623667,279.488 550.596667,280.388 M143.748667,280.961 L140.621667,280.922 L140.635667,279.937 L143.765667,279.976 L143.748667,280.961 M118.742667,281.107 L118.695667,280.123 C122.554667,279.965 127.055667,279.888 132.461667,279.888 L134.363667,279.89 L134.359667,280.877 L132.461667,280.873 C127.072667,280.873 122.586667,280.949 118.742667,281.107 M541.324667,281.66 L541.148667,280.689 L544.246667,280.25 L544.400667,281.226 L541.324667,281.66 M109.418667,281.759 L109.303667,280.781 C110.297667,280.674 111.338667,280.578 112.430667,280.49 L112.519667,281.472 C111.439667,281.558 110.408667,281.652 109.418667,281.759 M165.568667,282.086 C160.691667,281.55 155.453667,281.209 150.008667,281.07 L150.037667,280.086 C155.510667,280.226 160.779667,280.57 165.687667,281.107 L165.568667,282.086 M596.974667,282.888 C592.302667,281.955 586.824667,280.902 581.627667,280.181 L581.777667,279.209 C587.006667,279.931 592.502667,280.988 597.191667,281.925 L596.974667,282.888 M174.814667,283.388 C173.810667,283.213 172.791667,283.047 171.746667,282.888 L171.908667,281.916 C172.963667,282.076 173.994667,282.244 175.008667,282.422 L174.814667,283.388 M606.152667,284.756 L603.092667,284.131 L603.312667,283.168 L606.373667,283.793 L606.152667,284.756 M519.621667,284.785 L519.471667,283.81 C524.551667,283.105 529.375667,282.402 533.900667,281.74 L534.953667,281.588 L535.109667,282.56 L534.060667,282.715 C529.529667,283.375 524.705667,284.08 519.621667,284.785 M510.312667,286.031 L510.170667,285.056 L513.271667,284.65 L513.418667,285.625 L510.312667,286.031 M88.4536667,286.906 L88.0296667,286.006 C93.6646667,283.978 97.9086667,282.629 103.076667,281.676 L103.277667,282.642 C98.1816667,283.582 93.9846667,284.918 88.4536667,286.906 M488.523667,288.48 L488.418667,287.502 C493.465667,287.025 498.551667,286.476 503.965667,285.826 L504.096667,286.804 C498.670667,287.455 493.578667,288.004 488.523667,288.48 M195.810667,288.89 C190.775667,287.117 185.904667,285.714 180.916667,284.599 L181.158667,283.64 C186.187667,284.765 191.101667,286.181 196.174667,287.967 L195.810667,288.89 M627.631667,288.92 L627.515667,288.9 C622.644667,288.025 617.803667,287.101 612.277667,285.996 L612.490667,285.031 C618.012667,286.136 622.848667,287.058 627.711667,287.931 L627.824667,287.953 L627.631667,288.92 M479.156667,289.283 L479.068667,288.302 C480.113667,288.22 481.152667,288.138 482.187667,288.053 L482.277667,289.033 C481.242667,289.119 480.201667,289.201 479.156667,289.283 M79.4746667,289.73 L79.2016667,288.779 C80.2196667,288.515 81.2076667,288.238 82.1806667,287.947 L82.4926667,288.886 C81.5106667,289.181 80.5086667,289.463 79.4746667,289.73 M457.242667,290.455 L457.207667,289.47 C459.187667,289.404 461.232667,289.326 463.351667,289.238 C466.449667,289.107 469.635667,288.939 472.830667,288.736 L472.900667,289.718 C469.697667,289.922 466.502667,290.091 463.400667,290.222 C461.277667,290.312 459.226667,290.388 457.242667,290.455 M419.644667,290.644 L416.512667,290.59 L416.529667,289.603 L419.662667,289.658 L419.644667,290.644 M636.832667,290.656 C635.808667,290.457 634.785667,290.258 633.764667,290.062 L633.970667,289.097 C634.994667,289.293 636.019667,289.492 637.045667,289.693 L636.832667,290.656 M447.844667,290.705 L447.824667,289.718 C448.844667,289.701 449.887667,289.678 450.953667,289.652 L450.980667,290.637 C449.914667,290.664 448.869667,290.685 447.844667,290.705 M436.197667,290.818 C432.904667,290.81 429.644667,290.797 425.906667,290.746 L425.924667,289.76 C429.656667,289.812 432.900667,289.832 436.197667,289.834 C437.918667,289.834 439.705667,289.826 441.564667,289.808 L441.576667,290.795 C439.711667,290.81 437.924667,290.818 436.197667,290.818 M394.680667,291.076 L394.572667,290.095 C398.623667,289.697 402.869667,289.517 408.338667,289.517 C408.970667,289.517 409.613667,289.519 410.264667,289.523 L410.258667,290.508 C409.609667,290.504 408.970667,290.502 408.338667,290.502 C402.906667,290.502 398.697667,290.679 394.680667,291.076 M882.945667,291.687 C881.875667,291.596 880.836667,291.511 879.834667,291.439 L879.914667,290.457 C880.924667,290.531 881.965667,290.613 883.041667,290.707 L882.945667,291.687 M10.7366667,291.769 C9.44766667,291.695 8.14266667,291.617 6.81066667,291.535 L6.87966667,290.551 C8.21166667,290.635 9.51766667,290.713 10.7976667,290.785 L10.7366667,291.769 M858.117667,291.867 L857.933667,290.896 C862.428667,290.138 867.461667,289.894 873.640667,290.109 L873.601667,291.095 C867.498667,290.875 862.537667,291.123 858.117667,291.867 M204.478667,292.217 C203.531667,291.828 202.572667,291.441 201.607667,291.06 L202.012667,290.152 C202.978667,290.535 203.943667,290.924 204.896667,291.312 L204.478667,292.217 M20.1216667,292.269 L16.9926667,292.111 L17.0476667,291.129 L20.1766667,291.287 L20.1216667,292.269 M385.453667,292.429 L385.242667,291.467 C386.293667,291.261 387.322667,291.078 388.336667,290.912 L388.514667,291.882 C387.510667,292.047 386.492667,292.228 385.453667,292.429 M57.7286667,292.715 L57.6766667,291.732 C63.5786667,291.441 68.6386667,290.908 73.1446667,290.099 L73.3386667,291.068 C68.7856667,291.882 63.6786667,292.422 57.7286667,292.715 M42.0476667,292.965 C37.3146667,292.918 32.1916667,292.783 26.3796667,292.548 L26.4266667,291.564 C32.2246667,291.797 37.3386667,291.933 42.0586667,291.98 L42.0476667,292.965 M48.3206667,292.972 L48.3126667,291.988 C49.3816667,291.976 50.4226667,291.963 51.4356667,291.943 L51.4576667,292.928 C50.4436667,292.947 49.3946667,292.963 48.3206667,292.972 M904.705667,294.06 C901.484667,293.703 897.953667,293.301 894.092667,292.843 C892.381667,292.642 890.740667,292.459 889.162667,292.291 L889.281667,291.312 C890.861667,291.478 892.506667,291.666 894.219667,291.867 C898.082667,292.322 901.609667,292.726 904.826667,293.08 L904.705667,294.06 M849.166667,294.187 L848.807667,293.263 C849.851667,292.902 850.826667,292.59 851.795667,292.308 L852.103667,293.248 C851.152667,293.525 850.193667,293.834 849.166667,294.187 M658.242667,295.049 L654.246667,294.217 C650.414667,293.42 646.666667,292.638 642.953667,291.882 L643.175667,290.92 C646.886667,291.676 650.639667,292.457 654.470667,293.256 L658.467667,294.088 L658.242667,295.049 M914.041667,295.054 C913.049667,294.953 912.006667,294.845 910.928667,294.732 L911.045667,293.754 C912.121667,293.867 913.156667,293.974 914.152667,294.076 L914.041667,295.054 M935.912667,296.787 C935.763667,296.787 932.139667,296.775 920.271667,295.666 L920.375667,294.685 C932.166667,295.787 935.877667,295.802 935.912667,295.802 L935.912667,296.787 M667.418667,296.937 L664.357667,296.312 L664.580667,295.351 L667.639667,295.974 L667.418667,296.937 M364.531667,298.193 L364.207667,297.26 C365.494667,296.865 366.746667,296.463 368.012667,296.058 C371.334667,294.994 374.769667,293.894 379.127667,292.818 L379.392667,293.769 C375.070667,294.838 371.652667,295.933 368.345667,296.99 C367.078667,297.396 365.820667,297.799 364.531667,298.193 M224.611667,300.441 C223.615667,300.103 222.629667,299.746 221.687667,299.375 C218.142667,297.992 214.693667,296.525 211.359667,295.107 L210.191667,294.611 L210.623667,293.713 L211.789667,294.209 C215.115667,295.625 218.555667,297.09 222.086667,298.465 C223.017667,298.828 223.982667,299.183 224.963667,299.515 L224.611667,300.441 M355.465667,300.586 L355.232667,299.627 C356.289667,299.396 357.289667,299.164 358.248667,298.925 L358.514667,299.877 C357.545667,300.117 356.533667,300.355 355.465667,300.586 M688.910667,301.049 C684.010667,300.177 678.984667,299.234 673.549667,298.162 L673.761667,297.199 C679.193667,298.269 684.211667,299.211 689.103667,300.082 L688.910667,301.049 M828.810667,301.886 L828.511667,300.943 C832.023667,299.947 835.072667,298.894 837.568667,297.816 C839.490667,296.984 841.277667,296.215 842.980667,295.507 L843.400667,296.41 C841.701667,297.115 839.924667,297.881 838.002667,298.711 C835.465667,299.808 832.369667,300.877 828.810667,301.886 M698.158667,302.629 C697.121667,302.457 696.092667,302.287 695.072667,302.115 L695.258667,301.146 C696.275667,301.316 697.299667,301.488 698.340667,301.658 L698.158667,302.629 M233.687667,302.925 C232.646667,302.703 231.629667,302.465 230.629667,302.213 L230.898667,301.26 C231.887667,301.51 232.894667,301.744 233.918667,301.967 L233.687667,302.925 M333.762667,303.582 L333.668667,302.599 C339.586667,302.103 344.644667,301.508 349.133667,300.775 L349.310667,301.748 C344.793667,302.482 339.707667,303.082 333.762667,303.582 M819.680667,304.123 L819.453667,303.16 C820.492667,302.941 821.502667,302.716 822.490667,302.488 L822.740667,303.443 C821.746667,303.674 820.726667,303.902 819.680667,304.123 M324.388667,304.24 L324.324667,303.256 C325.392667,303.193 326.433667,303.129 327.441667,303.062 L327.514667,304.045 C326.502667,304.111 325.461667,304.176 324.388667,304.24 M302.488667,305.209 L302.447667,304.224 C306.717667,304.06 311.168667,303.877 315.810667,303.681 C316.580667,303.65 317.340667,303.615 318.084667,303.582 L318.135667,304.564 C317.390667,304.597 316.629667,304.633 315.859667,304.666 C311.213667,304.861 306.761667,305.045 302.488667,305.209 M293.097667,305.541 L293.058667,304.554 L296.189667,304.451 L296.226667,305.435 L293.097667,305.541 M255.482667,305.578 C249.664667,305.273 244.555667,304.775 239.863667,304.056 L240.031667,303.086 C244.685667,303.799 249.762667,304.291 255.543667,304.596 L255.482667,305.578 M719.830667,305.816 C714.648667,305.14 709.435667,304.398 704.340667,303.609 L704.506667,302.638 C709.598667,303.424 714.799667,304.166 719.970667,304.842 L719.830667,305.816 M264.892667,305.894 C263.828667,305.875 262.785667,305.853 261.754667,305.826 L261.785667,304.84 C262.810667,304.869 263.853667,304.89 264.912667,304.91 L264.892667,305.894 M271.328667,305.947 L271.164667,305.947 L271.164667,304.963 L271.328667,304.963 C275.939667,304.961 281.002667,304.889 286.802667,304.736 L286.832667,305.722 C281.019667,305.873 275.947667,305.947 271.328667,305.947 M729.148667,306.969 C728.103667,306.847 727.068667,306.722 726.041667,306.599 L726.174667,305.623 C727.197667,305.746 728.232667,305.869 729.277667,305.992 L729.148667,306.969 M798.006667,307.508 L797.883667,306.527 C803.266667,305.941 808.465667,305.207 813.334667,304.347 L813.525667,305.314 C808.631667,306.179 803.410667,306.918 798.006667,307.508 M788.631667,308.363 L788.550667,307.383 C789.598667,307.304 790.635667,307.22 791.666667,307.133 L791.760667,308.113 C790.726667,308.201 789.683667,308.285 788.631667,308.363 M751.011667,308.822 C745.789667,308.566 740.525667,308.174 735.379667,307.656 L735.488667,306.676 C740.617667,307.193 745.861667,307.584 751.066667,307.838 L751.011667,308.822 M760.418667,309.137 C759.377667,309.117 758.332667,309.093 757.281667,309.062 L757.314667,308.078 C758.361667,308.109 759.400667,308.133 760.439667,308.152 L760.418667,309.137 M766.691667,309.189 L766.687667,308.205 C771.914667,308.195 777.170667,308.052 782.312667,307.779 L782.369667,308.763 C777.211667,309.037 771.935667,309.179 766.691667,309.189" id="Fill-20" fill="#DAAB80"></path>
            <path d="M115.345667,186.146 L115.275667,185.164 C116.308667,185.096 117.349667,185.039 118.412667,184.996 L118.459667,185.98 C117.404667,186.023 116.369667,186.08 115.345667,186.146 M149.629667,187.308 C143.574667,186.761 138.475667,186.384 134.049667,186.156 L134.107667,185.172 C138.547667,185.402 143.658667,185.781 149.730667,186.33 L149.629667,187.308 M158.968667,188.205 C157.904667,188.097 156.869667,187.996 155.855667,187.896 L155.963667,186.918 C156.978667,187.015 158.017667,187.119 159.076667,187.226 L158.968667,188.205 M93.6706667,188.758 L93.5106667,187.783 L95.0196667,187.568 C100.254667,186.818 104.773667,186.172 109.023667,185.711 L109.142667,186.689 C104.912667,187.148 100.398667,187.793 95.1766667,188.541 L93.6706667,188.758 M75.0416667,191.203 L74.9186667,190.224 C75.9536667,190.109 76.9886667,189.99 78.0276667,189.867 L78.1566667,190.843 C77.1156667,190.967 76.0766667,191.086 75.0416667,191.203 M515.869667,191.381 C510.525667,191.336 505.295667,191.332 500.211667,191.375 L500.201667,190.388 C505.289667,190.348 510.529667,190.353 515.877667,190.396 L515.869667,191.381 M190.093667,191.469 C185.592667,191.045 181.047667,190.58 176.590667,190.086 L174.519667,189.857 L174.642667,188.879 L176.711667,189.107 C181.162667,189.601 185.701667,190.066 190.195667,190.488 L190.093667,191.469 M525.264667,191.5 L522.131667,191.451 L522.144667,190.467 L525.281667,190.513 L525.264667,191.5 M481.414667,191.637 L481.394667,190.652 L484.525667,190.599 L484.549667,191.584 L481.414667,191.637 M459.476667,192.066 L459.453667,191.082 C464.810667,190.967 470.051667,190.859 475.125667,190.763 L475.144667,191.75 C470.072667,191.844 464.834667,191.951 459.476667,192.066 M199.457667,192.293 C198.418667,192.207 197.379667,192.119 196.332667,192.029 L196.430667,191.049 C197.471667,191.138 198.510667,191.226 199.547667,191.312 L199.457667,192.293 M556.568667,192.367 C551.250667,192.166 545.984667,191.992 540.912667,191.849 L540.941667,190.865 C546.019667,191.007 551.289667,191.181 556.611667,191.382 L556.568667,192.367 M440.676667,192.492 L440.648667,191.508 L443.781667,191.433 L443.808667,192.418 L440.676667,192.492 M565.967667,192.748 L562.840667,192.615 L562.883667,191.631 L566.015667,191.764 L565.967667,192.748 M418.742667,193.031 L418.715667,192.045 C423.941667,191.914 429.177667,191.785 434.383667,191.658 L434.408667,192.642 C429.205667,192.769 423.967667,192.898 418.742667,193.031 M53.1786667,193.136 L53.1016667,192.156 C58.4886667,191.785 63.7306667,191.353 68.6956667,190.871 L68.8036667,191.849 C63.8286667,192.334 58.5746667,192.767 53.1786667,193.136 M399.941667,193.511 L399.914667,192.525 L403.045667,192.445 L403.072667,193.429 L399.941667,193.511 M378.006667,194.074 L377.976667,193.09 L393.644667,192.687 L393.676667,193.672 L378.006667,194.074 M34.3856667,194.156 L34.3386667,193.172 C35.3576667,193.131 36.4026667,193.086 37.4716667,193.037 L37.5196667,194.021 C36.4476667,194.068 35.4046667,194.113 34.3856667,194.156 M230.718667,194.303 C225.478667,194.056 220.213667,193.765 215.076667,193.435 L215.146667,192.453 C220.277667,192.781 225.535667,193.072 230.771667,193.318 L230.718667,194.303 M597.250667,194.359 C592.152667,194.054 586.928667,193.763 581.611667,193.49 L581.670667,192.506 C586.984667,192.781 592.218667,193.072 597.312667,193.377 L597.250667,194.359 M359.203667,194.543 L359.176667,193.558 L362.308667,193.482 L362.336667,194.467 L359.203667,194.543 M12.4106667,194.683 L12.4106667,193.699 C12.4716667,193.699 18.6466667,193.697 28.0806667,193.398 L28.1116667,194.381 C18.6646667,194.681 12.4716667,194.683 12.4106667,194.683 M240.111667,194.695 C239.072667,194.658 238.029667,194.617 236.978667,194.576 L237.025667,193.592 C238.072667,193.633 239.115667,193.674 240.152667,193.711 L240.111667,194.695 M606.629667,194.941 L603.502667,194.742 L603.572667,193.759 L606.701667,193.959 L606.629667,194.941 M337.258667,195.037 L337.234667,194.05 C342.060667,193.955 347.316667,193.838 352.908667,193.707 L352.933667,194.691 C347.340667,194.822 342.084667,194.939 337.258667,195.037 M318.429667,195.324 L318.422667,194.34 C319.416667,194.332 320.461667,194.322 321.558667,194.31 L321.570667,195.295 C320.473667,195.306 319.426667,195.316 318.429667,195.324 M271.435667,195.392 C266.023667,195.346 260.898667,195.267 255.771667,195.156 L255.795667,194.17 C260.918667,194.283 266.037667,194.361 271.443667,194.408 L271.435667,195.392 M296.496667,195.416 L296.492667,194.431 L301.920667,194.404 C305.545667,194.385 308.959667,194.365 312.152667,194.359 L312.154667,195.344 C308.963667,195.349 305.549667,195.369 301.926667,195.388 L296.496667,195.416 M280.832667,195.443 L277.701667,195.433 L277.705667,194.449 L280.838667,194.459 L280.832667,195.443 M637.863667,197.248 C632.941667,196.832 627.687667,196.418 622.254667,196.017 L622.334667,195.035 C627.771667,195.435 633.029667,195.848 637.957667,196.263 L637.863667,197.248 M647.219667,198.08 C646.207667,197.984 645.170667,197.888 644.101667,197.793 L644.201667,196.812 C645.269667,196.908 646.310667,197.004 647.324667,197.099 L647.219667,198.08 M925.394667,199.443 L925.215667,198.472 C926.308667,198.293 927.344667,198.134 928.320667,197.994 L928.478667,198.967 C927.510667,199.107 926.480667,199.264 925.394667,199.443 M678.166667,202.347 C671.959667,201.189 667.064667,200.373 662.765667,199.775 L662.918667,198.8 C667.236667,199.4 672.144667,200.218 678.369667,201.381 L678.166667,202.347 M687.375667,204.119 L684.308667,203.519 L684.517667,202.554 L687.586667,203.156 L687.375667,204.119 M904.201667,204.406 L903.869667,203.47 C908.644667,201.972 913.748667,200.672 919.043667,199.599 L919.261667,200.562 C914.006667,201.627 908.935667,202.92 904.201667,204.406 M886.361667,210.076 L886.115667,209.119 C887.160667,208.881 888.166667,208.637 889.135667,208.384 L889.412667,209.334 C888.435667,209.588 887.418667,209.836 886.361667,210.076 M718.050667,210.175 C712.428667,209.115 706.894667,208.017 702.701667,207.179 L702.918667,206.217 C707.109667,207.052 712.638667,208.15 718.254667,209.211 L718.050667,210.175 M727.271667,211.865 C726.244667,211.683 725.219667,211.5 724.197667,211.314 L724.394667,210.346 C725.414667,210.533 726.435667,210.717 727.465667,210.896 L727.271667,211.865 M864.709667,213.666 L864.572667,212.689 C870.285667,211.988 875.482667,211.209 880.012667,210.371 L880.215667,211.338 C875.660667,212.179 870.443667,212.963 864.709667,213.666 M845.988667,215.537 L845.900667,214.556 C846.945667,214.472 847.984667,214.385 849.017667,214.297 L849.113667,215.277 C848.078667,215.367 847.037667,215.455 845.988667,215.537 M758.275667,216.365 C753.428667,215.859 748.197667,215.193 742.726667,214.386 L742.887667,213.414 C748.344667,214.219 753.558667,214.883 758.386667,215.387 L758.275667,216.365 M824.084667,216.918 L824.033667,215.933 C829.365667,215.683 834.621667,215.379 839.656667,215.027 L839.732667,216.008 C834.691667,216.361 829.426667,216.668 824.084667,216.918 M767.652667,217.183 C766.613667,217.111 765.568667,217.033 764.523667,216.947 L764.613667,215.966 C765.656667,216.051 766.693667,216.131 767.728667,216.201 L767.652667,217.183 M805.281667,217.564 L805.256667,216.58 C806.299667,216.556 807.340667,216.531 808.387667,216.504 L808.414667,217.488 C807.367667,217.515 806.324667,217.541 805.281667,217.564 M788.969667,217.748 C787.064667,217.748 785.185667,217.74 783.332667,217.724 L783.343667,216.74 C788.381667,216.783 793.675667,216.767 798.994667,216.691 L799.009667,217.677 C795.635667,217.724 792.258667,217.748 788.969667,217.748" id="Fill-21" fill="#DAAB80"></path>
            <path d="M195.855667,73.619 L195.713667,72.642 C199.691667,72.134 203.724667,71.886 208.047667,71.886 C209.164667,71.886 210.293667,71.902 211.422667,71.935 L211.390667,72.922 C210.271667,72.888 209.158667,72.871 208.047667,72.871 C203.771667,72.871 199.783667,73.115 195.855667,73.619 Z M230.019667,74.601 C228.978667,74.459 227.947667,74.324 226.926667,74.195 L227.062667,73.218 C228.092667,73.347 229.127667,73.484 230.170667,73.627 L230.019667,74.601 Z M186.701667,75.304 L186.441667,74.351 C187.465667,74.103 188.488667,73.877 189.508667,73.67 L189.728667,74.633 C188.722667,74.836 187.711667,75.06 186.701667,75.304 Z M251.611667,78.06 C246.471667,77.181 241.156667,76.273 236.199667,75.506 L236.369667,74.535 C241.332667,75.302 246.652667,76.211 251.797667,77.09 L251.611667,78.06 Z M270.121667,81.133 L269.818667,81.084 C268.881667,80.937 267.953667,80.789 267.031667,80.64 L267.207667,79.67 C268.127667,79.818 269.055667,79.967 269.990667,80.113 L270.293667,80.16 L270.121667,81.133 Z M156.027667,81.482 L155.877667,80.508 C161.709667,79.703 166.896667,78.871 171.297667,78.033 L171.506667,78.998 C167.086667,79.84 161.879667,80.675 156.027667,81.482 Z M348.299667,82.478 L348.264667,81.494 C349.334667,81.461 350.381667,81.437 351.406667,81.428 L351.418667,82.412 C350.400667,82.424 349.359667,82.445 348.299667,82.478 Z M373.379667,82.664 C365.939667,82.523 360.740667,82.461 357.689667,82.433 L357.699667,81.447 C360.752667,81.476 365.957667,81.539 373.400667,81.679 L373.379667,82.664 Z M146.695667,82.681 L146.568667,81.703 C147.615667,81.578 148.652667,81.451 149.674667,81.324 L149.810667,82.299 C148.785667,82.428 147.748667,82.554 146.695667,82.681 Z M392.197667,83.088 L389.060667,83.008 L389.088667,82.023 L392.224667,82.101 L392.197667,83.088 Z M291.933667,83.551 C286.738667,83.209 281.488667,82.693 276.328667,82.019 L276.471667,81.045 C281.607667,81.715 286.836667,82.226 292.006667,82.568 L291.933667,83.551 Z M414.135667,83.746 C408.742667,83.562 403.488667,83.4 398.467667,83.258 L398.498667,82.273 C403.525667,82.416 408.777667,82.578 414.176667,82.763 L414.135667,83.746 Z M317.023667,84.002 L316.994667,83.017 C322.625667,82.871 327.828667,82.592 332.615667,82.312 L332.678667,83.295 C327.885667,83.576 322.670667,83.855 317.023667,84.002 Z M309.115667,84.107 L307.611667,84.103 L307.615667,83.119 L309.115667,83.123 L310.744667,83.117 L310.748667,84.103 L309.115667,84.107 Z M432.931667,84.461 L429.799667,84.332 L429.844667,83.347 L432.978667,83.476 L432.931667,84.461 Z M454.847667,85.502 C449.855667,85.234 444.586667,84.976 439.195667,84.732 L439.246667,83.75 C444.639667,83.992 449.912667,84.252 454.906667,84.519 L454.847667,85.502 Z M115.508667,85.763 L115.418667,84.781 C120.765667,84.347 126.012667,83.879 131.010667,83.388 L131.115667,84.369 C126.111667,84.859 120.861667,85.328 115.508667,85.763 Z M106.129667,86.482 L106.049667,85.5 L109.174667,85.269 L109.254667,86.252 L106.129667,86.482 Z M473.617667,86.633 L470.490667,86.428 L470.564667,85.443 L473.693667,85.65 L473.617667,86.633 Z M74.8386667,88.31 L74.7896667,87.326 C79.9416667,87.097 85.2076667,86.826 90.4356667,86.521 L90.5006667,87.504 C85.2656667,87.808 79.9966667,88.08 74.8386667,88.31 Z M495.480667,88.367 C490.701667,87.918 485.449667,87.482 479.869667,87.074 L479.949667,86.092 C485.537667,86.502 490.795667,86.937 495.582667,87.386 L495.480667,88.367 Z M65.4286667,88.689 L65.3876667,87.705 L68.5136667,87.588 L68.5586667,88.572 L65.4286667,88.689 Z M27.8066667,89.279 C26.7546667,89.271 25.7096667,89.258 24.6746667,89.246 L24.6876667,88.26 C25.7226667,88.273 26.7636667,88.285 27.8146667,88.295 L27.8066667,89.279 Z M34.0766667,89.301 L34.0766667,88.316 C39.0686667,88.312 44.3386667,88.254 49.7306667,88.146 L49.7546667,89.131 C44.3516667,89.24 39.0766667,89.297 34.0766667,89.301 Z M514.139667,90.496 C513.135667,90.351 512.101667,90.213 511.043667,90.074 L511.185667,89.099 C512.246667,89.236 513.285667,89.379 514.295667,89.521 L514.139667,90.496 Z M535.711667,94.136 C531.295667,93.398 526.498667,92.564 521.041667,91.588 L520.316667,91.461 L520.506667,90.492 L521.232667,90.621 C526.687667,91.597 531.484667,92.429 535.892667,93.166 L535.711667,94.136 Z M554.250667,97.002 C553.224667,96.859 552.193667,96.713 551.152667,96.562 L551.310667,95.588 C552.347667,95.738 553.379667,95.885 554.400667,96.027 L554.250667,97.002 Z M576.006667,99.533 C570.795667,99.053 565.705667,98.494 560.453667,97.828 L560.592667,96.851 C565.834667,97.517 570.910667,98.074 576.109667,98.553 L576.006667,99.533 Z M594.740667,100.912 C593.687667,100.853 592.644667,100.791 591.617667,100.726 L591.685667,99.744 C592.711667,99.808 593.754667,99.871 594.803667,99.929 L594.740667,100.912 Z M616.631667,101.883 C610.861667,101.685 605.746667,101.474 600.994667,101.244 L601.049667,100.26 C605.795667,100.49 610.904667,100.701 616.670667,100.898 L616.631667,101.883 Z M635.369667,102.746 C634.330667,102.668 633.293667,102.594 632.254667,102.527 L632.326667,101.545 C633.365667,101.613 634.410667,101.685 635.453667,101.763 L635.369667,102.746 Z M923.795667,103.398 L923.701667,102.416 C933.258667,101.597 939.347667,101.119 939.347667,101.119 L939.433667,102.101 C939.433667,102.101 933.347667,102.58 923.795667,103.398 Z M914.431667,104.213 L914.334667,103.232 L917.457667,102.957 L917.553667,103.939 L914.431667,104.213 Z M657.131667,105.088 C651.603667,104.342 646.525667,103.75 641.603667,103.281 L641.709667,102.301 C646.644667,102.771 651.736667,103.365 657.275667,104.111 L657.131667,105.088 Z M883.242667,107.14 L883.131667,106.162 C888.465667,105.629 893.709667,105.125 898.728667,104.654 L898.830667,105.635 C893.816667,106.103 888.568667,106.609 883.242667,107.14 Z M675.676667,107.896 C674.646667,107.726 673.617667,107.558 672.586667,107.392 L672.764667,106.422 C673.795667,106.588 674.824667,106.756 675.855667,106.926 L675.676667,107.896 Z M873.896667,108.094 L873.785667,107.113 L876.900667,106.791 L877.014667,107.769 L873.896667,108.094 Z M697.236667,111.636 C692.111667,110.722 686.976667,109.81 681.842667,108.931 L682.029667,107.963 C687.166667,108.842 692.303667,109.754 697.428667,110.668 L697.236667,111.636 Z M842.830667,111.74 L842.666667,110.767 C845.418667,110.359 848.201667,109.986 850.939667,109.658 C853.324667,109.371 855.750667,109.088 858.209667,108.808 L858.334667,109.787 C855.877667,110.066 853.453667,110.349 851.072667,110.635 C848.344667,110.963 845.572667,111.334 842.830667,111.74 Z M833.596667,113.248 L833.400667,112.279 C834.414667,112.099 835.439667,111.922 836.484667,111.746 L836.666667,112.717 C835.631667,112.89 834.603667,113.068 833.596667,113.248 Z M715.705667,114.892 L712.629667,114.361 L712.816667,113.392 L715.892667,113.924 L715.705667,114.892 Z M737.334667,118.316 C732.611667,117.652 727.555667,116.873 721.869667,115.931 L722.049667,114.963 C727.724667,115.9 732.775667,116.679 737.488667,117.342 L737.334667,118.316 Z M802.924667,119.105 L802.744667,118.135 C808.025667,117.267 813.355667,116.193 818.060667,115.244 L818.277667,116.209 C813.564667,117.158 808.222667,118.234 802.924667,119.105 Z M793.609667,120.408 L793.484667,119.429 C794.525667,119.312 795.555667,119.185 796.578667,119.051 L796.722667,120.027 C795.693667,120.162 794.656667,120.289 793.609667,120.408 Z M756.006667,120.521 L755.613667,120.486 C754.705667,120.4 753.795667,120.312 752.883667,120.22 L752.996667,119.24 C753.904667,119.332 754.810667,119.42 755.715667,119.506 L756.107667,119.541 L756.006667,120.521 Z M775.180667,121.445 C771.043667,121.461 766.719667,121.301 762.260667,121.011 L762.332667,120.029 C766.767667,120.318 771.072667,120.447 775.180667,120.461 C776.109667,120.461 777.029667,120.451 777.933667,120.437 L777.953667,121.422 C777.041667,121.437 776.117667,121.445 775.180667,121.445 L775.180667,121.445 Z" id="Fill-22" fill="#DAAB80"></path>
            <path d="M584.050667,435.02 C578.963667,434.866 575.237667,433.829 573.832667,431.66 C573.544667,431.215 573.481667,430.737 573.606667,430.233 C573.710667,430.321 573.816667,430.407 573.925667,430.491 C573.948667,430.509 573.972667,430.527 573.995667,430.544 C573.997667,430.545 573.998667,430.547 574.000667,430.548 C574.010667,430.556 574.021667,430.564 574.032667,430.572 C574.033667,430.573 574.033667,430.573 574.034667,430.573 C574.045667,430.582 574.056667,430.59 574.068667,430.599 C574.070667,430.6 574.072667,430.602 574.074667,430.603 C574.083667,430.61 574.092667,430.617 574.101667,430.623 C574.104667,430.625 574.107667,430.627 574.110667,430.629 C574.120667,430.637 574.131667,430.645 574.142667,430.653 C574.144667,430.654 574.146667,430.656 574.149667,430.658 C574.157667,430.664 574.166667,430.67 574.174667,430.676 C574.178667,430.679 574.182667,430.682 574.186667,430.685 C574.194667,430.69 574.202667,430.696 574.210667,430.701 C574.213667,430.704 574.216667,430.706 574.219667,430.708 C574.229667,430.715 574.240667,430.723 574.250667,430.73 C574.254667,430.733 574.259667,430.736 574.263667,430.739 C574.269667,430.744 574.276667,430.748 574.282667,430.753 C574.287667,430.756 574.292667,430.76 574.297667,430.763 C574.306667,430.769 574.315667,430.775 574.324667,430.781 C574.330667,430.785 574.335667,430.789 574.341667,430.793 C574.347667,430.797 574.353667,430.801 574.359667,430.805 C574.364667,430.809 574.370667,430.813 574.375667,430.816 C574.381667,430.82 574.386667,430.824 574.392667,430.828 C574.401667,430.834 574.410667,430.84 574.420667,430.846 C574.425667,430.85 574.431667,430.854 574.436667,430.857 C574.442667,430.861 574.448667,430.865 574.454667,430.869 C574.459667,430.873 574.465667,430.876 574.470667,430.879 C574.476667,430.883 574.481667,430.887 574.487667,430.891 C574.496667,430.896 574.503667,430.902 574.512667,430.907 C574.519667,430.912 574.526667,430.916 574.533667,430.921 C574.539667,430.924 574.544667,430.928 574.549667,430.931 C574.555667,430.935 574.561667,430.939 574.567667,430.942 C574.573667,430.947 574.580667,430.951 574.586667,430.955 C574.593667,430.959 574.601667,430.964 574.608667,430.969 C574.615667,430.973 574.623667,430.978 574.631667,430.983 C574.636667,430.986 574.641667,430.989 574.646667,430.993 C574.653667,430.997 574.660667,431.001 574.667667,431.005 C574.671667,431.008 574.675667,431.011 574.680667,431.014 C574.691667,431.02 574.701667,431.027 574.712667,431.034 C574.716667,431.036 574.720667,431.038 574.724667,431.041 C574.732667,431.046 574.740667,431.051 574.748667,431.056 C574.752667,431.058 574.756667,431.06 574.760667,431.063 C574.772667,431.07 574.783667,431.077 574.795667,431.084 C575.840667,432.694 577.833667,433.698 579.769667,433.698 C580.954667,433.698 582.118667,433.322 583.031667,432.478 C583.274667,432.712 583.534667,432.909 583.808667,433.073 C583.892667,433.735 583.973667,434.385 584.050667,435.02" id="Fill-288" fill="#C0A383"></path>
            <path d="M678.769667,471.228 C678.407667,471.114 678.052667,471.005 677.705667,470.9 C677.509667,467.491 677.288667,463.79 677.049667,459.859 L678.090667,459.802 C678.341667,463.882 678.568667,467.713 678.769667,471.228 M676.683667,453.949 L676.498667,450.996 L677.537667,450.937 L677.724667,453.89 L676.683667,453.949" id="Fill-289" fill="#B98866"></path>
            <path d="M631.162667,401.56 C626.392667,401.101 621.465667,400.886 615.656667,400.886 L615.582667,399.902 L615.656667,399.902 C621.502667,399.902 626.465667,400.117 631.267667,400.58 L631.162667,401.56" id="Fill-290" fill="#B98866"></path>
            <path d="M856.953667,421.304 L856.851667,420.326 C858.928667,420.131 861.015667,419.924 863.134667,419.705 C864.415667,419.572 865.708667,419.435 867.017667,419.293 C866.738667,419.664 866.461667,420.027 866.194667,420.373 C865.063667,420.494 863.943667,420.612 862.832667,420.726 C860.852667,420.929 858.897667,421.122 856.953667,421.304" id="Fill-293" fill="#B98866"></path>
            <path d="M792.046667,407.313 L792.027667,406.955 C791.904667,404.447 791.842667,401.82 791.842667,399.148 C791.842667,397.117 791.879667,395.023 791.945667,392.922 L792.992667,392.953 C792.924667,395.043 792.887667,397.127 792.883667,399.148 C792.883667,401.703 792.942667,404.213 793.054667,406.617 C792.721667,406.85 792.385667,407.082 792.046667,407.313" id="Fill-295" fill="#B98866"></path>
            <path d="M760.107667,420.144 C759.045667,419.916 758.029667,419.685 757.054667,419.449 L757.314667,418.494 C758.279667,418.73 759.285667,418.959 760.340667,419.185 L760.107667,420.144 M751.025667,417.785 C748.268667,416.934 745.896667,416.073 743.644667,415.232 C743.698667,414.895 743.745667,414.56 743.783667,414.224 C746.095667,415.09 748.523667,415.974 751.351667,416.849 L751.025667,417.785 M697.912667,409.717 L696.228667,409.715 L696.232667,408.728 L697.912667,408.73 C698.662667,408.73 699.410667,408.729 700.156667,408.727 C700.229667,409.056 700.303667,409.384 700.378667,409.712 C699.558667,409.715 698.736667,409.717 697.912667,409.717" id="Fill-296" fill="#B98866"></path>
            <path d="M652.077667,239.924 C651.580667,238.548 651.326667,237.057 651.223667,235.591 C651.329667,237.057 651.580667,238.549 652.077667,239.924" id="Fill-299" fill="#D1A56E"></path>
            <path d="M677.396667,226.823 C677.392667,226.77 677.388667,226.717 677.384667,226.665 C677.385667,226.665 677.385667,226.665 677.385667,226.665 C677.389667,226.717 677.392667,226.77 677.396667,226.823" id="Fill-300" fill="#CFA46B"></path>
            <path d="M727.969667,222.001 C727.858667,221.704 727.781667,221.403 727.734667,221.099 C727.781667,221.403 727.858667,221.704 727.969667,222.001" id="Fill-302" fill="#D1A56E"></path>
            <path d="M647.683667,262.929 C647.616667,262.828 647.445667,262.572 647.123667,262.087 C647.382667,262.475 647.603667,262.808 647.683667,262.929 M647.123667,262.087 C647.007667,261.913 646.884667,261.729 646.763667,261.547 C646.738667,261.508 646.712667,261.47 646.687667,261.432 C646.341667,260.913 646.029667,260.445 645.979667,260.37 C646.019667,260.43 646.234667,260.752 646.722667,261.485 C646.876667,261.716 647.009667,261.916 647.123667,262.087" id="Fill-305" fill="#BA633E"></path>
            <path d="M595.010667,319.09 C595.076667,318.642 595.145667,318.194 595.217667,317.747 C595.145667,318.194 595.076667,318.641 595.010667,319.09" id="Fill-307" fill="#D1A56E"></path>
            <path d="M763.371667,231.099 C763.303667,230.89 763.250667,230.679 763.212667,230.469 C763.250667,230.68 763.303667,230.89 763.371667,231.099" id="Fill-310" fill="#D1A56E"></path>
            <path d="M633.720667,362.306 C633.694667,362.188 633.645667,361.98 633.597667,361.76 C633.593667,361.743 633.589667,361.726 633.586667,361.71 L633.586667,361.706 C633.654667,362.012 633.697667,362.202 633.720667,362.306" id="Fill-317" fill="#BA633E"></path>
            <line x1="633.586667" y1="361.706" x2="633.586667" y2="361.706" id="Fill-318" fill="#BA633E"></line>
            <polyline id="Fill-320" fill="#BA633E" points="633.740667 362.393 633.734667 362.368 633.740667 362.393"></polyline>
            <path d="M633.586667,361.706 L633.586667,361.706 C633.572667,361.649 633.559667,361.592 633.546667,361.536 C633.498667,361.325 633.456667,361.128 633.433667,361.017 C633.456667,361.126 633.504667,361.341 633.586667,361.706" id="Fill-321" fill="#BA633E"></path>
            <path d="M601.633667,330.382 L601.631667,330.382 C603.134667,330.229 603.664667,330.175 603.665669,330.175 C603.667667,330.175 602.500667,330.294 601.633667,330.382" id="Fill-324" fill="#BA633E"></path>
            <path d="M600.716667,330.476 C600.714667,330.476 601.120667,330.434 601.631667,330.382 C600.972667,330.45 600.717667,330.476 600.716667,330.476" id="Fill-325" fill="#BA633E"></path>
            <polyline id="Fill-326" fill="#BA633E" points="601.633667 330.382 601.631667 330.382 601.633667 330.382"></polyline>
            <path d="M619.396667,363.897 C619.327667,363.84 619.095667,363.649 618.907667,363.496 C618.832667,363.435 618.764667,363.38 618.717667,363.342 C618.688667,363.319 618.667667,363.302 618.656667,363.294 C618.675667,363.302 618.716667,363.338 618.795667,363.402 C618.807667,363.411 618.819667,363.421 618.832667,363.431 C619.191667,363.727 619.353667,363.858 619.396667,363.897" id="Fill-330" fill="#BA633E"></path>
        </g>
    </g>
</svg>