<?xml version="1.0" encoding="UTF-8"?>
<svg width="282px" height="600px" viewBox="0 0 282 600" version="1.1" xmlns="http://www.w3.org/2000/svg" xmlns:xlink="http://www.w3.org/1999/xlink">
    <!-- Generator: Sketch 63.1 (92452) - https://sketch.com -->
    <title>537</title>
    <desc>Created with Sketch.</desc>
    <g id="Page-1" stroke="none" stroke-width="1" fill="none" fill-rule="evenodd">
        <g id="537">
            <path d="M234.746,217.764 C227.561,208.065 231.154,194.772 239.416,185.073 C247.678,175.374 242.649,173.218 242.649,173.218 C235.463,102.087 208.88,62.571 208.88,62.571 C225.804,29.758 223.186,10.954 212.65,0 L15.573,0 L15.573,600 L91.587,600 C88.623,600 77.12,581.689 77.622,564.435 C78.384,538.211 109.055,509.83 124.502,492.226 C139.951,474.623 117.899,460.79 175.514,463.665 C230.339,466.401 237.979,428.998 234.746,412.115 C231.513,395.231 234.746,388.406 247.32,375.473 C259.894,362.539 241.213,353.199 241.213,353.199 C250.912,350.323 250.193,350.323 250.193,350.323 C262.766,346.015 253.067,330.209 253.067,330.209 C246.96,302.905 260.611,303.623 272.467,299.313 C284.322,295.001 282.525,276.68 277.137,269.854 C271.747,263.028 241.931,227.464 234.746,217.764" id="Fill-3" fill="#BF8B8B"></path>
            <path d="M0.977,0 C0.977,0 66.283,1.361 105.739,58.503 C105.739,58.503 234.31,71.429 179.208,192.518 C179.208,192.518 190.263,214.796 174.957,236.225 C174.957,236.225 174.446,241.327 172.661,244.133 C172.661,244.133 177.252,245.153 181.079,239.796 C184.906,234.439 185.671,244.898 173.171,253.316 C173.171,253.316 185.161,278.827 196.64,296.429 C208.12,314.03 205.314,332.908 183.375,331.122 C183.375,331.122 165.008,328.316 173.426,350.51 C173.426,350.51 182.1,364.286 158.63,370.153 C158.63,370.153 151.998,371.174 149.191,370.153 C146.385,369.133 158.63,372.959 160.926,373.214 C163.222,373.47 166.538,379.337 165.773,382.908 C165.008,386.479 163.987,387.245 160.926,389.03 C157.865,390.816 149.191,394.643 150.722,402.041 C152.252,409.438 160.416,439.796 122.406,439.541 C84.396,439.286 72.916,431.888 62.456,433.163 C51.998,434.438 44.089,444.643 39.752,456.633 C35.416,468.622 22.406,498.47 24.446,511.734 C26.487,525 38.732,554.082 58.12,569.388 C77.508,584.694 87.712,600 87.712,600 L0.977,600 L0.977,0" id="Fill-4" fill="#AB7373"></path>
        </g>
    </g>
</svg>